<?xml version="1.0" standalone="no"?>
<!DOCTYPE svg PUBLIC "-//W3C//DTD SVG 20010904//EN"
 "http://www.w3.org/TR/2001/REC-SVG-20010904/DTD/svg10.dtd">
<svg version="1.0" xmlns="http://www.w3.org/2000/svg"
 width="500.000000pt" height="500.000000pt" viewBox="0 0 500.000000 500.000000"
 preserveAspectRatio="xMidYMid meet">

<g transform="translate(0.000000,500.000000) scale(0.100000,-0.100000)"
fill="#000000" stroke="none">
<path d="M2793 4770 c-42 -25 -60 -63 -70 -141 l-8 -63 -85 -26 c-182 -57
-259 -100 -368 -204 -67 -63 -124 -146 -166 -239 -53 -118 -61 -158 -60 -312
1 -183 17 -222 107 -260 20 -8 41 -24 47 -34 6 -12 10 -103 10 -228 0 -225 9
-311 37 -351 18 -25 50 -71 91 -133 37 -56 85 -190 90 -251 4 -47 1 -62 -17
-83 -30 -40 -36 -87 -16 -127 59 -111 57 -105 43 -134 -23 -47 -39 -51 -107
-20 -34 15 -81 33 -104 40 l-42 12 -7 81 c-11 121 -51 214 -146 337 -92 120
-188 178 -350 212 -154 32 -399 -8 -487 -81 -81 -66 -146 -183 -166 -299 -15
-91 -7 -257 17 -318 19 -51 16 -66 -28 -120 -19 -24 -20 -31 -9 -51 8 -15 11
-53 9 -107 -3 -84 -3 -84 25 -98 16 -8 30 -19 32 -25 23 -83 38 -107 73 -118
26 -7 50 -7 82 0 41 10 46 9 60 -12 26 -38 68 -74 113 -95 73 -35 147 -42 332
-33 l170 9 60 -33 c67 -37 151 -59 265 -70 41 -4 86 -12 99 -17 l24 -9 -7
-152 c-8 -179 -21 -320 -37 -383 -9 -36 -21 -52 -58 -79 -25 -19 -54 -42 -64
-52 -26 -25 -67 -108 -67 -135 0 -13 -4 -27 -8 -33 -4 -6 -66 -10 -148 -10
-163 0 -166 -1 -210 -92 -23 -45 -26 -62 -21 -109 14 -135 65 -152 517 -175
384 -19 438 -15 470 33 12 20 18 91 20 231 0 4 22 7 48 7 55 0 273 -26 317
-38 l30 -8 6 -110 c3 -60 11 -118 16 -129 27 -49 550 -135 825 -135 80 0 129
4 134 11 3 6 29 26 58 45 28 18 60 40 70 48 43 34 4 134 -62 162 -21 8 -77 26
-127 38 -49 13 -106 30 -125 38 -34 14 -36 19 -47 84 -25 145 -64 228 -138
293 -37 32 -37 32 -22 69 37 95 67 300 67 463 l0 106 73 6 c106 7 210 44 302
107 79 54 168 303 169 472 1 43 4 78 9 78 4 0 16 9 27 20 27 27 27 102 0 206
-12 43 -18 92 -15 108 4 24 -2 38 -35 77 -22 26 -40 54 -40 62 0 8 11 48 23
88 42 130 65 221 87 334 36 187 47 213 100 241 25 13 55 31 66 41 48 39 94
172 94 267 0 72 -17 105 -90 176 -55 54 -71 86 -95 194 -17 76 -21 81 -62 70
-27 -7 -32 -20 -43 -112 -12 -95 -32 -125 -144 -216 -91 -74 -118 -181 -70
-281 31 -65 25 -126 -23 -235 -41 -93 -42 -98 -52 -260 -6 -91 -11 -171 -11
-177 0 -7 -12 -13 -26 -13 -63 0 -71 -16 -118 -225 -37 -164 -50 -205 -66
-205 -6 0 -15 -11 -20 -25 -5 -14 -17 -28 -25 -32 -21 -7 -88 23 -116 53 -28
30 -31 103 -6 151 10 18 17 55 17 84 0 50 -3 55 -47 97 l-48 44 1 122 c1 143
10 167 89 238 65 58 91 113 104 215 10 77 -2 219 -29 362 -19 102 -15 122 40
163 67 51 95 131 95 273 -1 156 -45 278 -141 384 -140 156 -332 244 -589 271
-171 17 -165 15 -165 58 -1 59 -34 120 -74 137 -48 20 -95 19 -133 -5z m85
-139 c5 -31 -25 -56 -45 -40 -7 6 -13 25 -13 41 0 26 3 29 28 26 20 -2 28 -9
30 -27z m322 -522 c0 -5 -7 -9 -15 -9 -15 0 -20 12 -9 23 8 8 24 -1 24 -14z
m-656 -299 c34 -12 33 -38 -1 -51 -35 -13 -53 -5 -53 24 0 38 11 44 54 27z
m1931 -245 c38 -70 47 -94 47 -138 1 -64 -26 -121 -77 -165 -43 -38 -55 -40
-55 -7 0 14 -8 29 -20 35 -23 13 -18 30 10 30 11 0 22 12 29 32 10 28 9 35 -6
45 -9 7 -20 13 -24 13 -12 0 -30 -27 -27 -41 2 -7 -10 -18 -27 -24 -25 -8 -29
-15 -27 -37 3 -22 -1 -28 -17 -28 -13 0 -31 19 -56 61 l-37 60 18 35 c11 20
51 62 89 96 39 33 80 73 93 89 13 16 27 29 32 29 5 0 30 -38 55 -85z m-857 22
c23 -27 56 -364 47 -474 -6 -75 -10 -85 -43 -124 -95 -110 -122 -176 -129
-312 -3 -62 -10 -122 -14 -135 -11 -29 -41 -40 -152 -52 -84 -10 -454 -13
-537 -5 -19 2 -74 4 -121 4 l-87 1 -15 33 c-45 96 -76 166 -87 202 -23 72 -59
133 -107 182 -87 88 -103 201 -59 421 14 67 27 125 30 130 3 5 56 12 118 15
76 3 135 12 181 27 65 21 76 22 183 12 127 -13 310 -2 379 22 22 8 63 18 90
21 28 4 59 9 70 11 81 16 85 16 85 4 0 -9 5 -9 18 3 9 8 37 17 62 20 25 2 52
4 61 5 9 1 21 -4 27 -11z m727 -307 c3 -6 -1 -7 -9 -4 -18 7 -21 14 -7 14 6 0
13 -4 16 -10z m-20 -89 c5 -10 -9 -88 -18 -97 -3 -3 -16 -2 -31 2 -19 4 -26
13 -26 29 0 13 5 27 10 30 6 3 10 15 10 26 0 14 7 19 24 19 14 0 27 -4 31 -9z
m-31 -162 c27 -25 -87 -460 -148 -561 l-26 -43 0 40 c0 107 58 472 88 548 14
35 17 38 46 31 17 -3 35 -10 40 -15z m-2563 -285 c47 -13 70 -29 132 -88 115
-110 179 -233 211 -407 9 -46 23 -118 31 -159 20 -91 13 -215 -14 -274 -47
-102 -144 -152 -250 -128 -41 10 -47 8 -93 -23 -31 -22 -74 -40 -123 -50 -125
-28 -166 -11 -230 99 -27 46 -45 66 -59 67 -12 1 -29 2 -40 3 -13 1 -24 19
-41 68 -23 69 -55 127 -80 148 -11 9 -14 23 -9 45 3 18 1 42 -5 53 -6 11 -17
77 -25 147 -13 112 -14 135 -1 196 18 82 33 114 92 192 50 64 95 91 186 111
88 20 248 20 318 0z m1853 -311 c8 -49 -13 -79 -81 -115 -90 -49 -198 -59
-615 -56 -201 2 -369 5 -371 8 -3 3 -7 36 -9 73 l-3 69 130 -3 c239 -4 259 -4
410 3 143 6 452 42 463 53 3 3 20 5 37 5 30 0 33 -3 39 -37z m626 -68 c0 -22
-4 -25 -40 -25 -22 0 -40 3 -40 7 0 16 35 43 57 43 18 0 23 -5 23 -25z m13
-96 c8 -30 -2 -49 -30 -60 -60 -23 -69 -2 -21 48 37 39 44 40 51 12z m-683
-40 c0 -14 17 -50 38 -80 30 -43 52 -61 106 -89 63 -32 76 -35 155 -35 66 0
93 4 114 18 28 18 43 19 40 2 -3 -14 154 -94 200 -102 20 -3 37 -6 37 -7 0
-32 -38 -153 -68 -216 -77 -161 -168 -227 -365 -262 -61 -11 -122 -22 -135
-24 -20 -4 -22 -9 -16 -38 3 -19 6 -139 7 -267 2 -348 -10 -384 -139 -410 -91
-18 -405 -20 -411 -1 -3 6 -10 12 -18 12 -10 0 -12 57 -7 287 4 250 2 310 -16
453 -22 177 -38 457 -35 607 3 128 13 143 102 143 81 0 277 24 346 43 55 15
65 10 65 -34z m-680 -23 c14 -2 41 -1 60 3 32 6 36 4 51 -24 17 -31 20 -64 44
-460 8 -126 18 -270 24 -320 22 -204 24 -314 7 -449 -9 -72 -19 -157 -22 -188
-5 -57 -6 -57 -42 -64 -44 -8 -294 2 -399 17 -93 13 -137 31 -160 66 -15 22
-15 36 -5 117 6 50 16 150 22 221 6 72 15 182 21 245 11 111 10 115 -11 132
-16 13 -30 15 -53 10 -18 -4 -86 -7 -152 -7 l-120 0 -75 41 c-41 22 -76 47
-78 55 -2 9 11 20 32 27 50 18 84 49 120 106 42 67 57 120 63 233 4 54 11 97
18 103 8 7 27 4 60 -11 39 -17 62 -20 142 -17 88 3 96 5 118 30 14 17 26 47
30 80 4 29 9 55 10 58 4 6 260 3 295 -4z m1408 -88 c-2 -23 -9 -34 -22 -36
-31 -6 -41 14 -22 42 24 38 48 34 44 -6z m-143 -59 c0 -32 -1 -59 -3 -59 -13
0 -61 32 -66 45 -7 19 14 55 32 55 7 0 15 7 19 15 10 28 18 5 18 -56z m-897
-1417 c6 -18 -15 -14 -22 4 -4 10 -1 14 6 12 6 -2 14 -10 16 -16z m62 9 c0
-12 -20 -25 -27 -18 -7 7 6 27 18 27 5 0 9 -4 9 -9z m310 0 c0 -5 -7 -12 -16
-15 -24 -9 -28 -7 -14 9 14 17 30 20 30 6z m-84 -49 c-11 -10 -15 4 -8 28 l7
25 3 -23 c2 -13 1 -26 -2 -30z m-34 7 c15 -10 -26 -37 -45 -30 -17 6 -17 8 4
35 16 21 24 25 27 15 3 -8 9 -17 14 -20z m94 -26 c10 -16 18 -30 17 -33 -1 -3
7 -6 17 -6 15 0 16 4 9 24 -8 21 -7 23 13 16 28 -8 40 -24 33 -43 -3 -7 -1
-19 5 -26 19 -22 -21 -28 -44 -6 -16 14 -27 17 -43 10 -26 -9 -36 4 -46 59 -8
41 13 44 39 5z m-396 13 c0 -3 -4 -8 -10 -11 -5 -3 -10 -1 -10 4 0 6 5 11 10
11 6 0 10 -2 10 -4z m338 -18 c-3 -7 -13 -15 -23 -16 -15 -4 -16 -2 -4 12 17
19 32 21 27 4z m172 -14 c0 -8 -4 -12 -10 -9 -5 3 -10 10 -10 16 0 5 5 9 10 9
6 0 10 -7 10 -16z m-313 -83 c-1 -9 -6 -22 -10 -28 -6 -9 1 -13 25 -14 18 -1
36 -1 41 0 4 0 7 -3 7 -8 0 -14 -34 -23 -54 -15 -14 5 -16 2 -11 -18 4 -16 1
-29 -10 -38 -21 -17 -29 -7 -15 20 12 23 7 50 -9 50 -5 0 -11 -8 -14 -17 -4
-17 -5 -16 -12 1 -6 13 -3 22 7 30 8 6 15 19 15 29 0 16 -2 16 -19 0 -10 -9
-18 -11 -18 -5 0 6 6 12 13 15 9 3 9 7 -1 20 -11 13 -10 15 7 10 13 -3 23 2
32 19 l12 23 8 -29 c5 -17 7 -37 6 -45z m33 54 c0 -8 -4 -15 -10 -15 -5 0 -7
7 -4 15 4 8 8 15 10 15 2 0 4 -7 4 -15z m40 1 c0 -3 -4 -8 -10 -11 -5 -3 -10
-1 -10 4 0 6 5 11 10 11 6 0 10 -2 10 -4z m287 -22 c-3 -3 -12 -4 -19 -1 -8 3
-5 6 6 6 11 1 17 -2 13 -5z m-549 -33 c3 -8 -1 -12 -9 -9 -7 2 -15 10 -17 17
-3 8 1 12 9 9 7 -2 15 -10 17 -17z m37 0 c-3 -6 -11 -11 -17 -11 -6 0 -6 6 2
15 14 17 26 13 15 -4z m318 1 c-2 -10 -18 -23 -34 -29 -26 -10 -42 -43 -20
-43 5 0 11 -9 14 -20 3 -12 0 -20 -8 -20 -16 0 -27 24 -36 77 -4 21 2 33 16
33 8 0 15 -5 15 -12 0 -7 8 -2 18 10 21 26 42 29 35 4z m162 -13 c11 -17 -1
-21 -15 -4 -8 9 -8 15 -2 15 6 0 14 -5 17 -11z m3 -52 c4 -17 2 -17 -27 -2
-38 19 -39 24 -4 22 18 -2 29 -9 31 -20z m-1664 -2 c27 -3 54 -9 61 -15 13
-11 148 -27 319 -39 64 -4 118 -9 120 -12 3 -2 2 -23 -1 -46 l-6 -43 -91 2
c-50 1 -145 1 -211 -1 -132 -5 -202 2 -283 27 -69 21 -86 41 -78 87 8 41 32
55 86 50 19 -2 57 -7 84 -10z m1566 -14 c0 -6 -4 -13 -10 -16 -5 -3 -10 1 -10
9 0 9 5 16 10 16 6 0 10 -4 10 -9z m-69 -15 c6 3 17 3 26 0 14 -6 14 -8 -3
-22 -10 -9 -14 -13 -7 -10 14 8 27 -10 14 -18 -10 -6 -52 45 -50 61 0 4 3 2 6
-5 2 -6 9 -9 14 -6z m62 -41 c4 -8 2 -17 -3 -20 -6 -4 -10 3 -10 14 0 25 6 27
13 6z m-73 -24 c0 -6 -9 -9 -20 -8 -11 1 -20 5 -20 9 0 4 9 8 20 8 11 0 20 -4
20 -9z m145 -1 c-3 -5 -1 -10 5 -10 6 0 8 -4 5 -10 -4 -6 -11 -5 -19 3 -15 13
-12 27 5 27 6 0 7 -4 4 -10z m-195 -4 c0 -3 -4 -8 -10 -11 -5 -3 -10 -1 -10 4
0 6 5 11 10 11 6 0 10 -2 10 -4z m350 -61 c7 -8 16 -15 21 -15 13 0 109 -46
153 -73 30 -19 35 -26 25 -33 -27 -18 -356 -7 -479 15 -278 50 -291 54 -273
72 5 5 125 12 266 16 205 5 257 9 257 20 0 17 15 17 30 -2z"/>
<path d="M3220 3395 c0 -78 51 -110 164 -103 61 4 89 35 90 100 1 37 -2 43
-21 46 -18 3 -24 -4 -34 -38 -16 -52 -31 -64 -72 -56 -37 7 -73 40 -79 71 -2
12 -13 21 -26 23 -20 3 -22 -1 -22 -43z"/>
<path d="M2494 3385 c-11 -44 12 -101 50 -124 43 -27 105 -27 139 -1 33 26 52
82 37 110 -17 32 -41 22 -57 -24 -13 -40 -35 -53 -70 -40 -19 6 -32 20 -39 44
-6 19 -21 40 -32 48 -19 13 -22 12 -28 -13z"/>
<path d="M2956 3167 c-11 -8 -17 -23 -14 -38 3 -21 9 -24 46 -27 36 -3 43 0
51 20 5 13 5 30 -1 41 -10 20 -56 23 -82 4z"/>
<path d="M2430 3132 c0 -20 29 -52 47 -52 6 0 16 6 22 14 9 11 6 18 -18 35
-36 26 -51 27 -51 3z"/>
<path d="M2380 3108 c0 -7 5 -30 11 -50 15 -55 59 -48 45 7 -10 39 -56 75 -56
43z"/>
<path d="M3524 3105 c-4 -9 -2 -21 4 -27 16 -16 47 -5 47 17 0 26 -42 34 -51
10z"/>
<path d="M2785 3003 c-34 -9 -46 -24 -96 -130 -30 -61 -56 -104 -67 -107 -35
-11 -58 -92 -37 -126 11 -17 69 -40 105 -40 25 0 37 10 75 61 25 34 45 65 45
70 0 5 14 18 31 28 l32 20 21 -31 c35 -52 44 -54 139 -23 93 29 118 28 135
-10 25 -54 130 -106 181 -90 32 10 78 52 96 87 14 29 14 33 -2 51 -23 25 -55
37 -116 46 -49 6 -49 7 -85 76 -40 74 -86 115 -131 115 -14 0 -47 -8 -74 -17
-46 -17 -48 -16 -92 5 -44 21 -110 27 -160 15z m65 -94 c0 -5 -9 -9 -20 -9
-19 0 -27 20 -13 33 7 8 33 -11 33 -24z m284 -7 c2 -4 -4 -14 -16 -21 -11 -7
-17 -8 -13 -2 3 6 1 11 -4 11 -6 0 -11 5 -11 10 0 12 37 14 44 2z m-444 -188
c0 -16 -16 -19 -25 -4 -8 13 4 32 16 25 5 -4 9 -13 9 -21z"/>
<path d="M1699 2678 c-41 -18 -47 -25 -57 -67 -24 -103 -24 -116 2 -144 39
-43 75 -40 121 9 18 19 41 34 51 34 30 0 64 29 64 54 0 31 -47 90 -91 115 -43
25 -33 25 -90 -1z"/>
<path d="M1276 2657 c-16 -12 -17 -21 -7 -103 6 -49 11 -92 11 -95 0 -4 19
-14 41 -23 48 -19 86 -14 124 15 47 37 29 95 -54 172 -52 49 -82 58 -115 34z"/>
<path d="M1912 2458 c-15 -15 3 -38 29 -38 27 0 35 21 14 37 -23 16 -28 16
-43 1z"/>
<path d="M1827 2358 c-8 -13 -26 -44 -41 -70 -15 -27 -31 -48 -35 -48 -5 0
-12 -7 -15 -15 -4 -12 13 -25 66 -50 40 -19 85 -35 101 -35 32 0 68 33 88 82
11 28 10 36 -12 76 -20 37 -33 48 -74 63 -62 24 -62 24 -78 -3z"/>
<path d="M1262 2254 c-31 -21 -28 -56 11 -107 17 -24 41 -56 52 -71 24 -33 42
-29 76 17 18 23 24 45 24 80 0 42 -4 52 -30 73 -35 28 -99 32 -133 8z m94 -49
c18 -14 18 -14 -7 -15 -15 0 -29 7 -33 15 -7 19 14 19 40 0z"/>
<path d="M1879 1988 c-54 -14 -80 -47 -82 -101 -3 -70 54 -116 128 -103 39 8
85 64 85 105 0 43 -56 114 -87 110 -4 -1 -24 -5 -44 -11z m78 -50 c17 -14 17
-83 1 -96 -21 -16 -58 -24 -82 -18 -25 6 -63 77 -51 95 20 34 101 45 132 19z"/>
<path d="M1495 1919 c-79 -42 -93 -69 -52 -106 47 -42 139 -60 172 -33 9 7 25
31 36 52 19 38 19 38 -1 38 -11 0 -20 7 -20 15 0 17 -56 55 -80 55 -8 0 -33
-9 -55 -21z"/>
<path d="M3412 1868 c-5 -7 -13 -29 -17 -48 l-7 -35 26 30 c22 27 27 29 46 17
17 -10 21 -10 26 3 10 26 -4 45 -34 45 -16 0 -34 -6 -40 -12z"/>
<path d="M3270 1070 c0 -26 31 -80 55 -96 20 -13 31 -14 49 -6 25 11 57 68 49
89 -9 22 -20 15 -40 -24 -24 -50 -44 -48 -63 5 -10 28 -20 42 -32 42 -10 0
-18 -5 -18 -10z"/>
<path d="M2622 1743 c4 -36 33 -39 33 -3 0 16 -6 26 -18 28 -15 3 -18 -2 -15
-25z"/>
<path d="M2680 1730 c0 -5 5 -10 10 -10 6 0 10 5 10 10 0 6 -4 10 -10 10 -5 0
-10 -4 -10 -10z"/>
</g>
</svg>
