<?xml version="1.0" standalone="no"?>
<!DOCTYPE svg PUBLIC "-//W3C//DTD SVG 20010904//EN"
 "http://www.w3.org/TR/2001/REC-SVG-20010904/DTD/svg10.dtd">
<svg version="1.0" xmlns="http://www.w3.org/2000/svg"
 width="200.000000pt" height="200.000000pt" viewBox="0 0 200.000000 200.000000"
 preserveAspectRatio="xMidYMid meet">

<g transform="translate(0.000000,200.000000) scale(0.100000,-0.100000)"
fill="#d4af37" stroke="none">
<path d="M1055 1899 c-17 -5 -50 -25 -73 -44 -57 -49 -98 -55 -161 -21 -97 50
-163 28 -206 -68 -34 -76 -53 -89 -143 -96 -42 -3 -87 -11 -99 -18 -35 -19
-53 -65 -53 -132 0 -83 -18 -113 -84 -144 -30 -14 -64 -38 -75 -52 -29 -37
-28 -98 4 -149 40 -65 33 -115 -26 -182 -57 -66 -44 -147 31 -197 59 -39 73
-66 66 -123 -20 -150 -21 -140 16 -177 23 -23 48 -37 74 -41 92 -15 124 -46
139 -135 5 -31 18 -55 41 -78 34 -34 36 -34 92 -27 31 4 79 8 105 9 47 1 50
-1 100 -57 78 -86 133 -92 215 -22 57 49 98 55 161 21 97 -50 163 -28 206 68
34 76 53 89 143 96 42 3 87 11 99 18 36 20 53 64 53 136 0 55 4 69 26 96 15
17 44 38 65 47 88 35 111 110 64 203 -39 78 -36 95 40 199 47 64 28 133 -49
180 -19 12 -42 38 -51 58 -15 32 -16 44 -6 80 6 24 11 62 11 84 0 55 -46 103
-110 114 -89 15 -122 48 -136 136 -13 81 -80 122 -161 101 -90 -24 -112 -18
-173 48 -60 64 -96 82 -145 69z m302 -787 c-39 -40 -161 -159 -270 -265 l-198
-191 -160 160 -159 159 77 77 c43 43 82 78 88 78 5 0 43 -34 85 -75 l75 -75
185 185 185 185 82 -82 83 -83 -73 -73z"/>
</g>
</svg>
