<?xml version="1.0" encoding="iso-8859-1"?>
<!-- Uploaded to: SVG Repo, www.svgrepo.com, Generator: SVG Repo Mixer Tools -->
<svg height="800px" width="800px" version="1.1" id="Layer_1" xmlns="http://www.w3.org/2000/svg" xmlns:xlink="http://www.w3.org/1999/xlink" 
	 viewBox="0 0 504.123 504.123" xml:space="preserve">
<g>
	<path style="fill:#0058AF;" d="M241.073,203.768c10.027,11.28,3.663,33.304-14.218,49.223
		c-17.881,15.896-114.018,85.024-124.062,73.767c-10.012-11.296,69.892-98.714,87.773-114.609
		C208.431,196.254,231.046,192.496,241.073,203.768z"/>
	<path style="fill:#0058AF;" d="M263.05,203.768c-10.027,11.28-3.663,33.304,14.218,49.223
		c17.881,15.896,114.018,85.024,124.062,73.767c10.012-11.296-69.892-98.714-87.773-114.609
		C295.692,196.254,273.077,192.496,263.05,203.768z"/>
	<path style="fill:#0058AF;" d="M346.569,361.913c0,19.503-15.817,124.668-35.336,124.668c-19.495,0-35.304-105.173-35.304-124.668
		c0-19.495,15.817-35.32,35.304-35.32C330.752,326.593,346.569,342.418,346.569,361.913z"/>
	<path style="fill:#0058AF;" d="M228.218,361.913c0,19.503-15.817,124.668-35.336,124.668c-19.495,0-35.304-105.173-35.304-124.668
		c0-19.495,15.817-35.32,35.304-35.32C212.401,326.593,228.218,342.418,228.218,361.913z"/>
</g>
<path style="fill:#1267CC;" d="M351.705,315.242c0,126.33-44.599,84.259-99.643,84.259c-55.028,0-99.643,42.071-99.643-84.259
	c0-72.231,44.631-130.781,99.643-130.781C307.09,184.47,351.705,243.019,351.705,315.242z"/>
<g>
	<path style="fill:#F9BE03;" d="M338.582,356.431c0,8.696-7.058,15.754-15.754,15.754l0,0c-8.696,0-15.754-7.058-15.754-15.754
		V219.908c0-8.704,7.058-14.446,15.754-14.446l9.846,6.892c8.696,0,5.908,13.288,5.908,21.984V356.431z"/>
	<path style="fill:#F9BE03;" d="M328.554,313.045c7.326,7.326,8.255,18.243,2.111,24.387l0,0
		c-6.152,6.152-17.077,5.215-24.395-2.111l-114.838-114.83c-7.318-7.326-7.16-17.14-1-23.292l12.753-1.166
		c6.152-6.144,15.36,7.003,22.67,14.32L328.554,313.045z"/>
</g>
<g>
	<path style="fill:#F7A006;" d="M165.904,422.085c5.506,27.301,13.32,54.705,22.166,62.354h9.602
		c8.862-7.648,16.691-35.052,22.189-62.354H165.904z"/>
	<path style="fill:#F7A006;" d="M284.262,422.085c5.506,27.301,13.32,54.705,22.166,62.354h9.602
		c8.869-7.648,16.691-35.052,22.181-62.354H284.262z"/>
</g>
<path style="fill:#F9BE03;" d="M232.629,487.219c0,14.935-17.802,16.904-39.739,16.904s-39.739-1.961-39.739-16.904
	c0-14.943,17.802-35.509,39.739-35.509S232.629,472.277,232.629,487.219z"/>
<path style="fill:#F7A006;" d="M232.629,487.219c0,14.935-17.802,16.904-39.739,16.904s-39.739-1.961-39.739-16.904"/>
<path style="fill:#F9BE03;" d="M350.988,487.219c0,14.935-17.802,16.904-39.739,16.904s-39.739-1.961-39.739-16.904
	c0-14.943,17.802-35.509,39.739-35.509S350.988,472.277,350.988,487.219z"/>
<path style="fill:#F7A006;" d="M350.988,487.219c0,14.935-17.802,16.904-39.739,16.904s-39.739-1.961-39.739-16.904"/>
<path style="fill:#F9A88F;" d="M381.015,124.258c0,63.008-57.738,94.681-128.937,94.681c-71.215,0-128.969-31.673-128.969-94.681
	C123.108,61.235,180.862,0,252.077,0C323.277,0,381.015,61.235,381.015,124.258z"/>
<path style="fill:#0058AF;" d="M381.015,124.258c0,63.008-57.738,94.681-128.937,94.681c-71.215,0-128.969-31.673-128.969-94.681"/>
<g>
	<path style="fill:#F9BE03;" d="M122.982,287.744c-14.36,18.723-24.08,34.627-20.181,39.014c3.82,4.285,20.141-3.096,39.849-14.738
		l2.308-2.308L122.982,287.744z"/>
	<path style="fill:#F9BE03;" d="M358.432,310.209c21.063,12.674,38.88,21.063,42.89,16.557c3.907-4.403-5.876-20.378-20.291-39.156
		L358.432,310.209z"/>
</g>
<path style="fill:#F9A88F;" d="M310.154,156.231c0,13.036-10.587,23.631-23.631,23.631H217.6c-13.044,0-23.631-10.594-23.631-23.631
	v-41.354c0-13.052,10.587-23.631,23.631-23.631h68.923c13.044,0,23.631,10.579,23.631,23.631V156.231z"/>
<path style="fill:#A53719;" d="M156.444,43.331h191.244C324.096,17.51,290.052,0,252.077,0C214.095,0,180.043,17.51,156.444,43.331z
	"/>
<path style="fill:#FF0000;" d="M358.4,98.469c0,8.696-7.058,15.754-15.754,15.754H161.477c-8.696,0-15.754-7.058-15.754-15.754
	V85.339c0-8.704,7.058-15.754,15.754-15.754h181.169c8.696,0,15.754,7.05,15.754,15.754V98.469z"/>
<path style="fill:#CE0000;" d="M145.723,94.058v4.411c0,8.696,7.058,15.754,15.754,15.754h181.169
	c8.696,0,15.754-7.058,15.754-15.754v-4.411H145.723z"/>
<path style="fill:#FFE000;" d="M342.646,126.039H161.477c-15.202,0-27.569-12.367-27.569-27.569V85.339
	c0-15.21,12.367-27.569,27.569-27.569h181.169c15.202,0,27.569,12.359,27.569,27.569v13.131
	C370.215,113.672,357.849,126.039,342.646,126.039z M161.477,81.4c-2.166,0-3.938,1.764-3.938,3.938v13.131
	c0,2.166,1.772,3.938,3.938,3.938h181.169c2.166,0,3.938-1.772,3.938-3.938V85.339c0-2.174-1.772-3.938-3.938-3.938H161.477z"/>
<path style="fill:#F7A006;" d="M357.085,369.569c0,6.884-5.577,12.461-12.469,12.461H159.508c-6.892,0-12.477-5.577-12.477-12.461
	l0,0c0-6.9,5.585-12.477,12.477-12.477h185.108C351.508,357.092,357.085,362.669,357.085,369.569L357.085,369.569z"/>
<path style="fill:#890628;" d="M277.173,147.259c0,13.863-11.248,25.112-25.112,25.112c-13.863,0-25.112-11.248-25.112-25.112
	s11.248-12.304,25.112-12.304S277.173,133.404,277.173,147.259z"/>
<path style="fill:#B50B30;" d="M232.629,162.981c4.6,5.679,11.555,9.381,19.432,9.381c7.877,0,14.824-3.71,19.432-9.381
	c-4.608-5.671-11.555-9.381-19.432-9.381C244.185,153.6,237.229,157.31,232.629,162.981z"/>
<path style="fill:#FFE000;" d="M277.662,370.215c0,13.052-10.579,23.631-23.631,23.631h-3.938
	c-13.052,0-23.631-10.579-23.631-23.631v-3.938c0-13.052,10.579-23.631,23.631-23.631h3.938c13.052,0,23.631,10.579,23.631,23.631
	V370.215z"/>
<path style="fill:#FF0000;" d="M329.397,274.605c0,1.323-1.079,2.395-2.395,2.395h-8.365c-1.323,0-2.387-1.071-2.387-2.395v-8.357
	c0-1.315,1.063-2.379,2.387-2.379h8.365c1.315,0,2.395,1.063,2.395,2.379V274.605z"/>
</svg>