<?xml version="1.0" encoding="iso-8859-1"?>
<!-- Uploaded to: SVG Repo, www.svgrepo.com, Generator: SVG Repo Mixer Tools -->
<svg version="1.1" id="Layer_1" xmlns="http://www.w3.org/2000/svg" xmlns:xlink="http://www.w3.org/1999/xlink" 
	 viewBox="0 0 504.123 504.123" xml:space="preserve">
<g>
	<path style="fill:#1A2021;" d="M228.218,361.913c0,19.503-15.817,124.668-35.336,124.668c-19.495,0-35.304-105.173-35.304-124.668
		c0-19.495,15.817-35.32,35.304-35.32C212.401,326.593,228.218,342.418,228.218,361.913z"/>
	<path style="fill:#1A2021;" d="M346.577,361.913c0,19.503-15.817,124.668-35.336,124.668c-19.495,0-35.304-105.173-35.304-124.668
		c0-19.495,15.817-35.32,35.304-35.32C330.76,326.593,346.577,342.418,346.577,361.913z"/>
</g>
<path style="fill:#7F0E0E;" d="M351.712,315.242c0,126.33-44.599,84.259-99.643,84.259c-55.028,0-99.643,42.071-99.643-84.259
	c0-72.231,44.631-130.781,99.643-130.781C307.098,184.47,351.712,243.019,351.712,315.242z"/>
<path style="fill:#ACC1D1;" d="M232.637,487.219c0,14.935-17.802,16.904-39.739,16.904s-39.739-1.961-39.739-16.904
	c0-14.943,17.802-35.509,39.739-35.509S232.637,472.277,232.637,487.219z"/>
<path style="fill:#91B4C9;" d="M232.637,487.219c0,14.935-17.802,16.904-39.739,16.904s-39.739-1.961-39.739-16.904"/>
<path style="fill:#ACC1D1;" d="M350.988,487.219c0,14.935-17.802,16.904-39.739,16.904s-39.739-1.961-39.739-16.904
	c0-14.943,17.802-35.509,39.739-35.509S350.988,472.277,350.988,487.219z"/>
<path style="fill:#91B4C9;" d="M350.988,487.219c0,14.935-17.802,16.904-39.739,16.904s-39.739-1.961-39.739-16.904"/>
<path style="fill:#F9BD82;" d="M381.023,124.258c0,63.008-57.738,94.681-128.937,94.681c-71.215,0-128.969-31.673-128.969-94.681
	C123.116,61.235,180.87,0,252.085,0C323.285,0,381.023,61.235,381.023,124.258z"/>
<path style="fill:#EDA366;" d="M381.023,124.258c0,63.008-57.738,94.681-128.937,94.681c-71.215,0-128.969-31.673-128.969-94.681"/>
<circle style="fill:#113E49;" cx="190.748" cy="100.982" r="11.532"/>
<path d="M202.279,100.982c0,6.388-5.167,11.54-11.54,11.54c-6.372,0-11.524-5.152-11.524-11.54"/>
<path style="fill:#FFD3C5;" d="M213.496,125.038c-0.614,0-1.245-0.221-1.725-0.717c-5.632-5.624-13.107-8.72-21.047-8.72h-0.016
	c-7.94,0-15.399,3.104-21,8.712c-0.953,0.953-2.489,0.977-3.434,0.008c-0.953-0.922-0.985-2.458-0.031-3.419
	c6.538-6.546,15.218-10.161,24.458-10.161h0.016c9.263,0,17.951,3.592,24.505,10.145c0.937,0.937,0.937,2.505,0,3.434
	C214.756,124.818,214.142,125.038,213.496,125.038z"/>
<circle style="fill:#113E49;" cx="313.423" cy="100.982" r="11.532"/>
<path d="M301.867,100.982c0,6.388,5.151,11.54,11.54,11.54c6.372,0,11.524-5.152,11.524-11.54"/>
<path style="fill:#FFD3C5;" d="M290.651,125.038c0.599,0,1.229-0.221,1.709-0.717c5.632-5.624,13.107-8.72,21.047-8.72h0.016
	c7.94,0,15.415,3.104,21.016,8.712c0.937,0.953,2.473,0.977,3.434,0.008c0.953-0.922,0.969-2.458,0.016-3.419
	c-6.506-6.546-15.218-10.161-24.458-10.161h-0.016c-9.248,0-17.936,3.592-24.505,10.145c-0.922,0.937-0.922,2.505,0,3.434
	C289.39,124.818,290.005,125.038,290.651,125.038z"/>
<path style="fill:#EDA366;" d="M345.309,291.643c4.742-14.344-9.862-32.02-32.603-39.534
	c-22.709-7.491-138.398-32.713-143.155-18.408c-4.71,14.336,103.353,62.818,126.078,70.309
	C318.346,311.517,340.59,305.971,345.309,291.643z"/>
<path style="fill:#F9BD82;" d="M158.822,291.643c-4.742-14.344,9.862-32.02,32.603-39.534
	c22.709-7.491,138.398-32.713,143.155-18.408c4.71,14.336-103.353,62.818-126.078,70.309
	C185.785,311.517,163.541,305.971,158.822,291.643z"/>
<path style="fill:#5F7277;" d="M296.369,240.569c-0.859-3.285-1.449-6.412-1.906-9.452c-2.213,0.268-4.466,0.551-6.774,0.859
	c0.362,4.506,1.15,9.492,2.529,14.746c1.709,6.498,3.97,12.304,6.412,16.927c2.513-1.371,4.955-2.725,7.31-4.072
	C301.048,254.7,298.338,248.084,296.369,240.569z"/>
<circle style="fill:#0698BF;" cx="291.32" cy="240.561" r="13.627"/>
<circle style="fill:#A3E1EF;" cx="290.265" cy="239.025" r="7.633"/>
<path style="fill:#7F0E0E;" d="M267.815,182.485c0,8.696-7.058,15.754-15.754,15.754l0,0c-8.696,0-15.754-7.058-15.754-15.754
	v-40.046c0-8.696,7.058-15.754,15.754-15.754l0,0c8.696,0,15.754,7.058,15.754,15.754V182.485z"/>
<path style="fill:#AA1111;" d="M252.062,158.192c-8.696,0-15.754,7.058-15.754,15.754v8.539c0,8.696,7.058,15.754,15.754,15.754
	s15.754-7.058,15.754-15.754v-8.539C267.815,165.25,260.758,158.192,252.062,158.192z"/>
<path style="fill:#7F0E0E;" d="M252.077,0c-48.813,0-91.301,28.782-113.199,67.19c12.477,1.095,71.751,4.427,94.035-27.806
	l-0.646,20.346l24.277-21.662l1.323,27.569l17.723-25.6l7.877,17.069L290.02,36.1l15.754,14.438l2.631-21.662l22.969,26.915V40.038
	l32.106,24.34C341.142,27.412,299.67,0,252.077,0z"/>
<g>
	<path style="fill:#473D38;" d="M217.765,132.592H173.45c-10.854,0-19.692-8.83-19.692-19.692V96.161
		c0-10.862,8.838-19.692,19.692-19.692h44.316c10.862,0,19.692,8.83,19.692,19.692V112.9
		C237.458,123.762,228.628,132.592,217.765,132.592z M173.45,84.346c-6.506,0-11.815,5.301-11.815,11.815V112.9
		c0,6.514,5.309,11.815,11.815,11.815h44.316c6.514,0,11.815-5.301,11.815-11.815V96.161c0-6.514-5.301-11.815-11.815-11.815H173.45
		z"/>
	<rect x="120.942" y="100.596" style="fill:#473D38;" width="36.754" height="7.877"/>
	<path style="fill:#473D38;" d="M330.673,132.592h-44.316c-10.854,0-19.692-8.83-19.692-19.692V96.161
		c0-10.862,8.838-19.692,19.692-19.692h44.316c10.862,0,19.692,8.83,19.692,19.692V112.9
		C350.366,123.762,341.536,132.592,330.673,132.592z M286.358,84.346c-6.506,0-11.815,5.301-11.815,11.815V112.9
		c0,6.514,5.309,11.815,11.815,11.815h44.316c6.514,0,11.815-5.301,11.815-11.815V96.161c0-6.514-5.301-11.815-11.815-11.815
		H286.358z"/>
	<rect x="346.427" y="100.596" style="fill:#473D38;" width="36.754" height="7.877"/>
	<rect x="233.551" y="92.223" style="fill:#473D38;" width="37.085" height="7.877"/>
</g>
</svg>