<?xml version="1.0" encoding="iso-8859-1"?>
<!-- Uploaded to: SVG Repo, www.svgrepo.com, Generator: SVG Repo Mixer Tools -->
<svg height="800px" width="800px" version="1.1" id="Layer_1" xmlns="http://www.w3.org/2000/svg" xmlns:xlink="http://www.w3.org/1999/xlink" 
	 viewBox="0 0 504.123 504.123" xml:space="preserve">
<g>
	<path style="fill:#5258CC;" d="M263.767,239.159c-0.874,15.061-20.953,26.128-44.851,24.757
		c-23.875-1.41-140.745-20.504-139.894-35.564c0.906-15.069,119.233-20.385,143.108-18.976
		C245.996,210.763,264.649,224.098,263.767,239.159z"/>
	<path style="fill:#5258CC;" d="M254.582,232.952c0.874-15.061,20.953-26.12,44.859-24.757
		c23.875,1.418,140.737,20.512,139.894,35.572c-0.906,15.061-119.233,20.385-143.108,18.968
		C272.353,261.356,253.708,248.013,254.582,232.952z"/>
</g>
<g>
	<path style="fill:#46A0AF;" d="M236.528,361.913c0,19.503-15.825,124.668-35.336,124.668c-19.488,0-35.304-105.173-35.304-124.668
		c0-19.495,15.825-35.32,35.304-35.32C220.711,326.593,236.528,342.418,236.528,361.913z"/>
	<path style="fill:#46A0AF;" d="M354.879,361.913c0,19.503-15.809,124.668-35.32,124.668c-19.503,0-35.312-105.173-35.312-124.668
		c0-19.495,15.817-35.32,35.312-35.32C339.07,326.593,354.879,342.418,354.879,361.913z"/>
</g>
<path style="fill:#5258CC;" d="M360.023,315.242c0,126.33-44.599,84.259-99.643,84.259c-55.02,0-99.651,42.071-99.651-84.259
	c0-72.231,44.631-130.781,99.651-130.781C315.408,184.47,360.023,243.019,360.023,315.242z"/>
<path style="fill:#404BAD;" d="M186.163,228.194c20.992,9.539,46.568,14.375,74.232,14.375c27.656,0,53.209-4.836,74.201-14.367
	c-18.243-26.782-44.702-43.733-74.216-43.733S204.414,201.413,186.163,228.194z"/>
<path style="fill:#FF860D;" d="M240.947,487.219c0,14.935-17.802,16.904-39.739,16.904s-39.747-1.961-39.747-16.904
	c0-14.943,17.81-35.509,39.747-35.509S240.947,472.277,240.947,487.219z"/>
<path style="fill:#E56107;" d="M240.947,487.219c0,14.935-17.802,16.904-39.739,16.904s-39.747-1.961-39.747-16.904"/>
<path style="fill:#FF860D;" d="M359.298,487.219c0,14.935-17.81,16.904-39.731,16.904c-21.945,0-39.747-1.961-39.747-16.904
	c0-14.943,17.802-35.509,39.747-35.509C341.496,451.718,359.298,472.277,359.298,487.219z"/>
<path style="fill:#E56107;" d="M359.298,487.219c0,14.935-17.81,16.904-39.731,16.904c-21.945,0-39.747-1.961-39.747-16.904"/>
<path style="fill:#CE5715;" d="M389.333,124.258c0,63.008-57.738,94.681-128.937,94.681c-71.223,0-128.977-31.673-128.977-94.681
	C131.419,61.235,189.172,0,260.395,0C331.595,0,389.333,61.235,389.333,124.258z"/>
<path style="fill:#F9A9A0;" d="M389.333,124.258c0,63.008-57.738,94.681-128.937,94.681c-71.223,0-128.977-31.673-128.977-94.681
	c0-63.023,57.754-72.405,128.977-72.405C331.595,51.854,389.333,61.235,389.333,124.258z"/>
<path style="fill:#FF9997;" d="M389.333,124.258c0,63.008-57.738,94.681-128.937,94.681c-71.223,0-128.977-31.673-128.977-94.681"/>
<circle style="fill:#113E49;" cx="223.019" cy="125.928" r="11.532"/>
<path d="M234.551,125.928c0,6.388-5.167,11.54-11.54,11.54c-6.372,0-11.524-5.152-11.524-11.54"/>
<path style="fill:#FFD3C5;" d="M245.768,149.984c-0.614,0-1.245-0.221-1.725-0.717c-5.632-5.624-13.107-8.72-21.047-8.72h-0.016
	c-7.94,0-15.399,3.104-21,8.712c-0.953,0.953-2.489,0.977-3.434,0.008c-0.953-0.922-0.985-2.458-0.032-3.419
	c6.538-6.546,15.218-10.161,24.458-10.161h0.016c9.263,0,17.952,3.592,24.505,10.145c0.937,0.937,0.937,2.505,0,3.434
	C247.028,149.764,246.414,149.984,245.768,149.984z"/>
<circle style="fill:#113E49;" cx="345.639" cy="125.928" r="11.532"/>
<path d="M334.139,125.928c0,6.388,5.151,11.54,11.54,11.54c6.372,0,11.524-5.152,11.524-11.54"/>
<path style="fill:#FFD3C5;" d="M322.922,149.984c0.599,0,1.229-0.221,1.709-0.717c5.632-5.624,13.107-8.72,21.047-8.72h0.016
	c7.94,0,15.415,3.104,21.016,8.712c0.937,0.953,2.473,0.977,3.434,0.008c0.953-0.922,0.969-2.458,0.016-3.419
	c-6.506-6.546-15.218-10.161-24.458-10.161h-0.016c-9.247,0-17.936,3.592-24.505,10.145c-0.922,0.937-0.922,2.505,0,3.434
	C321.662,149.764,322.276,149.984,322.922,149.984z"/>
<path style="fill:#CE5715;" d="M232.314,33.146c0,0-44.308,32.492-18.716,62.031c25.608,29.538,72.869-1.969,63.015-15.754
	c0,0-23.631,24.615-37.408-1.969c-13.792-26.585,46.277-25.6,76.792-23.631c30.531,1.969-37.408-27.569-37.408-27.569
	L232.314,33.146z"/>
<path style="fill:#8E0935;" d="M302.553,150.969c0,11.965-8.231,21.662-18.377,21.662c-10.161,0-18.385-9.696-18.385-21.662
	c0-11.965,8.224-7.877,18.385-7.877C294.321,143.092,302.553,139.004,302.553,150.969z"/>
<path style="fill:#C11043;" d="M268.564,162.288c3.237,6.183,8.995,10.342,15.612,10.342s12.367-4.159,15.604-10.358
	c-3.237-6.176-8.995-10.335-15.604-10.335C277.551,151.93,271.801,156.097,268.564,162.288z"/>
<path style="fill:#668B96;" d="M55.958,133.207c1.371,1.371,1.371,12.556,0,13.926l-18.542,9.563c-2.087,0.929-3.568,1.371-4.947,0
	l0,0c-1.363-1.371-1.363-3.576,0-4.939l18.542-18.542C52.374,131.836,54.587,131.836,55.958,133.207L55.958,133.207z"/>
<path style="fill:#54737F;" d="M55.958,133.207c1.371,1.371,1.371,12.556,0,13.926l-18.542,9.563c-2.087,0.929-3.568,1.371-4.947,0
	l0,0c-1.363-1.371-1.363-3.576,0-4.939l21.504-14.824C55.351,135.57,54.587,131.836,55.958,133.207L55.958,133.207z"/>
<path style="fill:#62D122;" d="M25.49,120.47c0,3.623-2.954,6.561-6.569,6.561l0,0c-3.616,0-6.554-2.938-6.554-6.561v-4.797
	c0-3.623,2.938-6.561,6.554-6.561l0,0c3.616,0,6.569,2.938,6.569,6.561V120.47z"/>
<path style="fill:#4DB20D;" d="M25.49,115.673v4.797c0,3.623-2.954,6.561-6.569,6.561l0,0c-3.616,0-6.554-2.938-6.554-6.561v-4.797"
	/>
<path style="fill:#AFCCD8;" d="M94.972,122.006c0,3.86,0.654,18.786-17.699,20.976l-51.515-10.421c-3.852,0-6.987-3.119-6.987-6.987
	v-14.572c0-3.86,3.127-6.995,6.987-6.995l54.217-3.497c3.852,0,6.971,3.135,6.971,6.995L94.972,122.006z"/>
<path style="fill:#7FA6B5;" d="M79.967,126.299c3.852,0,6.971,1.631,6.971,3.623l-3.482,28.152c0,2.001-3.119,3.623-6.995,3.623
	H61.889c-3.852,0-6.995-1.623-6.995-3.623l-3.482-28.152c0-1.993,3.119-3.623,6.995-3.623H79.967z"/>
<path style="fill:#99B9C9;" d="M79.967,100.517c3.852,0,6.971,3.135,6.971,6.995l8.034,14.501c0,3.86,0.654,18.786-17.699,20.976
	l-51.515-10.421c-3.852,0-6.987-3.119-6.987-6.987v-9.909"/>
<path style="fill:#62D122;" d="M85.874,165.856c0,1.087-0.866,1.969-1.953,1.969H54.437c-1.079,0-1.953-0.882-1.953-1.969v-6.853
	c0-1.087,0.874-1.961,1.953-1.961h29.483c1.087,0,1.953,0.874,1.953,1.961C85.874,159.004,85.874,165.856,85.874,165.856z"/>
<path style="fill:#4DB20D;" d="M85.874,159.004v6.853c0,1.087-0.866,1.969-1.953,1.969H54.437c-1.079,0-1.953-0.882-1.953-1.969
	v-6.853"/>
<path style="fill:#88E2E2;" d="M87.977,165.927H50.381c-8.334,0-15.076,6.743-15.076,15.076v13.147L9.523,252.755
	c0,15.21,0.079,27.53,15.305,27.53h62.921c15.202,0,15.289-12.319,15.289-27.53v-54.926v-9.767v-7.058
	C103.046,172.678,96.303,165.927,87.977,165.927z"/>
<path style="fill:#4FC7D3;" d="M87.977,165.927H55.359c-8.342,0-15.092,6.743-15.092,15.076v13.147L9.523,252.755
	c0,15.21,0.079,27.53,15.305,27.53h62.921c15.202,0,15.289-12.319,15.289-27.53v-54.926v-9.767v-7.058
	C103.046,172.678,96.303,165.927,87.977,165.927z"/>
<g>
	<path style="fill:#41B9BF;" d="M9.523,252.763c0,15.21,0.079,27.53,15.305,27.53h62.921c15.202,0,15.289-12.319,15.289-27.53"/>
	<path style="fill:#41B9BF;" d="M68.254,165.927v22.725c0,1.205,0.985,2.182,2.19,2.182c1.189,0,2.166-0.977,2.166-2.182v-22.725
		H68.254z"/>
</g>
<path style="fill:#C19A6B;" d="M441.155,388.955c0,4.498-3.655,8.16-8.16,8.16l0,0c-4.513,0-8.176-3.655-8.176-8.16V168.338
	c0-4.513,3.671-8.168,8.176-8.176l0,0c4.506,0.008,8.16,3.663,8.145,8.168L441.155,388.955z"/>
<path style="fill:#C90D59;" d="M490.835,410.364c-1.221-30.933-26.616-55.658-57.848-55.643
	c-31.24-0.008-56.627,24.71-57.864,55.643H490.835z"/>
<path style="fill:#EA1F5E;" d="M432.994,354.714c-31.24-0.008-56.627,24.71-57.864,55.643"/>
<g>
	<path style="fill:#C90D59;" d="M494.6,410.687c0,2.387-1.93,4.309-4.309,4.309H375.674c-2.379,0-4.309-1.93-4.301-4.309l0,0
		c0-2.371,1.922-4.301,4.301-4.301h114.625C492.67,406.378,494.6,408.316,494.6,410.687L494.6,410.687z"/>
	<path style="fill:#C90D59;" d="M457.169,352.051c-0.016,4.403-3.568,7.956-7.948,7.956h-32.469c-4.395,0-7.956-3.56-7.94-7.956
		l-0.016-6.632c0-4.387,3.56-7.94,7.948-7.948l32.477,0.008c4.38-0.008,7.948,3.552,7.948,7.948V352.051z"/>
</g>
<path style="fill:#EA1F5E;" d="M408.812,352.051l-0.016-6.632c0-4.387,3.56-7.94,7.948-7.948l32.477,0.008"/>
</svg>