<?xml version="1.0" encoding="iso-8859-1"?>
<!-- Uploaded to: SVG Repo, www.svgrepo.com, Generator: SVG Repo Mixer Tools -->
<svg height="800px" width="800px" version="1.1" id="Layer_1" xmlns="http://www.w3.org/2000/svg" xmlns:xlink="http://www.w3.org/1999/xlink" 
	 viewBox="0 0 504.123 504.123" xml:space="preserve">
<path style="fill:#510940;" d="M216.645,204.8c0,0-120.785,30.2-147.046,0c-26.246-30.184-43.323,49.892-17.061,59.077
	c26.262,9.2-3.938,19.7,23.631,30.2c27.569,10.508,31.508-19.692,53.831-9.185c22.307,10.492,7.877,28.877,27.569,49.877
	c19.692,21.016,10.508,13.139,43.323,14.446c32.815,1.308,21,14.446,34.123,19.692c13.139,5.246,13.139,2.631,40.708-21
	c27.569-23.631,66.954,34.131,81.384,9.185c14.446-24.938-9.185-43.323,24.954-51.2c34.123-7.877,56.446-2.623,57.754-27.569
	c1.323-24.938,34.139-10.508,22.323-42.016c-11.815-31.508-105.031-2.615-124.723-18.369
	C317.722,202.185,216.645,204.8,216.645,204.8z"/>
<g>
	<path style="fill:#AA0909;" d="M260.811,203.768c10.012,11.28,3.655,33.304-14.226,49.223
		c-17.881,15.896-114.018,85.024-124.062,73.767c-10.012-11.296,69.892-98.714,87.773-114.609
		C228.161,196.254,250.768,192.496,260.811,203.768z"/>
	<path style="fill:#AA0909;" d="M282.772,203.768c-10.027,11.28-3.663,33.304,14.21,49.223
		c17.888,15.896,114.026,85.024,124.062,73.767c10.019-11.296-69.884-98.714-87.765-114.609
		C315.422,196.254,292.807,192.496,282.772,203.768z"/>
	<path style="fill:#AA0909;" d="M366.291,361.913c0,19.503-15.809,124.668-35.336,124.668c-19.487,0-35.304-105.173-35.304-124.668
		c0-19.495,15.825-35.32,35.304-35.32C350.482,326.593,366.291,342.418,366.291,361.913z"/>
	<path style="fill:#AA0909;" d="M247.948,361.913c0,19.503-15.817,124.668-35.336,124.668c-19.503,0-35.304-105.173-35.304-124.668
		c0-19.495,15.809-35.32,35.304-35.32C232.131,326.593,247.948,342.418,247.948,361.913z"/>
</g>
<path style="fill:#CE1111;" d="M371.427,315.242c0,126.33-44.591,84.259-99.643,84.259c-55.02,0-99.643,42.071-99.643-84.259
	c0-72.231,44.631-130.781,99.643-130.781C326.82,184.47,371.427,243.019,371.427,315.242z"/>
<g>
	<path style="fill:#77105A;" d="M185.641,422.085c5.498,27.301,13.312,54.705,22.158,62.354h9.602
		c8.877-7.648,16.691-35.052,22.197-62.354H185.641z"/>
	<path style="fill:#77105A;" d="M303.992,422.085c5.506,27.301,13.32,54.705,22.166,62.354h9.602
		c8.869-7.648,16.691-35.052,22.189-62.354H303.992z"/>
</g>
<path style="fill:#9B197D;" d="M252.351,487.219c0,14.935-17.794,16.904-39.731,16.904s-39.739-1.961-39.739-16.904
	c0-14.943,17.802-35.509,39.739-35.509S252.351,472.277,252.351,487.219z"/>
<path style="fill:#77105A;" d="M252.351,487.219c0,14.935-17.794,16.904-39.731,16.904s-39.739-1.961-39.739-16.904"/>
<path style="fill:#9B197D;" d="M370.71,487.219c0,14.935-17.81,16.904-39.739,16.904s-39.739-1.961-39.739-16.904
	c0-14.943,17.81-35.509,39.739-35.509S370.71,472.277,370.71,487.219z"/>
<path style="fill:#77105A;" d="M370.71,487.219c0,14.935-17.81,16.904-39.739,16.904s-39.739-1.961-39.739-16.904"/>
<path style="fill:#CE1111;" d="M400.744,124.258c0,63.008-57.738,94.681-128.937,94.681c-71.215,0-128.969-31.673-128.969-94.681
	C142.838,61.235,200.592,0,271.807,0C343.007,0,400.744,61.235,400.744,124.258z"/>
<path style="fill:#AA0909;" d="M400.744,124.258c0,63.008-57.738,100.896-128.937,100.896c-71.215,0-128.969-37.888-128.969-100.896
	"/>
<g>
	<path style="fill:#77105A;" d="M142.704,287.744c-14.352,18.723-24.072,34.627-20.181,39.014
		c3.82,4.285,20.141-3.096,39.849-14.738l2.308-2.308L142.704,287.744z"/>
	<path style="fill:#77105A;" d="M378.161,310.209c21.063,12.674,38.88,21.063,42.882,16.557c3.907-4.403-5.868-20.378-20.283-39.156
		L378.161,310.209z"/>
</g>
<polygon style="fill:#F4CB89;" points="360.454,55.769 351.522,149.496 271.768,178.538 192.061,149.496 183.129,55.769 "/>
<polygon style="fill:#DBAE6E;" points="358.658,74.476 360.454,55.769 183.129,55.769 184.917,74.476 "/>
<path style="fill:#F4CB89;" d="M225.184,213.795c14.478,3.379,30.161,5.144,46.624,5.144c16.447,0,32.122-1.772,46.592-5.144
	v-70.703h-93.216V213.795z"/>
<circle style="fill:#113E49;" cx="225.436" cy="124.723" r="11.532"/>
<path d="M236.975,124.723c0,6.38-5.167,11.532-11.548,11.532c-6.365,0-11.516-5.152-11.516-11.532"/>
<path style="fill:#FFD3C5;" d="M248.192,148.779c-0.614,0-1.245-0.228-1.725-0.725c-5.632-5.608-13.107-8.72-21.055-8.72h-0.008
	c-7.932,0-15.399,3.119-21.008,8.72c-0.945,0.961-2.481,0.969-3.426,0c-0.953-0.922-0.985-2.458-0.032-3.419
	c6.538-6.538,15.226-10.153,24.458-10.153h0.008c9.271,0,17.959,3.584,24.513,10.138c0.937,0.937,0.937,2.505,0,3.434
	C249.452,148.543,248.838,148.779,248.192,148.779z"/>
<circle style="fill:#113E49;" cx="318.147" cy="124.723" r="11.532"/>
<path d="M306.615,124.723c0,6.38,5.152,11.532,11.54,11.532c6.372,0,11.524-5.152,11.524-11.532"/>
<path style="fill:#FFD3C5;" d="M295.398,148.779c0.599,0,1.229-0.228,1.709-0.725c5.632-5.608,13.107-8.72,21.047-8.72h0.016
	c7.94,0,15.415,3.119,21.016,8.72c0.937,0.961,2.473,0.969,3.434,0c0.953-0.922,0.969-2.458,0.016-3.419
	c-6.506-6.538-15.218-10.153-24.458-10.153h-0.016c-9.247,0-17.936,3.584-24.505,10.138c-0.922,0.937-0.922,2.505,0,3.434
	C294.138,148.543,294.753,148.779,295.398,148.779z"/>
<path style="fill:#870808;" d="M299.195,163.501c0,7.365-5.979,13.328-13.336,13.328h-28.136c-7.373,0-13.32-5.971-13.32-13.328
	v-12.587c0-7.373,5.955-13.328,13.32-13.328h28.136c7.365,0,13.336,5.963,13.336,13.328V163.501z"/>
<path style="fill:#AA0909;" d="M257.723,163.139c-5.002,0-9.311,2.781-11.579,6.845c2.269,4.064,6.577,6.845,11.579,6.845h28.136
	c4.994,0,9.295-2.788,11.587-6.845c-2.292-4.072-6.593-6.845-11.587-6.845H257.723z"/>
</svg>