<?xml version="1.0" encoding="iso-8859-1"?>
<!-- Uploaded to: SVG Repo, www.svgrepo.com, Generator: SVG Repo Mixer Tools -->
<svg height="800px" width="800px" version="1.1" id="Layer_1" xmlns="http://www.w3.org/2000/svg" xmlns:xlink="http://www.w3.org/1999/xlink" 
	 viewBox="0 0 504.123 504.123" xml:space="preserve">
<g>
	<path style="fill:#232728;" d="M351.705,315.242c0,126.322-44.599,84.259-99.643,84.259c-55.028,0-99.643,42.063-99.643-84.259
		c0-72.231,44.631-130.788,99.643-130.788C307.09,184.462,351.705,243.019,351.705,315.242z"/>
	<path style="fill:#232728;" d="M228.218,361.905c0,19.511-15.817,124.676-35.336,124.676c-19.495,0-35.304-105.173-35.304-124.676
		c0-19.495,15.817-35.32,35.304-35.32C212.401,326.585,228.218,342.418,228.218,361.905z"/>
	<path style="fill:#232728;" d="M346.569,361.905c0,19.511-15.817,124.676-35.336,124.676c-19.495,0-35.304-105.173-35.304-124.676
		c0-19.495,15.817-35.32,35.304-35.32C330.752,326.585,346.569,342.418,346.569,361.905z"/>
</g>
<path style="fill:#3E4142;" d="M232.629,487.219c0,14.935-17.802,16.904-39.739,16.904s-39.739-1.969-39.739-16.904
	c0-14.935,17.802-35.509,39.739-35.509S232.629,472.277,232.629,487.219z"/>
<path style="fill:#232728;" d="M232.629,487.219c0,14.935-17.802,16.904-39.739,16.904s-39.739-1.969-39.739-16.904"/>
<path style="fill:#3E4142;" d="M350.988,487.219c0,14.935-17.802,16.904-39.739,16.904s-39.739-1.969-39.739-16.904
	c0-14.935,17.802-35.509,39.739-35.509S350.988,472.277,350.988,487.219z"/>
<g>
	<path style="fill:#232728;" d="M350.988,487.219c0,14.935-17.802,16.904-39.739,16.904s-39.739-1.969-39.739-16.904"/>
	<path style="fill:#232728;" d="M241.073,203.768c10.027,11.28,3.663,33.296-14.218,49.215
		c-17.881,15.896-114.018,85.031-124.062,73.767c-10.012-11.296,69.892-98.706,87.773-114.601
		C208.431,196.246,231.046,192.496,241.073,203.768z"/>
	<path style="fill:#232728;" d="M263.05,203.768c-10.027,11.28-3.663,33.296,14.218,49.215
		c17.881,15.896,114.018,85.031,124.062,73.767c10.012-11.296-69.892-98.706-87.773-114.601
		C295.692,196.246,273.077,192.496,263.05,203.768z"/>
</g>
<polygon style="fill:#E2DED3;" points="256.985,324.923 247.138,324.923 231.385,199.538 272.738,199.538 "/>
<polygon style="fill:#444849;" points="258.182,218.569 268.43,322.465 252.062,334.352 235.693,322.465 245.949,218.569 "/>
<polyline style="fill:#232728;" points="245.949,218.569 258.182,218.569 268.43,322.465 252.062,334.352 "/>
<path style="fill:#FFFFFF;" d="M381.015,124.258c0,63-57.738,94.681-128.937,94.681c-71.215,0-128.969-31.673-128.969-94.681
	C123.108,61.227,180.862,0,252.077,0C323.277,0,381.015,61.227,381.015,124.258z"/>
<path style="fill:#DFEFEF;" d="M381.015,124.258c0,63-57.738,94.681-128.937,94.681c-71.215,0-128.969-31.673-128.969-94.681"/>
<circle style="fill:#113E49;" cx="190.748" cy="136.428" r="11.532"/>
<path d="M202.279,136.428c0,6.388-5.167,11.54-11.54,11.54c-6.372,0-11.524-5.152-11.524-11.54"/>
<path style="fill:#FFFFFF;" d="M213.496,160.477c-0.614,0-1.245-0.213-1.725-0.709c-5.632-5.632-13.107-8.72-21.047-8.72h-0.016
	c-7.94,0-15.399,3.096-21,8.704c-0.953,0.953-2.489,0.985-3.434,0.016c-0.953-0.922-0.985-2.458-0.031-3.419
	c6.538-6.554,15.218-10.169,24.458-10.169h0.016c9.263,0,17.951,3.6,24.505,10.153c0.937,0.937,0.937,2.505,0,3.434
	C214.756,160.264,214.142,160.477,213.496,160.477z"/>
<circle style="fill:#113E49;" cx="313.423" cy="136.428" r="11.532"/>
<path d="M301.859,136.428c0,6.388,5.151,11.54,11.54,11.54c6.372,0,11.524-5.152,11.524-11.54"/>
<path style="fill:#FFFFFF;" d="M290.643,160.477c0.599,0,1.229-0.213,1.709-0.709c5.632-5.632,13.107-8.72,21.047-8.72h0.016
	c7.94,0,15.415,3.096,21.016,8.704c0.937,0.953,2.473,0.985,3.434,0.016c0.953-0.922,0.969-2.458,0.016-3.419
	c-6.506-6.554-15.218-10.169-24.458-10.169h-0.016c-9.248,0-17.936,3.6-24.505,10.153c-0.922,0.937-0.922,2.505,0,3.434
	C289.382,160.264,289.997,160.477,290.643,160.477z"/>
</svg>