<?xml version="1.0" encoding="iso-8859-1"?>
<!-- Uploaded to: SVG Repo, www.svgrepo.com, Generator: SVG Repo Mixer Tools -->
<svg height="800px" width="800px" version="1.1" id="Layer_1" xmlns="http://www.w3.org/2000/svg" xmlns:xlink="http://www.w3.org/1999/xlink" 
	 viewBox="0 0 504.123 504.123" xml:space="preserve">
<path style="fill:#13A9D1;" d="M280.113,258.095c11.28,10.027,33.304,3.663,49.223-14.218
	c15.896-17.881,85.016-114.018,73.767-124.062c-11.296-10.012-98.714,69.892-114.609,87.773
	C272.598,225.445,268.841,248.06,280.113,258.095z"/>
<g>
	<path style="fill:#232728;" d="M226.069,361.913c0,19.503-15.817,124.668-35.336,124.668c-19.495,0-35.304-105.173-35.304-124.668
		c0-19.495,15.817-35.32,35.304-35.32C210.253,326.593,226.069,342.418,226.069,361.913z"/>
	<path style="fill:#232728;" d="M344.42,361.913c0,19.503-15.817,124.668-35.336,124.668c-19.495,0-35.304-105.173-35.304-124.668
		c0-19.495,15.817-35.32,35.304-35.32C328.603,326.593,344.42,342.418,344.42,361.913z"/>
</g>
<path style="fill:#11D3C0;" d="M349.556,315.242c0,126.33-44.607,84.259-99.643,84.259c-55.028,0-99.643,42.071-99.643-84.259
	c0-72.231,44.631-130.788,99.643-130.788C304.941,184.462,349.556,243.019,349.556,315.242z"/>
<path style="fill:#13A9D1;" d="M249.913,366.033c-51.617,0-94.074,37.006-99.139-62.661c-0.339,3.458-0.504,7.396-0.504,11.878
	c0,126.33,44.615,84.259,99.643,84.259c55.036,0,99.643,42.071,99.643-84.259c0-4.474-0.165-8.413-0.504-11.878
	C343.979,403.039,301.546,366.033,249.913,366.033z"/>
<path style="fill:#11D3C0;" d="M230.48,487.219c0,14.935-17.802,16.904-39.747,16.904c-21.929,0-39.739-1.961-39.739-16.904
	c0-14.943,17.81-35.509,39.739-35.509C212.679,451.718,230.48,472.277,230.48,487.219z"/>
<path style="fill:#13A9D1;" d="M230.48,487.219c0,14.935-17.802,16.904-39.747,16.904c-21.929,0-39.739-1.961-39.739-16.904"/>
<path style="fill:#11D3C0;" d="M348.831,487.219c0,14.935-17.786,16.904-39.731,16.904c-21.937,0-39.739-1.961-39.739-16.904
	c0-14.943,17.802-35.509,39.739-35.509C331.045,451.718,348.831,472.277,348.831,487.219z"/>
<path style="fill:#13A9D1;" d="M348.831,487.219c0,14.935-17.786,16.904-39.731,16.904c-21.937,0-39.739-1.961-39.739-16.904"/>
<path style="fill:#11D3C0;" d="M238.932,203.768c10.027,11.28,3.663,33.304-14.218,49.223
	c-17.881,15.896-114.026,85.024-124.062,73.767c-10.012-11.296,69.9-98.714,87.765-114.609S228.897,192.496,238.932,203.768z"/>
<path style="fill:#E8B085;" d="M378.866,124.258c0,63.008-57.746,94.681-128.937,94.681c-71.215,0-128.969-31.673-128.969-94.681
	C120.96,61.235,178.713,0,249.929,0C321.12,0,378.866,61.235,378.866,124.258z"/>
<path style="fill:#DD9F76;" d="M378.866,124.258c0,63.008-57.746,94.681-128.937,94.681c-71.215,0-128.969-31.673-128.969-94.681"/>
<circle style="fill:#113E49;" cx="188.599" cy="136.428" r="11.532"/>
<path d="M200.131,136.428c0,6.388-5.175,11.54-11.54,11.54c-6.372,0-11.524-5.152-11.524-11.54"/>
<path style="fill:#F4C3A2;" d="M211.347,160.484c-0.614,0-1.245-0.221-1.725-0.717c-5.632-5.624-13.107-8.72-21.047-8.72h-0.016
	c-7.94,0-15.399,3.104-21,8.712c-0.945,0.953-2.489,0.977-3.442,0.008c-0.953-0.922-0.977-2.458-0.024-3.419
	c6.538-6.546,15.218-10.161,24.458-10.161h0.016c9.263,0,17.944,3.592,24.497,10.145c0.937,0.937,0.937,2.505,0,3.434
	C212.608,160.264,211.993,160.484,211.347,160.484z"/>
<path style="fill:#113E49;" d="M299.711,136.428c0,6.388,5.144,11.54,11.54,11.54c6.372,0,11.524-5.152,11.524-11.54
	c0-6.365-5.151-11.532-11.524-11.532C304.862,124.896,299.711,130.072,299.711,136.428z"/>
<path d="M299.711,136.428c0,6.388,5.144,11.54,11.54,11.54c6.372,0,11.524-5.152,11.524-11.54"/>
<path style="fill:#F4C3A2;" d="M288.494,160.484c0.591,0,1.229-0.221,1.709-0.717c5.632-5.624,13.107-8.72,21.047-8.72h0.008
	c7.948,0,15.423,3.104,21.016,8.712c0.937,0.953,2.473,0.977,3.434,0.008c0.961-0.922,0.977-2.458,0.024-3.419
	c-6.506-6.546-15.218-10.161-24.466-10.161h-0.008c-9.247,0-17.944,3.592-24.513,10.145c-0.922,0.937-0.922,2.505,0,3.434
	C287.234,160.264,287.848,160.484,288.494,160.484z"/>
<path style="fill:#918F77;" d="M209.756,6.758c-35.289,11.997-63.882,38.904-78.399,70.971
	c24.363,10.689,68.261,14.824,118.556,14.824s94.192-4.128,118.556-14.824c-14.517-32.059-43.095-58.967-78.368-70.971
	c-12.721-1.402-26.207-2.166-40.188-2.166S222.478,5.364,209.756,6.758z"/>
<path style="fill:#A8A78E;" d="M192.616,14.131C209.922,5.27,229.37,0,250.031,0C304.382,0,350.8,35.698,369.784,80.605
	c-20.33,4.624-54.185,1.197-90.49-10.563C233.883,55.335,199.225,32.288,192.616,14.131z"/>
<path style="fill:#BABAA2;" d="M307.344,14.131C290.03,5.27,270.582,0,249.929,0c-54.351,0-100.777,35.698-119.745,80.605
	c20.322,4.624,54.177,1.197,90.482-10.563C266.076,55.335,300.735,32.288,307.344,14.131z"/>
<path style="fill:#663F24;" d="M253.56,167.471c0,0-13.477-29.003-49.719-5.175s-39.353,16.565-39.353,16.565
	s38.313,27.987,79.754,10.382l6.215-5.199L253.56,167.471z"/>
<path style="fill:#543722;" d="M164.48,178.853c0,0,38.313,27.987,79.754,10.382l6.215-5.199l3.111-16.573"/>
<path style="fill:#663F24;" d="M246.282,167.471c0,0,13.462-29.003,49.711-5.175s39.353,16.565,39.353,16.565
	s-38.305,27.987-79.746,10.382l-6.223-5.199L246.282,167.471z"/>
<path style="fill:#543722;" d="M335.346,178.853c0,0-38.305,27.987-79.746,10.382l-6.223-5.199l-3.096-16.573"/>
<path style="fill:#11D3C0;" d="M273.977,58.423c0,18.849-10.768,23.623-24.064,23.623c-13.296,0-24.064-4.773-24.064-23.623
	c0-18.857,10.768-34.131,24.064-34.131C263.209,24.292,273.977,39.566,273.977,58.423z"/>
<path style="fill:#13A9D1;" d="M249.913,24.292c13.296,0,24.064,15.273,24.064,34.131c0,18.849-10.768,23.623-24.064,23.623"/>
<g>
	<path style="fill:#DDD9B8;" d="M249.913,85.984c-18.574,0-28.002-9.271-28.002-27.561c0-20.992,12.564-38.069,28.002-38.069
		c15.439,0,28.002,17.077,28.002,38.069C277.915,76.713,268.487,85.984,249.913,85.984z M249.913,28.231
		c-11.083,0-20.126,13.548-20.126,30.192c0,13.982,5.829,19.684,20.126,19.684c14.297,0,20.126-5.703,20.126-19.684
		C270.038,41.779,260.996,28.231,249.913,28.231z"/>
	<circle style="fill:#DDD9B8;" cx="249.936" cy="236.3" r="6.569"/>
	<circle style="fill:#DDD9B8;" cx="249.936" cy="257.969" r="6.569"/>
	<circle style="fill:#DDD9B8;" cx="249.936" cy="279.623" r="6.569"/>
	<circle style="fill:#DDD9B8;" cx="249.936" cy="301.284" r="6.569"/>
	<circle style="fill:#DDD9B8;" cx="249.936" cy="322.946" r="6.569"/>
	<circle style="fill:#DDD9B8;" cx="249.936" cy="344.615" r="6.569"/>
</g>
<g>
	<path style="fill:#13A9D1;" d="M223.785,305.333c-4.955-6.396-11.894-10.587-19.661-12.304c-0.567-0.299-1.182-0.528-1.843-0.622
		c-0.031,0-0.031,0-0.031,0c-6.325-0.803-11.981-4.049-15.88-9.082c-3.923-5.073-5.632-11.359-4.813-17.715
		c0.599-4.797,3.064-9.074,6.892-12.044c3.812-2.962,8.57-4.261,13.367-3.647h0.032c7.357,0.945,12.619,7.712,11.658,15.108
		c-0.677,5.341-5.585,9.129-10.941,8.444c-1.788-0.213-3.403-1.142-4.506-2.584s-1.583-3.214-1.371-5.002
		c0.37-2.812-1.615-5.404-4.427-5.75l0,0c-2.796-0.354-5.388,1.631-5.727,4.427c-0.599,4.521,0.614,8.988,3.403,12.587
		c2.796,3.616,6.814,5.908,11.335,6.491c10.957,1.402,21-6.372,22.402-17.321c1.662-12.997-7.57-24.899-20.535-26.569h-0.032
		c-7.507-0.969-14.95,1.079-20.937,5.703c-6.002,4.655-9.846,11.343-10.799,18.873c-1.15,9.058,1.292,18.03,6.877,25.253
		c4.955,6.412,11.894,10.602,19.677,12.312c0.551,0.299,1.166,0.536,1.812,0.607c0.016,0.016,0.016,0.016,0.016,0.016
		c6.357,0.803,12.012,4.033,15.911,9.09c3.923,5.065,5.648,11.351,4.829,17.684c-0.614,4.805-3.08,9.098-6.908,12.06
		c-3.812,2.97-8.586,4.254-13.399,3.655c-7.389-0.953-12.603-7.711-11.658-15.108c0.677-5.333,5.585-9.137,10.941-8.46
		c1.804,0.244,3.403,1.15,4.49,2.615c1.111,1.418,1.599,3.198,1.371,4.986c-0.37,2.804,1.615,5.404,4.443,5.742
		c2.788,0.362,5.372-1.631,5.727-4.435c0.599-4.506-0.63-8.98-3.419-12.587c-2.773-3.6-6.798-5.908-11.327-6.491
		c-10.957-1.386-21,6.388-22.402,17.337c-1.662,12.981,7.57,24.899,20.551,26.553h0.016c7.507,0.953,14.935-1.056,20.937-5.695
		c6.002-4.647,9.83-11.351,10.799-18.873C231.812,321.536,229.37,312.58,223.785,305.333z"/>
	<path style="fill:#13A9D1;" d="M276.041,305.333c4.955-6.396,11.894-10.587,19.661-12.304c0.567-0.299,1.182-0.528,1.843-0.622
		c0.032,0,0.032,0,0.032,0c6.325-0.803,11.981-4.049,15.88-9.082c3.923-5.073,5.632-11.359,4.813-17.715
		c-0.599-4.797-3.064-9.074-6.892-12.044c-3.812-2.962-8.57-4.261-13.367-3.647h-0.024c-7.357,0.945-12.619,7.712-11.658,15.108
		c0.677,5.341,5.585,9.129,10.941,8.444c1.788-0.213,3.403-1.142,4.506-2.584s1.583-3.214,1.371-5.002
		c-0.37-2.812,1.615-5.404,4.427-5.75l0,0c2.796-0.354,5.388,1.631,5.727,4.427c0.599,4.521-0.614,8.988-3.403,12.587
		c-2.796,3.616-6.814,5.908-11.335,6.491c-10.957,1.402-21-6.372-22.402-17.321c-1.662-12.997,7.57-24.899,20.535-26.569
		c0,0,0.016,0,0.032,0c7.507-0.969,14.95,1.079,20.937,5.703c6.002,4.655,9.846,11.343,10.799,18.873
		c1.15,9.058-1.292,18.03-6.877,25.253c-4.955,6.412-11.894,10.602-19.677,12.312c-0.551,0.299-1.166,0.536-1.812,0.607
		l-0.016,0.016c-6.357,0.803-12.012,4.033-15.911,9.09c-3.923,5.065-5.648,11.351-4.829,17.684c0.614,4.805,3.08,9.098,6.908,12.06
		c3.812,2.97,8.586,4.254,13.399,3.655c7.389-0.953,12.603-7.711,11.658-15.108c-0.677-5.333-5.585-9.137-10.941-8.46
		c-1.804,0.244-3.403,1.15-4.49,2.615c-1.111,1.418-1.599,3.198-1.371,4.986c0.37,2.804-1.615,5.404-4.443,5.742
		c-2.788,0.362-5.372-1.631-5.727-4.435c-0.599-4.506,0.63-8.98,3.419-12.587c2.773-3.6,6.798-5.908,11.327-6.491
		c10.957-1.386,21,6.388,22.402,17.337c1.662,12.981-7.57,24.899-20.551,26.553h-0.016c-7.507,0.953-14.935-1.056-20.937-5.695
		c-6.002-4.647-9.83-11.351-10.799-18.873C268.014,321.536,270.456,312.58,276.041,305.333z"/>
</g>
</svg>