<?xml version="1.0" encoding="iso-8859-1"?>
<!-- Uploaded to: SVG Repo, www.svgrepo.com, Generator: SVG Repo Mixer Tools -->
<svg height="800px" width="800px" version="1.1" id="Layer_1" xmlns="http://www.w3.org/2000/svg" xmlns:xlink="http://www.w3.org/1999/xlink" 
	 viewBox="0 0 504.123 504.123" xml:space="preserve">
<path style="fill:#6D0000;" d="M143.738,219.727c0,0-43.323,39.385-32.492,136.862c0,0,4.427,23.631,1.969,33.477
	c-2.458,9.846,8.365,22.15,22.15,4.923c13.792-17.235,31.508-45.292,74.342-16.738c42.835,28.554,131.938-38.896,148.677-4.923
	s27.569,7.877,24.119-17.723c-3.45-25.6-19.692-95.011,28.058-82.708c47.75,12.304,22.646-14.769,1.481-41.354
	c-21.165-26.585,40.369-6.892,17.723-28.554c-22.654-21.662-73.35,64.985-122.581,11.815s-59.565,12.8-59.565,12.8l-67.442-0.985
	L143.738,219.727z"/>
<g>
	<path style="fill:#F2B09C;" d="M220.381,203.768c10.019,11.28,3.663,33.296-14.218,49.215
		c-17.888,15.896-114.018,85.031-124.062,73.767c-10.012-11.296,69.892-98.706,87.773-114.601
		C187.731,196.246,210.345,192.496,220.381,203.768z"/>
	<path style="fill:#F2B09C;" d="M242.349,203.768c-10.027,11.28-3.663,33.296,14.21,49.215
		c17.888,15.896,114.026,85.031,124.062,73.767c10.019-11.296-69.884-98.706-87.765-114.601
		C274.999,196.246,252.384,192.496,242.349,203.768z"/>
	<path style="fill:#F2B09C;" d="M207.518,361.905c0,19.511-15.825,124.676-35.336,124.676c-19.503,0-35.304-105.173-35.304-124.676
		c0-19.495,15.809-35.32,35.304-35.32C191.693,326.585,207.518,342.418,207.518,361.905z"/>
	<path style="fill:#F2B09C;" d="M325.868,361.905c0,19.511-15.809,124.676-35.336,124.676c-19.487,0-35.289-105.173-35.289-124.676
		c0-19.495,15.809-35.32,35.289-35.32C310.059,326.585,325.868,342.418,325.868,361.905z"/>
</g>
<g>
	<path style="fill:#F9C1AC;" d="M331.012,315.242c0,126.322-44.591,84.259-99.643,84.259c-55.028,0-99.643,42.063-99.643-84.259
		c0-72.231,44.623-130.788,99.643-130.788C286.397,184.462,331.012,243.019,331.012,315.242z"/>
	<path style="fill:#F9C1AC;" d="M211.936,487.219c0,14.935-17.802,16.904-39.731,16.904c-21.945,0-39.747-1.969-39.747-16.904
		c0-14.935,17.802-35.509,39.747-35.509C194.135,451.71,211.936,472.277,211.936,487.219z"/>
</g>
<path style="fill:#7A4A2A;" d="M211.936,487.219c0,14.935-17.802,16.904-39.731,16.904c-21.945,0-39.747-1.969-39.747-16.904"/>
<path style="fill:#F9C1AC;" d="M330.287,487.219c0,14.935-17.81,16.904-39.739,16.904c-21.945,0-39.739-1.969-39.739-16.904
	c0-14.935,17.794-35.509,39.739-35.509C312.478,451.71,330.287,472.277,330.287,487.219z"/>
<path style="fill:#7A4A2A;" d="M330.287,487.219c0,14.935-17.81,16.904-39.739,16.904c-21.945,0-39.739-1.969-39.739-16.904"/>
<path style="fill:#AA1111;" d="M163.43,200.2c0,0-24.285,19.527-23.631,25.435c0.654,5.908,26.262,2.135,24.946,12.642
	s45.946,34.785,99.115,17.723s53.823-27.569,51.854-32.815c-1.969-5.262-31.5-34.139-48.569-28.893
	c-17.069,5.262-77.462,0.662-77.462,0.662L163.43,200.2z"/>
<path style="fill:#C6BFAF;" d="M210.692,233.661c6.743,0.63,13.627,1.032,20.693,1.032c7.042,0,13.926-0.402,20.661-1.032v-34.123
	h-41.354L210.692,233.661L210.692,233.661z"/>
<path style="fill:#7A4A2A;" d="M360.322,124.258c0,63-57.738,94.681-128.937,94.681c-71.215,0-128.969-31.673-128.969-94.681
	C102.416,61.227,160.169,0,231.385,0C302.584,0,360.322,61.227,360.322,124.258z"/>
<path style="fill:#F9C1AC;" d="M360.322,124.258c0,63-57.738,94.681-128.937,94.681c-71.215,0-128.969-31.673-128.969-94.681
	c0-63.031,57.754-74.382,128.969-74.382C302.584,49.877,360.322,61.227,360.322,124.258z"/>
<path style="fill:#F2B09C;" d="M360.322,124.258c0,63-57.738,94.681-128.937,94.681c-71.215,0-128.969-31.673-128.969-94.681"/>
<circle style="fill:#113E49;" cx="170.063" cy="136.428" r="11.524"/>
<path d="M181.571,136.428c0,6.388-5.159,11.54-11.54,11.54c-6.365,0-11.516-5.152-11.516-11.54"/>
<path style="fill:#FFD3C5;" d="M192.796,160.477c-0.614,0-1.245-0.213-1.725-0.709c-5.632-5.632-13.107-8.72-21.047-8.72H170
	c-7.932,0-15.392,3.096-20.992,8.704c-0.953,0.953-2.497,0.985-3.434,0.016c-0.945-0.922-0.985-2.458-0.032-3.419
	c6.538-6.554,15.218-10.169,24.45-10.169h0.024c9.263,0,17.952,3.6,24.505,10.153c0.937,0.937,0.937,2.505,0,3.434
	C194.048,160.264,193.441,160.477,192.796,160.477z"/>
<circle style="fill:#113E49;" cx="292.699" cy="136.428" r="11.532"/>
<path d="M281.167,136.428c0,6.388,5.151,11.54,11.54,11.54c6.365,0,11.524-5.152,11.524-11.54"/>
<path style="fill:#FFD3C5;" d="M269.942,160.477c0.607,0,1.237-0.213,1.709-0.709c5.632-5.632,13.123-8.72,21.055-8.72h0.016
	c7.94,0,15.407,3.096,21.016,8.704c0.937,0.953,2.473,0.985,3.434,0.016c0.953-0.922,0.961-2.458,0.016-3.419
	c-6.506-6.554-15.226-10.169-24.458-10.169h-0.024c-9.24,0-17.936,3.6-24.505,10.153c-0.922,0.937-0.922,2.505,0,3.434
	C268.698,160.264,269.304,160.477,269.942,160.477z"/>
<g>
	<path style="fill:#7A4A2A;" d="M230.384,148.338c-27.372,0-49.554,19.291-49.554,43.095v14.265
		c0,23.796,22.181,43.095,49.554,43.095s49.562-19.291,49.562-43.095v-14.265C279.946,167.629,257.749,148.338,230.384,148.338z
		 M259.875,193.111c0,14.155-13.202,25.632-29.491,25.632c-16.274,0-29.475-11.477-29.475-25.632v-8.476
		c0-14.155,13.202-25.647,29.475-25.647c16.289,0,29.491,11.492,29.491,25.647V193.111z"/>
	<path style="fill:#7A4A2A;" d="M134.719,362c10.862,67.679,50.018,37.51,96.65,37.51c46.647,0,85.788,30.169,96.65-37.51H134.719z"
		/>
</g>
<circle style="fill:#B6BFC1;" cx="179.838" cy="260.923" r="20.023"/>
<path style="fill:#9BA8AA;" d="M199.861,260.923c0,11.059-8.964,20.015-20.015,20.015c-11.059,0-20.023-8.956-20.023-20.015"/>
<path style="fill:#6D0000;" d="M247.359,188.463c0,8.846-7.152,15.998-15.99,15.998l0,0c-8.838,0-15.998-7.152-15.998-15.998
	v-10.335c0-8.83,7.16-15.998,15.998-15.998l0,0c8.838,0,15.99,7.168,15.99,15.998V188.463z"/>
<path style="fill:#AA1111;" d="M215.985,192.646c1.843,6.798,7.995,11.815,15.376,11.815c7.381,0,13.533-5.018,15.376-11.815
	c-1.843-6.798-7.995-11.815-15.376-11.815C223.98,180.831,217.836,185.848,215.985,192.646z"/>
<g>
	<path style="fill:#F2B09C;" d="M222.507,341.819c0,8.972-7.278,16.242-16.25,16.242l0,0c-8.964,0-16.242-7.278-16.242-16.242l0,0
		c0-8.972,7.278-16.242,16.242-16.242l0,0C215.229,325.569,222.507,332.847,222.507,341.819L222.507,341.819z"/>
	<path style="fill:#F2B09C;" d="M227.178,305.388c0,8.972-7.278,16.242-16.242,16.242l0,0c-8.972,0-16.25-7.278-16.25-16.242l0,0
		c0-8.972,7.286-16.242,16.25-16.242l0,0C219.9,289.138,227.178,296.417,227.178,305.388L227.178,305.388z"/>
	<path style="fill:#F2B09C;" d="M268.044,305.388c0,8.972-7.286,16.242-16.242,16.242l0,0c-8.972,0-16.25-7.278-16.25-16.242l0,0
		c0-8.972,7.286-16.242,16.25-16.242l0,0C260.758,289.138,268.044,296.417,268.044,305.388L268.044,305.388z"/>
	<path style="fill:#F2B09C;" d="M268.044,341.819c0,8.972-7.286,16.242-16.242,16.242l0,0c-8.972,0-16.25-7.278-16.25-16.242l0,0
		c0-8.972,7.286-16.242,16.25-16.242l0,0C260.758,325.569,268.044,332.847,268.044,341.819L268.044,341.819z"/>
</g>
<path style="fill:#7A4A2A;" d="M93.531,416.815c0,3.986-3.237,7.215-7.223,7.215l0,0c-3.994,0-7.223-3.23-7.223-7.215V217.261
	c0-3.986,3.23-7.215,7.223-7.215l0,0c3.986,0,7.223,3.23,7.223,7.215V416.815z"/>
<polygon style="fill:#B6BFC1;" points="108.583,207.415 86.307,229.707 64.024,207.415 86.307,133.908 "/>
<polyline style="fill:#93A2A5;" points="86.307,133.908 108.583,207.415 86.307,229.707 "/>
<circle style="fill:#B0BFC1;" cx="377.068" cy="346.27" r="63.008"/>
<path style="fill:#93A2A5;" d="M421.644,301.694c24.608,24.6,24.608,64.504,0,89.104c-24.608,24.615-64.504,24.615-89.112,0"/>
</svg>