<?xml version="1.0" encoding="iso-8859-1"?>
<!-- Uploaded to: SVG Repo, www.svgrepo.com, Generator: SVG Repo Mixer Tools -->
<svg version="1.1" id="Layer_1" xmlns="http://www.w3.org/2000/svg" xmlns:xlink="http://www.w3.org/1999/xlink" 
	 viewBox="0 0 504.123 504.123" xml:space="preserve">
<g>
	<path style="fill:#8FC7C9;" d="M252.598,361.913c0,19.503-15.817,124.668-35.336,124.668c-19.495,0-35.304-105.173-35.304-124.668
		c0-19.495,15.817-35.32,35.304-35.32C236.789,326.593,252.598,342.418,252.598,361.913z"/>
	<path style="fill:#8FC7C9;" d="M370.957,361.913c0,19.503-15.817,124.668-35.336,124.668c-19.495,0-35.304-105.173-35.304-124.668
		c0-19.495,15.817-35.32,35.304-35.32C355.14,326.593,370.957,342.418,370.957,361.913z"/>
</g>
<path style="fill:#9EDFE5;" d="M376.093,315.242c0,126.33-44.599,84.259-99.643,84.259c-55.028,0-99.643,42.071-99.643-84.259
	c0-72.231,44.631-130.781,99.643-130.781C331.478,184.47,376.093,243.019,376.093,315.242z"/>
<path d="M257.017,487.219c0,14.935-17.802,16.904-39.739,16.904s-39.739-1.961-39.739-16.904c0-14.943,17.802-35.509,39.739-35.509
	S257.017,472.277,257.017,487.219z"/>
<path d="M257.017,487.219c0,14.935-17.802,16.904-39.739,16.904s-39.739-1.961-39.739-16.904"/>
<path d="M375.368,487.219c0,14.935-17.802,16.904-39.739,16.904c-21.937,0-39.739-1.961-39.739-16.904
	c0-14.943,17.802-35.509,39.739-35.509C357.566,451.71,375.368,472.277,375.368,487.219z"/>
<path d="M375.368,487.219c0,14.935-17.802,16.904-39.739,16.904c-21.937,0-39.739-1.961-39.739-16.904"/>
<g>
	<path style="fill:#9EDFE5;" d="M265.461,203.768c10.027,11.28,3.663,33.304-14.218,49.223
		c-17.881,15.896-114.018,85.024-124.062,73.767c-10.012-11.296,69.892-98.714,87.773-114.609
		C232.819,196.254,255.434,192.496,265.461,203.768z"/>
	<path style="fill:#9EDFE5;" d="M287.43,203.768c-10.027,11.28-3.663,33.304,14.218,49.223
		c17.881,15.896,114.018,85.024,124.062,73.767c10.012-11.296-69.892-98.714-87.773-114.609
		C320.08,196.254,297.465,192.496,287.43,203.768z"/>
</g>
<rect x="255.773" y="199.546" width="41.354" height="141.131"/>
<polygon style="fill:#D62B2B;" points="282.57,218.577 292.818,322.465 276.45,334.36 260.081,322.465 270.337,218.577 "/>
<polyline style="fill:#AA1111;" points="270.337,218.577 282.57,218.577 292.818,322.465 276.45,334.36 "/>
<path style="fill:#F9C1AC;" d="M405.403,124.258c0,63.008-57.738,94.681-128.937,94.681c-71.215,0-128.969-31.673-128.969-94.681
	C147.496,61.235,205.25,0,276.465,0C347.665,0,405.403,61.235,405.403,124.258z"/>
<path style="fill:#C6911A;" d="M317.307,7.018l-9.846,23.174l-1.969,1.969c0,0,7.877,29.538,34.462,27.569
	c26.585-1.969,38.4,5.908,39.385,27.569c0,0,2.458-23.142,14.769-10.831c0.158,0.158,0.276,0.197,0.433,0.339
	C379.992,45.371,351.926,19.015,317.307,7.018z"/>
<path style="fill:#F2B09C;" d="M405.403,124.258c0,63.008-57.738,94.681-128.937,94.681c-71.215,0-128.969-31.673-128.969-94.681"/>
<circle style="fill:#113E49;" cx="215.136" cy="106.89" r="11.532"/>
<path d="M226.66,106.89c0,6.388-5.167,11.54-11.54,11.54c-6.372,0-11.524-5.152-11.524-11.54"/>
<path style="fill:#FFD3C5;" d="M237.876,130.946c-0.614,0-1.245-0.221-1.725-0.717c-5.632-5.624-13.107-8.72-21.047-8.72h-0.016
	c-7.94,0-15.399,3.104-21,8.712c-0.953,0.953-2.489,0.977-3.434,0.008c-0.953-0.922-0.985-2.458-0.032-3.419
	c6.538-6.546,15.218-10.161,24.458-10.161h0.016c9.263,0,17.952,3.592,24.505,10.145c0.937,0.937,0.937,2.505,0,3.434
	C239.137,130.725,238.522,130.946,237.876,130.946z"/>
<circle style="fill:#113E49;" cx="337.764" cy="106.89" r="11.532"/>
<path d="M326.247,106.89c0,6.388,5.151,11.54,11.54,11.54c6.372,0,11.524-5.152,11.524-11.54"/>
<path style="fill:#FFD3C5;" d="M315.031,130.946c0.599,0,1.229-0.221,1.709-0.717c5.632-5.624,13.107-8.72,21.047-8.72h0.016
	c7.94,0,15.415,3.104,21.016,8.712c0.937,0.953,2.473,0.977,3.434,0.008c0.953-0.922,0.969-2.458,0.016-3.419
	c-6.506-6.546-15.218-10.161-24.458-10.161h-0.016c-9.247,0-17.936,3.592-24.505,10.145c-0.922,0.937-0.922,2.505,0,3.434
	C313.77,130.725,314.385,130.946,315.031,130.946z"/>
<path style="fill:#E5B12E;" d="M333.88,14.131C316.567,5.27,297.111,0,276.465,0c-54.351,0-100.769,35.698-119.753,80.605
	c20.33,4.624,54.185,1.197,90.49-10.563C292.605,55.335,327.271,32.288,333.88,14.131z"/>
<path style="fill:#84817C;" d="M297.323,355.454c0,5.254-4.261,9.515-9.523,9.515h-22.307c-5.262,0-9.523-4.261-9.523-9.515l0,0
	c0-5.262,4.261-9.523,9.523-9.523H287.8C293.062,345.931,297.323,350.192,297.323,355.454L297.323,355.454z"/>
<path style="fill:#A5A29D;" d="M287.8,345.931h-22.307c-4.356,0-7.861,2.962-9.003,6.94c1.142,3.97,4.647,6.932,9.003,6.932H287.8
	c4.348,0,7.861-2.962,9.003-6.932C295.661,348.893,292.148,345.931,287.8,345.931z"/>
<path style="fill:#AA1111;" d="M242.469,196.931c0,5.073-4.112,9.184-9.192,9.184l0,0c-5.081,0-9.184-4.112-9.184-9.184v-4.844
	c0-5.081,4.104-9.184,9.184-9.184l0,0c5.081,0,9.192,4.104,9.192,9.184V196.931z"/>
<path style="fill:#D8983D;" d="M237.876,198.065c1.048,3.466-0.929,7.129-4.403,8.16l-47.797,14.32
	c-3.466,1.032-7.121-0.937-8.16-4.411l0,0c-1.04-3.466,0.929-7.129,4.403-8.168l47.789-14.312
	C233.189,192.614,236.844,194.584,237.876,198.065L237.876,198.065z"/>
<path style="fill:#97A5A4;" d="M221.469,202.988c-1.04-3.474-4.703-5.443-8.168-4.411l-31.421,9.413
	c-3.45,1.048-5.404,4.695-4.364,8.145c1.04,3.466,4.695,5.435,8.16,4.411l31.413-9.413
	C220.539,210.085,222.508,206.438,221.469,202.988z"/>
<path style="fill:#B0C1BF;" d="M184.03,215.954l31.413-9.413c2.757-0.827,4.474-3.316,4.569-6.042
	c-1.646-1.812-4.206-2.678-6.719-1.922l-31.421,9.413c-2.741,0.827-4.458,3.316-4.553,6.034
	C178.957,215.836,181.525,216.702,184.03,215.954z"/>
<g>
	<circle style="fill:#B7CECC;" cx="100.936" cy="125.944" r="23.387"/>
	<circle style="fill:#B7CECC;" cx="94.296" cy="164.596" r="13.785"/>
	<circle style="fill:#B7CECC;" cx="126.292" cy="169.984" r="13.785"/>
	<circle style="fill:#B7CECC;" cx="115.004" cy="156.719" r="13.785"/>
	<circle style="fill:#B7CECC;" cx="102.661" cy="151.3" r="13.785"/>
	<circle style="fill:#B7CECC;" cx="111.034" cy="173.458" r="13.785"/>
	<circle style="fill:#B7CECC;" cx="156.326" cy="204.469" r="9.358"/>
	<circle style="fill:#B7CECC;" cx="147.465" cy="201.492" r="9.358"/>
	<circle style="fill:#B7CECC;" cx="156.326" cy="190.685" r="9.358"/>
	<circle style="fill:#B7CECC;" cx="115.477" cy="202.988" r="9.358"/>
	<circle style="fill:#B7CECC;" cx="129.246" cy="87.3" r="7.136"/>
</g>
</svg>