<?xml version="1.0" encoding="iso-8859-1"?>
<!-- Uploaded to: SVG Repo, www.svgrepo.com, Generator: SVG Repo Mixer Tools -->
<svg height="800px" width="800px" version="1.1" id="Layer_1" xmlns="http://www.w3.org/2000/svg" xmlns:xlink="http://www.w3.org/1999/xlink" 
	 viewBox="0 0 504.123 504.123" xml:space="preserve">
<g>
	<path style="fill:#EFBBA0;" d="M241.073,203.768c10.027,11.28,3.663,33.304-14.218,49.223
		c-17.881,15.896-114.018,85.024-124.062,73.767c-10.012-11.296,69.892-98.714,87.773-114.609
		C208.431,196.254,231.046,192.496,241.073,203.768z"/>
	<path style="fill:#EFBBA0;" d="M263.05,203.768c-10.027,11.28-3.663,33.304,14.218,49.223
		c17.881,15.896,114.018,85.024,124.062,73.767c10.012-11.296-69.892-98.714-87.773-114.609
		C295.692,196.254,273.077,192.496,263.05,203.768z"/>
	<path style="fill:#EFBBA0;" d="M346.569,361.913c0,19.503-15.817,124.668-35.336,124.668c-19.495,0-35.304-105.173-35.304-124.668
		c0-19.495,15.817-35.32,35.304-35.32C330.752,326.593,346.569,342.418,346.569,361.913z"/>
	<path style="fill:#EFBBA0;" d="M228.218,361.913c0,19.503-15.817,124.668-35.336,124.668c-19.495,0-35.304-105.173-35.304-124.668
		c0-19.495,15.817-35.32,35.304-35.32C212.401,326.593,228.218,342.418,228.218,361.913z"/>
</g>
<path d="M351.705,315.242c0,126.33-44.599,84.259-99.643,84.259c-55.028,0-99.643,42.071-99.643-84.259
	c0-72.231,44.631-130.781,99.643-130.781C307.09,184.47,351.705,243.019,351.705,315.242z"/>
<path style="fill:#C13A7E;" d="M232.629,487.219c0,14.935-17.802,16.904-39.739,16.904s-39.739-1.961-39.739-16.904
	c0-14.943,17.802-35.509,39.739-35.509S232.629,472.277,232.629,487.219z"/>
<path style="fill:#AA2D71;" d="M232.629,487.219c0,14.935-17.802,16.904-39.739,16.904s-39.739-1.961-39.739-16.904"/>
<path style="fill:#C13A7E;" d="M350.988,487.219c0,14.935-17.802,16.904-39.739,16.904s-39.739-1.961-39.739-16.904
	c0-14.943,17.802-35.509,39.739-35.509S350.988,472.277,350.988,487.219z"/>
<path style="fill:#AA2D71;" d="M350.988,487.219c0,14.935-17.802,16.904-39.739,16.904s-39.739-1.961-39.739-16.904"/>
<path style="fill:#565353;" d="M381.015,124.258c0,63.008-57.738,94.681-128.937,94.681c-71.215,0-128.969-31.673-128.969-94.681
	C123.108,61.235,180.862,0,252.077,0C323.277,0,381.015,61.235,381.015,124.258z"/>
<path d="M381.015,124.258c0,63.008-57.738,94.681-128.937,94.681c-71.215,0-128.969-31.673-128.969-94.681"/>
<g>
	<path style="fill:#AA2D71;" d="M122.982,287.744c-14.36,18.723-24.08,34.627-20.181,39.014c3.82,4.285,20.141-3.096,39.849-14.738
		l2.308-2.308L122.982,287.744z"/>
	<path style="fill:#AA2D71;" d="M358.432,310.209c21.063,12.674,38.88,21.063,42.89,16.557c3.907-4.403-5.876-20.378-20.291-39.156
		L358.432,310.209z"/>
</g>
<path style="fill:#F7C8AD;" d="M328.2,171.985c0,17.392-14.1,31.508-31.508,31.508h-89.269c-17.4,0-31.508-14.115-31.508-31.508
	v-64.339c0-17.4,14.108-31.508,31.508-31.508h89.269c17.408,0,31.508,14.108,31.508,31.508V171.985z"/>
<path style="fill:#EFBBA0;" d="M175.915,124.258v47.726c0,17.392,14.108,31.508,31.508,31.508h89.269
	c17.408,0,31.508-14.115,31.508-31.508v-47.726H175.915z"/>
<circle style="fill:#113E49;" cx="205.714" cy="133.908" r="11.532"/>
<path d="M217.246,133.908c0,6.388-5.167,11.54-11.54,11.54c-6.372,0-11.524-5.152-11.524-11.54"/>
<path style="fill:#FFD3C5;" d="M228.462,157.972c-0.614,0-1.245-0.228-1.725-0.725c-5.632-5.616-13.107-8.72-21.047-8.72h-0.016
	c-7.94,0-15.399,3.111-21,8.72c-0.953,0.953-2.489,0.969-3.434,0c-0.953-0.922-0.985-2.458-0.032-3.419
	c6.538-6.538,15.218-10.153,24.458-10.153h0.016c9.263,0,17.952,3.584,24.505,10.138c0.937,0.937,0.937,2.505,0,3.434
	C229.723,157.735,229.108,157.972,228.462,157.972z"/>
<circle style="fill:#113E49;" cx="298.378" cy="133.908" r="11.532"/>
<path d="M286.878,133.908c0,6.388,5.159,11.54,11.548,11.54c6.372,0,11.524-5.152,11.524-11.54"/>
<path style="fill:#FFD3C5;" d="M275.669,157.972c0.599,0,1.221-0.228,1.709-0.725c5.632-5.616,13.107-8.72,21.047-8.72h0.008
	c7.948,0,15.423,3.111,21.023,8.72c0.937,0.953,2.465,0.969,3.434,0c0.953-0.922,0.969-2.458,0.016-3.419
	c-6.514-6.538-15.218-10.153-24.466-10.153h-0.008c-9.247,0-17.928,3.584-24.505,10.138c-0.922,0.937-0.922,2.505,0,3.434
	C274.4,157.735,275.023,157.972,275.669,157.972z"/>
<g>
	<circle style="fill:#C13A7E;" cx="106.338" cy="330.201" r="30.846"/>
	<circle style="fill:#C13A7E;" cx="397.785" cy="330.201" r="30.846"/>
	<circle style="fill:#C13A7E;" cx="252.062" cy="22.969" r="22.969"/>
</g>
</svg>