<?xml version="1.0" encoding="iso-8859-1"?>
<!-- Uploaded to: SVG Repo, www.svgrepo.com, Generator: SVG Repo Mixer Tools -->
<svg height="800px" width="800px" version="1.1" id="Layer_1" xmlns="http://www.w3.org/2000/svg" xmlns:xlink="http://www.w3.org/1999/xlink" 
	 viewBox="0 0 504.123 504.123" xml:space="preserve">
<g>
	<path style="fill:#E88F00;" d="M258.521,239.159c-0.859,15.061-20.953,26.128-44.843,24.757
		c-23.875-1.41-140.745-20.504-139.894-35.564c0.906-15.069,119.233-20.385,143.108-18.976
		C240.758,210.763,259.403,224.098,258.521,239.159z"/>
	<path style="fill:#E88F00;" d="M249.344,232.952c0.874-15.061,20.953-26.12,44.859-24.757
		c23.875,1.418,140.737,20.512,139.886,35.572c-0.906,15.061-119.233,20.385-143.108,18.968
		C267.106,261.356,248.462,248.013,249.344,232.952z"/>
</g>
<g>
	<path style="fill:#E57200;" d="M231.29,361.913c0,19.503-15.817,124.668-35.336,124.668c-19.495,0-35.304-105.173-35.304-124.668
		c0-19.495,15.817-35.32,35.304-35.32C215.473,326.593,231.29,342.418,231.29,361.913z"/>
	<path style="fill:#E57200;" d="M349.649,361.913c0,19.503-15.817,124.668-35.336,124.668c-19.495,0-35.304-105.173-35.304-124.668
		c0-19.495,15.817-35.32,35.304-35.32C333.832,326.593,349.649,342.418,349.649,361.913z"/>
</g>
<path style="fill:#E88F00;" d="M354.784,315.242c0,126.33-44.599,84.259-99.643,84.259c-55.028,0-99.643,42.071-99.643-84.259
	c0-72.231,44.631-130.781,99.643-130.781C310.17,184.47,354.784,243.019,354.784,315.242z"/>
<g>
	<path style="fill:#3D3C39;" d="M259.742,352.484c0,2.536-2.064,4.6-4.6,4.6l0,0c-2.536,0-4.6-2.064-4.6-4.6V206.761
		c0-2.536,2.064-4.592,4.6-4.592l0,0c2.536,0,4.6,2.056,4.6,4.592V352.484z"/>
	<path style="fill:#3D3C39;" d="M235.709,487.219c0,14.935-17.802,16.904-39.739,16.904s-39.739-1.961-39.739-16.904
		c0-14.943,17.802-35.509,39.739-35.509S235.709,472.277,235.709,487.219z"/>
</g>
<path style="fill:#1C1B1A;" d="M235.709,487.219c0,14.935-17.802,16.904-39.739,16.904s-39.739-1.961-39.739-16.904"/>
<path style="fill:#3D3C39;" d="M354.06,487.219c0,14.935-17.802,16.904-39.739,16.904s-39.739-1.961-39.739-16.904
	c0-14.943,17.802-35.509,39.739-35.509S354.06,472.277,354.06,487.219z"/>
<path style="fill:#1C1B1A;" d="M354.06,487.219c0,14.935-17.802,16.904-39.739,16.904s-39.739-1.961-39.739-16.904"/>
<path style="fill:#E88F00;" d="M384.095,124.258c0,63.008-57.738,94.681-128.937,94.681c-71.215,0-128.969-31.673-128.969-94.681
	C126.188,61.235,183.942,0,255.157,0C326.357,0,384.095,61.235,384.095,124.258z"/>
<path style="fill:#E57200;" d="M384.095,124.258c0,63.008-57.738,94.681-128.937,94.681c-71.215,0-128.969-31.673-128.969-94.681"/>
<path style="fill:#EFC286;" d="M360.464,124.258c0,63.008-34.107,51.657-105.307,51.657c-71.215,0-105.338,11.351-105.338-51.657
	c0-63.023,34.123-72.405,105.338-72.405C326.357,51.854,360.464,61.235,360.464,124.258z"/>
<path style="fill:#E5AE73;" d="M255.157,175.915c71.199,0,105.307,11.351,105.307-51.657H149.819
	C149.819,187.266,183.942,175.915,255.157,175.915z"/>
<circle style="fill:#113E49;" cx="193.851" cy="129.126" r="11.532"/>
<path d="M205.351,129.126c0,6.388-5.167,11.54-11.54,11.54c-6.372,0-11.524-5.152-11.524-11.54"/>
<path style="fill:#FFD3C5;" d="M216.568,153.175c-0.614,0-1.245-0.213-1.725-0.717c-5.632-5.624-13.107-8.72-21.047-8.72h-0.016
	c-7.94,0-15.399,3.104-21,8.712c-0.953,0.953-2.489,0.977-3.434,0.008c-0.953-0.922-0.985-2.458-0.032-3.419
	c6.538-6.546,15.218-10.161,24.458-10.161h0.016c9.263,0,17.952,3.592,24.505,10.145c0.937,0.937,0.937,2.505,0,3.434
	C217.828,152.962,217.214,153.175,216.568,153.175z"/>
<circle style="fill:#113E49;" cx="316.471" cy="129.126" r="11.532"/>
<path d="M304.939,129.126c0,6.388,5.152,11.54,11.54,11.54c6.372,0,11.524-5.152,11.524-11.54"/>
<path style="fill:#FFD3C5;" d="M293.723,153.175c0.599,0,1.229-0.213,1.709-0.717c5.632-5.624,13.107-8.72,21.047-8.72h0.016
	c7.94,0,15.415,3.104,21.016,8.712c0.937,0.953,2.473,0.977,3.434,0.008c0.953-0.922,0.969-2.458,0.016-3.419
	c-6.506-6.546-15.218-10.161-24.458-10.161h-0.016c-9.248,0-17.936,3.592-24.505,10.145c-0.922,0.937-0.922,2.505,0,3.434
	C292.462,152.962,293.077,153.175,293.723,153.175z"/>
<path style="fill:#592D08;" d="M151.773,101.502c19.188-3.182,42.252-9.736,66.371-19.424c22.599-9.082,42.63-19.519,58.273-29.822
	c-6.711-0.26-13.729-0.402-21.26-0.402C193.623,51.854,159.839,58.935,151.773,101.502z"/>
<path style="fill:#723B0A;" d="M233.858,52.256c15.644,10.311,35.675,20.74,58.273,29.822c24.119,9.681,47.183,16.242,66.371,19.424
	c-8.058-42.559-41.834-49.648-103.353-49.648C247.619,51.854,240.577,51.996,233.858,52.256z"/>
<g>
	<path style="fill:#592D08;" d="M97.477,231.054c0,8.696-7.058,15.754-15.754,15.754h-12.8c-8.696,0-15.754-7.058-15.754-15.754
		v-12.8c0-8.696,7.058-15.754,15.754-15.754h12.8c8.696,0,15.754,7.058,15.754,15.754V231.054z"/>
	<path style="fill:#592D08;" d="M450.954,249.761c0,8.696-7.058,15.754-15.754,15.754h-12.8c-8.704,0-15.754-7.058-15.754-15.754
		v-12.8c0-8.696,7.05-15.754,15.754-15.754h12.8c8.696,0,15.754,7.058,15.754,15.754V249.761z"/>
</g>
<g>
	<path style="fill:#3D3C39;" d="M251.975,220.625c0.638,0.646,0.638,1.686,0.016,2.324l-21.819,21.819
		c-0.646,0.638-1.694,0.638-2.324,0l0,0c-0.646-0.646-0.646-1.686,0-2.324l21.819-21.819
		C250.305,219.987,251.345,219.987,251.975,220.625L251.975,220.625z"/>
	<path style="fill:#3D3C39;" d="M253.96,230.471c-0.646,0.646-0.646,1.686-0.016,2.324l21.819,21.819
		c0.646,0.638,1.694,0.638,2.316,0l0,0c0.654-0.646,0.654-1.686,0-2.324l-21.819-21.819
		C255.63,229.833,254.582,229.833,253.96,230.471L253.96,230.471z"/>
</g>
</svg>