<?xml version="1.0" encoding="iso-8859-1"?>
<!-- Uploaded to: SVG Repo, www.svgrepo.com, Generator: SVG Repo Mixer Tools -->
<svg height="800px" width="800px" version="1.1" id="Layer_1" xmlns="http://www.w3.org/2000/svg" xmlns:xlink="http://www.w3.org/1999/xlink" 
	 viewBox="0 0 495.569 495.569" xml:space="preserve">
<path style="fill:#F9C1AC;" d="M376.139,171.307c0.354-3.356,0.599-6.751,0.599-10.311C376.737,97.981,318.992,0,247.8,0
	c-71.215,0-128.969,97.981-128.969,160.996c0,3.553,0.244,6.955,0.599,10.311H376.139z"/>
<g>
	<path style="fill:#0987C6;" d="M236.804,195.214c10.019,11.28,3.655,33.312-14.226,49.231
		C204.698,260.34,108.56,329.46,98.517,318.212c-10.012-11.295,69.884-98.721,87.773-114.617
		C204.154,187.707,226.769,183.95,236.804,195.214z"/>
	<path style="fill:#0987C6;" d="M258.773,195.214c-10.043,11.28-3.663,33.312,14.218,49.231
		c17.881,15.896,114.011,85.016,124.062,73.767c10.012-11.295-69.892-98.721-87.78-114.617
		C291.415,187.707,268.8,183.95,258.773,195.214z"/>
</g>
<g>
	<path style="fill:#0A6CC4;" d="M223.941,353.367c0,19.495-15.817,124.66-35.336,124.66c-19.495,0-35.304-105.173-35.304-124.66
		c0-19.511,15.817-35.32,35.304-35.32C208.124,318.047,223.941,333.863,223.941,353.367z"/>
	<path style="fill:#0A6CC4;" d="M342.292,353.367c0,19.495-15.825,124.66-35.336,124.66c-19.503,0-35.304-105.173-35.304-124.66
		c0-19.511,15.809-35.32,35.304-35.32C326.467,318.047,342.292,333.863,342.292,353.367z"/>
</g>
<path style="fill:#0987C6;" d="M347.427,306.696c0,126.338-44.615,84.259-99.643,84.259s-99.643,42.079-99.643-84.259
	c0-72.231,44.631-130.773,99.643-130.773C302.813,175.923,347.427,234.464,347.427,306.696z"/>
<path style="fill:#F9C1AC;" d="M126.401,196.907c17.778,39.077,65.355,58.77,121.399,58.77c56.029,0,103.597-19.692,121.368-58.77
	L126.401,196.907L126.401,196.907z"/>
<path style="fill:#3D3C39;" d="M228.352,478.673c0,14.935-17.81,16.896-39.755,16.896c-21.921,0-39.723-1.953-39.723-16.896
	c0-14.95,17.802-35.509,39.723-35.509C210.542,443.171,228.352,463.722,228.352,478.673z"/>
<path style="fill:#1C1B1A;" d="M228.352,478.673c0,14.935-17.81,16.896-39.755,16.896c-21.921,0-39.723-1.953-39.723-16.896"/>
<path style="fill:#3D3C39;" d="M346.711,478.673c0,14.935-17.802,16.896-39.739,16.896c-21.937,0-39.739-1.953-39.739-16.896
	c0-14.95,17.802-35.509,39.739-35.509C328.909,443.164,346.711,463.722,346.711,478.673z"/>
<path style="fill:#1C1B1A;" d="M346.711,478.673c0,14.935-17.802,16.896-39.739,16.896c-21.937,0-39.739-1.953-39.739-16.896"/>
<circle style="fill:#113E49;" cx="186.47" cy="134.042" r="11.532"/>
<path d="M198.002,134.034c0,6.388-5.175,11.54-11.54,11.54c-6.372,0-11.524-5.152-11.524-11.54"/>
<path style="fill:#FFD3C5;" d="M209.219,158.074c-0.614,0-1.245-0.213-1.725-0.709c-5.64-5.632-13.107-8.72-21.047-8.72h-0.016
	c-7.94,0-15.399,3.096-21,8.704c-0.961,0.953-2.489,0.985-3.434,0.016c-0.969-0.922-0.985-2.458-0.024-3.419
	c6.53-6.554,15.202-10.169,24.45-10.169h0.016c9.263,0,17.951,3.6,24.497,10.153c0.945,0.937,0.945,2.505,0,3.434
	C210.479,157.861,209.865,158.074,209.219,158.074z"/>
<circle style="fill:#113E49;" cx="309.146" cy="134.042" r="11.532"/>
<path d="M297.582,134.034c0,6.388,5.151,11.54,11.54,11.54c6.372,0,11.524-5.152,11.524-11.54"/>
<path style="fill:#FFD3C5;" d="M286.366,158.074c0.591,0,1.213-0.213,1.709-0.709c5.632-5.632,13.107-8.72,21.047-8.72l0,0
	c7.956,0,15.431,3.096,21.023,8.704c0.945,0.953,2.489,0.985,3.442,0.016c0.953-0.922,0.969-2.458,0.016-3.419
	c-6.506-6.554-15.218-10.169-24.474-10.169l0,0c-9.248,0-17.936,3.6-24.505,10.153c-0.922,0.937-0.922,2.505,0,3.434
	C285.105,157.861,285.72,158.074,286.366,158.074z"/>
<ellipse cx="247.784" cy="195.694" rx="121.604" ry="14.832"/>
<ellipse style="fill:#F9C1AC;" cx="247.784" cy="170.827" rx="127.646" ry="15.573"/>
<path d="M176.632,33.43l30.247-5.876v17.723l17.723-15.754l22.646,18.708V25.584l18.708,14.769l1.969-16.738l25.6,24.615
	L281.71,17.707l32.492,11.815l-2.41-2.678C292.927,10.524,271.092,0,247.8,0C221.491,0,197.033,13.383,176.632,33.43z"/>
<g>
	<circle style="fill:#1C1B1A;" cx="247.784" cy="277.638" r="4.923"/>
	<circle style="fill:#1C1B1A;" cx="247.784" cy="313.092" r="4.923"/>
	<circle style="fill:#1C1B1A;" cx="247.784" cy="348.53" r="4.923"/>
</g>
</svg>