<?xml version="1.0" encoding="iso-8859-1"?>
<!-- Uploaded to: SVG Repo, www.svgrepo.com, Generator: SVG Repo Mixer Tools -->
<svg height="800px" width="800px" version="1.1" id="Layer_1" xmlns="http://www.w3.org/2000/svg" xmlns:xlink="http://www.w3.org/1999/xlink" 
	 viewBox="0 0 504.123 504.123" xml:space="preserve">
<g>
	<path style="fill:#232728;" d="M236.076,361.913c0,19.503-15.817,124.668-35.336,124.668c-19.495,0-35.304-105.173-35.304-124.668
		c0-19.495,15.817-35.32,35.304-35.32C220.26,326.593,236.076,342.418,236.076,361.913z"/>
	<path style="fill:#232728;" d="M354.427,361.913c0,19.503-15.817,124.668-35.336,124.668c-19.495,0-35.304-105.173-35.304-124.668
		c0-19.495,15.817-35.32,35.304-35.32C338.61,326.593,354.427,342.418,354.427,361.913z"/>
</g>
<g>
	<path style="fill:#6E9681;" d="M359.563,315.242c0,126.33-44.599,84.259-99.643,84.259c-55.028,0-99.643,42.071-99.643-84.259
		c0-72.231,44.631-130.788,99.643-130.788C314.948,184.462,359.563,243.019,359.563,315.242z"/>
	<path style="fill:#6E9681;" d="M294.271,214.315c11.28-10.027,33.312-3.663,49.231,14.218
		c15.896,17.881,85.016,114.018,73.767,124.062c-11.288,10.012-98.721-69.892-114.609-87.773
		C286.764,246.965,283.015,224.343,294.271,214.315z"/>
</g>
<path style="fill:#587A67;" d="M259.92,348.31c-49.554,0-90.64,34.036-98.336-51.389c-0.843,5.104-1.308,11.138-1.308,18.33
	c0,126.33,44.615,84.259,99.643,84.259c55.044,0,99.643,42.071,99.643-84.259c0-7.192-0.465-13.225-1.308-18.33
	C350.568,382.346,309.489,348.31,259.92,348.31z"/>
<path style="fill:#0DCEAE;" d="M240.488,487.219c0,14.935-17.802,16.904-39.739,16.904s-39.739-1.961-39.739-16.904
	c0-14.943,17.802-35.509,39.739-35.509S240.488,472.277,240.488,487.219z"/>
<path style="fill:#08B5B0;" d="M240.488,487.219c0,14.935-17.802,16.904-39.739,16.904s-39.739-1.961-39.739-16.904"/>
<path style="fill:#0DCEAE;" d="M358.846,487.219c0,14.935-17.802,16.904-39.739,16.904s-39.739-1.961-39.739-16.904
	c0-14.943,17.802-35.509,39.739-35.509S358.846,472.277,358.846,487.219z"/>
<path style="fill:#08B5B0;" d="M358.846,487.219c0,14.935-17.802,16.904-39.739,16.904s-39.739-1.961-39.739-16.904"/>
<path style="fill:#6E9681;" d="M270.388,231.219c-0.89-15.061-20.968-26.136-44.859-24.757
	c-23.883,1.402-140.737,20.512-139.902,35.564c0.906,15.069,119.241,20.385,143.116,18.983
	C252.602,259.616,271.263,246.28,270.388,231.219z"/>
<circle style="fill:#A56B44;" cx="259.92" cy="211.361" r="26.585"/>
<path style="fill:#D8A17C;" d="M388.873,124.258c0,63.008-57.738,94.681-128.937,94.681c-71.215,0-128.969-31.673-128.969-94.681
	C130.967,61.235,188.72,0,259.936,0C331.135,0,388.873,61.235,388.873,124.258z"/>
<path id="SVGCleanerId_0" style="fill:#C48960;" d="M388.873,124.258c0,63.008-57.738,94.681-128.937,94.681
	c-71.215,0-128.969-31.673-128.969-94.681c0-63.023,57.754-111.789,128.969-111.789C331.135,12.469,388.873,61.235,388.873,124.258z
	"/>
<g>
	<path id="SVGCleanerId_0_1_" style="fill:#C48960;" d="M388.873,124.258c0,63.008-57.738,94.681-128.937,94.681
		c-71.215,0-128.969-31.673-128.969-94.681c0-63.023,57.754-111.789,128.969-111.789C331.135,12.469,388.873,61.235,388.873,124.258
		z"/>
</g>
<path style="fill:#BC8158;" d="M388.873,124.258c0,63.008-57.738,94.681-128.937,94.681c-71.215,0-128.969-31.673-128.969-94.681"/>
<path style="fill:#63391C;" d="M384.738,95.374C370.528,43.78,320.107,0,259.936,0C188.72,0,130.967,61.235,130.967,124.258
	c0,16.187,3.86,30.271,10.72,42.307c6.246-3.923,10.413-10.807,10.413-18.716c0-0.937-0.165-1.827-0.276-2.741
	c5.215-4.064,8.649-10.327,8.649-17.447c0-0.937-0.158-1.827-0.276-2.741c5.215-4.064,8.649-10.327,8.649-17.447
	c0-7.089-3.403-13.32-8.57-17.384c0.803-0.772,1.646-1.489,2.339-2.355c4.569,5.687,11.492,9.397,19.369,9.397
	c7.861,0,14.793-3.718,19.369-9.397c4.569,5.687,11.492,9.397,19.354,9.397c7.877,0,14.801-3.718,19.369-9.397
	c4.569,5.687,11.492,9.397,19.369,9.397c7.861,0,14.793-3.718,19.361-9.397c4.577,5.687,11.5,9.397,19.361,9.397
	c7.877,0,14.801-3.718,19.369-9.397c4.569,5.687,11.492,9.397,19.369,9.397c7.861,0,14.793-3.718,19.361-9.397
	c4.577,5.687,11.5,9.397,19.361,9.397C378.854,97.146,381.91,96.484,384.738,95.374z"/>
<circle style="fill:#113E49;" cx="211.729" cy="145.621" r="11.532"/>
<path d="M223.261,145.621c0,6.388-5.167,11.54-11.54,11.54c-6.372,0-11.524-5.152-11.524-11.54"/>
<path style="fill:#E5A376;" d="M234.477,169.677c-0.614,0-1.245-0.221-1.725-0.717c-5.632-5.624-13.107-8.72-21.047-8.72h-0.016
	c-7.94,0-15.399,3.104-21,8.712c-0.953,0.953-2.489,0.977-3.434,0.008c-0.953-0.922-0.985-2.458-0.031-3.419
	c6.538-6.546,15.218-10.161,24.458-10.161h0.016c9.263,0,17.951,3.592,24.505,10.145c0.937,0.937,0.937,2.505,0,3.434
	C235.738,169.456,235.123,169.677,234.477,169.677z"/>
<circle style="fill:#113E49;" cx="334.373" cy="145.621" r="11.532"/>
<path d="M322.841,145.621c0,6.388,5.152,11.54,11.54,11.54c6.372,0,11.524-5.152,11.524-11.54"/>
<path style="fill:#E5A376;" d="M311.632,169.677c0.599,0,1.229-0.221,1.709-0.717c5.632-5.624,13.107-8.72,21.047-8.72h0.016
	c7.94,0,15.415,3.104,21.016,8.712c0.937,0.953,2.473,0.977,3.434,0.008c0.953-0.922,0.969-2.458,0.016-3.419
	c-6.506-6.546-15.218-10.161-24.458-10.161h-0.031c-9.247,0-17.936,3.592-24.505,10.145c-0.922,0.937-0.922,2.505,0,3.434
	C310.364,169.456,310.978,169.677,311.632,169.677z"/>
<ellipse style="fill:#AA1111;" cx="275.193" cy="188.227" rx="6.239" ry="15.423"/>
<path style="fill:#870E0E;" d="M268.963,188.227c0-8.523,2.788-15.431,6.239-15.431c3.442,0,6.231,6.908,6.231,15.431"/>
<g>
	<polygon style="fill:#0DCEAE;" points="255.595,296.212 255.595,256 220.764,276.118 	"/>
	<polygon style="fill:#0DCEAE;" points="214.817,286.436 214.817,309.185 214.817,326.656 249.625,306.546 	"/>
	<polygon style="fill:#0DCEAE;" points="267.521,256 267.521,296.204 302.345,276.11 	"/>
	<polygon style="fill:#0DCEAE;" points="267.521,357.092 302.345,336.975 267.521,316.873 	"/>
	<polygon style="fill:#0DCEAE;" points="255.595,357.092 255.595,316.873 220.756,336.975 	"/>
	<polygon style="fill:#0DCEAE;" points="273.484,306.546 308.316,326.656 308.316,309.177 308.316,286.436 	"/>
</g>
</svg>