<?xml version="1.0" encoding="iso-8859-1"?>
<!-- Uploaded to: SVG Repo, www.svgrepo.com, Generator: SVG Repo Mixer Tools -->
<svg version="1.1" id="Layer_1" xmlns="http://www.w3.org/2000/svg" xmlns:xlink="http://www.w3.org/1999/xlink" 
	 viewBox="0 0 504.454 504.454" xml:space="preserve">
<path style="fill:#890729;" d="M294.448,214.646c11.272-10.027,33.296-3.663,49.231,14.218
	c15.888,17.881,85.016,114.018,73.759,124.062c-11.296,10.012-98.721-69.892-114.617-87.773
	C286.933,247.296,283.184,224.681,294.448,214.646z"/>
<path style="fill:#A81333;" d="M270.557,231.542c-0.89-15.061-20.968-26.136-44.859-24.757
	c-23.883,1.402-140.737,20.512-139.91,35.572c0.922,15.061,119.249,20.385,143.124,18.983
	C252.771,259.954,271.423,246.603,270.557,231.542z"/>
<g>
	<path style="fill:#0C44C1;" d="M236.245,362.252c0,19.495-15.817,124.66-35.328,124.66c-19.503,0-35.312-105.173-35.312-124.66
		c0-19.511,15.817-35.32,35.312-35.32C220.428,326.924,236.245,342.741,236.245,362.252z"/>
	<path style="fill:#0C44C1;" d="M354.596,362.252c0,19.495-15.825,124.66-35.336,124.66c-19.503,0-35.296-105.173-35.296-124.66
		c0-19.511,15.801-35.32,35.296-35.32C338.771,326.924,354.596,342.741,354.596,362.252z"/>
</g>
<path style="fill:#A81333;" d="M359.731,315.573c0,126.338-44.591,84.259-99.643,84.259c-55.028,0-99.643,42.079-99.643-84.259
	c0-72.231,44.631-130.773,99.643-130.773C315.124,184.8,359.731,243.342,359.731,315.573z"/>
<g>
	<rect x="205.935" y="204.469" style="fill:#B1C2C4;" width="13.785" height="76.154"/>
	<rect x="300.458" y="204.469" style="fill:#B1C2C4;" width="13.785" height="76.154"/>
</g>
<path style="fill:#0A234F;" d="M240.656,487.558c0,14.935-17.81,16.896-39.731,16.896c-21.945,0-39.747-1.953-39.747-16.896
	c0-14.95,17.802-35.509,39.747-35.509C222.854,452.049,240.656,472.608,240.656,487.558z"/>
<path style="fill:#031530;" d="M240.656,487.558c0,14.935-17.81,16.896-39.731,16.896c-21.945,0-39.747-1.953-39.747-16.896"/>
<path style="fill:#0A234F;" d="M359.015,487.558c0,14.935-17.802,16.896-39.739,16.896s-39.739-1.953-39.739-16.896
	c0-14.95,17.802-35.509,39.739-35.509S359.015,472.608,359.015,487.558z"/>
<path style="fill:#031530;" d="M359.015,487.558c0,14.935-17.802,16.896-39.739,16.896s-39.739-1.953-39.739-16.896"/>
<path style="fill:#B1C2C4;" d="M389.042,124.589c0,63.015-57.746,94.681-128.945,94.681c-71.207,0-128.961-31.665-128.961-94.681
	S188.889,0.331,260.096,0.331C331.296,0.331,389.042,61.574,389.042,124.589z"/>
<path style="fill:#BC8158;" d="M389.042,124.589c0,63.015-57.746,94.681-128.945,94.681c-71.207,0-128.961-31.665-128.961-94.681"/>
<circle style="fill:#113E49;" cx="199.097" cy="145.967" r="11.532"/>
<path d="M210.629,145.959c0,6.388-5.167,11.54-11.54,11.54s-11.524-5.152-11.524-11.54"/>
<path style="fill:#E5A376;" d="M221.846,170.008c-0.614,0-1.237-0.213-1.725-0.709c-5.632-5.632-13.107-8.72-21.055-8.72h-0.008
	c-7.94,0-15.399,3.096-21.008,8.704c-0.945,0.953-2.481,0.985-3.426,0.016c-0.945-0.922-0.985-2.458-0.032-3.419
	c6.538-6.554,15.218-10.169,24.458-10.169h0.008c9.271,0,17.959,3.6,24.513,10.153c0.937,0.937,0.937,2.505,0,3.434
	C223.106,169.787,222.492,170.008,221.846,170.008z"/>
<circle style="fill:#113E49;" cx="321.78" cy="145.967" r="11.524"/>
<path d="M310.217,145.959c0,6.388,5.144,11.54,11.532,11.54c6.372,0,11.516-5.152,11.516-11.54"/>
<path style="fill:#E5A376;" d="M298.993,170.008c0.607,0,1.237-0.213,1.709-0.709c5.64-5.632,13.123-8.72,21.055-8.72h0.016
	c7.932,0,15.415,3.096,21.016,8.704c0.937,0.953,2.473,0.985,3.434,0.016c0.945-0.922,0.961-2.458,0.008-3.419
	c-6.498-6.554-15.21-10.169-24.45-10.169h-0.016c-9.24,0-17.936,3.6-24.505,10.153c-0.922,0.937-0.922,2.505,0,3.434
	C297.74,169.787,298.339,170.008,298.993,170.008z"/>
<path d="M260.088,166.4c-31.295,0-57.084,19.062-60.967,43.741c6.341,2.127,13.036,3.828,19.968,5.199
	c6.609-18.306,22.465-31.216,40.999-31.216c18.534,0,34.399,12.91,41.007,31.232c6.924-1.386,13.619-3.096,19.952-5.199
	C317.165,185.478,291.383,166.4,260.088,166.4z"/>
<path d="M180.516,167.479c-15.376-14.108-33.233-21.079-46.411-19.582c8.491,32.059,34.84,53.311,70.073,63.756
	C204.32,198.451,195.718,181.437,180.516,167.479z"/>
<path d="M386.119,147.708c-12.879-0.37-29.46,6.554-43.867,19.771c-14.903,13.674-23.497,30.326-23.694,43.418
	C352.579,200.176,377.88,179.113,386.119,147.708z"/>
<g>
	<ellipse style="fill:#B1C2C4;" cx="166.55" cy="21.173" rx="37.415" ry="21.173"/>
	<ellipse style="fill:#B1C2C4;" cx="203.965" cy="21.173" rx="37.415" ry="21.173"/>
	<ellipse style="fill:#B1C2C4;" cx="241.357" cy="21.173" rx="37.415" ry="21.173"/>
	<ellipse style="fill:#B1C2C4;" cx="278.796" cy="21.173" rx="37.415" ry="21.173"/>
	<ellipse style="fill:#B1C2C4;" cx="316.212" cy="21.173" rx="37.415" ry="21.173"/>
	<ellipse style="fill:#B1C2C4;" cx="353.603" cy="21.173" rx="37.415" ry="21.173"/>
	<path style="fill:#B1C2C4;" d="M160.445,315.573c0,126.338,44.615,100.1,99.643,100.1c55.052,0,99.643,26.238,99.643-100.1
		c0-16.51-2.434-32.232-6.688-46.773H167.117C162.871,283.341,160.445,299.063,160.445,315.573z"/>
</g>
</svg>