<?xml version="1.0" encoding="iso-8859-1"?>
<!-- Uploaded to: SVG Repo, www.svgrepo.com, Generator: SVG Repo Mixer Tools -->
<svg height="800px" width="800px" version="1.1" id="Layer_1" xmlns="http://www.w3.org/2000/svg" xmlns:xlink="http://www.w3.org/1999/xlink" 
	 viewBox="0 0 504.123 504.123" xml:space="preserve">
<g>
	<path style="fill:#232728;" d="M263.05,280.631c-10.027-11.28-3.663-33.312,14.218-49.231
		c17.881-15.896,114.018-85.016,124.062-73.767c10.012,11.296-69.892,98.721-87.773,114.617
		C295.692,288.138,273.078,291.895,263.05,280.631z"/>
	<path style="fill:#232728;" d="M241.074,280.631c10.027-11.28,3.663-33.312-14.218-49.231
		c-17.881-15.896-114.018-85.016-124.062-73.767c-10.012,11.296,69.892,98.721,87.773,114.617
		C208.432,288.138,231.046,291.895,241.074,280.631z"/>
</g>
<g>
	<path style="fill:#D39959;" d="M168.582,188.731c-29.783-19.779-60.353-37.179-65.788-31.098
		c-5.293,5.963,14.517,33.178,37.006,59.872L168.582,188.731z"/>
	<path style="fill:#D39959;" d="M366.884,214.426c21.402-25.679,39.526-51.058,34.438-56.793
		c-5.23-5.845-33.713,10.035-62.377,28.853L366.884,214.426z"/>
</g>
<g>
	<path style="fill:#960808;" d="M228.219,361.913c0,19.503-15.817,124.668-35.336,124.668c-19.495,0-35.304-105.173-35.304-124.668
		c0-19.495,15.817-35.32,35.304-35.32C212.402,326.593,228.219,342.418,228.219,361.913z"/>
	<path style="fill:#960808;" d="M346.569,361.913c0,19.503-15.817,124.668-35.336,124.668c-19.495,0-35.304-105.173-35.304-124.668
		c0-19.495,15.817-35.32,35.304-35.32C330.753,326.593,346.569,342.418,346.569,361.913z"/>
</g>
<path style="fill:#232728;" d="M351.705,315.242c0,126.33-44.599,84.259-99.643,84.259c-55.028,0-99.643,42.071-99.643-84.259
	c0-72.231,44.631-130.788,99.643-130.788C307.09,184.462,351.705,243.019,351.705,315.242z"/>
<path style="fill:#FF7300;" d="M232.63,487.219c0,14.935-17.802,16.904-39.739,16.904s-39.739-1.961-39.739-16.904
	c0-14.943,17.802-35.509,39.739-35.509S232.63,472.277,232.63,487.219z"/>
<path style="fill:#FF4800;" d="M232.63,487.219c0,14.935-17.802,16.904-39.739,16.904s-39.739-1.961-39.739-16.904"/>
<path style="fill:#FF7300;" d="M350.988,487.219c0,14.935-17.802,16.904-39.739,16.904s-39.739-1.961-39.739-16.904
	c0-14.943,17.802-35.509,39.739-35.509S350.988,472.277,350.988,487.219z"/>
<path style="fill:#FF4800;" d="M350.988,487.219c0,14.935-17.802,16.904-39.739,16.904s-39.739-1.961-39.739-16.904"/>
<path style="fill:#EFC286;" d="M381.015,124.258c0,63.008-57.738,94.681-128.937,94.681c-71.215,0-128.969-31.673-128.969-94.681
	C123.109,61.235,180.863,0,252.078,0C323.277,0,381.015,61.235,381.015,124.258z"/>
<path style="fill:#E8B374;" d="M381.015,124.258c0,63.008-57.738,94.681-128.937,94.681c-71.215,0-128.969-31.673-128.969-94.681"/>
<g>
	<path style="fill:#232728;" d="M190.512,148.433c-0.599,0-1.237-0.221-1.725-0.717c-5.624-5.624-13.107-8.72-21.039-8.72h-0.016
		c-7.948,0-15.399,3.104-21,8.712c-0.953,0.953-2.489,0.977-3.426,0.008c-0.969-0.922-0.985-2.458-0.047-3.419
		c6.546-6.546,15.218-10.161,24.466-10.161h0.016c9.255,0,17.952,3.592,24.505,10.145c0.945,0.937,0.945,2.505,0,3.434
		C191.78,148.204,191.158,148.433,190.512,148.433z"/>
	<path style="fill:#232728;" d="M267.666,148.433c0.599,0,1.221-0.221,1.709-0.717c5.632-5.624,13.107-8.72,21.039-8.72h0.024
		c7.94,0,15.415,3.104,21.016,8.712c0.937,0.953,2.465,0.977,3.434,0.008c0.953-0.922,0.969-2.458,0.016-3.419
		c-6.498-6.546-15.218-10.161-24.458-10.161h-0.024c-9.24,0-17.928,3.592-24.497,10.145c-0.922,0.937-0.922,2.505,0,3.434
		C266.398,148.204,267.02,148.433,267.666,148.433z"/>
</g>
<path style="fill:#870E0E;" d="M207.345,186.179c0-15.415,9.909-27.932,22.126-27.932c12.217,0,22.15,12.516,22.15,27.932
	c0,15.439-9.933,6.215-22.15,6.215C217.254,192.394,207.345,201.618,207.345,186.179z"/>
<path style="fill:#AA1111;" d="M229.487,180.815c7.239,0,13.627-4.466,17.66-11.28c-4.033-6.806-10.421-11.296-17.676-11.296
	c-7.247,0-13.619,4.466-17.66,11.288C215.844,176.349,222.224,180.815,229.487,180.815z"/>
<path style="fill:#232728;" d="M142.927,60.77c22.741,17.148,62.078,28.499,106.882,28.499c36.226,0,68.836-7.444,92.065-19.338
	c8.799,4.521,19.007,8.381,30.224,11.453C353.328,36.116,306.728,0,252.078,0C206.037,0,165.747,25.655,142.927,60.77z"/>
<g>
	<path style="fill:#FF7300;" d="M250.644,250.856c-32.957,0-59.652,26.711-59.652,59.644h20.819
		c0-21.449,17.384-38.833,38.841-38.833c21.441,0,38.817,17.384,38.817,38.833h20.811
		C310.273,277.559,283.554,250.856,250.644,250.856z"/>
	<path style="fill:#FF7300;" d="M268.958,310.5c0-10.122-8.2-18.33-18.306-18.33c-10.138,0-18.345,8.208-18.345,18.33H268.958z"/>
	<path style="fill:#FF7300;" d="M198.664,341.165c1.079,1.875,2.229,3.694,3.482,5.435h96.973c1.245-1.749,2.418-3.56,3.466-5.435
		H198.664z"/>
	<path style="fill:#FF7300;" d="M285.925,359.96c2.261-1.662,4.403-3.474,6.396-5.435h-83.385c1.993,1.961,4.135,3.773,6.388,5.435
		H285.925z"/>
	<path style="fill:#FF7300;" d="M230.03,367.876c6.42,2.363,13.359,3.655,20.614,3.655c7.215,0,14.155-1.292,20.567-3.655H230.03z"
		/>
	<path style="fill:#FF7300;" d="M193.158,327.806c0.496,1.859,1.111,3.671,1.788,5.435H306.31c0.693-1.772,1.284-3.576,1.796-5.435
		H193.158z"/>
</g>
</svg>