<?xml version="1.0" encoding="iso-8859-1"?>
<!-- Uploaded to: SVG Repo, www.svgrepo.com, Generator: SVG Repo Mixer Tools -->
<svg version="1.1" id="Layer_1" xmlns="http://www.w3.org/2000/svg" xmlns:xlink="http://www.w3.org/1999/xlink" 
	 viewBox="0 0 504.123 504.123" xml:space="preserve">
<path style="fill:#D1B302;" d="M244.153,203.768c10.027,11.28,3.663,33.296-14.218,49.215
	c-17.881,15.896-114.018,85.031-124.062,73.767c-10.012-11.296,69.892-98.706,87.773-114.601
	C211.511,196.246,234.126,192.496,244.153,203.768z"/>
<rect x="85.805" y="273.092" transform="matrix(-0.7071 0.7071 -0.7071 -0.7071 454.1314 369.8918)" style="fill:#353426;" width="129.306" height="11.815"/>
<path style="fill:#D1B302;" d="M266.122,203.768c-10.027,11.28-3.663,33.296,14.218,49.215
	c17.881,15.896,114.018,85.031,124.062,73.767c10.012-11.296-69.892-98.706-87.773-114.601
	C298.772,196.246,276.157,192.496,266.122,203.768z"/>
<rect x="295.194" y="273.059" transform="matrix(0.7071 0.7071 -0.7071 0.7071 302.656 -172.743)" style="fill:#353426;" width="129.306" height="11.815"/>
<g>
	<path style="fill:#B79904;" d="M351.618,358.951c0,19.511-15.817,124.676-35.336,124.676c-19.495,0-35.304-105.173-35.304-124.676
		c0-19.495,15.817-35.32,35.304-35.32C335.801,323.631,351.618,339.464,351.618,358.951z"/>
	<path style="fill:#B79904;" d="M231.29,361.905c0,19.511-15.817,124.676-35.336,124.676c-19.495,0-35.304-105.173-35.304-124.676
		c0-19.495,15.817-35.32,35.304-35.32C215.473,326.585,231.29,342.418,231.29,361.905z"/>
</g>
<path style="fill:#CE1111;" d="M354.785,315.242c0,126.322-44.599,84.259-99.643,84.259c-55.028,0-99.643,42.063-99.643-84.259
	c0-72.231,44.631-130.788,99.643-130.788C310.17,184.462,354.785,243.019,354.785,315.242z"/>
<path style="fill:#D1B302;" d="M354.785,315.242c0,126.322-44.599,84.259-99.643,84.259c-55.028,0-99.643,42.063-99.643-84.259
	c0-72.231,44.631-130.788,99.643-130.788C310.17,184.462,354.785,243.019,354.785,315.242z"/>
<path style="fill:#EACE00;" d="M255.141,184.462c-53.28,0-96.681,54.957-99.383,124.014c3.513,107.874,46.655,69.372,99.383,69.372
	c52.744,0,95.862,38.51,99.383-69.372C351.823,239.419,308.421,184.462,255.141,184.462z"/>
<path style="fill:#E87400;" d="M235.709,487.219c0,14.935-17.802,16.904-39.739,16.904s-39.739-1.969-39.739-16.904
	c0-14.935,17.802-35.509,39.739-35.509S235.709,472.277,235.709,487.219z"/>
<path style="fill:#D36400;" d="M235.709,487.219c0,14.935-17.802,16.904-39.739,16.904s-39.739-1.969-39.739-16.904"/>
<path style="fill:#E87400;" d="M354.06,487.219c0,14.935-17.802,16.904-39.739,16.904s-39.739-1.969-39.739-16.904
	c0-14.935,17.802-35.509,39.739-35.509S354.06,472.277,354.06,487.219z"/>
<path style="fill:#D36400;" d="M354.06,487.219c0,14.935-17.802,16.904-39.739,16.904s-39.739-1.969-39.739-16.904"/>
<path style="fill:#D1B302;" d="M176.16,235.725c21.835,11.059,49.191,16.691,78.99,16.691c29.783,0,57.139-5.632,78.966-16.691
	c-18.211-31.106-46.773-51.263-78.982-51.263C222.941,184.462,194.371,204.603,176.16,235.725z"/>
<path style="fill:#F7C88F;" d="M384.095,124.258c0,63-57.738,94.681-128.937,94.681c-71.215,0-128.969-31.673-128.969-94.681
	C126.188,61.227,183.942,0,255.157,0C326.357,0,384.095,61.227,384.095,124.258z"/>
<path style="fill:#EFBB81;" d="M384.095,124.258c0,63-57.738,94.681-128.937,94.681c-71.215,0-128.969-31.673-128.969-94.681"/>
<circle style="fill:#113E49;" cx="193.851" cy="108.954" r="11.532"/>
<path d="M205.351,108.954c0,6.388-5.167,11.54-11.54,11.54c-6.372,0-11.524-5.152-11.524-11.54"/>
<path style="fill:#F7C88F;" d="M216.568,133.018c-0.614,0-1.245-0.228-1.725-0.725c-5.632-5.616-13.107-8.72-21.047-8.72h-0.016
	c-7.94,0-15.399,3.111-21,8.72c-0.953,0.953-2.489,0.969-3.434,0c-0.953-0.922-0.985-2.458-0.032-3.419
	c6.538-6.538,15.218-10.153,24.458-10.153h0.016c9.263,0,17.952,3.584,24.505,10.138c0.937,0.937,0.937,2.505,0,3.434
	C217.828,132.781,217.214,133.018,216.568,133.018z"/>
<circle style="fill:#113E49;" cx="316.471" cy="108.954" r="11.532"/>
<path d="M304.939,108.954c0,6.388,5.152,11.54,11.54,11.54c6.372,0,11.524-5.152,11.524-11.54"/>
<path style="fill:#F7C88F;" d="M293.723,133.018c0.599,0,1.229-0.228,1.709-0.725c5.632-5.616,13.107-8.72,21.047-8.72h0.016
	c7.94,0,15.415,3.111,21.016,8.72c0.937,0.953,2.473,0.969,3.434,0c0.953-0.922,0.969-2.458,0.016-3.419
	c-6.506-6.538-15.218-10.153-24.458-10.153h-0.016c-9.247,0-17.936,3.584-24.505,10.138c-0.922,0.937-0.922,2.505,0,3.434
	C292.462,132.781,293.077,133.018,293.723,133.018z"/>
<path d="M143.234,65.166c19.007,5.309,40.818,8.342,64.032,8.342c40.889,0,77.43-9.381,101.912-24.135
	c15.848,9.555,36.809,16.801,60.684,20.764C348.475,30.279,305.184,0,255.157,0C207.21,0,165.447,27.798,143.234,65.166z"/>
<g>
	<path style="fill:#592F0E;" d="M132.632,330.319c5.002,5.002,5.002,13.107,0,18.109l0,0c-4.994,4.994-13.091,4.994-18.093-0.008
		l-52.216-52.216c-5.002-5.002-5.002-13.099,0-18.101l0,0c4.994-4.994,13.091-5.002,18.093,0L132.632,330.319z"/>
	<path style="fill:#592F0E;" d="M371.491,330.319c-5.002,5.002-5.002,13.107,0,18.109l0,0c4.994,4.994,13.091,4.994,18.093-0.008
		l52.216-52.216c5.002-5.002,5.002-13.099,0-18.101l0,0c-4.994-4.994-13.091-5.002-18.093,0L371.491,330.319z"/>
</g>
<ellipse style="fill:#870E0E;" cx="255.141" cy="163.604" rx="7.877" ry="31.996"/>
<g>
	<circle style="fill:#5E5D57;" cx="135.885" cy="352.177" r="6.239"/>
	<circle style="fill:#5E5D57;" cx="145.723" cy="352.177" r="6.239"/>
	<circle style="fill:#5E5D57;" cx="155.577" cy="352.177" r="6.239"/>
	<circle style="fill:#5E5D57;" cx="165.423" cy="352.177" r="6.239"/>
	<circle style="fill:#5E5D57;" cx="175.269" cy="352.177" r="6.239"/>
	<circle style="fill:#5E5D57;" cx="185.108" cy="352.177" r="6.239"/>
	<circle style="fill:#5E5D57;" cx="194.954" cy="352.177" r="6.239"/>
	<circle style="fill:#5E5D57;" cx="204.808" cy="352.177" r="6.239"/>
	<circle style="fill:#5E5D57;" cx="214.654" cy="352.177" r="6.239"/>
	<circle style="fill:#5E5D57;" cx="224.492" cy="352.177" r="6.239"/>
	<circle style="fill:#5E5D57;" cx="234.338" cy="352.177" r="6.239"/>
	<circle style="fill:#5E5D57;" cx="244.192" cy="352.177" r="6.239"/>
	<circle style="fill:#5E5D57;" cx="254.039" cy="352.177" r="6.239"/>
	<circle style="fill:#5E5D57;" cx="263.877" cy="352.177" r="6.239"/>
	<circle style="fill:#5E5D57;" cx="273.723" cy="352.177" r="6.239"/>
	<circle style="fill:#5E5D57;" cx="283.577" cy="352.177" r="6.239"/>
	<circle style="fill:#5E5D57;" cx="293.423" cy="352.177" r="6.239"/>
	<circle style="fill:#5E5D57;" cx="303.262" cy="352.177" r="6.239"/>
	<circle style="fill:#5E5D57;" cx="313.108" cy="352.177" r="6.239"/>
	<circle style="fill:#5E5D57;" cx="322.962" cy="352.177" r="6.239"/>
	<circle style="fill:#5E5D57;" cx="332.808" cy="352.177" r="6.239"/>
	<circle style="fill:#5E5D57;" cx="342.646" cy="352.177" r="6.239"/>
	<circle style="fill:#5E5D57;" cx="352.492" cy="352.177" r="6.239"/>
	<circle style="fill:#5E5D57;" cx="362.338" cy="352.177" r="6.239"/>
	<circle style="fill:#5E5D57;" cx="372.193" cy="352.177" r="6.239"/>
</g>
</svg>