<?xml version="1.0" encoding="iso-8859-1"?>
<!-- Uploaded to: SVG Repo, www.svgrepo.com, Generator: SVG Repo Mixer Tools -->
<svg version="1.1" id="Layer_1" xmlns="http://www.w3.org/2000/svg" xmlns:xlink="http://www.w3.org/1999/xlink" 
	 viewBox="0 0 504.123 504.123" xml:space="preserve">
<g>
	<path style="fill:#4F340E;" d="M249.304,361.913c0,19.503-15.817,124.668-35.336,124.668c-19.495,0-35.304-105.173-35.304-124.668
		c0-19.495,15.817-35.32,35.304-35.32C233.495,326.593,249.304,342.418,249.304,361.913z"/>
	<path style="fill:#4F340E;" d="M367.662,361.913c0,19.503-15.817,124.668-35.336,124.668c-19.495,0-35.304-105.173-35.304-124.668
		c0-19.495,15.817-35.32,35.304-35.32C351.846,326.593,367.662,342.418,367.662,361.913z"/>
</g>
<path style="fill:#684713;" d="M372.798,315.242c0,126.33-44.599,84.259-99.643,84.259c-55.028,0-99.643,42.071-99.643-84.259
	c0-72.231,44.631-130.788,99.643-130.788C328.183,184.462,372.798,243.019,372.798,315.242z"/>
<path style="fill:#B7530F;" d="M253.723,487.219c0,14.935-17.802,16.904-39.739,16.904s-39.739-1.961-39.739-16.904
	c0-14.943,17.802-35.509,39.739-35.509S253.723,472.277,253.723,487.219z"/>
<path style="fill:#9B4308;" d="M253.723,487.219c0,14.935-17.802,16.904-39.739,16.904s-39.739-1.961-39.739-16.904"/>
<path style="fill:#B7530F;" d="M372.073,487.219c0,14.935-17.802,16.904-39.739,16.904s-39.739-1.961-39.739-16.904
	c0-14.943,17.802-35.509,39.739-35.509S372.073,472.277,372.073,487.219z"/>
<path style="fill:#9B4308;" d="M372.073,487.219c0,14.935-17.802,16.904-39.739,16.904s-39.739-1.961-39.739-16.904"/>
<g>
	<path style="fill:#684713;" d="M262.167,203.768c10.027,11.28,3.663,33.304-14.218,49.223
		c-17.881,15.896-114.018,85.024-124.062,73.767c-10.012-11.296,69.892-98.714,87.773-114.609
		C229.525,196.254,252.139,192.496,262.167,203.768z"/>
	<path style="fill:#684713;" d="M284.135,203.768c-10.027,11.28-3.663,33.304,14.218,49.223
		c17.881,15.896,114.018,85.024,124.062,73.767c10.012-11.296-69.892-98.714-87.773-114.609
		C316.785,196.254,294.171,192.496,284.135,203.768z"/>
</g>
<rect x="252.478" y="199.546" style="fill:#E2DED3;" width="41.354" height="141.131"/>
<path style="fill:#C6BFAF;" d="M252.478,233.669c6.751,0.622,13.627,1.024,20.693,1.024c7.05,0,13.926-0.402,20.661-1.024v-34.123
	h-41.354V233.669z"/>
<polygon style="fill:#D62B2B;" points="279.275,218.577 289.523,322.465 273.155,334.36 256.787,322.465 267.027,218.577 "/>
<polyline style="fill:#AA1111;" points="267.027,218.577 279.275,218.577 289.523,322.465 273.155,334.36 "/>
<path style="fill:#F9C1AC;" d="M402.108,124.258c0,63.008-57.738,94.681-128.937,94.681c-71.215,0-128.969-31.673-128.969-94.681
	C144.202,61.235,201.956,0,273.171,0C344.37,0,402.108,61.235,402.108,124.258z"/>
<path style="fill:#F2B09C;" d="M402.108,124.258c0,63.008-57.738,94.681-128.937,94.681c-71.215,0-128.969-31.673-128.969-94.681"/>
<circle style="fill:#113E49;" cx="211.841" cy="136.428" r="11.532"/>
<path d="M223.365,136.428c0,6.388-5.167,11.54-11.54,11.54c-6.372,0-11.524-5.152-11.524-11.54"/>
<path style="fill:#FFD3C5;" d="M234.582,160.484c-0.614,0-1.245-0.221-1.725-0.717c-5.632-5.624-13.107-8.72-21.047-8.72h-0.016
	c-7.94,0-15.399,3.104-21,8.712c-0.953,0.953-2.489,0.977-3.434,0.008c-0.953-0.922-0.985-2.458-0.032-3.419
	c6.538-6.546,15.218-10.161,24.458-10.161h0.016c9.263,0,17.952,3.592,24.505,10.145c0.937,0.937,0.937,2.505,0,3.434
	C235.842,160.264,235.228,160.484,234.582,160.484z"/>
<circle style="fill:#113E49;" cx="334.485" cy="136.428" r="11.532"/>
<path d="M322.953,136.428c0,6.388,5.151,11.54,11.54,11.54c6.372,0,11.524-5.152,11.524-11.54"/>
<path style="fill:#FFD3C5;" d="M311.736,160.484c0.599,0,1.229-0.221,1.709-0.717c5.632-5.624,13.107-8.72,21.047-8.72h0.016
	c7.94,0,15.415,3.104,21.016,8.712c0.937,0.953,2.473,0.977,3.434,0.008c0.953-0.922,0.969-2.458,0.016-3.419
	c-6.506-6.546-15.218-10.161-24.458-10.161h-0.016c-9.247,0-17.936,3.592-24.505,10.145c-0.922,0.937-0.922,2.505,0,3.434
	C310.476,160.264,311.09,160.484,311.736,160.484z"/>
<path style="fill:#A54B08;" d="M273.171,0c-1.788,0-3.505,0.205-5.27,0.284c-0.898,1.182-1.638,2.442-2.087,3.812
	c-6.097,18.81,32.989,48.356,87.3,65.946c13.698,4.435,27.057,7.688,39.471,9.775C373.397,35.281,327.199,0,273.171,0z"/>
<path style="fill:#BC5806;" d="M330.586,14.131C313.272,5.27,293.816,0,273.171,0C218.82,0,172.401,35.698,153.418,80.605
	c20.33,4.624,54.185,1.197,90.49-10.563C289.311,55.335,323.977,32.288,330.586,14.131z"/>
<path style="fill:#CE910B;" d="M294.029,355.454c0,5.254-4.261,9.515-9.523,9.515h-22.307c-5.262,0-9.523-4.261-9.523-9.515l0,0
	c0-5.262,4.261-9.523,9.523-9.523h22.307C289.767,345.931,294.029,350.192,294.029,355.454L294.029,355.454z"/>
<path style="fill:#E5AA15;" d="M284.506,345.931h-22.307c-4.356,0-7.861,2.962-9.003,6.94c1.142,3.97,4.647,6.932,9.003,6.932
	h22.307c4.348,0,7.861-2.962,9.003-6.932C292.367,348.893,288.854,345.931,284.506,345.931z"/>
<path style="fill:#AA1111;" d="M285.632,165.297c0,4.49-5.6,8.153-12.477,8.153c-6.884,0-12.469-3.663-12.469-8.153
	c0-4.513,5.585-1.812,12.469-1.812C280.032,163.486,285.632,160.784,285.632,165.297z"/>
<path style="fill:#D62B2B;" d="M262.923,169.945c2.253,2.119,5.994,3.505,10.232,3.505c4.23,0,7.979-1.394,10.232-3.505
	c-2.253-2.127-6.002-3.513-10.232-3.513C268.917,166.432,265.176,167.826,262.923,169.945z"/>
<g>
	<path style="fill:#E5AA15;" d="M336.698,266.508c0,1.457-1.174,2.623-2.623,2.623h-25.6c-1.449,0-2.623-1.166-2.623-2.623l0,0
		c0-1.457,1.174-2.623,2.623-2.623h25.6C335.525,263.885,336.698,265.051,336.698,266.508L336.698,266.508z"/>
	<path style="fill:#E5AA15;" d="M135.151,327.499c-2.812,2.812-51.358,46.781-54.177,43.961c-2.82-2.82,41.149-51.365,43.961-54.177
		c2.82-2.82,7.396-2.828,10.224-0.008C137.987,320.095,137.971,324.679,135.151,327.499z"/>
</g>
<path style="fill:#C98E0A;" d="M135.159,317.275c2.82,2.82,2.804,7.396-0.008,10.224c-2.812,2.812-51.358,46.781-54.177,43.961"/>
<circle style="fill:#6BCDDD;" cx="241.191" cy="146.432" r="17.865"/>
<path style="fill:#426877;" d="M241.214,168.204c-12.028,0-21.811-9.775-21.811-21.803s9.775-21.803,21.811-21.803
	c12.012,0,21.803,9.775,21.803,21.803S253.226,168.204,241.214,168.204z M241.214,132.482c-7.688,0-13.934,6.246-13.934,13.926
	s6.246,13.926,13.934,13.926c7.68,0,13.926-6.246,13.926-13.926S248.894,132.482,241.214,132.482z"/>
<circle style="fill:#6BCDDD;" cx="305.072" cy="146.432" r="17.865"/>
<path style="fill:#426877;" d="M305.088,168.204c-12.012,0-21.803-9.775-21.803-21.803s9.783-21.803,21.803-21.803
	c12.028,0,21.803,9.775,21.803,21.803S317.124,168.204,305.088,168.204z M305.088,132.482c-7.68,0-13.926,6.246-13.926,13.926
	s6.246,13.926,13.926,13.926c7.688,0,13.926-6.246,13.926-13.926S312.776,132.482,305.088,132.482z"/>
<rect x="259.079" y="142.47" style="fill:#426877;" width="29.538" height="7.877"/>
</svg>