<?xml version="1.0" encoding="iso-8859-1"?>
<!-- Uploaded to: SVG Repo, www.svgrepo.com, Generator: SVG Repo Mixer Tools -->
<svg height="800px" width="800px" version="1.1" id="Layer_1" xmlns="http://www.w3.org/2000/svg" xmlns:xlink="http://www.w3.org/1999/xlink" 
	 viewBox="0 0 504.123 504.123" xml:space="preserve">
<g>
	<path style="fill:#D39959;" d="M95.547,188.731c-29.775-19.779-60.345-37.179-65.78-31.098
		c-5.293,5.963,14.517,33.178,37.006,59.872L95.547,188.731z"/>
	<path style="fill:#D39959;" d="M293.856,214.426c21.402-25.679,39.526-51.058,34.438-56.793
		c-5.222-5.845-33.713,10.035-62.377,28.853L293.856,214.426z"/>
</g>
<g>
	<path style="fill:#960808;" d="M155.183,361.913c0,19.503-15.817,124.668-35.336,124.668c-19.495,0-35.304-105.173-35.304-124.668
		c0-19.495,15.817-35.32,35.304-35.32C139.366,326.593,155.183,342.418,155.183,361.913z"/>
	<path style="fill:#960808;" d="M273.541,361.913c0,19.503-15.817,124.668-35.336,124.668c-19.495,0-35.304-105.173-35.304-124.668
		c0-19.495,15.817-35.32,35.304-35.32C257.725,326.593,273.541,342.418,273.541,361.913z"/>
</g>
<g>
	<path style="fill:#F28E0A;" d="M264.357,247.958c29.499-31.902,71.357-81.959,63.937-90.325
		c-7.136-7.995-57.754,24.608-92.861,49.837C247.154,218.065,256.992,231.904,264.357,247.958z"/>
	<path style="fill:#F28E0A;" d="M122.627,207.47c-35.107-25.23-85.725-57.832-92.861-49.837
		c-7.412,8.365,34.446,58.423,63.937,90.325C101.068,231.912,110.907,218.073,122.627,207.47z"/>
	<path style="fill:#F28E0A;" d="M240.521,272.242c-17.865,15.896-40.48,19.645-50.507,8.381
		c-10.027-11.28-3.663-33.312,14.218-49.231c5.167-4.592,16.904-13.651,31.201-23.93c-16.045-14.494-35.462-23.001-56.399-23.001
		s-40.353,8.515-56.399,23.001c14.289,10.279,26.033,19.338,31.2,23.93c17.881,15.919,24.245,37.951,14.218,49.231
		c-10.027,11.264-32.65,7.507-50.507-8.381c-4.647-4.128-13.485-13.099-23.828-24.292c-9.027,19.684-14.32,42.646-14.32,67.293
		c0,126.33,44.615,84.259,99.643,84.259c55.044,0,99.643,42.071,99.643-84.259c0-24.647-5.293-47.616-14.32-67.293
		C254.007,259.143,245.169,268.115,240.521,272.242z"/>
	<path style="fill:#F28E0A;" d="M190.014,280.631c10.027,11.264,32.65,7.507,50.507-8.381c4.647-4.128,13.485-13.099,23.828-24.292
		c-7.365-16.045-17.203-29.893-28.924-40.487c-14.289,10.279-26.033,19.338-31.201,23.93
		C186.352,247.32,179.987,269.351,190.014,280.631z"/>
	<path style="fill:#F28E0A;" d="M117.539,272.242c17.865,15.896,40.48,19.645,50.507,8.381c10.027-11.28,3.663-33.312-14.218-49.231
		c-5.167-4.592-16.904-13.651-31.2-23.93c-11.721,10.602-21.559,24.45-28.924,40.487
		C104.054,259.143,112.892,268.115,117.539,272.242z"/>
</g>
<path style="fill:#FF7300;" d="M159.602,487.219c0,14.935-17.802,16.904-39.739,16.904s-39.739-1.961-39.739-16.904
	c0-14.943,17.802-35.509,39.739-35.509S159.602,472.277,159.602,487.219z"/>
<path style="fill:#FF4800;" d="M159.602,487.219c0,14.935-17.802,16.904-39.739,16.904s-39.739-1.961-39.739-16.904"/>
<path style="fill:#FF7300;" d="M277.952,487.219c0,14.935-17.802,16.904-39.739,16.904c-21.937,0-39.739-1.961-39.739-16.904
	c0-14.943,17.802-35.509,39.739-35.509S277.952,472.277,277.952,487.219z"/>
<path style="fill:#FF4800;" d="M277.952,487.219c0,14.935-17.802,16.904-39.739,16.904c-21.937,0-39.739-1.961-39.739-16.904"/>
<path style="fill:#EFC286;" d="M307.987,124.258c0,63.008-57.738,94.681-128.937,94.681c-71.215,0-128.969-31.673-128.969-94.681
	C50.073,61.235,107.827,0,179.042,0C250.249,0,307.987,61.235,307.987,124.258z"/>
<path style="fill:#E8B374;" d="M307.987,124.258c0,63.008-57.738,94.681-128.937,94.681c-71.215,0-128.969-31.673-128.969-94.681"/>
<g>
	<path style="fill:#232728;" d="M157.766,178.397c-0.614,0-1.245-0.221-1.725-0.717c-5.632-5.624-13.107-8.72-21.047-8.72h-0.016
		c-7.94,0-15.399,3.104-21,8.712c-0.953,0.953-2.489,0.977-3.434,0.008c-0.953-0.922-0.985-2.458-0.032-3.419
		c6.538-6.546,15.218-10.161,24.458-10.161h0.016c9.263,0,17.952,3.592,24.505,10.145c0.937,0.937,0.937,2.505,0,3.434
		C159.027,178.176,158.412,178.397,157.766,178.397z"/>
	<path style="fill:#232728;" d="M234.921,178.397c0.599,0,1.229-0.221,1.709-0.717c5.632-5.624,13.107-8.72,21.047-8.72h0.016
		c7.94,0,15.415,3.104,21.016,8.712c0.937,0.953,2.473,0.977,3.434,0.008c0.953-0.922,0.969-2.458,0.016-3.419
		c-6.506-6.546-15.218-10.161-24.458-10.161h-0.016c-9.248,0-17.936,3.592-24.505,10.145c-0.922,0.937-0.922,2.505,0,3.434
		C233.661,178.176,234.275,178.397,234.921,178.397z"/>
</g>
<path style="fill:#E09B00;" d="M475.214,431.309c0,36.974-37.384,48.908-83.511,48.908s-83.511-11.934-83.511-48.908
	c0-36.982,37.384-66.954,83.511-66.954S475.214,394.327,475.214,431.309z"/>
<path style="fill:#EFB600;" d="M308.2,431.309c0-36.982,37.384-66.954,83.511-66.954"/>
<path style="fill:#DB8C00;" d="M391.711,364.355c46.119,0,83.511,29.972,83.511,66.954c0,36.974-37.384,48.908-83.511,48.908"/>
<path style="fill:#E09B00;" d="M391.711,364.355c46.119,0,83.511,29.972,83.511,66.954"/>
<path style="fill:#F4C237;" d="M453.742,346.466c0,27.467-27.766,36.328-62.031,36.328s-62.047-8.862-62.047-36.328
	s27.782-49.727,62.047-49.727S453.742,319,453.742,346.466z"/>
<path style="fill:#EFB600;" d="M453.742,346.466c0,27.467-27.766,36.328-62.031,36.328s-62.047-8.862-62.047-36.328
	s27.782-44.772,62.047-44.772S453.742,319,453.742,346.466z"/>
<path style="fill:#EDA900;" d="M453.742,346.466c0,27.467-27.766,36.328-62.031,36.328s-62.047-8.862-62.047-36.328"/>
<circle style="fill:#2D2612;" cx="364.118" cy="330.949" r="6.774"/>
<path style="fill:#443B23;" d="M357.336,330.949c0,0.685,0.142,1.339,0.331,1.961c0.622,0.181,1.284,0.323,1.961,0.323
	c3.742,0,6.766-3.041,6.766-6.774c0-0.685-0.126-1.339-0.315-1.961c-0.622-0.197-1.268-0.331-1.961-0.331
	C360.369,324.159,357.336,327.2,357.336,330.949z"/>
<circle style="fill:#2D2612;" cx="419.28" cy="330.949" r="6.774"/>
<path style="fill:#443B23;" d="M412.506,330.949c0,0.685,0.142,1.339,0.323,1.961c0.63,0.181,1.276,0.323,1.969,0.323
	c3.742,0,6.766-3.041,6.766-6.774c0-0.685-0.142-1.339-0.323-1.961c-0.614-0.197-1.26-0.331-1.953-0.331
	C415.539,324.159,412.506,327.2,412.506,330.949z"/>
<path style="fill:#D15400;" d="M406.165,341.772l-13.367-9.452c-0.662-0.473-1.528-0.473-2.182,0l-13.375,9.452
	c-0.52,0.37-0.819,0.977-0.796,1.615c0.016,0.638,0.37,1.221,0.906,1.544l13.367,8.042c0.307,0.181,0.646,0.276,0.985,0.276
	c0.323,0,0.67-0.095,0.969-0.276l13.375-8.042c0.543-0.323,0.882-0.906,0.914-1.544
	C406.992,342.749,406.693,342.142,406.165,341.772z"/>
<path style="fill:#FF6D00;" d="M406.165,341.772l-13.367-9.452c-0.662-0.473-1.528-0.473-2.182,0l-13.375,9.452
	c-0.52,0.37-0.819,0.977-0.796,1.615c0.016,0.638,0.37,1.221,0.906,1.544l13.367,2.521c0.307,0.173,0.646,0.268,0.985,0.268
	c0.323,0,0.67-0.095,0.969-0.268l13.375-2.521c0.543-0.323,0.882-0.906,0.914-1.544
	C406.992,342.749,406.693,342.142,406.165,341.772z"/>
<ellipse style="fill:#DB8C00;" cx="374.311" cy="470.174" rx="10.524" ry="3.308"/>
<g>
	<path style="fill:#D15400;" d="M380.148,489.362c0,3.127-2.544,5.671-5.679,5.671l0,0c-3.127,0-5.671-2.536-5.671-5.671v-17.66
		c0-3.127,2.536-1.89,5.671-1.89l0,0c3.127,0,5.679-1.237,5.679,1.89V489.362z"/>
	<path style="fill:#D15400;" d="M354.445,504.123c-2.095,0-3.781-1.694-3.781-3.781c0-6.065,4.931-10.988,10.988-10.988h13.926
		c2.095,0,3.781,1.694,3.781,3.781s-1.694,3.773-3.781,3.773h-13.926c-1.89,0-3.419,1.536-3.419,3.426
		C358.234,502.43,356.541,504.123,354.445,504.123z"/>
	<path style="fill:#D15400;" d="M365.323,504.123c-2.095,0-3.781-1.694-3.781-3.781c0-6.065,4.931-10.988,10.988-10.988h10.106
		c2.087,0,3.773,1.694,3.773,3.781s-1.694,3.773-3.773,3.773h-10.106c-1.89,0-3.419,1.536-3.419,3.426
		C369.104,502.43,367.419,504.123,365.323,504.123z"/>
</g>
<ellipse style="fill:#E09B00;" cx="409.048" cy="470.174" rx="10.524" ry="3.308"/>
<g>
	<path style="fill:#D15400;" d="M403.266,489.362c0,3.127,2.544,5.671,5.679,5.671l0,0c3.127,0,5.671-2.536,5.671-5.671v-17.66
		c0-3.127-2.536-1.89-5.671-1.89l0,0c-3.127,0-5.679-1.237-5.679,1.89V489.362z"/>
	<path style="fill:#D15400;" d="M428.969,504.123c2.095,0,3.781-1.694,3.781-3.781c0-6.065-4.931-10.988-10.996-10.988h-13.919
		c-2.103,0-3.789,1.694-3.789,3.781s1.694,3.773,3.789,3.773h13.919c1.883,0,3.426,1.536,3.426,3.426
		C425.188,502.43,426.874,504.123,428.969,504.123z"/>
	<path style="fill:#D15400;" d="M418.091,504.123c2.095,0,3.781-1.694,3.781-3.781c0-6.065-4.939-10.988-10.988-10.988h-10.106
		c-2.095,0-3.781,1.694-3.781,3.781s1.694,3.773,3.781,3.773h10.106c1.875,0,3.419,1.536,3.419,3.426
		C414.31,502.43,415.996,504.123,418.091,504.123z"/>
	<path style="fill:#D15400;" d="M220.388,322.087c0-11.28-7.428-21.11-18.542-26.695c5.191-2.662,8.413-6.908,8.413-13.312
		c0-12.958-13.099-23.457-29.263-23.457c-16.156,0-29.263,10.5-29.263,23.457c0,6.404,3.222,10.657,8.413,13.312
		c-11.106,5.585-18.542,15.415-18.542,26.695c0,14.415,12.107,20.693,28.577,22.457v4.931h-3.371c-2.851,0-5.175,2.316-5.175,5.175
		c0,0.985,0.796,1.788,1.788,1.788c0.985,0,1.788-0.803,1.788-1.788c0-0.89,0.717-1.615,1.607-1.615h0.268
		c-0.165,0.512-0.323,1.04-0.323,1.615c0,0.985,0.803,1.788,1.788,1.788c0.992,0,1.788-0.803,1.788-1.788
		c0-0.89,0.725-1.615,1.615-1.615h1.434h3.34c0.985,0,1.78-0.803,1.78-1.78c0-0.992-0.796-1.788-1.78-1.788h-1.182v-4.506
		c1.804,0.095,3.592,0.189,5.459,0.189c1.859,0,3.663-0.102,5.443-0.189v4.506h-1.166c-0.985,0-1.788,0.796-1.788,1.788
		c0,0.977,0.803,1.78,1.788,1.78h3.332h1.441c0.89,0,1.615,0.725,1.615,1.615c0,0.985,0.803,1.788,1.788,1.788
		c0.985,0,1.788-0.803,1.788-1.788c0-0.575-0.158-1.103-0.323-1.615h0.268c0.882,0,1.607,0.725,1.607,1.615
		c0,0.985,0.803,1.788,1.796,1.788c0.977,0,1.78-0.803,1.78-1.788c0-2.859-2.324-5.175-5.175-5.175h-3.395v-4.939
		C208.257,342.78,220.388,336.51,220.388,322.087z"/>
</g>
<path style="fill:#26BC30;" d="M179.042,0C107.827,0,50.073,61.235,50.073,124.258c0,5.254,0.536,10.208,1.323,15.021l0.488,1.182
	l32.492-54.154l49.231,16.738v-12.8l31.508,17.723l4.923-15.754l82.708,39.385l0.985-48.246L275.392,106l0.985-25.6l18.708,18.708
	l2.954-12.8l6.538,11.689C291.398,45.269,240.246,0,179.042,0z"/>
</svg>