<?xml version="1.0" encoding="iso-8859-1"?>
<!-- Uploaded to: SVG Repo, www.svgrepo.com, Generator: SVG Repo Mixer Tools -->
<svg height="800px" width="800px" version="1.1" id="Layer_1" xmlns="http://www.w3.org/2000/svg" xmlns:xlink="http://www.w3.org/1999/xlink" 
	 viewBox="0 0 504.123 504.123" xml:space="preserve">
<g>
	<path style="fill:#CE1111;" d="M263.042,280.631c-10.027-11.28-3.663-33.312,14.226-49.231
		c17.873-15.896,114.003-85.016,124.062-73.767c10.012,11.296-69.908,98.721-87.788,114.617
		C295.692,288.138,273.069,291.895,263.042,280.631z"/>
	<path style="fill:#CE1111;" d="M241.073,280.631c10.027-11.28,3.663-33.312-14.218-49.231
		c-17.881-15.896-114.026-85.016-124.062-73.767c-10.012,11.296,69.892,98.721,87.765,114.617S231.046,291.895,241.073,280.631z"/>
</g>
<g>
	<path style="fill:#960808;" d="M228.21,361.913c0,19.503-15.817,124.668-35.336,124.668c-19.495,0-35.304-105.173-35.304-124.668
		c0-19.495,15.817-35.32,35.304-35.32C212.393,326.593,228.21,342.418,228.21,361.913z"/>
	<path style="fill:#960808;" d="M346.569,361.913c0,19.503-15.809,124.668-35.336,124.668c-19.495,0-35.304-105.173-35.304-124.668
		c0-19.495,15.817-35.32,35.304-35.32C330.76,326.593,346.569,342.418,346.569,361.913z"/>
</g>
<path style="fill:#CE1111;" d="M351.705,315.242c0,126.33-44.599,84.259-99.643,84.259c-55.028,0-99.643,42.071-99.643-84.259
	c0-72.231,44.631-130.788,99.643-130.788C307.09,184.462,351.705,243.019,351.705,315.242z"/>
<path style="fill:#EAA10F;" d="M260.427,332.965c0,4.624-3.749,8.365-8.365,8.365l0,0c-4.624,0-8.365-3.749-8.365-8.365V210.873
	c0-4.624,3.749-8.365,8.365-8.365l0,0c4.624,0,8.365,3.749,8.365,8.365V332.965z"/>
<path style="fill:#FFCE00;" d="M232.629,487.219c0,14.935-17.802,16.904-39.739,16.904s-39.747-1.961-39.747-16.904
	c0-14.943,17.81-35.509,39.747-35.509S232.629,472.277,232.629,487.219z"/>
<path style="fill:#EAA10F;" d="M232.629,487.219c0,14.935-17.802,16.904-39.739,16.904s-39.747-1.961-39.747-16.904"/>
<path style="fill:#FFCE00;" d="M350.972,487.219c0,14.935-17.794,16.904-39.731,16.904s-39.739-1.961-39.739-16.904
	c0-14.943,17.802-35.509,39.739-35.509S350.972,472.277,350.972,487.219z"/>
<path style="fill:#EAA10F;" d="M350.972,487.219c0,14.935-17.794,16.904-39.731,16.904s-39.739-1.961-39.739-16.904"/>
<path style="fill:#EFC286;" d="M381.015,124.258c0,63.008-57.746,94.681-128.937,94.681c-71.215,0-128.969-31.673-128.969-94.681
	C123.101,61.235,180.854,0,252.069,0C323.269,0,381.015,61.235,381.015,124.258z"/>
<path style="fill:#E8B374;" d="M381.015,124.258c0,63.008-57.746,94.681-128.937,94.681c-71.215,0-128.969-31.673-128.969-94.681"/>
<g>
	<path style="fill:#232728;" d="M213.488,141.871c-0.622,0-1.245-0.221-1.725-0.717c-5.632-5.624-13.107-8.72-21.047-8.72H190.7
		c-7.94,0-15.399,3.104-21,8.712c-0.953,0.953-2.489,0.977-3.442,0.008c-0.945-0.922-0.977-2.458-0.024-3.419
		c6.538-6.546,15.218-10.161,24.458-10.161h0.016c9.263,0,17.944,3.592,24.513,10.145c0.922,0.937,0.922,2.505,0,3.434
		C214.749,141.643,214.134,141.871,213.488,141.871z"/>
	<path style="fill:#232728;" d="M290.643,141.871c0.591,0,1.221-0.221,1.717-0.717c5.624-5.624,13.099-8.72,21.039-8.72h0.008
		c7.948,0,15.423,3.104,21.016,8.712c0.937,0.953,2.473,0.977,3.434,0.008c0.961-0.922,0.977-2.458,0.024-3.419
		c-6.506-6.546-15.218-10.161-24.466-10.161h-0.008c-9.247,0-17.944,3.592-24.513,10.145c-0.922,0.937-0.922,2.505,0,3.434
		C289.382,141.643,289.997,141.871,290.643,141.871z"/>
</g>
<path style="fill:#870E0E;" d="M280.482,161.871c0,19.803-12.737,35.879-28.42,35.879c-15.691,0-28.436-16.077-28.436-35.879
	c0-19.834,12.745-7.987,28.436-7.987C267.745,153.884,280.482,142.037,280.482,161.871z"/>
<path style="fill:#AA1111;" d="M252.054,168.763c-9.318,0-17.51,5.742-22.701,14.486c5.191,8.751,13.391,14.501,22.709,14.501
	s17.518-5.742,22.701-14.486C269.572,174.505,261.372,168.763,252.054,168.763z"/>
<path style="fill:#EAA10F;" d="M134.144,76.469h235.827C349.956,33.532,304.727,0,252.069,0
	C199.404,0,154.175,33.532,134.144,76.469z"/>
<path style="fill:#CE1111;" d="M252.069,0c-44.56,0-83.732,24.04-106.882,57.431h213.748C335.785,24.04,296.621,0,252.069,0z"/>
<path style="fill:#E80C0C;" d="M252.069,0c-44.56,0-83.732,24.04-106.882,57.431"/>
<g>
	<path style="fill:#FFCE00;" d="M139.083,66.954H365.04c0,0-3.19-6.034-6.105-9.523H145.188
		C142.895,60.715,139.083,66.954,139.083,66.954z"/>
	<path style="fill:#FFCE00;" d="M286.114,249.273c0,1.906-1.536,3.45-3.45,3.45h-59.077c-1.906,0-3.45-1.536-3.45-3.45l0,0
		c0-1.906,1.536-3.45,3.45-3.45h59.077C284.57,245.823,286.114,247.359,286.114,249.273L286.114,249.273z"/>
	<circle style="fill:#FFCE00;" cx="203.067" cy="249.305" r="5.577"/>
	<circle style="fill:#FFCE00;" cx="303.183" cy="249.305" r="5.577"/>
	<path style="fill:#FFCE00;" d="M286.114,273.558c0,1.906-1.536,3.45-3.45,3.45h-59.077c-1.906,0-3.45-1.536-3.45-3.45l0,0
		c0-1.906,1.536-3.45,3.45-3.45h59.077C284.57,270.115,286.114,271.651,286.114,273.558L286.114,273.558z"/>
	<circle style="fill:#FFCE00;" cx="203.067" cy="273.566" r="5.577"/>
	<circle style="fill:#FFCE00;" cx="303.183" cy="273.566" r="5.577"/>
	<path style="fill:#FFCE00;" d="M286.114,297.85c0,1.906-1.536,3.45-3.45,3.45h-59.077c-1.906,0-3.45-1.536-3.45-3.45l0,0
		c0-1.906,1.536-3.45,3.45-3.45h59.077C284.57,294.408,286.114,295.944,286.114,297.85L286.114,297.85z"/>
	<circle style="fill:#FFCE00;" cx="203.067" cy="297.826" r="5.577"/>
	<circle style="fill:#FFCE00;" cx="303.183" cy="297.826" r="5.577"/>
	<path style="fill:#FFCE00;" d="M286.114,322.143c0,1.906-1.536,3.45-3.45,3.45h-59.077c-1.906,0-3.45-1.536-3.45-3.45l0,0
		c0-1.906,1.536-3.45,3.45-3.45h59.077C284.57,318.7,286.114,320.236,286.114,322.143L286.114,322.143z"/>
	<circle style="fill:#FFCE00;" cx="203.067" cy="322.166" r="5.577"/>
	<circle style="fill:#FFCE00;" cx="303.183" cy="322.166" r="5.577"/>
</g>
</svg>