<?xml version="1.0" encoding="iso-8859-1"?>
<!-- Uploaded to: SVG Repo, www.svgrepo.com, Generator: SVG Repo Mixer Tools -->
<svg version="1.1" id="Layer_1" xmlns="http://www.w3.org/2000/svg" xmlns:xlink="http://www.w3.org/1999/xlink" 
	 viewBox="0 0 504.123 504.123" xml:space="preserve">
<g>
	<path style="fill:#232728;" d="M351.705,315.242c0,126.33-44.599,84.259-99.643,84.259c-55.028,0-99.643,42.071-99.643-84.259
		c0-72.231,44.631-130.788,99.643-130.788C307.09,184.462,351.705,243.019,351.705,315.242z"/>
	<path style="fill:#232728;" d="M228.218,361.913c0,19.503-15.817,124.668-35.336,124.668c-19.495,0-35.304-105.173-35.304-124.668
		c0-19.495,15.817-35.32,35.304-35.32C212.401,326.593,228.218,342.418,228.218,361.913z"/>
	<path style="fill:#232728;" d="M346.569,361.913c0,19.503-15.817,124.668-35.336,124.668c-19.495,0-35.304-105.173-35.304-124.668
		c0-19.495,15.817-35.32,35.304-35.32C330.752,326.593,346.569,342.418,346.569,361.913z"/>
</g>
<path style="fill:#8D97A0;" d="M232.629,487.219c0,14.935-17.802,16.904-39.739,16.904s-39.739-1.961-39.739-16.904
	c0-14.943,17.802-35.509,39.739-35.509S232.629,472.277,232.629,487.219z"/>
<path style="fill:#79848C;" d="M232.629,487.219c0,14.935-17.802,16.904-39.739,16.904s-39.739-1.961-39.739-16.904"/>
<path style="fill:#8D97A0;" d="M350.988,487.219c0,14.935-17.802,16.904-39.739,16.904s-39.739-1.961-39.739-16.904
	c0-14.943,17.802-35.509,39.739-35.509S350.988,472.277,350.988,487.219z"/>
<path style="fill:#79848C;" d="M350.988,487.219c0,14.935-17.802,16.904-39.739,16.904s-39.739-1.961-39.739-16.904"/>
<g>
	<path style="fill:#232728;" d="M241.073,203.768c10.027,11.28,3.663,33.304-14.218,49.223
		c-17.881,15.896-114.018,85.024-124.062,73.767c-10.012-11.296,69.892-98.714,87.773-114.609
		C208.431,196.254,231.046,192.496,241.073,203.768z"/>
	<path style="fill:#232728;" d="M263.05,203.768c-10.027,11.28-3.663,33.304,14.218,49.223
		c17.881,15.896,114.018,85.024,124.062,73.767c10.012-11.296-69.892-98.714-87.773-114.609
		C295.692,196.254,273.077,192.496,263.05,203.768z"/>
</g>
<rect x="231.385" y="199.546" style="fill:#E2DED3;" width="41.354" height="141.131"/>
<path style="fill:#C6BFAF;" d="M231.385,233.669c6.751,0.622,13.627,1.024,20.693,1.024c7.05,0,13.926-0.402,20.661-1.024v-34.123
	h-41.354V233.669z"/>
<polygon style="fill:#444849;" points="258.182,218.577 268.43,322.465 252.062,334.36 235.693,322.465 245.949,218.577 "/>
<polyline style="fill:#232728;" points="245.949,218.577 258.182,218.577 268.43,322.465 252.062,334.36 "/>
<path style="fill:#F9C1AC;" d="M381.015,124.258c0,63.008-57.738,94.681-128.937,94.681c-71.215,0-128.969-31.673-128.969-94.681
	C123.108,61.235,180.862,0,252.077,0C323.277,0,381.015,61.235,381.015,124.258z"/>
<path style="fill:#F2B09C;" d="M381.015,124.258c0,63.008-57.738,94.681-128.937,94.681c-71.215,0-128.969-31.673-128.969-94.681"/>
<circle style="fill:#113E49;" cx="190.748" cy="136.428" r="11.532"/>
<path d="M202.279,136.428c0,6.388-5.167,11.54-11.54,11.54c-6.372,0-11.524-5.152-11.524-11.54"/>
<path style="fill:#FFD3C5;" d="M213.496,160.484c-0.614,0-1.245-0.221-1.725-0.717c-5.632-5.624-13.107-8.72-21.047-8.72h-0.016
	c-7.94,0-15.399,3.104-21,8.712c-0.953,0.953-2.489,0.977-3.434,0.008c-0.953-0.922-0.985-2.458-0.031-3.419
	c6.538-6.546,15.218-10.161,24.458-10.161h0.016c9.263,0,17.951,3.592,24.505,10.145c0.937,0.937,0.937,2.505,0,3.434
	C214.756,160.264,214.142,160.484,213.496,160.484z"/>
<circle style="fill:#113E49;" cx="313.423" cy="136.428" r="11.532"/>
<path d="M301.859,136.428c0,6.388,5.151,11.54,11.54,11.54c6.372,0,11.524-5.152,11.524-11.54"/>
<path style="fill:#FFD3C5;" d="M290.643,160.484c0.599,0,1.229-0.221,1.709-0.717c5.632-5.624,13.107-8.72,21.047-8.72h0.016
	c7.94,0,15.415,3.104,21.016,8.712c0.937,0.953,2.473,0.977,3.434,0.008c0.953-0.922,0.969-2.458,0.016-3.419
	c-6.506-6.546-15.218-10.161-24.458-10.161h-0.016c-9.248,0-17.936,3.592-24.505,10.145c-0.922,0.937-0.922,2.505,0,3.434
	C289.382,160.264,289.997,160.484,290.643,160.484z"/>
<path style="fill:#DDA507;" d="M252.077,0c-1.788,0-3.505,0.205-5.27,0.284c-0.898,1.182-1.638,2.442-2.087,3.812
	c-6.097,18.81,32.989,48.356,87.308,65.946c13.69,4.435,27.049,7.688,39.463,9.775C352.311,35.281,306.105,0,252.077,0z"/>
<path style="fill:#F4BB03;" d="M309.492,14.131C292.187,5.27,272.731,0,252.077,0c-54.351,0-100.769,35.698-119.753,80.605
	c20.33,4.624,54.185,1.197,90.49-10.563C268.217,55.335,302.883,32.288,309.492,14.131z"/>
<path style="fill:#8D97A0;" d="M272.935,355.454c0,5.254-4.261,9.515-9.523,9.515h-22.307c-5.262,0-9.523-4.261-9.523-9.515l0,0
	c0-5.262,4.261-9.523,9.523-9.523h22.307C268.674,345.931,272.935,350.192,272.935,355.454L272.935,355.454z"/>
<path style="fill:#A7B1B7;" d="M263.412,345.931h-22.307c-4.348,0-7.861,2.962-9.003,6.94c1.142,3.97,4.655,6.932,9.003,6.932
	h22.307c4.348,0,7.861-2.962,9.003-6.932C271.273,348.893,267.76,345.931,263.412,345.931z"/>
<path style="fill:#AA1111;" d="M280.489,168.637c0,10.264-12.737,18.597-28.428,18.597s-28.428-8.342-28.428-18.597
	c0-10.279,12.737-4.135,28.428-4.135S280.489,158.358,280.489,168.637z"/>
<path style="fill:#D62B2B;" d="M228.738,179.239c5.136,4.821,13.659,8.003,23.324,8.003s18.188-3.174,23.324-8.003
	c-5.136-4.829-13.659-8.011-23.324-8.011S233.874,174.411,228.738,179.239z"/>
<path style="fill:#E2DED3;" d="M315.605,266.508c0,1.457-1.174,2.623-2.623,2.623h-25.6c-1.449,0-2.615-1.166-2.615-2.623l0,0
	c0-1.457,1.166-2.623,2.615-2.623h25.6C314.431,263.885,315.605,265.051,315.605,266.508L315.605,266.508z"/>
</svg>