<?xml version="1.0" encoding="iso-8859-1"?>
<!-- Uploaded to: SVG Repo, www.svgrepo.com, Generator: SVG Repo Mixer Tools -->
<svg height="800px" width="800px" version="1.1" id="Layer_1" xmlns="http://www.w3.org/2000/svg" xmlns:xlink="http://www.w3.org/1999/xlink" 
	 viewBox="0 0 504.123 504.123" xml:space="preserve">
<g>
	<path style="fill:#232728;" d="M399.16,315.242c0,126.33-44.599,84.259-99.643,84.259c-55.028,0-99.643,42.071-99.643-84.259
		c0-72.231,44.631-130.781,99.643-130.781C354.545,184.462,399.16,243.011,399.16,315.242z"/>
	<path style="fill:#232728;" d="M275.666,361.905c0,19.503-15.817,124.668-35.336,124.668c-19.495,0-35.304-105.173-35.304-124.668
		c0-19.495,15.817-35.32,35.304-35.32C259.849,326.585,275.666,342.41,275.666,361.905z"/>
	<path style="fill:#232728;" d="M394.017,361.905c0,19.503-15.817,124.668-35.336,124.668c-19.495,0-35.304-105.173-35.304-124.668
		c0-19.495,15.817-35.32,35.304-35.32C378.208,326.585,394.017,342.41,394.017,361.905z"/>
</g>
<path style="fill:#8D97A0;" d="M280.085,487.219c0,14.935-17.802,16.904-39.739,16.904s-39.739-1.969-39.739-16.904
	c0-14.943,17.802-35.509,39.739-35.509C262.283,451.71,280.085,472.269,280.085,487.219z"/>
<path style="fill:#79848C;" d="M280.085,487.219c0,14.935-17.802,16.904-39.739,16.904s-39.739-1.969-39.739-16.904"/>
<path style="fill:#8D97A0;" d="M398.436,487.219c0,14.935-17.802,16.904-39.739,16.904s-39.739-1.969-39.739-16.904
	c0-14.943,17.802-35.509,39.739-35.509S398.436,472.269,398.436,487.219z"/>
<path style="fill:#79848C;" d="M398.436,487.219c0,14.935-17.802,16.904-39.739,16.904s-39.739-1.969-39.739-16.904"/>
<g>
	<path style="fill:#232728;" d="M288.529,203.76c10.027,11.28,3.663,33.304-14.218,49.223
		c-17.881,15.896-114.018,85.024-124.062,73.767c-10.012-11.296,69.892-98.714,87.773-114.609
		C255.879,196.246,278.494,192.496,288.529,203.76z"/>
	<path style="fill:#232728;" d="M310.498,203.76c-10.027,11.28-3.663,33.304,14.218,49.223
		c17.881,15.896,114.018,85.024,124.062,73.767c10.012-11.296-69.892-98.714-87.773-114.609
		C343.14,196.246,320.525,192.496,310.498,203.76z"/>
	<path style="fill:#232728;" d="M428.47,216.277c0,63.008-57.738,94.681-128.937,94.681c-71.215,0-128.969-31.673-128.969-94.681
		C170.564,153.253,228.318,0,299.533,0C370.725,0,428.47,153.253,428.47,216.277z"/>
</g>
<path style="fill:#FFFFFF;" d="M375.34,104.732c0-61.07-33.942-80.25-75.831-80.25s-75.831,19.188-75.831,80.25
	c0,44.284,17.849,82.456,43.615,100.131c6.034,40.196,18.204,77.879,32.217,77.879s26.167-37.683,32.232-77.879
	C357.499,187.203,375.34,149.016,375.34,104.732z"/>
<path style="fill:#D3EDEB;" d="M299.509,282.742c14.013,0,26.167-37.683,32.232-77.879c25.758-17.66,43.599-55.847,43.599-100.131
	c0-61.07-33.942-80.25-75.831-80.25"/>
<path style="fill:#B8D1D1;" d="M315.941,193.292c0,35.564-7.357,73.854-16.431,73.854c-9.058,0-16.431-38.29-16.431-73.854
	c0-35.556,7.373-29.342,16.431-29.342C308.591,163.95,315.941,157.735,315.941,193.292z"/>
<path style="fill:#065177;" d="M315.941,187.605c0,35.556-7.357,64.378-16.431,64.378c-9.058,0-16.431-28.822-16.431-64.378
	c0-35.564,7.373-29.349,16.431-29.349C308.591,158.263,315.941,152.048,315.941,187.605z"/>
<g>
	<path style="fill:#102D35;" d="M299.509,158.263c9.074,0,16.431-6.215,16.431,29.349c0,35.556-7.357,64.378-16.431,64.378"/>
	<path style="fill:#102D35;" d="M284.007,70.751c7.601,7.735,3.403,24.198-9.381,36.785c-12.768,12.556-29.294,16.479-36.896,8.751
		c-7.601-7.727,9.295-11.28,22.079-23.836C272.586,79.88,276.406,63.039,284.007,70.751z"/>
</g>
<path style="fill:#065177;" d="M237.731,116.295c-7.601-7.719,9.295-11.28,22.079-23.836c12.784-12.579,16.597-29.412,24.198-21.701
	"/>
<path style="fill:#102D35;" d="M315.019,70.751c-7.585,7.735-3.403,24.198,9.381,36.785c12.768,12.556,29.31,16.479,36.911,8.751
	c7.585-7.719-9.311-11.28-22.095-23.836C326.448,79.88,322.636,63.039,315.019,70.751z"/>
<path style="fill:#065177;" d="M361.312,116.295c7.585-7.719-9.311-11.28-22.095-23.836c-12.768-12.579-16.581-29.412-24.198-21.701
	"/>
<g>
	<path style="fill:#B8D1D1;" d="M230.247,149.772c7.396,24.151,20.551,43.733,36.935,55.005c-0.788-9.358-4.23-19.85-10.35-29.806
		C249.53,163.068,239.849,154.277,230.247,149.772z"/>
	<path style="fill:#B8D1D1;" d="M331.852,204.776c16.368-11.28,29.523-30.854,36.911-55.005
		c-9.586,4.506-19.259,13.296-26.553,25.198C336.066,184.934,332.624,195.419,331.852,204.776z"/>
	<path style="fill:#B8D1D1;" d="M305.346,130.08c-2.418,0-4.537-1.355-5.293-3.371c-0.079-0.197-0.307-0.307-0.536-0.252
		c-0.228-0.055-0.465,0.055-0.536,0.252c-0.74,2.016-2.859,3.371-5.293,3.371c-3.048,0-5.537-2.182-5.537-4.884
		c0-0.969,0.323-1.922,0.937-2.733l0.016-0.016l0.031-0.032l10.382-17.818l10.366,17.802l0.063,0.047v0.016
		c0.63,0.811,0.937,1.764,0.937,2.733C310.884,127.89,308.402,130.08,305.346,130.08z"/>
</g>
<path style="fill:#102D35;" d="M305.346,130.97c-2.418,0-4.537-1.355-5.293-3.371c-0.079-0.197-0.307-0.307-0.536-0.244
	c-0.228-0.063-0.465,0.047-0.536,0.244c-0.74,2.016-2.859,3.371-5.293,3.371c-3.048,0-5.537-2.19-5.537-4.884
	c0-0.977,0.323-1.93,0.937-2.733l0.016-0.016c0.031-0.024,0.031-0.032,0.031-0.032l10.382-12.28l10.366,12.264
	c0,0,0.031,0.024,0.063,0.047v0.016c0.63,0.803,0.937,1.757,0.937,2.733C310.884,128.78,308.402,130.97,305.346,130.97z"/>
<path style="fill:#065177;" d="M299.509,127.354c-0.228-0.063-0.465,0.047-0.536,0.244c-0.74,2.016-2.859,3.371-5.293,3.371
	c-3.048,0-5.537-2.19-5.537-4.884c0-0.977,0.323-1.93,0.937-2.733l0.016-0.016c0.032-0.024,0.032-0.032,0.032-0.032l10.382-12.28"/>
<path style="fill:#90ADAC;" d="M64.265,225.343c-4.269,4.261-7.499,9.145-9.783,14.344c17.321-7.648,38.29-4.411,52.476,9.783
	c14.202,14.202,17.432,35.163,9.791,52.484c5.199-2.284,10.082-5.514,14.344-9.775c18.464-18.464,18.464-48.388,0-66.836
	C112.653,206.895,82.713,206.895,64.265,225.343z"/>
<path style="fill:#A5C4C2;" d="M58.483,232.424c-1.536,2.332-2.907,4.758-4.001,7.27c17.321-7.648,38.29-4.411,52.476,9.783
	c14.202,14.202,17.432,35.163,9.791,52.484c2.513-1.103,4.939-2.458,7.27-4.009c12.249-18.361,10.295-43.41-5.916-59.613
	S76.852,220.168,58.483,232.424z"/>
<path style="fill:#232728;" d="M171.486,335.124c3.844,3.836,3.844,10.075,0,13.926l0,0c-3.844,3.844-10.075,3.844-13.926,0
	l-37.597-37.597c-3.844-3.844-3.844-10.075,0-13.926l0,0c3.844-3.844,10.075-3.844,13.926,0L171.486,335.124z"/>
</svg>