<?xml version="1.0" encoding="iso-8859-1"?>
<!-- Uploaded to: SVG Repo, www.svgrepo.com, Generator: SVG Repo Mixer Tools -->
<svg height="800px" width="800px" version="1.1" id="Layer_1" xmlns="http://www.w3.org/2000/svg" xmlns:xlink="http://www.w3.org/1999/xlink" 
	 viewBox="0 0 504.123 504.123" xml:space="preserve">
<g>
	<path style="fill:#AA1111;" d="M250.154,361.913c0,19.503-15.817,124.668-35.336,124.668c-19.495,0-35.304-105.173-35.304-124.668
		c0-19.495,15.817-35.32,35.304-35.32C234.337,326.593,250.154,342.418,250.154,361.913z"/>
	<path style="fill:#AA1111;" d="M368.505,361.913c0,19.503-15.817,124.668-35.336,124.668c-19.495,0-35.304-105.173-35.304-124.668
		c0-19.495,15.817-35.32,35.304-35.32C352.688,326.593,368.505,342.418,368.505,361.913z"/>
</g>
<g>
	<path style="fill:#232728;" d="M373.649,315.242c0,126.33-44.599,84.259-99.643,84.259c-55.028,0-99.643,42.071-99.643-84.259
		c0-72.231,44.631-130.781,99.643-130.781C329.026,184.47,373.649,243.019,373.649,315.242z"/>
	<path style="fill:#232728;" d="M308.349,214.315c11.28-10.027,33.312-3.663,49.231,14.218
		c15.896,17.881,85.016,114.018,73.767,124.062c-11.296,10.012-98.721-69.892-114.617-87.773
		C300.842,246.965,297.093,224.343,308.349,214.315z"/>
</g>
<path style="fill:#424849;" d="M254.565,487.219c0,14.935-17.802,16.904-39.739,16.904s-39.739-1.961-39.739-16.904
	c0-14.943,17.802-35.509,39.739-35.509S254.565,472.277,254.565,487.219z"/>
<path style="fill:#232728;" d="M254.565,487.219c0,14.935-17.802,16.904-39.739,16.904s-39.739-1.961-39.739-16.904"/>
<path style="fill:#424849;" d="M372.924,487.219c0,14.935-17.802,16.904-39.739,16.904s-39.739-1.961-39.739-16.904
	c0-14.943,17.802-35.509,39.739-35.509S372.924,472.277,372.924,487.219z"/>
<g>
	<path style="fill:#232728;" d="M372.924,487.219c0,14.935-17.802,16.904-39.739,16.904s-39.739-1.961-39.739-16.904"/>
	<path style="fill:#232728;" d="M284.466,231.219c-0.89-15.061-20.968-26.136-44.867-24.757
		c-23.875,1.402-140.737,20.512-139.886,35.564c0.906,15.069,119.233,20.385,143.108,18.983
		C266.68,259.616,285.333,246.28,284.466,231.219z"/>
</g>
<circle style="fill:#A56B44;" cx="273.958" cy="211.361" r="26.585"/>
<path style="fill:#D8A17C;" d="M402.951,124.258c0,63.008-57.738,94.681-128.937,94.681c-71.215,0-128.969-31.673-128.969-94.681
	C145.045,61.235,202.798,0,274.013,0C345.213,0,402.951,61.235,402.951,124.258z"/>
<path style="fill:#C48960;" d="M402.951,124.258c0,63.008-57.738,94.681-128.937,94.681c-71.215,0-128.969-31.673-128.969-94.681
	c0-63.023,57.754-111.789,128.969-111.789C345.213,12.469,402.951,61.235,402.951,124.258z"/>
<path style="fill:#BC8158;" d="M402.951,124.258c0,63.008-57.738,94.681-128.937,94.681c-71.215,0-128.969-31.673-128.969-94.681"/>
<path style="fill:#9E6F4F;" d="M274.013,0c-71.215,0-128.969,61.235-128.969,124.258c0,6.254,0.725,12.107,1.812,17.747l3.324,3.907
	l16.778-16.77V94.917h106.039h2.009h106.039v34.233l16.77,16.77l3.324-3.907c1.095-5.64,1.812-11.492,1.812-17.747
	C402.951,61.235,345.213,0,274.013,0z"/>
<circle style="fill:#113E49;" cx="212.684" cy="138.398" r="11.532"/>
<path d="M224.215,138.398c0,6.388-5.167,11.54-11.54,11.54c-6.372,0-11.524-5.152-11.524-11.54"/>
<path style="fill:#E5A376;" d="M235.432,162.454c-0.614,0-1.245-0.221-1.725-0.717c-5.632-5.624-13.107-8.72-21.047-8.72h-0.016
	c-7.94,0-15.399,3.104-21,8.712c-0.953,0.953-2.489,0.977-3.434,0.008c-0.953-0.922-0.985-2.458-0.032-3.419
	c6.538-6.546,15.218-10.161,24.458-10.161h0.016c9.263,0,17.951,3.592,24.505,10.145c0.937,0.937,0.937,2.505,0,3.434
	C236.693,162.233,236.078,162.454,235.432,162.454z"/>
<circle style="fill:#113E49;" cx="335.319" cy="138.398" r="11.532"/>
<path d="M323.796,138.398c0,6.388,5.152,11.54,11.54,11.54c6.372,0,11.524-5.152,11.524-11.54"/>
<path style="fill:#E5A376;" d="M312.587,162.454c0.599,0,1.229-0.221,1.709-0.717c5.632-5.624,13.107-8.72,21.047-8.72h0.016
	c7.94,0,15.415,3.104,21.016,8.712c0.937,0.953,2.473,0.977,3.434,0.008c0.953-0.922,0.969-2.458,0.016-3.419
	c-6.506-6.546-15.218-10.161-24.458-10.161h-0.016c-9.247,0-17.936,3.592-24.505,10.145c-0.922,0.937-0.922,2.505,0,3.434
	C311.319,162.233,311.941,162.454,312.587,162.454z"/>
<path style="fill:#DDA507;" d="M280.638,273.447c-8.279-3.308-9.933-4.899-9.933-6.396c0-2.812,3.623-3.23,5.79-3.23
	c5.593,0,9.271,1.725,11.705,2.851l0.591,0.276c1.048,0.488,2.237,0.48,3.285,0.008c1.032-0.48,1.812-1.386,2.135-2.481l2.773-9.437
	c0.543-1.827-0.299-3.773-2.001-4.632c-3.686-1.843-7.641-3.009-11.981-3.513v-5.868c0-2.182-1.78-3.946-3.938-3.946h-8.405
	c-2.174,0-3.938,1.764-3.938,3.946v6.924c-10.145,2.962-16.526,10.744-16.526,20.543c0,13.028,10.878,18.637,20.33,22.063
	c8.594,3.127,8.594,5.506,8.594,6.656c0,3.064-3.734,4.151-6.932,4.151c-4.616,0-9.712-1.449-13.982-3.97
	c-1.063-0.614-2.339-0.725-3.466-0.26c-1.134,0.457-2.001,1.402-2.332,2.568l-2.773,9.649c-0.48,1.646,0.165,3.419,1.599,4.372
	c3.647,2.434,9.114,4.198,14.864,4.876v6.294c0,2.182,1.772,3.946,3.938,3.946h8.413c2.174,0,3.938-1.764,3.938-3.946v-7.389
	c10.634-2.93,17.329-11.051,17.329-21.417C299.724,282.364,289.468,276.764,280.638,273.447z"/>
<path style="fill:#BC8804;" d="M299.724,296.078c0-13.714-10.256-19.314-19.086-22.63c-8.279-3.308-9.933-4.899-9.933-6.396
	c0-2.812,3.623-3.23,5.79-3.23c5.593,0,9.271,1.725,11.705,2.851l0.591,0.276c1.048,0.488,2.237,0.48,3.285,0.008
	c1.032-0.48,1.812-1.386,2.135-2.481l2.773-9.437c0.543-1.827-0.299-3.773-2.001-4.632c-3.686-1.843-7.641-3.009-11.981-3.513
	v-5.868c0-2.182-1.78-3.946-3.938-3.946h-8.405c-2.174,0-3.938,1.764-3.938,3.946v6.924c-7.696,2.245-13.202,7.278-15.431,13.848
	l45.395,45.387C298.621,303.947,299.724,300.197,299.724,296.078z"/>
<path style="fill:#5B5656;" d="M104.203,295.054c0,7.971,1.418,14.438-6.569,14.438l0,0c-7.971,0-6.561-6.467-6.561-14.438
	l-7.877-74.831c0-7.971,6.467-14.438,14.438-14.438l0,0c7.987,0,14.446,6.467,14.446,14.438L104.203,295.054z"/>
<circle style="fill:#AAA7A7;" cx="97.633" cy="207.919" r="26.088"/>
<path style="fill:#8E8E8E;" d="M123.722,207.919c0,14.415-11.674,26.088-26.088,26.088s-26.088-11.674-26.088-26.088"/>
<ellipse style="fill:#891010;" cx="303.418" cy="198.561" rx="9.846" ry="7.877"/>
</svg>