<?xml version="1.0" encoding="iso-8859-1"?>
<!-- Uploaded to: SVG Repo, www.svgrepo.com, Generator: SVG Repo Mixer Tools -->
<svg height="800px" width="800px" version="1.1" id="Layer_1" xmlns="http://www.w3.org/2000/svg" xmlns:xlink="http://www.w3.org/1999/xlink" 
	 viewBox="0 0 504.123 504.123" xml:space="preserve">
<g>
	<path style="fill:#139BD1;" d="M255.457,239.159c-0.866,15.061-20.96,26.128-44.851,24.757
		c-23.875-1.41-140.745-20.504-139.894-35.564c0.906-15.069,119.233-20.385,143.108-18.976
		C237.686,210.763,256.331,224.098,255.457,239.159z"/>
	<path style="fill:#139BD1;" d="M246.272,232.952c0.874-15.061,20.953-26.12,44.859-24.757
		c23.875,1.418,140.737,20.512,139.886,35.572c-0.906,15.061-119.233,20.385-143.108,18.968
		C264.035,261.356,245.382,248.013,246.272,232.952z"/>
</g>
<g>
	<path style="fill:#7C672C;" d="M228.218,361.913c0,19.503-15.817,124.668-35.336,124.668c-19.495,0-35.304-105.173-35.304-124.668
		c0-19.495,15.817-35.32,35.304-35.32C212.401,326.593,228.218,342.418,228.218,361.913z"/>
	<path style="fill:#7C672C;" d="M346.569,361.913c0,19.503-15.817,124.668-35.336,124.668c-19.495,0-35.304-105.173-35.304-124.668
		c0-19.495,15.817-35.32,35.304-35.32C330.752,326.593,346.569,342.418,346.569,361.913z"/>
</g>
<path style="fill:#139BD1;" d="M351.705,315.242c0,126.33-44.599,84.259-99.643,84.259c-55.028,0-99.643,42.071-99.643-84.259
	c0-72.231,44.631-130.781,99.643-130.781C307.09,184.47,351.705,243.019,351.705,315.242z"/>
<path style="fill:#0C71BC;" d="M177.845,228.194c21,9.539,46.568,14.375,74.232,14.375c27.648,0,53.209-4.836,74.201-14.367
	c-18.243-26.782-44.694-43.733-74.216-43.733C222.547,184.47,196.104,201.413,177.845,228.194z"/>
<path style="fill:#8D97A0;" d="M232.629,487.219c0,14.935-17.802,16.904-39.739,16.904s-39.739-1.961-39.739-16.904
	c0-14.943,17.802-35.509,39.739-35.509S232.629,472.277,232.629,487.219z"/>
<path style="fill:#79848C;" d="M232.629,487.219c0,14.935-17.802,16.904-39.739,16.904s-39.739-1.961-39.739-16.904"/>
<path style="fill:#8D97A0;" d="M350.988,487.219c0,14.935-17.802,16.904-39.739,16.904s-39.739-1.961-39.739-16.904
	c0-14.943,17.802-35.509,39.739-35.509S350.988,472.277,350.988,487.219z"/>
<path style="fill:#79848C;" d="M350.988,487.219c0,14.935-17.802,16.904-39.739,16.904s-39.739-1.961-39.739-16.904"/>
<path style="fill:#CE5715;" d="M381.015,124.258c0,63.008-57.738,94.681-128.937,94.681c-71.215,0-128.969-31.673-128.969-94.681
	C123.109,61.235,180.862,0,252.078,0C323.277,0,381.015,61.235,381.015,124.258z"/>
<path style="fill:#F9A9A0;" d="M381.015,124.258c0,63.008-57.738,94.681-128.937,94.681c-71.215,0-128.969-31.673-128.969-94.681
	c0-63.023,57.754-72.405,128.969-72.405C323.277,51.854,381.015,61.235,381.015,124.258z"/>
<path style="fill:#FF9997;" d="M381.015,124.258c0,63.008-57.738,94.681-128.937,94.681c-71.215,0-128.969-31.673-128.969-94.681"/>
<circle style="fill:#113E49;" cx="190.748" cy="109.103" r="11.532"/>
<path d="M202.28,109.103c0,6.388-5.167,11.54-11.54,11.54c-6.372,0-11.524-5.152-11.524-11.54"/>
<path style="fill:#FFD3C5;" d="M213.496,133.152c-0.614,0-1.245-0.221-1.725-0.717c-5.632-5.624-13.107-8.72-21.047-8.72h-0.016
	c-7.94,0-15.399,3.104-21,8.712c-0.953,0.953-2.489,0.977-3.434,0.008c-0.953-0.922-0.985-2.458-0.031-3.419
	c6.538-6.546,15.218-10.161,24.458-10.161h0.016c9.263,0,17.951,3.592,24.505,10.145c0.937,0.937,0.937,2.505,0,3.434
	C214.757,132.931,214.142,133.152,213.496,133.152z"/>
<circle style="fill:#113E49;" cx="313.423" cy="109.103" r="11.532"/>
<path d="M301.86,109.103c0,6.388,5.152,11.54,11.54,11.54c6.372,0,11.524-5.152,11.524-11.54"/>
<path style="fill:#FFD3C5;" d="M290.643,133.152c0.599,0,1.229-0.221,1.709-0.717c5.632-5.624,13.107-8.72,21.047-8.72h0.016
	c7.94,0,15.415,3.104,21.016,8.712c0.937,0.953,2.473,0.977,3.434,0.008c0.953-0.922,0.969-2.458,0.016-3.419
	c-6.506-6.546-15.218-10.161-24.458-10.161h-0.016c-9.247,0-17.936,3.592-24.505,10.145c-0.922,0.937-0.922,2.505,0,3.434
	C289.383,132.931,289.997,133.152,290.643,133.152z"/>
<path style="fill:#870E0E;" d="M225.942,168.543c0-23.079,11.689-41.858,26.104-41.858c14.383,0,26.104,18.786,26.104,41.858
	c0,23.135-11.721,9.334-26.104,9.334C237.631,177.877,225.942,191.677,225.942,168.543z"/>
<g>
	<path style="fill:#CE5715;" d="M214.812,41.96c1.694-1.804,3.521-3.489,5.333-5.207h-20.638c-1.804,1.725-3.663,3.395-5.372,5.207
		c5.813,18.29,22.93,31.555,43.158,31.555h20.677C237.749,73.515,220.633,60.251,214.812,41.96z"/>
	<path style="fill:#CE5715;" d="M256.166,41.96c1.694-1.796,3.45-3.505,5.23-5.207h-14.344l-11.563,5.207
		c5.813,18.29,22.93,31.555,43.158,31.555h20.677C279.095,73.515,261.987,60.251,256.166,41.96z"/>
</g>
<g>
	<path style="fill:#05B8C1;" d="M156.507,278.315h191.11c-0.677-3.017-1.481-5.939-2.308-8.862H158.823
		C157.988,272.376,157.184,275.298,156.507,278.315z"/>
	<path style="fill:#05B8C1;" d="M152.923,301.946h198.278c-0.228-3.001-0.646-5.923-1.032-8.862H153.955
		C153.569,296.023,153.151,298.945,152.923,301.946z"/>
	<path style="fill:#05B8C1;" d="M152.537,325.577h199.05c0.063-2.844,0.095-5.813,0.11-8.862H152.434
		C152.45,319.764,152.474,322.733,152.537,325.577z"/>
	<path style="fill:#05B8C1;" d="M153.837,349.208h196.45c0.268-2.812,0.496-5.774,0.685-8.862H153.151
		C153.34,343.434,153.569,346.396,153.837,349.208z"/>
</g>
<g>
	<path style="fill:#43A52F;" d="M82.472,290.737h-0.567l-7.719,2.079l-7.735-2.079h-0.567c0,0-3.001,2.276-2.284,4.569l2.568-0.725
		l2.001,3.434l1.142-2.001l1.843,1.284l0.866-1.568l1.953,1.953l0.087,0.331l0.118-0.126l0.118,0.126l0.095-0.331l1.946-1.953
		l0.851,1.568l1.843-1.284l1.15,2.001l2.001-3.434l2.56,0.725C85.473,293.014,82.472,290.737,82.472,290.737z"/>
	<path style="fill:#43A52F;" d="M74.012,228.533c0,0,2.851-14.407-2.135-30.964c0,0,0.709,11.981-0.425,16.557
		c-1.15,4.569,0.559,5.419,0.992,7.845C72.862,224.398,74.012,228.533,74.012,228.533z"/>
	<path style="fill:#43A52F;" d="M75.209,230.03c0,0-5.427-3.568-5.569-16.557s-3.277-24.678-3.277-24.678s4.128,8.554,4.994,14.557
		c0.843,5.986,1.142,16.4,1.142,16.4l2.001,4.001L75.209,230.03z"/>
	<path style="fill:#43A52F;" d="M74.508,231.463c0,0-3.852-10.059,1.284-22.048c5.136-11.989,12.414-13.06,12.414-13.06
		s-10.705,4.923-11.13,20.976c0,0-0.851,3.852-1.284,7.058C75.367,227.604,74.508,231.463,74.508,231.463z"/>
</g>
<path style="fill:#D84A81;" d="M57.431,292.809c6.963,0,13.091-3.505,16.746-8.846c3.655,5.341,9.783,8.846,16.746,8.846
	c11.193,0,20.685-9.082,20.275-20.267c-0.748-20.787-26.908-21.417-35.801-44.064c-0.449-1.15-0.851-1.615-1.221-1.575
	c-0.378-0.039-0.78,0.425-1.221,1.575c-8.885,22.646-35.052,23.276-35.801,44.064C36.746,283.727,46.23,292.809,57.431,292.809z"/>
<path style="fill:#C63C74;" d="M74.177,263.704c-13.462,0-25.718-0.441-34.848,0.173c-1.26,2.473-2.056,5.309-2.174,8.665
	c-0.181,5.215,1.796,9.956,5.081,13.556c1.938,0.551,3.994,1.063,6.152,1.505c0.929,0.087,1.867,0.134,2.812,0.134
	c9.547,0,17.959-4.805,22.977-12.138c5.01,7.333,13.43,12.138,22.977,12.138c0.937,0,1.883-0.047,2.812-0.142
	c2.158-0.449,4.206-0.953,6.152-1.505c3.285-3.6,5.27-8.342,5.081-13.556c-0.126-3.356-0.914-6.183-2.174-8.665
	C99.887,263.263,87.639,263.704,74.177,263.704z"/>
<g>
	<path style="fill:#A82D65;" d="M74.177,275.291c-17.573,0-32.311-1.048-36.273,3.198c1.662,5.679,5.939,10.295,11.414,12.635
		c1.859,0.591,3.891,1.118,6.065,1.575c0.677,0.071,1.363,0.102,2.056,0.102c6.963,0,13.091-3.505,16.746-8.846
		c3.655,5.341,9.783,8.846,16.746,8.846c0.693,0,1.378-0.032,2.048-0.102c2.174-0.457,4.198-0.985,6.073-1.568
		c5.467-2.355,9.752-6.971,11.414-12.642C106.48,274.243,91.743,275.291,74.177,275.291z"/>
	<ellipse style="fill:#A82D65;" cx="74.169" cy="286.673" rx="16.156" ry="8.129"/>
</g>
<g>
	<path style="fill:#43A52F;" d="M438.233,290.737h-0.559l-7.727,2.079l-7.712-2.079h-0.583c0,0-3.001,2.276-2.284,4.569l2.568-0.725
		l2.001,3.434l1.142-2.001l1.851,1.284l0.859-1.568l1.953,1.953l0.087,0.331l0.11-0.126l0.134,0.126l0.079-0.331l1.953-1.953
		l0.859,1.568l1.843-1.284l1.15,2.001l2.001-3.434l2.56,0.725C441.234,293.014,438.233,290.737,438.233,290.737z"/>
	<path style="fill:#43A52F;" d="M429.781,228.533c0,0,2.851-14.407-2.135-30.964c0,0,0.709,11.981-0.425,16.557
		c-1.15,4.569,0.559,5.419,0.992,7.845S429.781,228.533,429.781,228.533z"/>
	<path style="fill:#43A52F;" d="M430.978,230.03c0,0-5.427-3.568-5.569-16.557s-3.277-24.678-3.277-24.678s4.135,8.554,4.994,14.557
		c0.851,5.986,1.142,16.4,1.142,16.4l2.001,4.001L430.978,230.03z"/>
	<path style="fill:#43A52F;" d="M430.277,231.463c0,0-3.86-10.059,1.276-22.048c5.144-11.981,12.422-13.06,12.422-13.06
		s-10.713,4.923-11.13,20.976c0,0-0.851,3.852-1.292,7.058C431.128,227.604,430.277,231.463,430.277,231.463z"/>
</g>
<path style="fill:#D84A81;" d="M413.2,292.809c6.963,0,13.091-3.505,16.738-8.846c3.663,5.341,9.791,8.846,16.754,8.846
	c11.193,0,20.677-9.082,20.275-20.267c-0.748-20.787-26.908-21.417-35.801-44.064c-0.449-1.15-0.851-1.615-1.229-1.575
	c-0.362-0.039-0.772,0.425-1.213,1.575c-8.893,22.646-35.052,23.276-35.801,44.064C392.515,283.727,401.999,292.809,413.2,292.809z"
	/>
<path style="fill:#C63C74;" d="M429.938,263.704c-13.454,0-25.695-0.441-34.84,0.173c-1.268,2.473-2.056,5.309-2.174,8.665
	c-0.181,5.215,1.804,9.956,5.081,13.556c1.938,0.551,3.986,1.063,6.152,1.505c0.929,0.095,1.867,0.142,2.812,0.142
	c9.547,0,17.959-4.805,22.969-12.138c5.018,7.333,13.43,12.138,22.993,12.138c0.929,0,1.875-0.047,2.804-0.142
	c2.158-0.449,4.206-0.953,6.152-1.505c3.285-3.6,5.27-8.342,5.081-13.556c-0.126-3.356-0.922-6.183-2.174-8.665
	C455.657,263.263,443.408,263.704,429.938,263.704z"/>
<g>
	<path style="fill:#A82D65;" d="M429.938,275.291c-17.566,0-32.303-1.048-36.265,3.198c1.662,5.679,5.939,10.295,11.414,12.635
		c1.859,0.591,3.883,1.118,6.065,1.575c0.677,0.071,1.363,0.102,2.056,0.102c6.963,0,13.091-3.505,16.738-8.846
		c3.663,5.341,9.791,8.846,16.754,8.846c0.693,0,1.371-0.032,2.056-0.102c2.166-0.457,4.191-0.985,6.065-1.568
		c5.467-2.355,9.752-6.971,11.414-12.642C462.25,274.243,447.512,275.291,429.938,275.291z"/>
	<ellipse style="fill:#A82D65;" cx="429.923" cy="286.673" rx="16.156" ry="8.129"/>
</g>
</svg>