<?xml version="1.0" encoding="iso-8859-1"?>
<!-- Uploaded to: SVG Repo, www.svgrepo.com, Generator: SVG Repo Mixer Tools -->
<svg height="800px" width="800px" version="1.1" id="Layer_1" xmlns="http://www.w3.org/2000/svg" xmlns:xlink="http://www.w3.org/1999/xlink" 
	 viewBox="0 0 504.123 504.123" xml:space="preserve">
<path style="fill:#2A5263;" d="M391.106,417.477c0,8.696-7.058,15.754-15.754,15.754h-44.631c-8.704,0-15.754-7.058-15.754-15.754
	V294.069c0-8.696,7.05-15.754,15.754-15.754h44.631c8.696,0,15.754,7.058,15.754,15.754V417.477z"/>
<path style="fill:#1A3944;" d="M353.674,417.477c0,8.696-7.058,15.754-15.754,15.754H293.29c-8.696,0-15.754-7.058-15.754-15.754
	V294.069c0-8.696,7.058-15.754,15.754-15.754h44.631c8.696,0,15.754,7.058,15.754,15.754V417.477z"/>
<g>
	<path style="fill:#A3BBC1;" d="M263.05,280.631c-10.027-11.28-3.663-33.312,14.218-49.231
		c17.881-15.896,114.018-85.016,124.062-73.767c10.012,11.296-69.892,98.721-87.773,114.617
		C295.692,288.138,273.078,291.895,263.05,280.631z"/>
	<path style="fill:#A3BBC1;" d="M241.074,280.631c10.027-11.28,3.663-33.312-14.218-49.231
		c-17.881-15.896-114.018-85.016-124.062-73.767c-10.012,11.296,69.892,98.721,87.773,114.617
		C208.432,288.138,231.046,291.895,241.074,280.631z"/>
</g>
<g>
	<path style="fill:#D39959;" d="M168.582,188.731c-29.783-19.779-60.353-37.179-65.788-31.098
		c-5.293,5.963,14.517,33.178,37.006,59.872L168.582,188.731z"/>
	<path style="fill:#D39959;" d="M366.884,214.426c21.402-25.679,39.526-51.058,34.438-56.793
		c-5.23-5.845-33.713,10.035-62.377,28.853L366.884,214.426z"/>
</g>
<g>
	<path style="fill:#44748E;" d="M228.219,361.913c0,19.503-15.817,124.668-35.336,124.668c-19.495,0-35.304-105.173-35.304-124.668
		c0-19.495,15.817-35.32,35.304-35.32C212.402,326.593,228.219,342.418,228.219,361.913z"/>
	<path style="fill:#44748E;" d="M346.569,361.913c0,19.503-15.817,124.668-35.336,124.668c-19.495,0-35.304-105.173-35.304-124.668
		c0-19.495,15.817-35.32,35.304-35.32C330.753,326.593,346.569,342.418,346.569,361.913z"/>
</g>
<path style="fill:#A3BBC1;" d="M351.705,315.242c0,126.33-44.599,84.259-99.643,84.259c-55.028,0-99.643,42.071-99.643-84.259
	c0-72.231,44.631-130.781,99.643-130.781C307.09,184.47,351.705,243.019,351.705,315.242z"/>
<g>
	<path style="fill:#718B91;" d="M248.817,313.99c-0.992-2.93-3.757-5.041-7.018-5.041c-4.096,0-7.215,3.316-7.396,7.404
		c-0.221,4.758,3.111,13.202,14.352,17.495l0.063,0.016V313.99z"/>
	<path style="fill:#718B91;" d="M248.746,313.99c1-2.93,3.757-5.041,7.018-5.041c4.088,0,7.207,3.316,7.396,7.404
		c0.221,4.758-3.111,13.202-14.36,17.495l-0.055,0.016V313.99z"/>
	<path style="fill:#718B91;" d="M248.691,290.682v-0.047l0.079,0.016l0.095-0.016v0.047c18.716,7.152,29.924,18.211,35.99,29.003
		c4.584-8.153,6.239-16.14,5.947-22.134c-0.551-11.934-9.681-21.638-21.63-21.638c-9.429,0-17.432,6.057-20.401,14.478
		c-2.946-8.42-10.957-14.478-20.385-14.478c-11.957,0-21.079,9.704-21.638,21.638c-0.276,5.994,1.378,13.974,5.963,22.134
		C218.774,308.901,229.983,297.834,248.691,290.682z"/>
	<path style="fill:#718B91;" d="M248.864,348.68v0.055l-0.095-0.032l-0.079,0.032v-0.055c-18.708-7.152-29.917-18.219-35.982-28.995
		c-4.584,8.145-6.239,16.132-5.963,22.126c0.559,11.934,9.681,21.63,21.638,21.63c9.429,0,17.432-6.049,20.385-14.478
		c2.97,8.428,10.973,14.478,20.401,14.478c11.957,0,21.079-9.696,21.63-21.63c0.291-5.994-1.363-13.974-5.947-22.126
		C278.789,330.453,267.58,341.52,248.864,348.68z"/>
</g>
<circle style="fill:#D39959;" cx="254.402" cy="211.361" r="26.585"/>
<path style="fill:#44748E;" d="M363.859,339.621c7.987,7.995,9.893,19.046,4.261,24.694l0,0c-5.632,5.632-16.691,3.71-24.678-4.277
	L209.156,225.76c-8.003-8.019-9.909-19.062-4.261-24.694l0,0c5.624-5.648,16.675-3.742,24.678,4.261L363.859,339.621z"/>
<path style="fill:#FF7300;" d="M232.63,487.219c0,14.935-17.802,16.904-39.739,16.904s-39.739-1.961-39.739-16.904
	c0-14.943,17.802-35.509,39.739-35.509S232.63,472.277,232.63,487.219z"/>
<path style="fill:#FF4800;" d="M232.63,487.219c0,14.935-17.802,16.904-39.739,16.904s-39.739-1.961-39.739-16.904"/>
<path style="fill:#FF7300;" d="M350.988,487.219c0,14.935-17.802,16.904-39.739,16.904s-39.739-1.961-39.739-16.904
	c0-14.943,17.802-35.509,39.739-35.509S350.988,472.277,350.988,487.219z"/>
<path style="fill:#FF4800;" d="M350.988,487.219c0,14.935-17.802,16.904-39.739,16.904s-39.739-1.961-39.739-16.904"/>
<path style="fill:#EFC286;" d="M381.015,124.258c0,63.008-57.738,94.681-128.937,94.681c-71.215,0-128.969-31.673-128.969-94.681
	C123.109,61.235,180.863,0,252.078,0C323.277,0,381.015,61.235,381.015,124.258z"/>
<path style="fill:#E8B374;" d="M381.015,124.258c0,63.008-57.738,94.681-128.937,94.681c-71.215,0-128.969-31.673-128.969-94.681"/>
<g>
	<path style="fill:#232728;" d="M224.65,161.564c-0.614,0-1.245-0.221-1.725-0.717c-5.632-5.624-13.107-8.72-21.047-8.72h-0.016
		c-7.94,0-15.399,3.104-21,8.712c-0.953,0.953-2.489,0.977-3.434,0.008c-0.953-0.922-0.985-2.458-0.031-3.419
		c6.538-6.546,15.218-10.161,24.458-10.161h0.016c9.263,0,17.951,3.592,24.505,10.145c0.937,0.937,0.937,2.505,0,3.434
		C225.911,161.335,225.296,161.564,224.65,161.564z"/>
	<path style="fill:#232728;" d="M301.797,161.564c0.599,0,1.229-0.221,1.709-0.717c5.632-5.624,13.107-8.72,21.047-8.72h0.016
		c7.94,0,15.415,3.104,21.016,8.712c0.937,0.953,2.473,0.977,3.434,0.008c0.953-0.922,0.969-2.458,0.016-3.419
		c-6.506-6.546-15.218-10.161-24.458-10.161h-0.016c-9.247,0-17.936,3.592-24.505,10.145c-0.922,0.937-0.922,2.505,0,3.434
		C300.537,161.335,301.151,161.564,301.797,161.564z"/>
</g>
<path style="fill:#FF8B00;" d="M142.927,60.77c22.741,17.148,50.42-18.763,95.232-18.763c36.226,0,71.31,11.894,94.523,0
	c8.814,4.521,28.207,36.305,39.424,39.377C353.328,36.116,306.728,0,252.078,0C206.037,0,165.747,25.655,142.927,60.77z"/>
</svg>