<?xml version="1.0" encoding="iso-8859-1"?>
<!-- Uploaded to: SVG Repo, www.svgrepo.com, Generator: SVG Repo Mixer Tools -->
<svg height="800px" width="800px" version="1.1" id="Layer_1" xmlns="http://www.w3.org/2000/svg" xmlns:xlink="http://www.w3.org/1999/xlink" 
	 viewBox="0 0 504.123 504.123" xml:space="preserve">
<g>
	<path style="fill:#D62B2B;" d="M241.073,203.768c10.027,11.28,3.663,33.304-14.218,49.223
		c-17.881,15.896-114.018,85.024-124.062,73.767c-10.012-11.296,69.892-98.714,87.773-114.609
		C208.431,196.254,231.046,192.496,241.073,203.768z"/>
	<path style="fill:#D62B2B;" d="M263.05,203.768c-10.027,11.28-3.663,33.304,14.218,49.223
		c17.881,15.896,114.018,85.024,124.062,73.767c10.012-11.296-69.892-98.714-87.773-114.609
		C295.692,196.254,273.077,192.496,263.05,203.768z"/>
</g>
<g>
	<path style="fill:#97A0A0;" d="M228.218,361.913c0,19.503-15.817,124.668-35.336,124.668c-19.495,0-35.304-105.173-35.304-124.668
		c0-19.495,15.817-35.32,35.304-35.32C212.401,326.593,228.218,342.418,228.218,361.913z"/>
	<path style="fill:#97A0A0;" d="M346.569,361.913c0,19.503-15.817,124.668-35.336,124.668c-19.495,0-35.304-105.173-35.304-124.668
		c0-19.495,15.817-35.32,35.304-35.32C330.752,326.593,346.569,342.418,346.569,361.913z"/>
</g>
<path style="fill:#AEB7B7;" d="M351.705,315.242c0,126.33-44.599,84.259-99.643,84.259c-55.028,0-99.643,42.071-99.643-84.259
	c0-72.231,44.631-130.781,99.643-130.781C307.09,184.47,351.705,243.019,351.705,315.242z"/>
<path style="fill:#D62B2B;" d="M252.062,184.47c-26.199,0-49.971,13.383-67.773,35.092c-1.347,4.537-2.135,9.248-2.135,14.123
	c0,32.264,31.303,74.185,69.908,74.185c38.613,0,69.908-41.921,69.908-74.185c0-4.876-0.803-9.602-2.143-14.131
	C302.033,197.845,278.26,184.47,252.062,184.47z"/>
<path style="fill:#AEB7B7;" d="M232.629,487.219c0,14.935-17.802,16.904-39.739,16.904s-39.739-1.961-39.739-16.904
	c0-14.943,17.802-35.509,39.739-35.509S232.629,472.277,232.629,487.219z"/>
<path style="fill:#97A0A0;" d="M232.629,487.219c0,14.935-17.802,16.904-39.739,16.904s-39.739-1.961-39.739-16.904"/>
<path style="fill:#AEB7B7;" d="M350.988,487.219c0,14.935-17.802,16.904-39.739,16.904s-39.739-1.961-39.739-16.904
	c0-14.943,17.802-35.509,39.739-35.509S350.988,472.277,350.988,487.219z"/>
<path style="fill:#97A0A0;" d="M350.988,487.219c0,14.935-17.802,16.904-39.739,16.904s-39.739-1.961-39.739-16.904"/>
<path style="fill:#AEB7B7;" d="M381.015,124.258c0,63.008-57.738,94.681-128.937,94.681c-71.215,0-128.969-31.673-128.969-94.681
	C123.108,61.235,180.862,0,252.077,0C323.277,0,381.015,61.235,381.015,124.258z"/>
<path style="fill:#97A0A0;" d="M381.015,124.258c0,63.008-57.738,94.681-128.937,94.681c-71.215,0-128.969-31.673-128.969-94.681"/>
<path style="fill:#AA1111;" d="M280.489,168.637c0,10.264-12.737,18.597-28.428,18.597s-28.428-8.342-28.428-18.597
	c0-10.279,12.737-4.135,28.428-4.135S280.489,158.358,280.489,168.637z"/>
<path style="fill:#D62B2B;" d="M228.738,179.239c5.136,4.821,13.659,8.003,23.324,8.003s18.188-3.174,23.324-8.003
	c-5.136-4.829-13.659-8.011-23.324-8.011S233.874,174.411,228.738,179.239z"/>
<path style="fill:#808E8D;" d="M215.552,71.633c15.896,14.557,28.152,49.483,13.588,65.378
	c-14.557,15.896-54.154,17.542-70.049,2.97c-15.911-14.557-13.249-50.026,1.308-65.922C174.97,58.163,199.648,57.068,215.552,71.633
	z"/>
<path style="fill:#FFC200;" d="M215.552,71.633c15.896,14.557,28.152,49.483,13.588,65.378
	c-14.557,15.896-50.412,6.751-66.308-7.814c-15.911-14.557-16.983-39.235-2.434-55.138C174.97,58.163,199.648,57.068,215.552,71.633
	z"/>
<path style="fill:#FF9D00;" d="M160.398,74.051c14.572-15.896,39.243-16.983,55.154-2.426
	c15.896,14.557,28.152,49.483,13.588,65.378"/>
<path style="fill:#808E8D;" d="M288.571,71.633c-15.896,14.557-28.152,49.483-13.588,65.378
	c14.557,15.896,54.154,17.542,70.049,2.97c15.911-14.557,13.249-50.026-1.308-65.922C329.153,58.163,304.475,57.068,288.571,71.633z
	"/>
<path style="fill:#FFC200;" d="M288.571,71.633c-15.896,14.557-28.152,49.483-13.588,65.378
	c14.557,15.896,50.412,6.751,66.308-7.814c15.911-14.557,16.983-39.235,2.434-55.138C329.153,58.163,304.475,57.068,288.571,71.633z
	"/>
<path style="fill:#FF9D00;" d="M343.725,74.051c-14.572-15.896-39.243-16.983-55.154-2.426
	c-15.896,14.557-28.152,49.483-13.588,65.378"/>
<path style="fill:#FFC200;" d="M271.423,257.654c0,10.673-8.672,19.346-19.377,19.346c-10.665,0-19.346-8.673-19.346-19.346
	c0-10.705,8.68-19.377,19.346-19.377C262.751,238.277,271.423,246.949,271.423,257.654z"/>
<path style="fill:#FF9D00;" d="M252.046,238.277c10.705,0,19.377,8.673,19.377,19.377c0,10.673-8.672,19.346-19.377,19.346"/>
<path style="fill:#4A5151;" d="M252.046,280.938c-12.839,0-23.284-10.445-23.284-23.284c0-12.863,10.445-23.316,23.284-23.316
	c12.863,0,23.316,10.453,23.316,23.316C275.361,270.494,264.909,280.938,252.046,280.938z M252.046,242.215
	c-8.491,0-15.407,6.924-15.407,15.439c0,8.491,6.916,15.407,15.407,15.407c8.515,0,15.439-6.916,15.439-15.407
	C267.485,249.139,260.561,242.215,252.046,242.215z"/>
<g>
	<path style="fill:#D62B2B;" d="M272.415,324.931c0,2.174-1.772,3.938-3.938,3.938h-32.831c-2.166,0-3.938-1.764-3.938-3.938l0,0
		c0-2.174,1.772-3.938,3.938-3.938h32.831C270.643,320.992,272.415,322.757,272.415,324.931L272.415,324.931z"/>
	<path style="fill:#D62B2B;" d="M272.415,338.716c0,2.174-1.772,3.938-3.938,3.938h-32.831c-2.166,0-3.938-1.764-3.938-3.938l0,0
		c0-2.174,1.772-3.938,3.938-3.938h32.831C270.643,334.777,272.415,336.542,272.415,338.716L272.415,338.716z"/>
	<path style="fill:#D62B2B;" d="M272.415,352.5c0,2.174-1.772,3.938-3.938,3.938h-32.831c-2.166,0-3.938-1.764-3.938-3.938l0,0
		c0-2.174,1.772-3.938,3.938-3.938h32.831C270.643,348.562,272.415,350.326,272.415,352.5L272.415,352.5z"/>
</g>
<path style="fill:#B21B1B;" d="M267.815,38.565V1.119C262.648,0.457,257.418,0,252.077,0c-5.356,0-10.594,0.457-15.77,1.119v37.447
	c0,8.696,7.058,15.754,15.754,15.754C260.758,54.319,267.815,47.262,267.815,38.565z"/>
<path style="fill:#D62B2B;" d="M236.308,1.119v24.316c0,8.696,7.058,15.754,15.754,15.754s15.754-7.058,15.754-15.754V1.119
	C262.648,0.457,257.418,0,252.077,0C246.721,0,241.483,0.457,236.308,1.119z"/>
<g>
	<path style="fill:#B21B1B;" d="M169.976,440.344h45.82c1.434-5.813,2.773-11.823,3.986-17.849h-53.784
		C167.219,428.52,168.543,434.53,169.976,440.344z"/>
	<path style="fill:#B21B1B;" d="M288.327,440.344h45.82c1.434-5.813,2.773-11.823,3.986-17.849h-53.776
		C285.57,428.52,286.901,434.53,288.327,440.344z"/>
</g>
</svg>