<?xml version="1.0" encoding="iso-8859-1"?>
<!-- Uploaded to: SVG Repo, www.svgrepo.com, Generator: SVG Repo Mixer Tools -->
<svg height="800px" width="800px" version="1.1" id="Layer_1" xmlns="http://www.w3.org/2000/svg" xmlns:xlink="http://www.w3.org/1999/xlink" 
	 viewBox="0 0 495.597 495.597" xml:space="preserve">
<g>
	<path style="fill:#6B8C85;" d="M139.165,353.387c0,19.503-15.817,124.668-35.336,124.668c-19.495,0-35.304-105.173-35.304-124.668
		s15.817-35.32,35.304-35.32C123.348,318.067,139.165,333.891,139.165,353.387z"/>
	<path style="fill:#6B8C85;" d="M257.516,353.387c0,19.503-15.817,124.668-35.336,124.668c-19.495,0-35.304-105.173-35.304-124.668
		s15.817-35.32,35.304-35.32C241.707,318.067,257.516,333.891,257.516,353.387z"/>
</g>
<path style="fill:#1C1C1B;" d="M262.66,306.716c0,126.33-44.599,84.259-99.643,84.259c-55.028,0-99.643,42.071-99.643-84.259
	c0-72.231,44.631-130.788,99.643-130.788C218.045,175.935,262.66,234.493,262.66,306.716z"/>
<path style="fill:#113E49;" d="M143.584,478.693c0,14.935-17.802,16.904-39.739,16.904s-39.739-1.961-39.739-16.904
	c0-14.943,17.802-35.509,39.739-35.509S143.584,463.75,143.584,478.693z"/>
<path style="fill:#072328;" d="M143.584,478.693c0,14.935-17.802,16.904-39.739,16.904s-39.739-1.961-39.739-16.904"/>
<path style="fill:#113E49;" d="M261.935,478.693c0,14.935-17.802,16.904-39.739,16.904s-39.739-1.961-39.739-16.904
	c0-14.943,17.802-35.509,39.739-35.509S261.935,463.75,261.935,478.693z"/>
<path style="fill:#072328;" d="M261.935,478.693c0,14.935-17.802,16.904-39.739,16.904s-39.739-1.961-39.739-16.904"/>
<path style="fill:#EDA366;" d="M256.256,283.117c4.742-14.344-9.862-32.02-32.603-39.534
	c-22.709-7.491-138.398-32.713-143.155-18.408c-4.71,14.336,103.353,62.818,126.078,70.309
	C229.285,302.99,251.537,297.445,256.256,283.117z"/>
<ellipse transform="matrix(0.9115 -0.4114 0.4114 0.9115 -84.8524 102.3189)" style="fill:#545354;" cx="195.283" cy="248.29" rx="2.206" ry="9.673"/>
<g>
	<path style="fill:#EF296B;" d="M256.004,202.229c-1.056,0.488-2.308-0.008-2.781-1.056l-15.785-34.997
		c-0.465-1.04,0-2.292,1.063-2.765l0,0c1.048-0.488,2.292-0.008,2.773,1.04l15.777,35.013
		C257.532,200.511,257.059,201.74,256.004,202.229L256.004,202.229z"/>
	<path style="fill:#EF296B;" d="M287.519,272.144c-1.063,0.465-2.284,0-2.773-1.063l-15.785-34.989c-0.473-1.056,0-2.3,1.048-2.781
		l0,0c1.063-0.48,2.308,0,2.781,1.048l15.785,35.013C289.04,270.419,288.583,271.656,287.519,272.144L287.519,272.144z"/>
</g>
<g>
	<path style="fill:#C40033;" d="M256.004,202.229c-0.347,0.158-1.016-0.575-1.481-1.638l-15.777-34.981
		c-0.473-1.056-0.575-2.048-0.236-2.19l0,0c0.339-0.165,1,0.575,1.481,1.623l15.777,34.989
		C256.224,201.086,256.35,202.071,256.004,202.229L256.004,202.229z"/>
	<path style="fill:#C40033;" d="M287.519,272.144c-0.339,0.142-1-0.583-1.489-1.638l-15.77-35.005
		c-0.48-1.048-0.567-2.032-0.244-2.182l0,0c0.354-0.165,1.008,0.575,1.489,1.631l15.77,34.997
		C287.748,270.986,287.858,271.971,287.519,272.144L287.519,272.144z"/>
</g>
<path style="fill:#EF296B;" d="M273.215,220.078c-2.536,1.15-5.522,0.016-6.68-2.521l-1.032-2.3
	c-1.142-2.528-0.016-5.514,2.521-6.656l156.058-70.372c2.521-1.142,5.514-0.008,6.648,2.521l1.048,2.308
	c1.142,2.528,0.016,5.506-2.528,6.656L273.215,220.078z"/>
<path style="fill:#C40033;" d="M272.073,217.589c-2.536,1.142-5.12,0.906-5.758-0.52l-0.575-1.308
	c-0.646-1.434,0.882-3.513,3.419-4.663l156.058-70.372c2.528-1.142,5.112-0.89,5.758,0.528l0.591,1.3
	c0.638,1.449-0.898,3.521-3.426,4.679L272.073,217.589z"/>
<path style="fill:#545354;" d="M273.672,241.432c-1.575,0.725-2.402,2.308-3.119,0.725l-20.819-46.198
	c-0.725-1.567,1.024-1.142,2.599-1.851l0,0c1.583-0.709,2.402-2.3,3.127-0.717l20.819,46.182
	C277.011,241.156,275.255,240.715,273.672,241.432L273.672,241.432z"/>
<path style="fill:#686768;" d="M276.279,239.573l-20.819-46.182c-0.134-0.291-0.268-0.449-0.425-0.544
	c-0.126,0.087-0.26,0.165-0.41,0.221c-0.417,0.181-0.819,0.291-1.205,0.386c-0.323,0.228-0.677,0.465-1.095,0.654
	c-0.15,0.071-0.291,0.118-0.457,0.165c-0.008,0.165,0.008,0.386,0.15,0.662l20.819,46.19c0.134,0.291,0.26,0.441,0.417,0.544
	c0.142-0.087,0.268-0.165,0.418-0.228c0.417-0.181,0.835-0.291,1.213-0.378c0.307-0.236,0.677-0.473,1.079-0.654
	c0.165-0.079,0.323-0.126,0.465-0.173C276.444,240.069,276.429,239.849,276.279,239.573z"/>
<path style="fill:#7C7C7C;" d="M275.964,240.408c0.165-0.079,0.323-0.126,0.465-0.173c0.016-0.165,0-0.378-0.15-0.654
	l-20.819-46.182c-0.134-0.291-0.268-0.449-0.425-0.544c-0.126,0.087-0.26,0.165-0.41,0.221c-0.165,0.079-0.339,0.11-0.496,0.165
	c-0.165,0.095-0.291,0.189-0.449,0.268c-0.158,0.071-0.307,0.126-0.465,0.181c-0.016,0.165,0.016,0.362,0.142,0.646l20.827,46.19
	c0.118,0.276,0.268,0.449,0.41,0.528c0.126-0.071,0.276-0.15,0.425-0.205c0.165-0.087,0.331-0.118,0.488-0.165
	C275.672,240.581,275.798,240.471,275.964,240.408z"/>
<path id="SVGCleanerId_0" style="fill:#7C7C7C;" d="M235.933,237.746c-2.521,1.142-5.506,0.016-6.648-2.521l-1.694-3.726
	c-1.142-2.536-0.016-5.522,2.521-6.664l25.537-11.508c2.536-1.15,5.506-0.016,6.656,2.513l1.678,3.734
	c1.15,2.536,0.024,5.506-2.513,6.648L235.933,237.746z"/>
<g>
	<path id="SVGCleanerId_0_1_" style="fill:#7C7C7C;" d="M235.933,237.746c-2.521,1.142-5.506,0.016-6.648-2.521l-1.694-3.726
		c-1.142-2.536-0.016-5.522,2.521-6.664l25.537-11.508c2.536-1.15,5.506-0.016,6.656,2.513l1.678,3.734
		c1.15,2.536,0.024,5.506-2.513,6.648L235.933,237.746z"/>
</g>
<path style="fill:#939393;" d="M230.916,226.6l25.521-11.5c2.536-1.15,5.522-0.032,6.664,2.505l0.898,1.985
	c0-0.016-0.016-0.016-0.016-0.016l-1.678-3.734c-1.15-2.528-4.112-3.663-6.656-2.513l-25.537,11.508
	c-2.536,1.142-3.663,4.12-2.521,6.664l0.803,1.757C227.261,230.712,228.379,227.742,230.916,226.6z"/>
<path style="fill:#686768;" d="M255.657,213.327c2.536-1.15,5.506-0.016,6.656,2.513l1.678,3.734
	c1.15,2.536,0.024,5.506-2.513,6.648l-25.537,11.524c-2.521,1.142-5.506,0.016-6.648-2.521"/>
<path style="fill:#545354;" d="M255.657,213.327c2.536-1.15,5.506-0.016,6.656,2.513l1.678,3.734
	c1.15,2.536,0.024,5.506-2.513,6.648l-11.768,5.309"/>
<path style="fill:#7C7C7C;" d="M205.536,254.516c-2.544,1.126-5.537,0.008-6.68-2.528l-3.962-8.791
	c-1.142-2.536-0.008-5.522,2.513-6.664l15.691-7.066c2.528-1.142,4.482-2.308,10.216-1.851l6.042,13.383
	c-3.45,4.616-5.608,5.301-8.145,6.443L205.536,254.516z"/>
<path style="fill:#686768;" d="M213.106,229.459c2.528-1.142,4.482-2.308,10.216-1.851l6.042,13.383
	c-3.45,4.616-5.608,5.301-8.145,6.443l-15.675,7.073c-2.544,1.126-5.537,0.008-6.68-2.528"/>
<path style="fill:#545354;" d="M213.106,229.459c2.528-1.142,4.482-2.308,10.216-1.851l6.042,13.383
	c-3.45,4.616-5.608,5.301-8.145,6.443l-8.806,3.954"/>
<path style="fill:#7C7C7C;" d="M200.928,258.627c-0.914,0.425-1.993,0.024-2.41-0.906l-8.153-18.085
	c-0.417-0.914-0.008-1.993,0.906-2.402l3.293-1.481c0.922-0.417,1.993,0,2.387,0.906l8.168,18.093
	c0.417,0.906,0.016,1.969-0.89,2.387L200.928,258.627z"/>
<g>
	<path style="fill:#686768;" d="M204.229,257.147l-3.3,1.481c-0.914,0.425-1.993,0.024-2.41-0.906l-8.153-18.085
		c-0.417-0.914-0.008-1.993,0.906-2.402l3.293-1.481"/>
	<path style="fill:#686768;" d="M229.892,241.432c-0.433,0.173-0.937-0.016-1.142-0.457l-5.837-12.934
		c-0.173-0.417,0.008-0.922,0.449-1.119l2.135-0.961c0.425-0.197,0.929-0.008,1.126,0.425l5.821,12.934
		c0.197,0.433,0.016,0.937-0.433,1.126L229.892,241.432z"/>
</g>
<path style="fill:#545354;" d="M233.042,239.998c-0.425,0.205-0.937,0-1.126-0.425l-5.837-12.942
	c-0.197-0.425-0.008-0.929,0.433-1.126l2.135-0.969c0.433-0.181,0.937,0.008,1.142,0.433l5.813,12.942
	c0.197,0.425,0.016,0.937-0.417,1.126L233.042,239.998z"/>
<path style="fill:#494948;" d="M265.086,227.356c-2.529,1.15-5.514,0.016-6.664-2.505l-3.742-8.326
	c-1.15-2.536-0.032-5.522,2.505-6.672l3.726-1.686c2.544-1.142,5.522-0.008,6.672,2.528l3.749,8.31
	c1.15,2.544,0.024,5.514-2.505,6.672L265.086,227.356z"/>
<path style="fill:#686768;" d="M272.845,222.646c-0.74,0.323-1.591,0.008-1.922-0.717l-5.782-12.847
	c-0.331-0.725,0-1.583,0.725-1.89l0.441-0.197c0.717-0.323,1.56-0.008,1.883,0.717l5.805,12.847
	c0.315,0.725-0.008,1.575-0.733,1.914L272.845,222.646z"/>
<path style="fill:#7C7C7C;" d="M272.411,217.053l-4.23-9.35c-0.323-0.725-1.166-1.04-1.883-0.717l-0.441,0.197
	c-0.725,0.307-1.055,1.166-0.725,1.89l4.214,9.35c0.323,0.733,1.166,1.056,1.906,0.733l0.433-0.197
	C272.419,218.636,272.734,217.77,272.411,217.053z"/>
<path style="fill:#686768;" d="M248.19,196.345c-0.331-0.725-0.008-1.583,0.717-1.906l5.963-2.678c0.717-0.323,1.575,0,1.898,0.717
	l0.189,0.441c0.347,0.733,0.008,1.575-0.709,1.898l-5.963,2.702c-0.74,0.323-1.583,0-1.906-0.725L248.19,196.345z"/>
<path style="fill:#7C7C7C;" d="M249.655,196.085l5.955-2.694c0.536-0.236,0.843-0.803,0.827-1.363
	c-0.402-0.394-1.032-0.512-1.575-0.268l-5.963,2.678c-0.536,0.252-0.859,0.819-0.843,1.386
	C248.473,196.203,249.096,196.329,249.655,196.085z"/>
<path style="fill:#686768;" d="M269.056,242.622c-0.323-0.709-0.008-1.575,0.725-1.906l5.955-2.678c0.709-0.323,1.568,0,1.906,0.733
	l0.197,0.425c0.323,0.74,0,1.575-0.74,1.906l-5.955,2.694c-0.717,0.323-1.568,0-1.89-0.725L269.056,242.622z"/>
<path style="fill:#7C7C7C;" d="M270.521,242.369l5.955-2.686c0.536-0.244,0.851-0.811,0.835-1.371
	c-0.41-0.402-1.032-0.52-1.575-0.276l-5.955,2.678c-0.551,0.252-0.874,0.819-0.851,1.371
	C269.347,242.48,269.962,242.606,270.521,242.369z"/>
<path style="fill:#424042;" d="M223.236,238.919c-1.426,0.638-5.971,1.315-6.624-0.126c-0.63-1.426,2.883-4.403,4.293-5.049
	c1.434-0.63,3.111,0,3.757,1.41C225.307,236.604,224.661,238.273,223.236,238.919z"/>
<circle style="fill:#EF296B;" cx="222.038" cy="236.375" r="2.836"/>
<path style="fill:#DD1B65;" d="M223.07,233.697c1.465,0.536,2.19,2.182,1.662,3.647c-0.559,1.465-2.198,2.198-3.663,1.646"/>
<g>
	<path style="fill:#686768;" d="M263.692,210.87c0.095,0.205,0,0.473-0.228,0.559l-5.49,2.473c-0.228,0.11-0.488,0.016-0.567-0.197
		l0,0c-0.102-0.221,0-0.465,0.213-0.567l5.506-2.481C263.321,210.555,263.581,210.649,263.692,210.87L263.692,210.87z"/>
	<path style="fill:#686768;" d="M264.928,213.603c0.087,0.228-0.008,0.488-0.221,0.567l-5.506,2.481
		c-0.228,0.102-0.48,0-0.559-0.221l0,0c-0.102-0.205-0.008-0.465,0.205-0.551l5.506-2.473
		C264.582,213.304,264.826,213.398,264.928,213.603L264.928,213.603z"/>
	<path style="fill:#686768;" d="M266.149,216.352c0.11,0.221,0,0.48-0.213,0.559l-5.506,2.489c-0.221,0.11-0.465,0-0.567-0.213l0,0
		c-0.095-0.213-0.008-0.473,0.213-0.567l5.522-2.473C265.81,216.045,266.07,216.124,266.149,216.352L266.149,216.352z"/>
	<path style="fill:#686768;" d="M267.394,219.093c0.079,0.197,0,0.465-0.221,0.551l-5.514,2.481
		c-0.213,0.102-0.465-0.008-0.551-0.205l0,0c-0.095-0.213-0.016-0.465,0.213-0.551l5.498-2.489
		C267.039,218.786,267.299,218.873,267.394,219.093L267.394,219.093z"/>
	<path style="fill:#686768;" d="M268.63,221.834c0.095,0.205,0,0.465-0.213,0.567l-5.506,2.473c-0.213,0.11-0.48,0-0.567-0.197l0,0
		c-0.095-0.213,0-0.473,0.213-0.567l5.506-2.473C268.276,221.535,268.536,221.622,268.63,221.834L268.63,221.834z"/>
</g>
<path style="fill:#F9BD82;" d="M69.762,283.117c-4.742-14.344,9.862-32.02,32.603-39.534
	c22.709-7.491,138.398-32.713,143.155-18.408c4.71,14.336-103.353,62.818-126.078,70.309
	C96.732,302.99,74.488,297.445,69.762,283.117z"/>
<path style="fill:#7A4E0E;" d="M207.316,232.043c-0.859-3.285-1.449-6.412-1.906-9.452c-2.213,0.268-4.474,0.551-6.774,0.859
	c0.347,4.506,1.15,9.492,2.528,14.746c1.709,6.498,3.97,12.304,6.412,16.927c2.513-1.371,4.955-2.725,7.318-4.072
	C212.003,246.174,209.286,239.557,207.316,232.043z"/>
<circle style="fill:#38494C;" cx="202.267" cy="232.051" r="13.619"/>
<circle style="fill:#A3E1EF;" cx="201.212" cy="230.467" r="7.633"/>
<path style="fill:#F9F9F9;" d="M241.085,122.254c-0.417-0.803-0.772-1.709-1.079-2.678l0.228-0.15c0.433,0,0.788-0.354,0.788-0.796
	v-2.166c0-0.433-0.354-0.788-0.788-0.788l-1.229-0.622c-0.441-2.97-0.599-6.176-0.693-9.145l0.906-0.457
	c0.433,0,0.788-0.354,0.788-0.796v-4.317c0-0.291-1.063-1.15-1.906-1.694c-0.071-1.189-0.173-2.158-0.354-2.788
	c-1.095-3.852-5.727-5.419-5.727-5.419l-68.151-16.337v-0.41l-0.859,0.205l-0.843-0.205v0.41L93.999,90.439
	c0,0-4.632,1.568-5.711,5.419c-0.173,0.63-0.291,1.599-0.37,2.788c-0.827,0.536-1.906,1.402-1.906,1.694v4.324
	c0,0.441,0.37,0.796,0.803,0.796l0.906,0.457c-0.095,2.97-0.252,6.176-0.709,9.145l-1.213,0.622c-0.441,0-0.788,0.354-0.788,0.788
	v2.166c0,0.441,0.347,0.796,0.788,0.796l0.228,0.15c-0.307,0.969-0.662,1.875-1.087,2.678c-3.852,7.192-12.808,25.513-9.657,39.889
	c3.151,14.383,20.094,45.71,37.234,44.505c16.825-1.15,35.659-10.453,50.491-11.043c14.848,0.591,33.69,9.893,50.507,11.043
	c17.14,1.197,34.076-30.121,37.218-44.505C253.901,147.768,244.937,129.446,241.085,122.254z"/>
<path style="fill:#E7F2F2;" d="M240.014,119.576l0.228-0.15c0.433,0,0.788-0.354,0.788-0.796v-2.166
	c0-0.433-0.354-0.788-0.788-0.788l-1.229-0.622c-0.441-2.97-0.599-6.176-0.693-9.145l0.906-0.457c0.433,0,0.788-0.354,0.788-0.796
	v-4.317c0-0.291-1.063-1.15-1.906-1.694c-0.071-1.189-0.173-2.158-0.354-2.788c-1.095-3.852-5.727-5.419-5.727-5.419l-68.151-16.337
	v-0.41l-0.859,0.205l-0.032-0.008v121.714h0.032c14.848,0.591,33.69,9.893,50.507,11.043c17.14,1.197,34.076-30.121,37.218-44.505
	c3.167-14.375-5.797-32.697-9.649-39.889C240.675,121.451,240.321,120.545,240.014,119.576z"/>
<path style="fill:#1C1C1B;" d="M226.906,122.152l-6.089-11.422l-33.879-14.769l-23.922,25.781L139.11,95.961l-33.887,14.769
	l-6.105,11.422l-2.458,14.667c0,0,17.282,22.583,20.181,24.923c3.805,3.096,3.734,6.105,17.337-6.089
	c12.052-10.847,21.473-17.337,27.719-17.967v0.032c0.354-0.055,0.725-0.095,1.111-0.095s0.772,0.039,1.126,0.095v-0.032
	c6.231,0.63,15.659,7.121,27.711,17.967c13.603,12.201,13.525,9.184,17.337,6.089c2.891-2.339,20.189-24.923,20.189-24.923
	L226.906,122.152z"/>
<path style="fill:#F9F9F9;" d="M238.997,57.656l-1.851-6.845c-0.134-0.41-0.559-0.662-0.977-0.544l-1.032-0.37
	c-1.41-4.844-2.71-8.121-2.71-8.121c-6.152-12.351-14.368-21.063-23.032-27.199l-0.614-1.938c0.181-0.386,0.016-0.859-0.37-1.048
	l-8.153-3.954c-0.402-0.181-0.859-0.016-1.048,0.37l-0.646,0.197c-16.754-8.058-32.524-8.247-35.556-8.2
	c-3.017-0.047-18.786,0.142-35.541,8.2l-0.638-0.197c-0.189-0.386-0.67-0.551-1.056-0.37l-8.168,3.954
	c-0.378,0.181-0.551,0.662-0.354,1.048l-0.607,1.938c-8.665,6.136-16.896,14.848-23.04,27.199c0,0-1.292,3.277-2.718,8.121
	l-1.032,0.37c-0.417-0.118-0.827,0.142-0.961,0.544l-1.867,6.845c-0.11,0.425,0.142,0.851,0.559,0.969l0.882,1.378
	c-1.063,5.829-1.599,12.138-0.567,17.424c2.757,14.194,21.063-3.537,21.063-3.537l45.71-2.363l8.342-1.489l8.357,1.489l45.71,2.363
	c0,0,18.306,17.731,21.063,3.537c1.032-5.285,0.488-11.595-0.567-17.424l0.882-1.378C238.856,58.514,239.116,58.081,238.997,57.656z
	"/>
<path style="fill:#E7F2F2;" d="M237.138,50.811c-0.134-0.41-0.559-0.662-0.977-0.544l-1.032-0.37c-1.41-4.844-2.71-8.121-2.71-8.121
	c-6.152-12.351-14.368-21.063-23.032-27.199l-0.614-1.938c0.181-0.386,0.016-0.859-0.37-1.048l-8.153-3.954
	c-0.402-0.181-0.859-0.016-1.048,0.37l-0.638,0.197c-16.754-8.058-32.524-8.247-35.556-8.2h-0.032v70.049l0.032-0.016l8.357,1.489
	l45.71,2.363c0,0,18.306,17.731,21.063,3.537c1.032-5.285,0.488-11.595-0.567-17.424l0.882-1.378c0.41-0.118,0.67-0.544,0.544-0.969
	L237.138,50.811z"/>
<path style="fill:#CDE0DF;" d="M251.396,155.014c-0.725,2.339-2.788,7.01-4.726,10.736c-3.411,6.632-16.738,30.594-26.994,25.088
	c-9.657-5.207-43.394-31.429-56.667-30.421c-13.265-1.008-47.002,25.214-56.667,30.421c-10.24,5.506-23.568-18.456-26.994-25.088
	c-1.922-3.734-3.986-8.397-4.71-10.736c-0.063,2.442,0.142,4.821,0.646,7.129c3.151,14.383,20.094,45.71,37.234,44.505
	c16.825-1.15,35.659-10.453,50.491-11.043c14.848,0.591,33.69,9.893,50.507,11.043c17.14,1.197,34.076-30.121,37.218-44.505
	C251.246,159.835,251.435,157.448,251.396,155.014z"/>
<path style="fill:#BAD1CF;" d="M246.67,165.751c-3.411,6.632-16.738,30.594-26.994,25.088c-9.657-5.207-43.394-31.429-56.667-30.421
	h-0.032v35.194h0.032c14.848,0.591,33.69,9.893,50.507,11.043c17.14,1.197,34.076-30.121,37.218-44.505
	c0.504-2.308,0.701-4.695,0.662-7.129C250.671,157.354,248.607,162.017,246.67,165.751z"/>
<path style="fill:#DDEDED;" d="M97.63,89.573c1.946,4.064,4.569,9.799,4.726,11.169c0.181,1.875,0.095,2.859-2.371,5.419
	c-2.473,2.568-7.389,7.491-7.389,7.491s-1.575,1.969-1.182,3.647c0.394,1.678,2.662,11.815,2.662,11.815s1.969,3.466,2.749,3.371
	c0.796-0.095,2.962-1.993,4.829-4.647c1.867-2.662,1.575-12.414,3.647-16.156c2.072-3.749,3.639-4.135,10.547-6.703
	c6.877-2.56,12.603-5.908,19.692-13.493c7.089-7.593,15.557-14.769,26.293-16.156v-1.15L97.63,89.573z"/>
<g>
	<path style="fill:#CDE0DF;" d="M228.395,89.573c-1.93,4.064-4.553,9.799-4.695,11.169c-0.197,1.875-0.11,2.859,2.355,5.419
		c2.458,2.568,7.389,7.491,7.389,7.491s1.575,1.969,1.182,3.647c-0.394,1.678-2.67,11.815-2.67,11.815s-1.946,3.466-2.749,3.371
		c-0.796-0.095-2.954-1.993-4.821-4.647c-1.875-2.662-1.575-12.414-3.655-16.156c-2.064-3.749-3.647-4.135-10.539-6.703
		s-12.603-5.908-19.692-13.493c-7.089-7.593-15.557-14.769-26.309-16.156v-1.15L228.395,89.573z"/>
	<path style="fill:#CDE0DF;" d="M193.272,64.115c-10.894-1.292-21.228-3.143-30.263-2.584c-9.019-0.559-19.354,1.292-30.247,2.584
		c-18.306,2.135-34.43,6.648-45.095,12.02c0.063,0.441,0.142,0.866,0.228,1.292c2.757,14.194,21.063-3.537,21.063-3.537l45.71-2.363
		l8.342-1.489l8.357,1.489l45.71,2.363c0,0,18.306,17.731,21.063,3.537c0.095-0.425,0.165-0.851,0.228-1.292
		C227.686,70.755,211.578,66.249,193.272,64.115z"/>
</g>
<path style="fill:#BAD1CF;" d="M163.009,61.531h-0.032v8.523l0.032-0.016l8.357,1.489l45.71,2.363c0,0,18.306,17.731,21.063,3.537
	c0.095-0.425,0.165-0.851,0.228-1.292c-10.673-5.38-26.782-9.886-45.095-12.02C182.378,62.823,172.044,60.964,163.009,61.531z"/>
<path style="fill:#7C7C7C;" d="M163.009,67.974c-4.419-0.095-53.303-0.819-74.72,10.839c0,0,0.189,7.302,1.969,7.302
	c1.694,0,67.576-6.191,72.751-6.688c5.191,0.488,71.066,6.688,72.767,6.688c1.772,0,1.969-7.302,1.969-7.302
	C216.32,67.155,167.428,67.88,163.009,67.974z"/>
<path style="fill:#666663;" d="M163.009,67.974h-0.032v11.469l0.032-0.016c5.191,0.488,71.066,6.688,72.767,6.688
	c1.772,0,1.969-7.302,1.969-7.302C216.32,67.155,167.428,67.88,163.009,67.974z"/>
<path style="fill:#DDEDED;" d="M83.058,172.399c-1.52-2.261-2.725-4.23-3.403-5.561c-0.969-1.89-1.985-4.001-2.844-5.939
	c-0.488,7.633,14.927,28.491,15.998,29.412c1.063,0.89,3.442,0.134,5.081-0.37C92.282,186.506,86.768,178.574,83.058,172.399z"/>
<path style="fill:#1C1C1B;" d="M79.348,165.751c-0.969-1.883-1.969-4.009-2.844-5.955c-0.48,7.656,14.935,28.514,16.014,29.436
	c1.229,1.032,2.859,0.52,4.427,0.087C89.194,183.868,81.782,170.461,79.348,165.751z"/>
<g>
	<path style="fill:#DDEDED;" d="M95.984,159.386l-1-1.473c0,0,4.08-2.418,6.798-2.521l-0.197,1.694c0,0-1.725,0.276-3.056,0.914
		C97.197,158.646,95.984,159.386,95.984,159.386z"/>
	<path style="fill:#DDEDED;" d="M93.676,156.227l-0.985-1.473c0,0,4.096-2.426,6.798-2.505l-0.197,1.678
		c0,0-1.725,0.291-3.064,0.929C94.897,155.495,93.676,156.227,93.676,156.227z"/>
	<path style="fill:#DDEDED;" d="M91.368,153.077l-0.969-1.473c0,0,4.08-2.418,6.782-2.505l-0.197,1.662c0,0-1.725,0.307-3.056,0.945
		C92.605,152.336,91.368,153.077,91.368,153.077z"/>
	<path style="fill:#DDEDED;" d="M89.084,149.918l-0.985-1.473c0,0,4.088-2.41,6.79-2.505l-0.197,1.67c0,0-1.725,0.299-3.056,0.929
		C90.305,149.185,89.084,149.918,89.084,149.918z"/>
	<path style="fill:#DDEDED;" d="M86.784,146.783l-0.985-1.481c0,0,4.096-2.418,6.798-2.505l-0.197,1.67c0,0-1.741,0.299-3.048,0.929
		C88.013,146.043,86.784,146.783,86.784,146.783z"/>
	<path style="fill:#DDEDED;" d="M84.476,143.624l-0.985-1.481c0,0,4.096-2.418,6.798-2.505l-0.189,1.678
		c0,0-1.717,0.291-3.064,0.937C85.705,142.884,84.476,143.624,84.476,143.624z"/>
	<path style="fill:#DDEDED;" d="M82.168,140.466l-0.969-1.481c0,0,4.096-2.402,6.798-2.505l-0.197,1.686
		c0,0-1.725,0.291-3.064,0.929C83.42,139.725,82.168,140.466,82.168,140.466z"/>
</g>
<path style="fill:#494948;" d="M224.748,112.203c-2.458-2.56-2.56-3.552-2.371-5.419c0.197-1.875,5.018-11.934,6.396-14.675
	c1.371-2.757,4.135-1.583,4.135-1.583c-0.488-3.048,0.89-4.624,0.89-4.624l-1.985-1.473c-16.542-8.704-64.827-9.137-68.679-9.161
	l0,0c0,0-0.063,0-0.142,0s-0.126,0-0.126,0l0,0c-3.828,0.032-52.129,0.457-68.671,9.169l-1.969,1.473c0,0,1.378,1.575,0.882,4.624
	c0,0,2.765-1.166,4.128,1.583c1.386,2.749,6.207,12.8,6.412,14.675c0.181,1.859,0.087,2.851-2.371,5.419
	c-2.473,2.552-7.381,7.475-7.381,7.475s-1.591,1.977-1.189,3.647c0.394,1.678,2.662,11.831,2.662,11.831s1.969,3.466,2.741,3.371
	c0.803-0.11,2.977-1.993,4.844-4.647c1.859-2.67,1.583-12.414,3.647-16.163c2.064-3.749,3.647-4.135,10.531-6.711
	c6.9-2.544,12.619-5.9,19.7-13.485c7.073-7.554,15.502-14.706,26.167-16.14c10.673,1.434,19.109,8.586,26.175,16.14
	c7.089,7.585,12.808,10.941,19.7,13.485c6.892,2.568,8.476,2.962,10.539,6.711c2.064,3.749,1.772,13.493,3.647,16.163
	c1.867,2.655,4.041,4.537,4.829,4.647c0.788,0.102,2.757-3.371,2.757-3.371s2.261-10.153,2.662-11.831
	c0.402-1.67-1.182-3.647-1.182-3.647S227.214,114.755,224.748,112.203z"/>
<path style="fill:#383836;" d="M231.829,84.437c-16.542-8.704-64.827-9.137-68.679-9.161l0,0c0,0-0.063,0-0.142,0h-0.032v6.128
	l0.032-0.016c10.673,1.434,19.109,8.586,26.175,16.14c7.089,7.585,12.808,10.941,19.7,13.485c6.892,2.568,8.476,2.962,10.539,6.711
	c2.064,3.749,1.772,13.493,3.647,16.163c1.867,2.655,4.041,4.537,4.829,4.647c0.788,0.102,2.757-3.371,2.757-3.371
	s2.261-10.153,2.662-11.831c0.402-1.67-1.182-3.647-1.182-3.647s-4.923-4.923-7.389-7.475c-2.458-2.56-2.56-3.552-2.371-5.419
	c0.197-1.875,5.018-11.934,6.396-14.675c1.371-2.757,4.135-1.583,4.135-1.583c-0.488-3.048,0.89-4.624,0.89-4.624L231.829,84.437z"
	/>
<path style="fill:#5E5E5E;" d="M92.92,87.265c0.725,0.181,1.481,0.654,2.016,1.741c0.181,0.394,0.449,0.906,0.756,1.512
	c0.567,0.252,1.134,0.733,1.552,1.591c1.386,2.749,6.207,12.8,6.412,14.675c0.181,1.859,0.087,2.851-2.371,5.419
	c-2.473,2.552-7.381,7.475-7.381,7.475s-1.591,1.977-1.189,3.647c0.394,1.678,2.662,11.831,2.662,11.831s0.032,0.047,0.079,0.142
	c0.142,0.087,0.26,0.142,0.37,0.126c0.788-0.102,2.946-1.985,4.813-4.647c1.875-2.662,1.725-10.784,3.797-14.525
	c2.072-3.757,6.049-3.151,12.942-5.734c6.892-2.552,11.981-5.608,19.078-13.194c7.089-7.585,13.635-17.676,24.379-19.062"/>
<path style="fill:#6B6B6B;" d="M97.851,122.884c-0.315,0.922-1.252,2.135-1.946,1.89c-0.685-0.228-0.89-1.827-0.544-2.765
	c0.299-0.929,1.15-1.481,1.835-1.237C97.882,121.018,98.182,121.955,97.851,122.884z"/>
<path style="fill:#1C1C1B;" d="M97.851,122.884c-0.315,0.922-1.134,1.489-1.827,1.237c-0.701-0.236-1.008-1.174-0.662-2.111
	c0.299-0.929,1.15-1.481,1.835-1.237C97.882,121.018,98.182,121.955,97.851,122.884z"/>
<path style="fill:#6B6B6B;" d="M99.993,119.576c-0.205,0.614-0.835,1.418-1.308,1.26c-0.449-0.165-0.567-1.237-0.354-1.843
	c0.213-0.63,0.772-0.985,1.221-0.827C100.009,118.324,100.23,118.954,99.993,119.576z"/>
<ellipse transform="matrix(0.3319 -0.9433 0.9433 0.3319 -46.2696 173.2304)" style="fill:#1C1C1B;" cx="99.161" cy="119.28" rx="1.182" ry="0.882"/>
<path style="fill:#E7F2F2;" d="M242.967,172.399c1.536-2.261,2.741-4.23,3.419-5.561c0.969-1.89,1.985-4.001,2.844-5.939
	c0.488,7.633-14.935,28.491-16.014,29.412c-1.048,0.89-3.434,0.134-5.065-0.37C233.751,186.506,239.273,178.574,242.967,172.399z"/>
<path style="fill:#1C1C1B;" d="M246.67,165.751c0.969-1.883,1.985-4.009,2.828-5.955c0.504,7.656-14.927,28.514-15.982,29.436
	c-1.237,1.032-2.859,0.52-4.427,0.087C236.839,183.868,244.259,170.461,246.67,165.751z"/>
<g>
	<path style="fill:#CDE0DF;" d="M230.057,159.386l1-1.481c0,0-4.104-2.418-6.798-2.521l0.181,1.694c0,0,1.725,0.276,3.064,0.914
		C228.828,158.646,230.057,159.386,230.057,159.386z"/>
	<path style="fill:#CDE0DF;" d="M232.365,156.227l0.985-1.473c0,0-4.096-2.426-6.798-2.505l0.197,1.678c0,0,1.725,0.291,3.048,0.929
		C231.136,155.495,232.365,156.227,232.365,156.227z"/>
	<path style="fill:#CDE0DF;" d="M234.657,153.077l0.985-1.473c0,0-4.096-2.418-6.798-2.505l0.197,1.662c0,0,1.741,0.307,3.064,0.945
		C233.428,152.336,234.657,153.077,234.657,153.077z"/>
	<path style="fill:#CDE0DF;" d="M236.957,149.918l0.985-1.473c0,0-4.088-2.41-6.798-2.505l0.197,1.67c0,0,1.717,0.299,3.056,0.929
		C235.736,149.185,236.957,149.918,236.957,149.918z"/>
	<path style="fill:#CDE0DF;" d="M239.257,146.783l0.985-1.481c0,0-4.096-2.418-6.798-2.505l0.197,1.67c0,0,1.725,0.299,3.048,0.929
		C238.029,146.043,239.257,146.783,239.257,146.783z"/>
	<path style="fill:#CDE0DF;" d="M241.55,143.624l0.985-1.481c0,0-4.088-2.418-6.79-2.505l0.205,1.678c0,0,1.709,0.291,3.048,0.937
		C240.321,142.884,241.55,143.624,241.55,143.624z"/>
	<path style="fill:#CDE0DF;" d="M243.857,140.466l0.985-1.481c0,0-4.096-2.402-6.798-2.505l0.197,1.686c0,0,1.733,0.291,3.048,0.929
		C242.621,139.725,243.857,140.466,243.857,140.466z"/>
</g>
<path style="fill:#5E5E5E;" d="M163.009,67.974c-4.419-0.095-53.303-0.819-74.72,10.839c0,0,0.032,1.008,0.158,2.284
	c21.079-11.327,68.198-10.878,74.264-10.76v0.016c0,0,0.11,0,0.307-0.016c0.213,0.016,0.323,0.016,0.323,0.016v-0.016
	c6.049-0.118,53.185-0.567,74.264,10.76c0.126-1.276,0.158-2.284,0.158-2.284C216.32,67.155,167.428,67.88,163.009,67.974z"/>
<path style="fill:#494947;" d="M163.009,67.974h-0.032v2.363h0.032c0.213,0.016,0.323,0.016,0.323,0.016v-0.016
	c6.049-0.118,53.185-0.567,74.264,10.76c0.126-1.276,0.158-2.284,0.158-2.284C216.32,67.155,167.428,67.88,163.009,67.974z"/>
<path style="fill:#494948;" d="M233.121,87.265c-0.725,0.181-1.481,0.654-2.016,1.741c-0.181,0.394-0.465,0.906-0.756,1.512
	c-0.567,0.252-1.142,0.733-1.568,1.591c-1.386,2.749-6.199,12.8-6.396,14.675c-0.189,1.859-0.087,2.851,2.371,5.419
	c2.458,2.552,7.389,7.475,7.389,7.475s1.583,1.977,1.182,3.647c-0.402,1.678-2.662,11.831-2.662,11.831s-0.031,0.047-0.079,0.142
	c-0.142,0.087-0.26,0.142-0.37,0.126c-0.788-0.102-2.946-1.985-4.829-4.647c-1.859-2.662-1.709-10.784-3.781-14.525
	c-2.072-3.757-6.049-3.151-12.942-5.734c-6.892-2.552-11.981-5.608-19.078-13.194c-7.097-7.585-13.635-17.676-24.387-19.062"/>
<path style="fill:#383836;" d="M225.244,83.744c-0.693,0.788-1.678-0.102-1.678-0.102c-30.358-7.869-58.478-6.711-60.558-6.609
	c-2.064-0.102-30.2-1.26-60.55,6.609c0,0-0.985,0.882-1.67,0.102c-0.693-0.788-3.639,0.583-3.639,0.583s0.764,8.381,4.395,15.699
	c3.616,7.255,6.829,8.791,14.462,7.68c8.956-1.315,15.321-8.097,22.796-14.706c7.452-6.577,14.226-11.579,24.206-11.626
	c9.988,0.047,16.754,5.049,24.198,11.626c7.475,6.609,13.863,13.391,22.812,14.706c7.633,1.119,10.847-0.425,14.454-7.68
	c3.631-7.318,4.403-15.699,4.403-15.699S225.93,82.956,225.244,83.744z"/>
<path style="fill:#262624;" d="M225.244,83.744c-0.693,0.788-1.678-0.102-1.678-0.102c-30.358-7.869-58.478-6.711-60.558-6.609
	h-0.016l-0.016,4.356l0.032-0.016c9.988,0.047,16.754,5.049,24.198,11.626c7.475,6.609,13.863,13.391,22.812,14.706
	c7.633,1.119,10.847-0.425,14.454-7.68c3.631-7.318,4.403-15.699,4.403-15.699S225.93,82.956,225.244,83.744z"/>
<path style="fill:#1C1C1B;" d="M225.244,83.744c-0.693,0.788-1.678-0.102-1.678-0.102c-30.358-7.869-58.478-6.711-60.558-6.609
	c-2.064-0.102-30.2-1.26-60.55,6.609c0,0-0.985,0.882-1.67,0.102c-0.063-0.079-0.126-0.11-0.213-0.158
	c0.386,2.71,1.489,8.791,4.222,14.273c3.608,7.255,6.821,8.799,14.446,7.688c3.19-0.48,6.042-1.631,8.743-3.23
	c3.631-2.686,7.073-6.018,10.807-9.318c3.237-2.851,6.365-5.419,9.681-7.404c4.411-3.206,8.988-5.506,14.533-6.183
	c5.553,0.677,10.122,2.977,14.541,6.183c3.308,1.985,6.428,4.553,9.665,7.404c3.742,3.3,7.2,6.632,10.831,9.318
	c2.71,1.599,5.553,2.757,8.743,3.23c7.609,1.119,10.831-0.433,14.454-7.688c2.71-5.474,3.812-11.563,4.214-14.273
	C225.362,83.634,225.292,83.665,225.244,83.744z"/>
<path d="M223.567,83.642c-30.358-7.869-58.478-6.711-60.558-6.609h-0.016l-0.016,2.387l0.032-0.016
	c5.553,0.677,10.122,2.977,14.541,6.183c3.308,1.985,6.428,4.553,9.665,7.404c3.742,3.3,7.2,6.632,10.831,9.318
	c2.71,1.599,5.553,2.757,8.743,3.23c7.609,1.119,10.831-0.433,14.454-7.688c2.71-5.474,3.812-11.563,4.214-14.273
	c-0.095,0.047-0.165,0.079-0.213,0.158C224.551,84.524,223.567,83.642,223.567,83.642z"/>
<path style="fill:#CDE0DF;" d="M216.532,117.82c-0.394-3.151-2.631-3.805-2.631-3.805l-5.112-2.371
	c-11.689-4.734-19.598-14.115-19.598-14.115c-14.423-14.911-24.025-15.628-26.175-15.588c-2.135-0.047-11.737,0.677-26.167,15.588
	c0,0-7.916,9.381-19.59,14.115l-5.112,2.371c0,0-2.245,0.654-2.631,3.805c-0.402,3.151-3.552,12.737-0.142,17.589
	c3.411,4.852,11.461,15.344,13.281,16.943c2.473,2.198,5.506,3.143,10.752-2.891c5.167-5.931,21.205-23.513,29.617-23.773
	c8.42,0.252,24.458,17.841,29.625,23.773c5.246,6.042,8.287,5.088,10.768,2.891c1.804-1.599,9.846-12.091,13.273-16.943
	C220.077,130.557,216.934,120.97,216.532,117.82z"/>
<path style="fill:#BAD1CF;" d="M213.902,114.015l-5.112-2.371c-11.689-4.734-19.598-14.115-19.598-14.115
	c-14.423-14.911-24.025-15.628-26.175-15.588h-0.032v43.756h0.032c8.42,0.252,24.458,17.841,29.625,23.773
	c5.246,6.042,8.287,5.088,10.768,2.891c1.804-1.599,9.846-12.091,13.273-16.943c3.411-4.852,0.26-14.438-0.142-17.589
	C216.139,114.669,213.902,114.015,213.902,114.015z"/>
<path style="fill:#F9F9F9;" d="M216.532,117.82c-0.394-3.151-2.631-3.805-2.631-3.805l-5.112-2.371
	c-10.335-3.174-19.598-14.115-19.598-14.115c-14.423-14.911-24.025-16.289-26.175-16.242c-2.135-0.047-11.737,1.339-26.167,16.242
	c0,0-9.263,10.941-19.59,14.115l-5.112,2.371c0,0-2.245,0.654-2.631,3.805c-0.402,3.151-3.552,12.737-0.142,17.589
	c2.229,3.174,6.412,8.728,9.563,12.65c0.221,0.228,0.41,0.425,0.551,0.536c2.481,2.213,5.514,3.151,10.768-2.875
	c5.057-5.821,24.025-25.836,32.76-26.892c8.751,1.056,27.711,21.071,32.768,26.892c5.262,6.034,8.279,5.088,10.768,2.875
	c0.142-0.118,0.339-0.307,0.551-0.536c3.151-3.923,7.341-9.476,9.57-12.65C220.077,130.557,216.934,120.97,216.532,117.82z"/>
<path style="fill:#E7F2F2;" d="M213.902,114.015l-5.112-2.371c-10.335-3.174-19.598-14.115-19.598-14.115
	c-14.423-14.911-24.025-15.628-26.175-15.588h-0.032v36.911l0.032-0.016c8.751,1.056,27.711,21.071,32.768,26.892
	c5.262,6.034,8.279,5.088,10.768,2.875c0.142-0.118,0.339-0.307,0.551-0.536c3.151-3.923,7.341-9.476,9.57-12.65
	c3.411-4.852,0.26-14.438-0.142-17.589C216.139,114.669,213.902,114.015,213.902,114.015z"/>
<path style="fill:#6B6B6B;" d="M228.167,122.884c0.339,0.922,1.276,2.135,1.969,1.89c0.701-0.228,0.859-1.827,0.544-2.765
	c-0.315-0.937-1.15-1.481-1.835-1.237C228.159,121.018,227.859,121.955,228.167,122.884z"/>
<ellipse transform="matrix(0.3266 0.9452 -0.9452 0.3266 270.2224 -134.3772)" style="fill:#1C1C1B;" cx="229.414" cy="122.447" rx="1.772" ry="1.331"/>
<path style="fill:#6B6B6B;" d="M226.024,119.576c0.213,0.614,0.843,1.418,1.308,1.26c0.465-0.165,0.583-1.237,0.37-1.843
	c-0.213-0.63-0.772-0.985-1.229-0.827C226.008,118.324,225.811,118.954,226.024,119.576z"/>
<ellipse transform="matrix(0.3292 0.9443 -0.9443 0.3292 264.8029 -134.1973)" style="fill:#1C1C1B;" cx="226.852" cy="119.275" rx="1.182" ry="0.89"/>
<path style="fill:#6D918C;" d="M226.197,190.933c-2.032,2.56-11.618,0.528-17.51-4.112c-5.908-4.647-5.892-10.169-3.852-12.737
	c2.024-2.568,8.436-0.874,14.344,3.773C225.071,182.513,228.23,188.365,226.197,190.933z"/>
<path style="fill:#50726C;" d="M204.835,174.084c-2.04,2.568-2.056,8.09,3.852,12.737c5.892,4.647,15.478,6.68,17.51,4.112"/>
<path style="fill:#3A544F;" d="M222.267,188.57c-1.347,1.709-7.704,0.354-11.634-2.741s-3.899-6.751-2.568-8.46
	c1.347-1.709,5.624-0.583,9.531,2.505C221.519,182.977,223.614,186.869,222.267,188.57z"/>
<path style="fill:#314C47;" d="M222.267,188.57c-1.347,1.709-7.704,0.354-11.634-2.741s-3.899-6.751-2.568-8.46"/>
<path style="fill:#F9F9F9;" d="M208.348,168.996c0,0,20.645-31.673,22.229-33.697c0,0-13.123,34.477-17.447,34.627
	c-4.324,0.15-7.263,2.001-7.263,2.001L208.348,168.996z"/>
</svg>