<?xml version="1.0" encoding="iso-8859-1"?>
<!-- Uploaded to: SVG Repo, www.svgrepo.com, Generator: SVG Repo Mixer Tools -->
<svg height="800px" width="800px" version="1.1" id="Layer_1" xmlns="http://www.w3.org/2000/svg" xmlns:xlink="http://www.w3.org/1999/xlink" 
	 viewBox="0 0 504.123 504.123" xml:space="preserve">
<polygon style="fill:#A00505;" points="287.188,201.515 363.003,174.931 381.711,201.515 427.988,172.961 406.326,216.285 
	364.972,239.915 349.218,206.438 309.834,209.392 325.588,230.069 340.357,221.208 326.572,247.792 298.018,245.823 242.88,222.192 
	"/>
<path d="M320.775,361.913c0,19.503-15.817,124.668-35.336,124.668c-19.495,0-35.304-105.173-35.304-124.668
	c0-19.495,15.817-35.32,35.304-35.32C304.958,326.593,320.775,342.418,320.775,361.913z"/>
<path d="M202.416,361.913c0,19.503-15.817,124.668-35.336,124.668c-19.495,0-35.304-105.173-35.304-124.668
	c0-19.495,15.817-35.32,35.304-35.32C186.599,326.593,202.416,342.418,202.416,361.913z"/>
<path style="fill:#191919;" d="M325.911,315.242c0,126.33-44.599,84.259-99.643,84.259c-55.028,0-99.643,42.071-99.643-84.259
	c0-72.231,44.631-130.781,99.643-130.781C281.296,184.47,325.911,243.019,325.911,315.242z"/>
<g>
	<path style="fill:#A8B2BA;" d="M140.11,422.085c5.506,27.301,13.32,54.705,22.166,62.354h9.602
		c8.869-7.648,16.691-35.052,22.181-62.354H140.11z"/>
	<path style="fill:#A8B2BA;" d="M258.46,422.085c5.506,27.301,13.32,54.705,22.166,62.354h9.602
		c8.862-7.648,16.691-35.052,22.189-62.354H258.46z"/>
</g>
<path style="fill:#8D97A0;" d="M206.835,487.219c0,14.935-17.802,16.904-39.739,16.904s-39.739-1.961-39.739-16.904
	c0-14.943,17.802-35.509,39.739-35.509S206.835,472.277,206.835,487.219z"/>
<path style="fill:#79848C;" d="M206.835,487.219c0,14.935-17.802,16.904-39.739,16.904s-39.739-1.961-39.739-16.904"/>
<path style="fill:#8D97A0;" d="M325.186,487.219c0,14.935-17.802,16.904-39.739,16.904s-39.739-1.961-39.739-16.904
	c0-14.943,17.802-35.509,39.739-35.509S325.186,472.277,325.186,487.219z"/>
<path style="fill:#79848C;" d="M325.186,487.219c0,14.935-17.802,16.904-39.739,16.904s-39.739-1.961-39.739-16.904"/>
<g>
	<path style="fill:#191919;" d="M215.279,203.768c10.027,11.28,3.663,33.304-14.218,49.223
		C183.181,268.887,87.043,338.015,77,326.758c-10.012-11.296,69.892-98.714,87.773-114.609
		C182.637,196.254,205.252,192.496,215.279,203.768z"/>
	<path style="fill:#191919;" d="M237.248,203.768c-10.027,11.28-3.663,33.304,14.218,49.223
		c17.881,15.896,114.018,85.024,124.062,73.767c10.012-11.296-69.892-98.714-87.773-114.609
		C269.898,196.254,247.283,192.496,237.248,203.768z"/>
</g>
<path style="fill:#CC0A0A;" d="M226.267,179.547c-27.231,0-51.83,14.438-69.797,37.707c20.126,8.294,44.048,12.516,69.813,12.516
	c25.758,0,49.68-4.222,69.797-12.516C278.113,193.993,253.514,179.547,226.267,179.547z"/>
<path style="fill:#0FB28B;" d="M355.221,124.258c0,63.008-57.738,94.681-128.937,94.681c-71.215,0-128.969-31.673-128.969-94.681
	C97.314,61.235,155.068,0,226.283,0C297.483,0,355.221,61.235,355.221,124.258z"/>
<path style="fill:#0AA599;" d="M355.221,124.258c0,63.008-57.738,94.681-128.937,94.681c-71.215,0-128.969-31.673-128.969-94.681"/>
<path style="fill:#566866;" d="M236.114,150.331V0.52C232.86,0.268,229.599,0,226.283,0c-3.34,0-6.601,0.268-9.862,0.528v149.803
	c0,5.427,4.403,9.846,9.846,9.846C231.703,160.177,236.114,155.758,236.114,150.331z"/>
<g>
	<path style="fill:#B6C3CC;" d="M97.188,287.744c-14.36,18.723-24.08,34.627-20.181,39.014c3.82,4.285,20.141-3.096,39.849-14.738
		l2.308-2.308L97.188,287.744z"/>
	<path style="fill:#B6C3CC;" d="M332.637,310.209c21.063,12.674,38.88,21.063,42.89,16.557c3.907-4.403-5.876-20.378-20.291-39.156
		L332.637,310.209z"/>
</g>
<path style="fill:#9CACB5;" d="M332.472,182.595l-61.637-38.581h-89.143l-61.637,38.581c23.268,24.182,62.149,36.344,106.22,36.344
	C270.339,218.939,309.219,206.777,332.472,182.595z"/>
<path style="fill:#B6C3CC;" d="M181.692,159.106l-51.68,32.343c23.615,18.274,57.958,27.483,96.264,27.483
	c38.29,0,72.633-9.208,96.232-27.483l-51.68-32.343H181.692L181.692,159.106z"/>
<path style="fill:#212020;" d="M191.121,117.106c-21.346,21.331-50.743,42.142-65.591,27.317
	c-14.816-14.84-9.444-59.691,11.894-81.014c21.323-21.339,50.649-26.616,65.473-11.784
	C217.729,66.458,212.443,95.776,191.121,117.106z"/>
<ellipse transform="matrix(0.7071 -0.7071 0.7071 0.7071 -15.7057 142.5892)" style="fill:#F40F0F;" cx="164.268" cy="90.253" rx="54.634" ry="37.974"/>
<path style="fill:#CC0A0A;" d="M202.889,51.625c14.84,14.832,9.555,44.15-11.768,65.481c-21.346,21.331-50.656,26.608-65.489,11.776
	"/>
<path style="fill:#212020;" d="M261.406,117.106c21.354,21.331,50.751,42.142,65.591,27.317
	c14.824-14.84,9.452-59.691-11.886-81.014c-21.323-21.339-50.649-26.616-65.465-11.784
	C234.806,66.458,240.084,95.776,261.406,117.106z"/>
<ellipse transform="matrix(0.7071 0.7072 -0.7072 0.7071 148.2628 -177.4162)" style="fill:#F40F0F;" cx="288.27" cy="90.243" rx="54.646" ry="37.977"/>
<path style="fill:#CC0A0A;" d="M249.646,51.625c-14.848,14.832-9.563,44.15,11.752,65.481
	c21.354,21.331,50.664,26.608,65.497,11.776"/>
<g>
	<path style="fill:#B6C3CC;" d="M222.416,43.583c1.221,1.221,1.221,3.222,0,4.443l0,0c-1.221,1.221-3.206,1.221-4.435,0
		l-28.672-28.672c-1.221-1.213-1.221-3.214,0-4.435l0,0c1.229-1.221,3.23-1.221,4.435,0L222.416,43.583z"/>
	<path style="fill:#B6C3CC;" d="M230.119,43.583c-1.221,1.221-1.221,3.222,0,4.443l0,0c1.221,1.221,3.206,1.221,4.435,0
		l28.672-28.672c1.221-1.213,1.221-3.214,0-4.435l0,0c-1.229-1.221-3.222-1.221-4.435,0L230.119,43.583z"/>
</g>
<path style="fill:#11CE6B;" d="M222.329,280.946c0,8.696-7.058,15.754-15.754,15.754h-32.823c-8.696,0-15.754-7.058-15.754-15.754
	v-17.069c0-8.696,7.058-15.754,15.754-15.754h32.823c8.696,0,15.754,7.058,15.754,15.754V280.946z"/>
<path style="fill:#08B254;" d="M222.329,280.946c0,8.696-7.058,15.754-15.754,15.754h-32.823c-8.696,0-15.754-7.058-15.754-15.754
	v-17.069c0-8.696,7.058-15.754,15.754-15.754"/>
<path style="fill:#11CE6B;" d="M230.206,280.946c0,8.696,7.05,15.754,15.754,15.754h32.823c8.696,0,15.754-7.058,15.754-15.754
	v-17.069c0-8.696-7.058-15.754-15.754-15.754H245.96c-8.704,0-15.754,7.058-15.754,15.754L230.206,280.946L230.206,280.946z"/>
<path style="fill:#08B254;" d="M230.206,280.946c0,8.696,7.05,15.754,15.754,15.754h32.823c8.696,0,15.754-7.058,15.754-15.754
	v-17.069c0-8.696-7.058-15.754-15.754-15.754"/>
<path style="fill:#11CE6B;" d="M223.55,328.499c0,6.002-4.86,10.862-10.862,10.862h-22.623c-6.002,0-10.862-4.86-10.862-10.862
	v-11.76c0-6.002,4.86-10.862,10.862-10.862h22.623c6.002,0,10.862,4.86,10.862,10.862V328.499z"/>
<path style="fill:#08B254;" d="M223.55,328.499c0,6.002-4.86,10.862-10.862,10.862h-22.623c-6.002,0-10.862-4.86-10.862-10.862
	v-11.76c0-6.002,4.86-10.862,10.862-10.862"/>
<path style="fill:#11CE6B;" d="M228.985,328.499c0,6.002,4.844,10.862,10.847,10.862h22.63c6.002,0,10.862-4.86,10.862-10.862
	v-11.76c0-6.002-4.86-10.862-10.862-10.862h-22.63c-6.002,0-10.847,4.86-10.847,10.862V328.499z"/>
<path style="fill:#08B254;" d="M228.985,328.499c0,6.002,4.844,10.862,10.847,10.862h22.63c6.002,0,10.862-4.86,10.862-10.862
	v-11.76c0-6.002-4.86-10.862-10.862-10.862"/>
<ellipse style="fill:#CC0A0A;" cx="226.307" cy="370.869" rx="75.815" ry="23.631"/>
<ellipse style="fill:#B6C3CC;" cx="226.307" cy="370.869" rx="42.646" ry="18.211"/>
<path style="fill:#9CACB5;" d="M268.913,370.869c0,10.051-19.094,18.211-42.646,18.211s-42.646-8.16-42.646-18.211"/>
<circle style="fill:#CC0A0A;" cx="226.307" cy="370.869" r="9.184"/>
<g>
	<path style="fill:#9CACB5;" d="M267.621,168.535c0,1.355-1.111,2.458-2.458,2.458h-77.785c-1.355,0-2.458-1.111-2.458-2.458l0,0
		c0-1.355,1.111-2.458,2.458-2.458h77.785C266.511,166.069,267.621,167.18,267.621,168.535L267.621,168.535z"/>
	<path style="fill:#9CACB5;" d="M267.621,179.365c0,1.355-1.111,2.458-2.458,2.458h-77.785c-1.355,0-2.458-1.111-2.458-2.458l0,0
		c0-1.355,1.111-2.458,2.458-2.458h77.785C266.511,176.9,267.621,178.011,267.621,179.365L267.621,179.365z"/>
	<path style="fill:#9CACB5;" d="M267.621,190.196c0,1.355-1.111,2.458-2.458,2.458h-77.785c-1.355,0-2.458-1.111-2.458-2.458l0,0
		c0-1.355,1.111-2.458,2.458-2.458h77.785C266.511,187.731,267.621,188.841,267.621,190.196L267.621,190.196z"/>
</g>
</svg>