<?xml version="1.0" encoding="iso-8859-1"?>
<!-- Uploaded to: SVG Repo, www.svgrepo.com, Generator: SVG Repo Mixer Tools -->
<svg height="800px" width="800px" version="1.1" id="Layer_1" xmlns="http://www.w3.org/2000/svg" xmlns:xlink="http://www.w3.org/1999/xlink" 
	 viewBox="0 0 504.123 504.123" xml:space="preserve">
<g>
	<path style="fill:#057F73;" d="M236.064,361.913c0,19.503-15.817,124.668-35.336,124.668c-19.495,0-35.304-105.173-35.304-124.668
		c0-19.495,15.817-35.32,35.304-35.32C220.247,326.593,236.064,342.418,236.064,361.913z"/>
	<path style="fill:#057F73;" d="M354.423,361.913c0,19.503-15.825,124.668-35.336,124.668c-19.503,0-35.296-105.173-35.296-124.668
		c0-19.495,15.801-35.32,35.296-35.32C338.598,326.593,354.423,342.418,354.423,361.913z"/>
</g>
<g>
	<path style="fill:#15B78D;" d="M359.558,315.242c0,126.33-44.591,84.259-99.643,84.259c-55.028,0-99.643,42.071-99.643-84.259
		c0-72.231,44.631-130.781,99.643-130.781C314.943,184.47,359.558,243.019,359.558,315.242z"/>
	<path style="fill:#15B78D;" d="M294.267,214.315c11.28-10.027,33.304-3.663,49.231,14.218
		c15.896,17.881,85.023,114.018,73.767,124.062c-11.288,10.012-98.721-69.892-114.617-87.773
		C286.76,246.965,283.003,224.343,294.267,214.315z"/>
</g>
<path style="fill:#089B78;" d="M259.915,348.31c-49.554,0-90.64,34.036-98.336-51.389c-0.843,5.104-1.308,11.138-1.308,18.33
	c0,126.33,44.615,84.259,99.643,84.259c55.052,0,99.643,42.071,99.643-84.259c0-7.192-0.465-13.225-1.308-18.33
	C350.555,382.346,309.485,348.31,259.915,348.31z"/>
<path style="fill:#15B78D;" d="M240.483,487.219c0,14.935-17.81,16.904-39.731,16.904c-21.945,0-39.747-1.961-39.747-16.904
	c0-14.943,17.802-35.509,39.747-35.509C222.673,451.718,240.483,472.277,240.483,487.219z"/>
<path style="fill:#089B78;" d="M240.483,487.219c0,14.935-17.81,16.904-39.731,16.904c-21.945,0-39.747-1.961-39.747-16.904"/>
<path style="fill:#15B78D;" d="M358.834,487.219c0,14.935-17.802,16.904-39.739,16.904s-39.739-1.961-39.739-16.904
	c0-14.943,17.802-35.509,39.739-35.509S358.834,472.277,358.834,487.219z"/>
<path style="fill:#089B78;" d="M358.834,487.219c0,14.935-17.802,16.904-39.739,16.904s-39.739-1.961-39.739-16.904"/>
<path style="fill:#15B78D;" d="M270.384,231.219c-0.898-15.061-20.976-26.136-44.859-24.757
	c-23.883,1.402-140.737,20.512-139.894,35.564c0.906,15.069,119.233,20.385,143.108,18.983
	C252.598,259.623,271.242,246.28,270.384,231.219z"/>
<path style="fill:#21CC9B;" d="M388.868,124.258c0,63.008-57.738,94.681-128.945,94.681s-128.961-31.673-128.961-94.681
	C130.962,61.235,188.716,0,259.923,0S388.868,61.235,388.868,124.258z"/>
<path style="fill:#15B78D;" d="M388.868,124.258c0,63.008-57.738,94.681-128.945,94.681s-128.961-31.673-128.961-94.681
	c0-63.023,57.754-111.789,128.961-111.789S388.868,61.235,388.868,124.258z"/>
<path style="fill:#089B78;" d="M388.868,124.258c0,63.008-57.738,94.681-128.945,94.681s-128.961-31.673-128.961-94.681"/>
<path style="fill:#038462;" d="M223.406,54.571c15.896,14.557,28.144,49.483,13.58,65.378c-14.549,15.896-54.146,17.542-70.042,2.97
	c-15.911-14.557-13.249-50.026,1.315-65.922C182.816,41.102,207.494,40.007,223.406,54.571z"/>
<path style="fill:#243B3D;" d="M223.406,54.571c15.896,14.557,28.144,49.483,13.58,65.378c-14.549,15.896-50.412,6.751-66.3-7.814
	c-15.911-14.557-16.983-39.235-2.426-55.138C182.816,41.102,207.494,40.007,223.406,54.571z"/>
<path style="fill:#1C292B;" d="M168.259,56.99c14.564-15.896,39.235-16.983,55.146-2.426c15.896,14.557,28.144,49.483,13.58,65.378"
	/>
<path style="fill:#038462;" d="M296.417,54.571c-15.896,14.557-28.152,49.483-13.588,65.378
	c14.557,15.896,54.154,17.542,70.042,2.97c15.919-14.557,13.257-50.026-1.3-65.922C337.007,41.102,312.336,40.007,296.417,54.571z"
	/>
<path style="fill:#243B3D;" d="M296.417,54.571c-15.896,14.557-28.152,49.483-13.588,65.378
	c14.557,15.896,50.412,6.751,66.308-7.814c15.911-14.557,16.983-39.235,2.434-55.138C337.007,41.102,312.336,40.007,296.417,54.571z
	"/>
<path style="fill:#1C292B;" d="M351.571,56.99c-14.572-15.896-39.235-16.983-55.154-2.426
	c-15.896,14.557-28.152,49.483-13.588,65.378"/>
<g>
	<circle style="fill:#057F73;" cx="259.915" cy="305.467" r="13.855"/>
	<path style="fill:#057F73;" d="M267.501,247.115v-11.681h-15.187v11.681c-28.908,3.734-51.247,28.42-51.247,58.337
		c0,29.909,22.339,54.603,51.247,58.321v11.689h15.187v-11.689c28.9-3.726,51.247-28.412,51.247-58.321
		C318.748,275.535,296.401,250.848,267.501,247.115z M267.501,346.655v-18.952c-2.387,0.819-4.939,1.268-7.593,1.268
		s-5.207-0.457-7.593-1.268v18.952c-19.519-3.576-34.304-20.645-34.304-41.196s14.793-37.628,34.304-41.196v18.952
		c2.387-0.819,4.939-1.276,7.593-1.276s5.207,0.465,7.593,1.276v-18.952c19.511,3.568,34.304,20.645,34.304,41.196
		C301.813,325.994,287.012,343.079,267.501,346.655z"/>
</g>
</svg>