<?xml version="1.0" encoding="iso-8859-1"?>
<!-- Uploaded to: SVG Repo, www.svgrepo.com, Generator: SVG Repo Mixer Tools -->
<svg version="1.1" id="Layer_1" xmlns="http://www.w3.org/2000/svg" xmlns:xlink="http://www.w3.org/1999/xlink" 
	 viewBox="0 0 504.123 504.123" xml:space="preserve">
<path style="fill:#FF860D;" d="M430.906,123.88c0,17.479-14.171,139.571-31.649,139.571c-17.479,0-31.65-122.092-31.65-139.571
	s14.171-25.151,31.65-25.151C416.735,98.729,430.906,106.401,430.906,123.88z"/>
<g>
	<path style="fill:#E56107;" d="M417.113,123.88c0,17.479-7.995,139.571-17.857,139.571c-9.862,0-17.857-122.092-17.857-139.571
		s7.995-25.151,17.857-25.151C409.118,98.729,417.113,106.401,417.113,123.88z"/>
	<path style="fill:#E56107;" d="M387.228,122.927c0,0.969-0.788,1.764-1.772,1.764h-7.286c-0.969,0-1.757-0.796-1.757-1.764l0,0
		c0-0.969,0.788-1.764,1.757-1.764h7.294C386.449,121.171,387.228,121.958,387.228,122.927L387.228,122.927z"/>
</g>
<path style="fill:#FF860D;" d="M396.689,134.561c0,0.977-0.788,1.764-1.772,1.764h-7.286c-0.977,0-1.764-0.788-1.764-1.764l0,0
	c0-0.969,0.788-1.764,1.764-1.764h7.286C395.909,132.797,396.689,133.593,396.689,134.561L396.689,134.561z"/>
<path style="fill:#E56107;" d="M387.228,148.496c0,0.969-0.788,1.757-1.772,1.757h-7.286c-0.969,0-1.757-0.788-1.757-1.757l0,0
	c0-0.969,0.788-1.757,1.757-1.757h7.294C386.449,146.739,387.228,147.527,387.228,148.496L387.228,148.496z"/>
<path style="fill:#FF860D;" d="M396.689,160.122c0,0.969-0.788,1.757-1.772,1.757h-7.286c-0.977,0-1.764-0.788-1.764-1.757l0,0
	c0-0.969,0.788-1.764,1.764-1.764h7.286C395.909,158.358,396.689,159.153,396.689,160.122L396.689,160.122z"/>
<path style="fill:#E56107;" d="M387.228,174.056c0,0.969-0.788,1.757-1.772,1.757h-7.286c-0.969,0-1.757-0.788-1.757-1.757l0,0
	c0-0.977,0.788-1.764,1.757-1.764h7.294C386.449,172.292,387.228,173.08,387.228,174.056L387.228,174.056z"/>
<path style="fill:#FF860D;" d="M396.689,185.683c0,0.969-0.788,1.764-1.772,1.764h-7.286c-0.977,0-1.764-0.796-1.764-1.764l0,0
	c0-0.969,0.788-1.764,1.764-1.764h7.286C395.909,183.926,396.689,184.714,396.689,185.683L396.689,185.683z"/>
<path style="fill:#E56107;" d="M390.797,201.57c0,0.859-0.693,1.552-1.544,1.552h-6.428c-0.851,0-1.544-0.693-1.544-1.552l0,0
	c0-0.851,0.693-1.544,1.544-1.544h6.428C390.104,200.027,390.797,200.712,390.797,201.57L390.797,201.57z"/>
<path style="fill:#FF860D;" d="M392.033,211.803c0,0.851-0.693,1.544-1.552,1.544h-6.42c-0.851,0-1.544-0.693-1.544-1.544l0,0
	c0-0.843,0.693-1.544,1.544-1.544h6.42C391.34,210.251,392.033,210.952,392.033,211.803L392.033,211.803z"/>
<path style="fill:#E56107;" d="M391.632,226.643c0,0.693-0.551,1.245-1.245,1.245h-5.159c-0.685,0-1.237-0.551-1.237-1.245l0,0
	c0-0.677,0.551-1.237,1.237-1.237h5.159C391.072,225.406,391.632,225.973,391.632,226.643L391.632,226.643z"/>
<path style="fill:#FF860D;" d="M398.319,234.866c0,0.685-0.551,1.237-1.245,1.237h-5.167c-0.677,0-1.237-0.551-1.237-1.237l0,0
	c0-0.685,0.559-1.245,1.237-1.245h5.167C397.768,233.622,398.319,234.181,398.319,234.866L398.319,234.866z"/>
<path style="fill:#E56107;" d="M411.292,122.927c0,0.969,0.788,1.764,1.772,1.764h7.294c0.969,0,1.757-0.796,1.757-1.764l0,0
	c0-0.969-0.788-1.764-1.757-1.764h-7.294C412.072,121.171,411.292,121.958,411.292,122.927L411.292,122.927z"/>
<path style="fill:#FF860D;" d="M401.832,134.561c0,0.977,0.788,1.764,1.757,1.764h7.302c0.977,0,1.764-0.788,1.764-1.764l0,0
	c0-0.969-0.788-1.764-1.764-1.764h-7.302C402.612,132.797,401.832,133.593,401.832,134.561L401.832,134.561z"/>
<path style="fill:#E56107;" d="M411.292,148.496c0,0.969,0.788,1.757,1.772,1.757h7.294c0.969,0,1.757-0.788,1.757-1.757l0,0
	c0-0.969-0.788-1.757-1.757-1.757h-7.294C412.072,146.739,411.292,147.527,411.292,148.496L411.292,148.496z"/>
<path style="fill:#FF860D;" d="M401.832,160.122c0,0.969,0.788,1.757,1.757,1.757h7.302c0.977,0,1.764-0.788,1.764-1.757l0,0
	c0-0.969-0.788-1.764-1.764-1.764h-7.302C402.612,158.358,401.832,159.153,401.832,160.122L401.832,160.122z"/>
<path style="fill:#E56107;" d="M411.292,174.056c0,0.969,0.788,1.757,1.772,1.757h7.294c0.969,0,1.757-0.788,1.757-1.757l0,0
	c0-0.977-0.788-1.764-1.757-1.764h-7.294C412.072,172.292,411.292,173.08,411.292,174.056L411.292,174.056z"/>
<path style="fill:#FF860D;" d="M401.832,185.683c0,0.969,0.788,1.764,1.757,1.764h7.302c0.977,0,1.764-0.796,1.764-1.764l0,0
	c0-0.969-0.788-1.764-1.764-1.764h-7.302C402.612,183.926,401.832,184.714,401.832,185.683L401.832,185.683z"/>
<path style="fill:#E56107;" d="M407.724,201.57c0,0.859,0.693,1.552,1.544,1.552h6.428c0.851,0,1.544-0.693,1.544-1.552l0,0
	c0-0.851-0.693-1.544-1.544-1.544h-6.428C408.417,200.027,407.724,200.712,407.724,201.57L407.724,201.57z"/>
<path style="fill:#FF860D;" d="M405.889,211.803c0,0.851,0.677,1.544,1.536,1.544h6.428c0.843,0,1.552-0.693,1.552-1.544l0,0
	c0-0.843-0.709-1.544-1.552-1.544h-6.428C406.566,210.251,405.889,210.952,405.889,211.803L405.889,211.803z"/>
<path style="fill:#E56107;" d="M406.889,226.643c0,0.693,0.551,1.245,1.245,1.245h5.159c0.685,0,1.237-0.551,1.237-1.245l0,0
	c0-0.677-0.551-1.237-1.237-1.237h-5.159C407.448,225.406,406.889,225.973,406.889,226.643L406.889,226.643z"/>
<path style="fill:#FF860D;" d="M400.202,234.866c0,0.685,0.551,1.237,1.245,1.237h5.167c0.677,0,1.229-0.551,1.229-1.237l0,0
	c0-0.685-0.551-1.245-1.229-1.245h-5.167C400.753,233.622,400.202,234.181,400.202,234.866L400.202,234.866z"/>
<path style="fill:#FFAF10;" d="M426.353,109.34c-5.537-7.27-15.588-10.618-27.089-10.618c-11.5,0-21.551,3.348-27.089,10.618
	c1.599,6.278,13.107,4.348,27.089,4.348C413.246,113.688,424.754,115.617,426.353,109.34z"/>
<path style="fill:#FF860D;" d="M399.264,113.688c6.341,0,12.138,0.394,16.77,0.244c-2.473-10.461-9.043-15.21-16.77-15.21
	s-14.289,4.75-16.77,15.21C387.118,114.074,392.923,113.688,399.264,113.688z"/>
<path style="fill:#68AD27;" d="M384.322,75.059c1.552,2.182,17.526,28.373,15.336,29.924c-2.182,1.56-21.709-22.087-23.276-24.277
	c-1.552-2.182-1.048-5.222,1.15-6.782C379.73,72.365,382.762,72.877,384.322,75.059z"/>
<path style="fill:#5C8729;" d="M380.951,86.339c1.631,1.26,18.983,16.857,17.723,18.471c-1.245,1.623-20.653-11.359-22.26-12.619
	c-1.615-1.252-1.922-3.576-0.662-5.199C376.996,85.378,379.336,85.087,380.951,86.339z"/>
<path style="fill:#7FCC2E;" d="M393.325,72.224c0.866,2.536,8.586,32.209,6.049,33.067c-2.552,0.859-14.399-27.42-15.273-29.972
	c-0.843-2.536,0.52-5.301,3.072-6.168C389.702,68.301,392.467,69.664,393.325,72.224z"/>
<path style="fill:#68AD27;" d="M414.199,75.059c-1.56,2.182-17.526,28.373-15.336,29.924c2.182,1.56,21.709-22.087,23.268-24.277
	c1.56-2.182,1.055-5.222-1.134-6.782C418.799,72.365,415.751,72.877,414.199,75.059z"/>
<path style="fill:#5C8729;" d="M417.555,86.339c-1.615,1.26-18.968,16.857-17.707,18.471c1.245,1.623,20.653-11.359,22.26-12.619
	c1.615-1.252,1.906-3.576,0.662-5.199C421.509,85.378,419.185,85.087,417.555,86.339z"/>
<path style="fill:#7FCC2E;" d="M405.196,72.224c-0.874,2.536-8.594,32.209-6.049,33.067c2.552,0.859,14.399-27.42,15.273-29.972
	c0.843-2.536-0.52-5.301-3.072-6.168C408.819,68.301,406.054,69.664,405.196,72.224z"/>
<path style="fill:#5C8729;" d="M404.534,67.206c0,2.914-2.363,38.274-5.278,38.274c-2.914,0-5.278-35.36-5.278-38.274
	s2.363-5.278,5.278-5.278C402.171,61.928,404.534,64.291,404.534,67.206z"/>
<g>
	<circle style="fill:#7FCC2E;" cx="371.333" cy="81.077" r="1.284"/>
	<circle style="fill:#7FCC2E;" cx="423.856" cy="98.698" r="1.284"/>
	<circle style="fill:#7FCC2E;" cx="371.388" cy="85.599" r="0.685"/>
	<circle style="fill:#7FCC2E;" cx="423.62" cy="83.338" r="0.677"/>
	<circle style="fill:#7FCC2E;" cx="380.053" cy="66.261" r="2.442"/>
</g>
<g>
	<circle style="fill:#5C8729;" cx="378.012" cy="98.619" r="1.252"/>
	<circle style="fill:#5C8729;" cx="418.193" cy="68.632" r="1.961"/>
</g>
<path style="fill:#249311;" d="M253.541,258.095c11.28,10.027,33.304,3.663,49.223-14.218
	c15.896-17.881,85.016-114.018,73.767-124.062c-11.296-10.012-98.714,69.892-114.609,87.773
	C246.027,225.445,242.277,248.06,253.541,258.095z"/>
<g>
	<path style="fill:#283526;" d="M199.498,361.913c0,19.503-15.809,124.668-35.336,124.668c-19.495,0-35.304-105.173-35.304-124.668
		c0-19.495,15.817-35.32,35.304-35.32C183.689,326.593,199.498,342.418,199.498,361.913z"/>
	<path style="fill:#283526;" d="M317.856,361.913c0,19.503-15.817,124.668-35.336,124.668c-19.495,0-35.304-105.173-35.304-124.668
		c0-19.495,15.817-35.32,35.304-35.32C302.04,326.593,317.856,342.418,317.856,361.913z"/>
</g>
<g>
	<path style="fill:#32B220;" d="M322.992,315.242c0,126.33-44.607,84.259-99.643,84.259c-55.028,0-99.643,42.071-99.643-84.259
		c0-72.231,44.631-130.781,99.643-130.781C278.377,184.47,322.992,243.019,322.992,315.242z"/>
	<path style="fill:#32B220;" d="M212.361,203.768c10.027,11.28,3.663,33.304-14.218,49.223
		c-17.881,15.896-114.026,85.024-124.062,73.767c-10.012-11.296,69.9-98.714,87.765-114.609
		C179.703,196.254,202.333,192.496,212.361,203.768z"/>
</g>
<rect x="198.401" y="182.461" transform="matrix(-0.7071 0.7071 -0.7071 -0.7071 527.9353 196.1358)" style="fill:#DD9F76;" width="49.892" height="49.892"/>
<path style="fill:#249311;" d="M223.341,366.033c-51.617,0-94.074,37.006-99.139-62.661c-0.339,3.458-0.504,7.396-0.504,11.878
	c0,126.33,44.615,84.259,99.643,84.259c55.036,0,99.643,42.071,99.643-84.259c0-4.474-0.165-8.413-0.504-11.878
	C317.415,403.039,274.974,366.033,223.341,366.033z"/>
<path style="fill:#B27029;" d="M203.917,487.219c0,14.935-17.802,16.904-39.747,16.904c-21.929,0-39.739-1.961-39.739-16.904
	c0-14.943,17.81-35.509,39.739-35.509C186.115,451.718,203.917,472.277,203.917,487.219z"/>
<path style="fill:#A05810;" d="M203.917,487.219c0,14.935-17.802,16.904-39.747,16.904c-21.929,0-39.739-1.961-39.739-16.904"/>
<path style="fill:#B27029;" d="M322.26,487.219c0,14.935-17.786,16.904-39.731,16.904c-21.937,0-39.739-1.961-39.739-16.904
	c0-14.943,17.802-35.509,39.739-35.509C304.473,451.718,322.26,472.277,322.26,487.219z"/>
<path style="fill:#A05810;" d="M322.26,487.219c0,14.935-17.786,16.904-39.731,16.904c-21.937,0-39.739-1.961-39.739-16.904"/>
<path style="fill:#E8B085;" d="M352.302,124.258c0,63.008-57.746,94.681-128.937,94.681c-71.223,0-128.969-31.673-128.969-94.681
	C94.396,61.235,152.142,0,223.365,0C294.556,0,352.302,61.235,352.302,124.258z"/>
<path style="fill:#DD9F76;" d="M352.302,124.258c0,63.008-57.746,94.681-128.937,94.681c-71.223,0-128.969-31.673-128.969-94.681"/>
<path style="fill:#543722;" d="M265.632,167.771c0,23.355-18.92,42.283-42.283,42.283s-42.283-18.928-42.283-42.283v-36.281h-5.971
	c-3.474,7.097-5.569,14.99-5.569,23.434v64.236c16.4,4.616,34.603,7.01,53.839,7.01c19.22,0,37.415-2.395,53.807-7.01v-64.236
	c0-8.436-2.095-16.329-5.569-23.434h-5.971V167.771z"/>
<circle style="fill:#113E49;" cx="162.027" cy="103.448" r="11.532"/>
<path d="M173.559,103.448c0,6.388-5.175,11.54-11.532,11.54c-6.38,0-11.532-5.152-11.532-11.54"/>
<path style="fill:#F4C3A2;" d="M184.776,127.504c-0.614,0-1.245-0.221-1.725-0.717c-5.632-5.624-13.107-8.72-21.047-8.72h-0.024
	c-7.932,0-15.384,3.104-20.992,8.712c-0.945,0.953-2.489,0.977-3.442,0.008c-0.953-0.922-0.977-2.458-0.024-3.419
	c6.538-6.546,15.218-10.161,24.45-10.161h0.024c9.263,0,17.944,3.592,24.497,10.145c0.937,0.937,0.937,2.505,0,3.434
	C186.036,127.275,185.422,127.504,184.776,127.504z"/>
<path style="fill:#113E49;" d="M273.147,103.448c0,6.388,5.144,11.54,11.54,11.54c6.372,0,11.524-5.152,11.524-11.54
	c0-6.365-5.151-11.532-11.524-11.532C278.291,91.916,273.147,97.083,273.147,103.448z"/>
<path d="M273.147,103.448c0,6.388,5.144,11.54,11.54,11.54c6.372,0,11.524-5.152,11.524-11.54"/>
<path style="fill:#F4C3A2;" d="M261.93,127.504c0.591,0,1.229-0.221,1.709-0.717c5.632-5.624,13.107-8.72,21.047-8.72h0.008
	c7.948,0,15.423,3.104,21.016,8.712c0.937,0.953,2.473,0.977,3.434,0.008c0.961-0.922,0.977-2.458,0.024-3.419
	c-6.506-6.546-15.218-10.161-24.466-10.161h-0.008c-9.247,0-17.944,3.592-24.513,10.145c-0.922,0.937-0.922,2.505,0,3.434
	C260.67,127.275,261.284,127.504,261.93,127.504z"/>
<path style="fill:#663F24;" d="M226.988,134.979c0,0-13.477-29.003-49.719-5.175s-39.353,16.565-39.353,16.565
	s38.313,27.987,79.754,10.382l6.215-5.199L226.988,134.979z"/>
<path style="fill:#543722;" d="M137.916,146.361c0,0,38.313,27.987,79.754,10.382l6.215-5.199l3.111-16.573"/>
<path style="fill:#663F24;" d="M219.718,134.979c0,0,13.462-29.003,49.711-5.175s39.353,16.565,39.353,16.565
	s-38.305,27.987-79.746,10.382l-6.223-5.199L219.718,134.979z"/>
<path style="fill:#543722;" d="M308.774,146.361c0,0-38.305,27.987-79.746,10.382l-6.223-5.199l-3.096-16.573"/>
<g>
	<circle style="fill:#FFFFFF;" cx="223.341" cy="268.469" r="6.569"/>
	<circle style="fill:#FFFFFF;" cx="223.341" cy="311.769" r="6.569"/>
</g>
<path style="fill:#663F24;" d="M345.835,90.585l0.622-1.292C330.105,40.377,281.166,0,223.357,0
	c-57.824,0-106.764,40.377-123.132,89.293l0.63,1.292l19.692,19.692V60.392l68.261-38.069l34.288,34.288v0.504l0.252-0.252
	l0.252,0.252v-0.504l34.288-34.288l68.261,38.069v49.885L345.835,90.585z"/>
</svg>