<?xml version="1.0" encoding="iso-8859-1"?>
<!-- Uploaded to: SVG Repo, www.svgrepo.com, Generator: SVG Repo Mixer Tools -->
<svg version="1.1" id="Layer_1" xmlns="http://www.w3.org/2000/svg" xmlns:xlink="http://www.w3.org/1999/xlink" 
	 viewBox="0 0 504.123 504.123" xml:space="preserve">
<g>
	<path style="fill:#232728;" d="M394.34,315.242c0,126.322-44.599,84.259-99.643,84.259c-55.036,0-99.643,42.063-99.643-84.259
		c0-72.231,44.631-130.788,99.643-130.788C349.725,184.462,394.34,243.019,394.34,315.242z"/>
	<path style="fill:#232728;" d="M270.853,361.905c0,19.511-15.825,124.676-35.336,124.676c-19.495,0-35.304-105.173-35.304-124.676
		c0-19.495,15.817-35.32,35.304-35.32C255.028,326.585,270.853,342.418,270.853,361.905z"/>
	<path style="fill:#232728;" d="M389.196,361.905c0,19.511-15.809,124.676-35.328,124.676c-19.495,0-35.304-105.173-35.304-124.676
		c0-19.495,15.817-35.32,35.304-35.32C373.387,326.585,389.196,342.418,389.196,361.905z"/>
</g>
<path style="fill:#383E3F;" d="M275.264,487.219c0,14.935-17.802,16.904-39.739,16.904c-21.937,0-39.747-1.969-39.747-16.904
	c0-14.935,17.81-35.509,39.747-35.509C257.462,451.71,275.264,472.277,275.264,487.219z"/>
<path style="fill:#232728;" d="M275.264,487.219c0,14.935-17.802,16.904-39.739,16.904c-21.937,0-39.747-1.969-39.747-16.904"/>
<path style="fill:#383E3F;" d="M393.623,487.219c0,14.935-17.802,16.904-39.747,16.904c-21.922,0-39.731-1.969-39.731-16.904
	c0-14.935,17.81-35.509,39.731-35.509C375.821,451.71,393.623,472.277,393.623,487.219z"/>
<g>
	<path style="fill:#232728;" d="M393.623,487.219c0,14.935-17.802,16.904-39.747,16.904c-21.922,0-39.731-1.969-39.731-16.904"/>
	<path style="fill:#232728;" d="M283.716,203.768c10.027,11.28,3.663,33.296-14.218,49.215
		c-17.888,15.896-114.018,85.031-124.062,73.767c-10.019-11.296,69.892-98.706,87.773-114.601
		C251.058,196.246,273.681,192.496,283.716,203.768z"/>
	<path style="fill:#232728;" d="M305.693,203.768c-10.035,11.28-3.678,33.296,14.21,49.215
		c17.881,15.896,114.018,85.031,124.062,73.767c10.012-11.296-69.9-98.706-87.773-114.601
		C338.327,196.246,315.712,192.496,305.693,203.768z"/>
</g>
<rect x="274.035" y="199.538" style="fill:#E2DED3;" width="41.354" height="178.215"/>
<path style="fill:#C6BFAF;" d="M274.02,233.661c6.751,0.63,13.627,1.032,20.693,1.032c7.042,0,13.934-0.402,20.661-1.032v-34.123
	H274.02V233.661z"/>
<polygon style="fill:#444849;" points="300.817,218.569 311.065,322.465 294.696,334.352 278.328,322.465 288.584,218.569 "/>
<polyline style="fill:#232728;" points="288.584,218.569 300.817,218.569 311.065,322.465 294.696,334.352 "/>
<path style="fill:#422816;" d="M423.65,124.258c0,63-57.738,94.681-128.937,94.681c-71.223,0-128.977-31.673-128.977-94.681
	C165.736,61.227,223.489,0,294.712,0C365.912,0,423.65,61.227,423.65,124.258z"/>
<path style="fill:#CC8F62;" d="M407.896,124.258c0,62.984-62.992,94.681-113.184,94.681c-71.223,0-113.223-31.673-113.223-94.681
	c0-63.031,42-27.12,113.223-27.12C365.912,97.138,407.896,61.227,407.896,124.258z"/>
<path style="fill:#AF734A;" d="M407.896,124.258c0,63-41.984,94.681-113.184,94.681c-71.223,0-113.223-31.673-113.223-94.681"/>
<circle style="fill:#113E49;" cx="233.39" cy="136.428" r="11.524"/>
<path d="M244.906,136.428c0,6.388-5.159,11.54-11.54,11.54c-6.365,0-11.516-5.152-11.516-11.54"/>
<path style="fill:#CC8F62;" d="M256.139,160.477c-0.622,0-1.252-0.213-1.733-0.709c-5.632-5.632-13.107-8.72-21.055-8.72h-0.008
	c-7.94,0-15.399,3.096-21.008,8.704c-0.945,0.953-2.473,0.985-3.426,0.016c-0.953-0.922-0.985-2.458-0.031-3.419
	c6.546-6.554,15.218-10.169,24.458-10.169h0.008c9.271,0,17.951,3.6,24.513,10.153c0.929,0.937,0.929,2.505,0,3.434
	C257.384,160.264,256.785,160.477,256.139,160.477z"/>
<circle style="fill:#113E49;" cx="356.026" cy="136.428" r="11.532"/>
<path d="M344.494,136.428c0,6.388,5.151,11.54,11.54,11.54c6.372,0,11.524-5.152,11.524-11.54"/>
<path style="fill:#CC8F62;" d="M333.286,160.477c0.599,0,1.229-0.213,1.709-0.709c5.624-5.632,13.099-8.72,21.047-8.72h0.016
	c7.932,0,15.415,3.096,21.016,8.704c0.929,0.953,2.473,0.985,3.434,0.016c0.945-0.922,0.969-2.458,0.024-3.419
	c-6.514-6.554-15.226-10.169-24.466-10.169h-0.031c-9.255,0-17.944,3.6-24.505,10.153c-0.922,0.937-0.922,2.505,0,3.434
	C332.017,160.264,332.632,160.477,333.286,160.477z"/>
<path style="fill:#AA1111;" d="M266.261,202.295c0-10.264,12.737-18.597,28.428-18.597c15.691,0,28.428,8.342,28.428,18.597
	c0,10.279-12.737,4.135-28.428,4.135C278.998,206.431,266.261,212.567,266.261,202.295z"/>
<g>
	<path style="fill:#232728;" d="M79.215,373.027c2.993,3.001,7.861,3.001,10.854,0l23.528-23.521c2.993-3.001,2.993-7.861,0-10.862
		l-9.5-9.492c-3.001-3.001-7.861-3.001-10.862,0l-23.52,23.52c-3.001,3.001-3.001,7.861,0,10.862L79.215,373.027z"/>
	<path style="fill:#232728;" d="M75.702,358.904c1.071-1.063,1.071-2.788,0-3.86l-8.365-8.357c-1.063-1.079-2.796-1.079-3.86,0
		l-3.379,3.371c-1.071,1.079-1.071,2.796,0,3.86l8.365,8.365c1.079,1.063,2.804,1.063,3.875,0L75.702,358.904z"/>
	<path style="fill:#232728;" d="M149.564,337.061c3.001,3.001,7.861,3.001,10.854,0l3.395-3.387c3.001-3.001,3.001-7.861,0-10.862
		l-12.217-12.217c-2.993-3.001-7.853-3.001-10.854,0l-3.403,3.403c-2.993,3.001-2.993,7.861,0,10.847L149.564,337.061z"/>
	<path style="fill:#232728;" d="M151.596,310.603c3.001,3.001,3.001,7.861,0,10.862l-39.361,39.353
		c-2.993,3.001-7.861,3.001-10.854,0l-21.039-21.031c-3.001-3.001-3.001-7.861,0-10.862l39.361-39.369
		c2.985-2.985,7.845-2.985,10.862,0L151.596,310.603z"/>
</g>
<path style="fill:#3D4344;" d="M80.342,328.925l39.361-39.369c2.985-2.985,7.845-2.985,10.862,0l8.814,8.83
	c3.001,3.001,3.001,7.861,0,10.862l-39.361,39.353c-2.993,3.001-7.861,3.001-10.854,0l-8.822-8.814
	C77.341,336.786,77.341,331.926,80.342,328.925z"/>
</svg>