<?xml version="1.0" encoding="iso-8859-1"?>
<!-- Uploaded to: SVG Repo, www.svgrepo.com, Generator: SVG Repo Mixer Tools -->
<svg version="1.1" id="Layer_1" xmlns="http://www.w3.org/2000/svg" xmlns:xlink="http://www.w3.org/1999/xlink" 
	 viewBox="0 0 504.123 504.123" xml:space="preserve">
<g>
	<path style="fill:#63522F;" d="M246.805,203.768c10.027,11.28,3.663,33.296-14.218,49.215
		c-17.881,15.896-114.018,85.031-124.062,73.767c-10.012-11.296,69.892-98.706,87.773-114.601
		C214.155,196.246,236.777,192.496,246.805,203.768z"/>
	<path style="fill:#63522F;" d="M268.773,203.768c-10.027,11.28-3.663,33.296,14.218,49.215
		c17.881,15.896,114.018,85.031,124.062,73.767c10.012-11.296-69.892-98.706-87.773-114.601
		C301.423,196.246,278.809,192.496,268.773,203.768z"/>
</g>
<g>
	<path style="fill:#5B2F11;" d="M233.942,361.905c0,19.511-15.817,124.676-35.336,124.676c-19.495,0-35.304-105.173-35.304-124.676
		c0-19.495,15.817-35.32,35.304-35.32C218.125,326.585,233.942,342.418,233.942,361.905z"/>
	<path style="fill:#5B2F11;" d="M352.3,361.905c0,19.511-15.817,124.676-35.336,124.676c-19.495,0-35.304-105.173-35.304-124.676
		c0-19.495,15.817-35.32,35.304-35.32C336.484,326.585,352.3,342.418,352.3,361.905z"/>
</g>
<path style="fill:#68552E;" d="M357.436,315.242c0,126.322-44.599,84.259-99.643,84.259c-55.028,0-99.643,42.063-99.643-84.259
	c0-72.231,44.631-130.788,99.643-130.788C312.821,184.462,357.436,243.019,357.436,315.242z"/>
<path style="fill:#776439;" d="M257.793,184.462c-53.279,0-96.681,54.957-99.383,124.014c3.521,107.874,46.663,69.372,99.383,69.372
	c52.736,0,95.862,38.51,99.383-69.372C354.474,239.419,311.08,184.462,257.793,184.462z"/>
<path style="fill:#775437;" d="M238.361,487.219c0,14.935-17.802,16.904-39.739,16.904s-39.739-1.969-39.739-16.904
	c0-14.935,17.802-35.509,39.739-35.509S238.361,472.277,238.361,487.219z"/>
<path style="fill:#604129;" d="M238.361,487.219c0,14.935-17.802,16.904-39.739,16.904s-39.739-1.969-39.739-16.904"/>
<path style="fill:#775437;" d="M356.711,487.219c0,14.935-17.802,16.904-39.739,16.904c-21.937,0-39.739-1.969-39.739-16.904
	c0-14.935,17.802-35.509,39.739-35.509C338.91,451.71,356.711,472.277,356.711,487.219z"/>
<path style="fill:#604129;" d="M356.711,487.219c0,14.935-17.802,16.904-39.739,16.904c-21.937,0-39.739-1.969-39.739-16.904"/>
<rect x="237.116" y="199.538" style="fill:#0C87E2;" width="41.354" height="178.215"/>
<path style="fill:#0C61C6;" d="M237.116,233.661c6.751,0.63,13.627,1.032,20.693,1.032c7.05,0,13.926-0.402,20.661-1.032v-34.123
	h-41.354V233.661z"/>
<path style="fill:#232728;" d="M386.746,124.258c0,63-57.738,94.681-128.937,94.681c-71.215,0-128.969-31.673-128.969-94.681
	C128.84,61.227,186.594,0,257.809,0C329.008,0,386.746,61.227,386.746,124.258z"/>
<path style="fill:#E4EDEF;" d="M370.992,124.258c0,62.984-62.992,94.681-113.184,94.681c-71.215,0-113.215-31.673-113.215-94.681
	c0-63.031,42-27.12,113.215-27.12C329.008,97.138,370.992,61.227,370.992,124.258z"/>
<path style="fill:#C3D4D8;" d="M370.992,124.258c0,63-41.984,94.681-113.184,94.681c-71.215,0-113.215-31.673-113.215-94.681"/>
<circle style="fill:#113E49;" cx="196.471" cy="136.428" r="11.532"/>
<path d="M208.003,136.428c0,6.388-5.167,11.54-11.54,11.54c-6.372,0-11.524-5.152-11.524-11.54"/>
<path style="fill:#E4EDEF;" d="M219.22,160.477c-0.614,0-1.245-0.213-1.725-0.709c-5.632-5.632-13.107-8.72-21.047-8.72h-0.016
	c-7.94,0-15.399,3.096-21,8.704c-0.953,0.953-2.489,0.985-3.434,0.016c-0.953-0.922-0.985-2.458-0.031-3.419
	c6.538-6.554,15.218-10.169,24.458-10.169h0.016c9.263,0,17.951,3.6,24.505,10.153c0.937,0.937,0.937,2.505,0,3.434
	C220.48,160.264,219.866,160.477,219.22,160.477z"/>
<circle style="fill:#113E49;" cx="319.091" cy="136.428" r="11.532"/>
<path d="M307.591,136.428c0,6.388,5.151,11.54,11.54,11.54c6.372,0,11.524-5.152,11.524-11.54"/>
<path style="fill:#E4EDEF;" d="M296.374,160.477c0.599,0,1.229-0.213,1.709-0.709c5.632-5.632,13.107-8.72,21.047-8.72h0.016
	c7.94,0,15.415,3.096,21.016,8.704c0.937,0.953,2.473,0.985,3.434,0.016c0.953-0.922,0.969-2.458,0.016-3.419
	c-6.506-6.554-15.218-10.169-24.458-10.169h-0.016c-9.248,0-17.936,3.6-24.505,10.153c-0.922,0.937-0.922,2.505,0,3.434
	C295.114,160.264,295.728,160.477,296.374,160.477z"/>
<g>
	<path style="fill:#68898C;" d="M233.65,164.769c0,2.45-1.969,4.419-4.419,4.419c-2.458,0-4.427-1.969-4.427-4.419
		c0-2.458,1.977-4.427,4.427-4.427C231.681,160.335,233.65,162.304,233.65,164.769z"/>
	<path style="fill:#68898C;" d="M233.65,184.462c0,2.45-1.969,4.419-4.419,4.419c-2.458,0-4.427-1.969-4.427-4.419
		c0-2.458,1.977-4.427,4.427-4.427C231.681,180.027,233.65,181.996,233.65,184.462z"/>
	<path style="fill:#68898C;" d="M252.697,145.077c0,2.45-1.969,4.419-4.427,4.419c-2.458,0-4.427-1.969-4.427-4.419
		c0-2.458,1.977-4.427,4.427-4.427C250.72,140.65,252.697,142.612,252.697,145.077z"/>
	<path style="fill:#68898C;" d="M252.697,164.769c0,2.45-1.969,4.419-4.427,4.419c-2.458,0-4.427-1.969-4.427-4.419
		c0-2.458,1.977-4.427,4.427-4.427C250.72,160.343,252.697,162.304,252.697,164.769z"/>
	<path style="fill:#68898C;" d="M252.697,184.462c0,2.45-1.969,4.419-4.427,4.419c-2.458,0-4.427-1.969-4.427-4.419
		c0-2.458,1.977-4.427,4.427-4.427C250.72,180.035,252.697,181.996,252.697,184.462z"/>
	<path style="fill:#68898C;" d="M252.697,204.154c0,2.45-1.969,4.419-4.427,4.419c-2.458,0-4.427-1.969-4.427-4.419
		c0-2.458,1.977-4.427,4.427-4.427C250.72,199.727,252.697,201.689,252.697,204.154z"/>
	<path style="fill:#68898C;" d="M271.727,145.077c0,2.45-1.969,4.419-4.419,4.419c-2.458,0-4.427-1.969-4.427-4.419
		c0-2.458,1.977-4.427,4.427-4.427C269.758,140.642,271.727,142.612,271.727,145.077z"/>
	<path style="fill:#68898C;" d="M271.727,164.769c0,2.45-1.969,4.419-4.419,4.419c-2.458,0-4.427-1.969-4.427-4.419
		c0-2.458,1.977-4.427,4.427-4.427C269.758,160.335,271.727,162.304,271.727,164.769z"/>
	<path style="fill:#68898C;" d="M271.727,184.462c0,2.45-1.969,4.419-4.419,4.419c-2.458,0-4.427-1.969-4.427-4.419
		c0-2.458,1.977-4.427,4.427-4.427C269.758,180.027,271.727,181.996,271.727,184.462z"/>
	<path style="fill:#68898C;" d="M271.727,204.154c0,2.45-1.969,4.419-4.419,4.419c-2.458,0-4.427-1.969-4.427-4.419
		c0-2.458,1.977-4.427,4.427-4.427C269.758,199.719,271.727,201.689,271.727,204.154z"/>
	<path style="fill:#68898C;" d="M290.774,164.769c0,2.45-1.969,4.419-4.427,4.419s-4.427-1.969-4.427-4.419
		c0-2.458,1.977-4.427,4.427-4.427S290.774,162.304,290.774,164.769z"/>
	<path style="fill:#68898C;" d="M290.774,184.462c0,2.45-1.969,4.419-4.427,4.419s-4.427-1.969-4.427-4.419
		c0-2.458,1.977-4.427,4.427-4.427S290.774,181.996,290.774,184.462z"/>
</g>
<path style="fill:#CE1111;" d="M296.193,102.558c0,7.341-17.187,13.296-38.4,13.296c-21.205,0-38.4-5.955-38.4-13.296
	s18.597,0.386,39.818,0.386C280.416,102.936,296.193,95.216,296.193,102.558z"/>
<path style="fill:#232728;" d="M106.95,283.231c5.931,0,10.744,4.813,10.744,10.752v48.388c0,5.923-4.813,10.736-10.744,10.736l0,0
	c-5.947,0-10.744-4.813-10.744-10.736v-48.388C96.206,288.043,101.003,283.231,106.95,283.231L106.95,283.231z"/>
<path style="fill:#A1B5B4;" d="M96.206,486.187c1.827,0.48,3.702,0.819,5.616,0.819c21.725,0,39.337-31.941,39.337-71.357
	c0-39.385-17.613-71.341-39.337-71.341c-1.914,0-3.781,0.339-5.616,0.819V486.187z"/>
<path style="fill:#859E9D;" d="M126.973,415.649c0-34.06-13.17-62.511-30.767-69.6v139.217
	C113.803,478.169,126.973,449.725,126.973,415.649z"/>
</svg>