<?xml version="1.0" encoding="iso-8859-1"?>
<!-- Uploaded to: SVG Repo, www.svgrepo.com, Generator: SVG Repo Mixer Tools -->
<svg version="1.1" id="Layer_1" xmlns="http://www.w3.org/2000/svg" xmlns:xlink="http://www.w3.org/1999/xlink" 
	 viewBox="0 0 504.123 504.123" xml:space="preserve">
<g>
	<path style="fill:#094168;" d="M268.699,361.913c0,19.503-15.817,124.668-35.336,124.668c-19.495,0-35.304-105.173-35.304-124.668
		c0-19.495,15.817-35.32,35.304-35.32C252.882,326.593,268.699,342.418,268.699,361.913z"/>
	<path style="fill:#094168;" d="M387.057,361.913c0,19.503-15.817,124.668-35.336,124.668c-19.495,0-35.304-105.173-35.304-124.668
		c0-19.495,15.817-35.32,35.304-35.32C371.24,326.593,387.057,342.418,387.057,361.913z"/>
</g>
<path style="fill:#0F4F84;" d="M392.193,315.242c0,126.33-44.599,84.259-99.643,84.259c-55.028,0-99.643,42.071-99.643-84.259
	c0-72.231,44.631-130.781,99.643-130.781C347.578,184.47,392.193,243.019,392.193,315.242z"/>
<path style="fill:#9B5013;" d="M273.118,487.219c0,14.935-17.802,16.904-39.739,16.904s-39.739-1.961-39.739-16.904
	c0-14.943,17.802-35.509,39.739-35.509S273.118,472.277,273.118,487.219z"/>
<path style="fill:#7C4412;" d="M273.118,487.219c0,14.935-17.802,16.904-39.739,16.904s-39.739-1.961-39.739-16.904"/>
<path style="fill:#9B5013;" d="M391.468,487.219c0,14.935-17.802,16.904-39.739,16.904s-39.739-1.961-39.739-16.904
	c0-14.943,17.802-35.509,39.739-35.509S391.468,472.277,391.468,487.219z"/>
<path style="fill:#7C4412;" d="M391.468,487.219c0,14.935-17.802,16.904-39.739,16.904s-39.739-1.961-39.739-16.904"/>
<g>
	<path style="fill:#0F4F84;" d="M281.562,203.768c10.027,11.28,3.663,33.304-14.218,49.223
		c-17.881,15.896-114.018,85.024-124.062,73.767c-10.012-11.296,69.892-98.714,87.773-114.609
		C248.92,196.254,271.534,192.496,281.562,203.768z"/>
	<path style="fill:#0F4F84;" d="M303.53,203.768c-10.027,11.28-3.663,33.304,14.218,49.223
		c17.881,15.896,114.018,85.024,124.062,73.767c10.012-11.296-69.892-98.714-87.773-114.609
		C336.18,196.254,313.566,192.496,303.53,203.768z"/>
</g>
<rect x="271.912" y="199.546" style="fill:#E2DED3;" width="41.354" height="141.131"/>
<path style="fill:#C6BFAF;" d="M271.873,233.669c6.75,0.622,13.627,1.024,20.693,1.024c7.05,0,13.926-0.402,20.661-1.024v-34.123
	h-41.354V233.669z"/>
<polygon style="fill:#9B5013;" points="298.67,218.577 308.918,322.465 292.55,334.36 276.182,322.465 286.43,218.577 "/>
<polyline style="fill:#7C4412;" points="286.43,218.577 298.67,218.577 308.918,322.465 292.55,334.36 "/>
<path style="fill:#F9C1AC;" d="M421.503,124.258c0,63.008-57.738,94.681-128.937,94.681c-71.215,0-128.969-31.673-128.969-94.681
	C163.597,61.235,221.35,0,292.566,0C363.765,0,421.503,61.235,421.503,124.258z"/>
<path style="fill:#F2B09C;" d="M421.503,124.258c0,63.008-57.738,94.681-128.937,94.681c-71.215,0-128.969-31.673-128.969-94.681"/>
<circle style="fill:#113E49;" cx="231.228" cy="103.936" r="11.532"/>
<path d="M242.76,103.936c0,6.388-5.167,11.54-11.54,11.54c-6.372,0-11.524-5.152-11.524-11.54"/>
<path style="fill:#FFD3C5;" d="M253.977,127.992c-0.614,0-1.245-0.221-1.725-0.717c-5.632-5.624-13.107-8.72-21.047-8.72h-0.016
	c-7.94,0-15.399,3.104-21,8.712c-0.953,0.953-2.489,0.977-3.434,0.008c-0.953-0.922-0.985-2.458-0.032-3.419
	c6.538-6.546,15.218-10.161,24.458-10.161h0.016c9.263,0,17.952,3.592,24.505,10.145c0.937,0.937,0.937,2.505,0,3.434
	C255.237,127.772,254.623,127.992,253.977,127.992z"/>
<circle style="fill:#113E49;" cx="353.911" cy="103.936" r="11.532"/>
<path d="M342.348,103.936c0,6.388,5.151,11.54,11.54,11.54c6.372,0,11.524-5.152,11.524-11.54"/>
<path style="fill:#FFD3C5;" d="M331.131,127.992c0.599,0,1.229-0.221,1.709-0.717c5.632-5.624,13.107-8.72,21.047-8.72h0.016
	c7.94,0,15.415,3.104,21.016,8.712c0.937,0.953,2.473,0.977,3.434,0.008c0.953-0.922,0.969-2.458,0.016-3.419
	c-6.506-6.546-15.218-10.161-24.458-10.161h-0.016c-9.247,0-17.936,3.592-24.505,10.145c-0.922,0.937-0.922,2.505,0,3.434
	C329.871,127.772,330.485,127.992,331.131,127.992z"/>
<path style="fill:#8D97A0;" d="M313.424,355.454c0,5.254-4.261,9.515-9.523,9.515h-22.307c-5.262,0-9.523-4.261-9.523-9.515l0,0
	c0-5.262,4.261-9.523,9.523-9.523h22.307C309.162,345.931,313.424,350.192,313.424,355.454L313.424,355.454z"/>
<path style="fill:#A7B1B7;" d="M303.901,345.931h-22.307c-4.348,0-7.861,2.962-9.003,6.94c1.142,3.97,4.655,6.932,9.003,6.932
	h22.307c4.348,0,7.861-2.962,9.003-6.932C311.762,348.893,308.249,345.931,303.901,345.931z"/>
<path style="fill:#E2DED3;" d="M356.093,266.508c0,1.457-1.174,2.623-2.623,2.623h-25.6c-1.449,0-2.615-1.166-2.615-2.623l0,0
	c0-1.457,1.166-2.623,2.615-2.623h25.6C354.919,263.885,356.093,265.051,356.093,266.508L356.093,266.508z"/>
<circle style="fill:#B20F0F;" cx="316.055" cy="141.95" r="8.862"/>
<polygon style="fill:#E2DED3;" points="327.87,263.885 336.984,254.771 343.222,261.01 346.594,257.646 353.888,264.948 
	330.997,264.948 "/>
<path style="fill:#A7B1B7;" d="M418.628,99.935C406.222,46.371,354.518,0,292.566,0c-64.898,0-118.469,50.885-127.488,107.607
	c4.104,0.433,11.965-1.103,15.762-17.684c5.262-22.977,24.292-30.192,24.292-30.192c-37.415,22.323-11.815,43.323-11.815,43.323
	c-1.969-9.846-13.123-29.538,74.831-34.792c87.946-5.254,97.154-24.615,97.154-24.615s13.446-1.961,17.384,26.915
	C384.97,87.331,409.286,96.658,418.628,99.935z"/>
<path style="fill:#9B5013;" d="M193.561,426.921c0,6.995-5.679,12.65-12.666,12.65H74.099c-6.995,0-12.65-5.664-12.65-12.65v-74.358
	c0-7.003,5.664-12.658,12.65-12.658h106.795c6.995,0,12.666,5.664,12.666,12.658V426.921z"/>
<path style="fill:#BC601B;" d="M180.895,339.897H74.099c-6.995,0-12.65,5.664-12.65,12.658v28.845
	c0,6.987,5.664,12.642,12.65,12.642h106.795c6.995,0,12.666-5.664,12.666-12.642v-28.845
	C193.561,345.561,187.889,339.897,180.895,339.897z"/>
<path style="fill:#A7B1B7;" d="M136.752,408.371c0,5.112-4.128,9.255-9.255,9.255l0,0c-5.112,0-9.255-4.135-9.255-9.255v-21.457
	c0-5.12,4.135-9.263,9.255-9.263l0,0c5.12,0,9.255,4.135,9.255,9.263V408.371z"/>
<path style="fill:#C8D5DB;" d="M127.505,377.651c-5.112,0-9.255,4.135-9.255,9.263v4.435c0,5.112,4.135,9.255,9.255,9.255
	c5.12,0,9.255-4.135,9.255-9.255v-4.435C136.752,381.794,132.625,377.651,127.505,377.651z"/>
<path style="fill:#754719;" d="M158.311,337.684h-8.885c0-6.12-4.978-11.106-11.106-11.106h-21.638
	c-6.12,0-11.099,4.986-11.099,11.106H96.69c0-11.012,8.98-19.984,19.992-19.984h21.638
	C149.348,317.7,158.311,326.672,158.311,337.684z"/>
</svg>