<?xml version="1.0" encoding="iso-8859-1"?>
<!-- Uploaded to: SVG Repo, www.svgrepo.com, Generator: SVG Repo Mixer Tools -->
<svg height="800px" width="800px" version="1.1" id="Layer_1" xmlns="http://www.w3.org/2000/svg" xmlns:xlink="http://www.w3.org/1999/xlink" 
	 viewBox="0 0 504.123 504.123" xml:space="preserve">
<g>
	<path style="fill:#6B411C;" d="M346.569,361.905c0,19.511-15.817,124.676-35.336,124.676c-19.495,0-35.304-105.173-35.304-124.676
		c0-19.495,15.817-35.32,35.304-35.32C330.752,326.585,346.569,342.418,346.569,361.905z"/>
	<path style="fill:#6B411C;" d="M228.218,361.905c0,19.511-15.817,124.676-35.336,124.676c-19.495,0-35.304-105.173-35.304-124.676
		c0-19.495,15.817-35.32,35.304-35.32C212.401,326.585,228.218,342.418,228.218,361.905z"/>
</g>
<path id="SVGCleanerId_0" style="fill:#CE1111;" d="M351.705,315.242c0,126.322-44.599,84.259-99.643,84.259
	c-55.028,0-99.643,42.063-99.643-84.259c0-72.231,44.631-130.788,99.643-130.788C307.09,184.462,351.705,243.019,351.705,315.242z"
	/>
<g>
	<path id="SVGCleanerId_0_1_" style="fill:#CE1111;" d="M351.705,315.242c0,126.322-44.599,84.259-99.643,84.259
		c-55.028,0-99.643,42.063-99.643-84.259c0-72.231,44.631-130.788,99.643-130.788C307.09,184.462,351.705,243.019,351.705,315.242z"
		/>
</g>
<path style="fill:#9B4E1B;" d="M232.629,487.219c0,14.935-17.802,16.904-39.739,16.904s-39.739-1.969-39.739-16.904
	c0-14.935,17.802-35.509,39.739-35.509S232.629,472.277,232.629,487.219z"/>
<path style="fill:#82370D;" d="M232.629,487.219c0,14.935-17.802,16.904-39.739,16.904s-39.739-1.969-39.739-16.904"/>
<path style="fill:#9B4E1B;" d="M350.988,487.219c0,14.935-17.802,16.904-39.739,16.904c-21.937,0-39.739-1.969-39.739-16.904
	c0-14.935,17.802-35.509,39.739-35.509C333.186,451.71,350.988,472.277,350.988,487.219z"/>
<path style="fill:#82370D;" d="M350.988,487.219c0,14.935-17.802,16.904-39.739,16.904c-21.937,0-39.739-1.969-39.739-16.904"/>
<g>
	<path style="fill:#CE1111;" d="M241.073,203.768c10.027,11.28,3.663,33.296-14.218,49.215
		c-17.881,15.896-114.018,85.031-124.062,73.767c-10.012-11.296,69.892-98.706,87.773-114.601
		C208.431,196.246,231.046,192.496,241.073,203.768z"/>
	<path style="fill:#CE1111;" d="M263.05,203.768c-10.027,11.28-3.663,33.296,14.218,49.215
		c17.881,15.896,114.018,85.031,124.062,73.767c10.012-11.296-69.892-98.706-87.773-114.601
		C295.692,196.246,273.077,192.496,263.05,203.768z"/>
</g>
<path style="fill:#AA0909;" d="M173.095,235.725c21.827,11.059,49.184,16.691,78.982,16.691c29.783,0,57.139-5.632,78.966-16.691
	c-18.211-31.106-46.773-51.263-78.982-51.263C219.861,184.462,191.291,204.603,173.095,235.725z"/>
<path style="fill:#F9A88F;" d="M381.015,124.258c0,63-57.738,94.681-128.937,94.681c-71.215,0-128.969-31.673-128.969-94.681
	C123.108,61.227,180.862,0,252.077,0C323.277,0,381.015,61.227,381.015,124.258z"/>
<path style="fill:#ED927A;" d="M381.015,124.258c0,63-57.738,94.681-128.937,94.681c-71.215,0-128.969-31.673-128.969-94.681"/>
<g>
	<path style="fill:#232628;" d="M156.893,276.338h190.338c-3.033-12.784-7.554-24.678-13.249-35.446h-163.84
		C164.462,251.66,159.925,263.554,156.893,276.338z"/>
	<path style="fill:#232628;" d="M152.418,315.242c0,5.049,0.095,9.736,0.244,14.265H351.46c0.158-4.521,0.244-9.216,0.244-14.265
		c0-7.231-0.551-14.273-1.418-21.181H153.844C152.97,300.969,152.418,308.019,152.418,315.242z"/>
	<path style="fill:#232628;" d="M160.65,382.677h182.831c3.308-8.609,5.695-20.126,7.018-35.446H153.632
		C154.971,362.551,157.357,374.067,160.65,382.677z"/>
	<polygon style="fill:#232628;" points="110.891,311.572 118.981,311.572 118.981,319.661 65.371,365.174 	"/>
	<polygon style="fill:#232628;" points="113.696,321.441 120.06,318.952 122.541,325.317 94.342,377.572 	"/>
	<polygon style="fill:#232628;" points="108.725,307.704 114.987,310.461 112.23,316.707 55.351,333.722 	"/>
	<polygon style="fill:#232628;" points="113.184,304.246 118.185,308.909 113.522,313.895 54.217,311.178 	"/>
	<polygon style="fill:#232628;" points="393.232,311.572 385.142,311.572 385.142,319.661 438.753,365.174 	"/>
	<polygon style="fill:#232628;" points="390.428,321.441 384.063,318.952 381.582,325.317 409.781,377.572 	"/>
	<polygon style="fill:#232628;" points="395.398,307.704 389.136,310.461 391.893,316.707 448.788,333.722 	"/>
	<polygon style="fill:#232628;" points="390.955,304.246 385.938,308.909 390.601,313.895 449.906,311.178 	"/>
</g>
<circle style="fill:#113E49;" cx="190.748" cy="98.462" r="11.532"/>
<path d="M202.279,98.462c0,6.38-5.167,11.532-11.54,11.532c-6.372,0-11.524-5.152-11.524-11.532"/>
<path style="fill:#FFD3C5;" d="M213.496,122.51c-0.614,0-1.245-0.221-1.725-0.717c-5.632-5.624-13.107-8.72-21.047-8.72h-0.016
	c-7.94,0-15.399,3.104-21,8.712c-0.953,0.953-2.489,0.977-3.434,0.008c-0.953-0.922-0.985-2.458-0.031-3.419
	c6.538-6.546,15.218-10.161,24.458-10.161h0.016c9.263,0,17.951,3.592,24.505,10.145c0.937,0.937,0.937,2.505,0,3.434
	C214.756,122.281,214.142,122.51,213.496,122.51z"/>
<circle style="fill:#113E49;" cx="313.423" cy="98.462" r="11.532"/>
<path d="M301.859,98.462c0,6.38,5.151,11.532,11.54,11.532c6.372,0,11.524-5.152,11.524-11.532"/>
<path style="fill:#FFD3C5;" d="M290.643,122.51c0.599,0,1.229-0.221,1.709-0.717c5.632-5.624,13.107-8.72,21.047-8.72h0.016
	c7.94,0,15.415,3.104,21.016,8.712c0.937,0.953,2.473,0.977,3.434,0.008c0.953-0.922,0.969-2.458,0.016-3.419
	c-6.506-6.546-15.218-10.161-24.458-10.161h-0.016c-9.248,0-17.936,3.592-24.505,10.145c-0.922,0.937-0.922,2.505,0,3.434
	C289.382,122.281,289.997,122.51,290.643,122.51z"/>
<g>
	<path style="fill:#232628;" d="M363.449,64.323C341.094,27.388,299.646,0,252.077,0s-89.049,27.388-111.403,64.323H363.449z"/>
	<path style="fill:#232628;" d="M412.231,68.923c0,5.427-71.712,9.846-160.169,9.846S91.892,74.35,91.892,68.923
		c0-5.443,71.712-26.908,160.169-26.908S412.231,63.48,412.231,68.923z"/>
</g>
<path style="fill:#870808;" d="M300.631,162.785c0,13.044-10.587,23.631-23.631,23.631h-49.877
	c-13.06,0-23.631-10.587-23.631-23.631v-22.307c0-13.06,10.571-23.631,23.631-23.631H277c13.044,0,23.631,10.571,23.631,23.631
	V162.785z"/>
<path style="fill:#AA0909;" d="M227.123,162.139c-8.862,0-16.494,4.923-20.519,12.138c4.033,7.2,11.658,12.138,20.519,12.138H277
	c8.862,0,16.479-4.939,20.535-12.138c-4.064-7.215-11.674-12.138-20.535-12.138H227.123z"/>
</svg>