<?xml version="1.0" encoding="iso-8859-1"?>
<!-- Uploaded to: SVG Repo, www.svgrepo.com, Generator: SVG Repo Mixer Tools -->
<svg height="800px" width="800px" version="1.1" id="Layer_1" xmlns="http://www.w3.org/2000/svg" xmlns:xlink="http://www.w3.org/1999/xlink" 
	 viewBox="0 0 504.123 504.123" xml:space="preserve">
<path style="fill:#890628;" d="M224.605,203.485c0,0-7.877,18.708-81.723,31.508s-82.708,40.369-56.123,54.154
	s-34.462,5.908,0,44.308s87.631,13.785,82.708,34.462c-4.923,20.677,71.877,45.292,100.431,17.723
	c28.554-27.569,118.154-20.677,119.138,2.954s48.246-169.354-67.938-180.185C204.913,197.577,224.605,203.485,224.605,203.485z"/>
<g>
	<path style="fill:#0C87E2;" d="M269.929,203.768c10.027,11.28,3.663,33.304-14.218,49.223
		c-17.881,15.896-114.018,85.024-124.062,73.767c-10.012-11.296,69.892-98.714,87.773-114.609
		C237.279,196.254,259.894,192.496,269.929,203.768z"/>
	<path style="fill:#0C87E2;" d="M291.898,203.768c-10.027,11.28-3.663,33.304,14.218,49.223
		c17.881,15.896,114.018,85.024,124.062,73.767c10.012-11.296-69.892-98.714-87.773-114.609
		C324.54,196.254,301.925,192.496,291.898,203.768z"/>
</g>
<g>
	<path style="fill:#0265B7;" d="M375.417,361.913c0,19.503-15.817,124.668-35.336,124.668c-19.495,0-35.304-105.173-35.304-124.668
		c0-19.495,15.817-35.32,35.304-35.32C359.6,326.593,375.417,342.418,375.417,361.913z"/>
	<path style="fill:#0265B7;" d="M257.066,361.913c0,19.503-15.817,124.668-35.336,124.668c-19.495,0-35.304-105.173-35.304-124.668
		c0-19.495,15.817-35.32,35.304-35.32C241.249,326.593,257.066,342.418,257.066,361.913z"/>
</g>
<path style="fill:#0C87E2;" d="M380.552,315.242c0,126.33-44.599,84.259-99.643,84.259c-55.028,0-99.643,42.071-99.643-84.259
	c0-72.231,44.631-130.781,99.643-130.781C335.937,184.47,380.552,243.019,380.552,315.242z"/>
<path style="fill:#0265B7;" d="M210.954,222.169c20.173,8.302,44.15,12.524,69.971,12.524c25.797,0,49.782-4.222,69.939-12.516
	c-17.999-23.3-42.693-37.707-69.955-37.707C253.647,184.47,228.953,198.869,210.954,222.169z"/>
<g>
	<path style="fill:#CE1332;" d="M194.759,422.085c5.506,27.301,13.32,54.705,22.166,62.354h9.602
		c8.869-7.648,16.691-35.052,22.181-62.354H194.759z"/>
	<path style="fill:#CE1332;" d="M313.11,422.085c5.506,27.301,13.32,54.705,22.166,62.354h9.602
		c8.862-7.648,16.691-35.052,22.189-62.354H313.11z"/>
</g>
<path style="fill:#B50B30;" d="M261.477,487.219c0,14.935-17.802,16.904-39.739,16.904s-39.739-1.961-39.739-16.904
	c0-14.943,17.802-35.509,39.739-35.509S261.477,472.277,261.477,487.219z"/>
<path style="fill:#99082E;" d="M261.477,487.219c0,14.935-17.802,16.904-39.739,16.904s-39.739-1.961-39.739-16.904"/>
<path style="fill:#B50B30;" d="M379.836,487.219c0,14.935-17.802,16.904-39.739,16.904s-39.739-1.961-39.739-16.904
	c0-14.943,17.802-35.509,39.739-35.509S379.836,472.277,379.836,487.219z"/>
<path style="fill:#99082E;" d="M379.836,487.219c0,14.935-17.802,16.904-39.739,16.904s-39.739-1.961-39.739-16.904"/>
<path style="fill:#F9D49D;" d="M409.862,124.258c0,63.008-57.738,94.681-128.937,94.681c-71.215,0-128.969-31.673-128.969-94.681
	C151.956,61.235,209.71,0,280.925,0C352.124,0,409.862,61.235,409.862,124.258z"/>
<g>
	<path style="fill:#F4CB89;" d="M409.862,124.258c0,63.008-57.738,100.391-128.937,100.391
		c-71.215,0-128.969-37.384-128.969-100.391"/>
	<path style="fill:#F4CB89;" d="M151.83,287.744c-14.36,18.723-24.08,34.627-20.181,39.014c3.82,4.285,20.141-3.096,39.849-14.738
		l2.308-2.308L151.83,287.744z"/>
	<path style="fill:#F4CB89;" d="M387.279,310.209c21.063,12.674,38.88,21.063,42.89,16.557c3.907-4.403-5.876-20.378-20.291-39.156
		L387.279,310.209z"/>
</g>
<path style="fill:#EFC206;" d="M186.307,372.177h189.204c1.646-6.766,2.907-14.777,3.757-24.285h-196.71
	C183.401,357.4,184.661,365.41,186.307,372.177z"/>
<circle style="fill:#113E49;" cx="219.595" cy="121.439" r="11.532"/>
<path d="M231.127,121.439c0,6.388-5.167,11.54-11.54,11.54c-6.372,0-11.524-5.151-11.524-11.54"/>
<path style="fill:#F9D49D;" d="M242.344,145.495c-0.614,0-1.245-0.221-1.725-0.717c-5.632-5.624-13.107-8.72-21.047-8.72h-0.016
	c-7.94,0-15.399,3.104-21,8.712c-0.953,0.953-2.489,0.977-3.434,0.008c-0.953-0.922-0.985-2.458-0.032-3.419
	c6.538-6.546,15.218-10.161,24.458-10.161h0.016c9.263,0,17.952,3.592,24.505,10.145c0.937,0.937,0.937,2.505,0,3.434
	C243.604,145.266,242.99,145.495,242.344,145.495z"/>
<circle style="fill:#113E49;" cx="342.239" cy="121.439" r="11.532"/>
<path d="M330.707,121.439c0,6.388,5.151,11.54,11.54,11.54c6.372,0,11.524-5.151,11.524-11.54"/>
<path style="fill:#F9D49D;" d="M319.498,145.495c0.599,0,1.229-0.221,1.709-0.717c5.632-5.624,13.107-8.72,21.047-8.72h0.016
	c7.94,0,15.415,3.104,21.016,8.712c0.937,0.953,2.473,0.977,3.434,0.008c0.953-0.922,0.969-2.458,0.016-3.419
	c-6.506-6.546-15.218-10.161-24.458-10.161h-0.031c-9.248,0-17.936,3.592-24.505,10.145c-0.922,0.937-0.922,2.505,0,3.434
	C318.23,145.266,318.845,145.495,319.498,145.495z"/>
<polygon style="fill:#F41E4C;" points="312.866,240.317 332.739,301.458 280.728,339.251 228.709,301.458 248.574,240.317 "/>
<polyline style="fill:#CE1332;" points="248.574,240.317 312.866,240.317 332.739,301.458 280.728,339.251 "/>
<path style="fill:#890628;" d="M306.021,149.827c0,13.863-11.248,25.112-25.112,25.112c-13.863,0-25.112-11.248-25.112-25.112
	s11.248-12.304,25.112-12.304C294.773,137.523,306.021,135.964,306.021,149.827z"/>
<path style="fill:#B50B30;" d="M261.477,165.549c4.608,5.679,11.555,9.381,19.432,9.381s14.824-3.71,19.432-9.381
	c-4.608-5.679-11.555-9.381-19.432-9.381S266.085,159.87,261.477,165.549z"/>
<path d="M280.925,0c-38.305,0-72.609,17.794-96.232,43.977h86.189c0,0-19.692,18.708,3.938,25.6
	c23.631,6.892,19.692-10.831,19.692-10.831s-3.45,6.396-10.335,3.45c-6.884-2.946,6.892-21.662,28.554-15.754
	c21.662,5.908,29.538-10.335,29.538-10.335s8.365,15.265,25.112,15.265c4.443,0,8.799-1.654,12.832-4.049
	C356.559,19.267,320.861,0,280.925,0z"/>
<path style="fill:#CE1332;" d="M183.377,355.777c9.444,75.721,49.514,43.733,97.532,43.733c48.018,0,88.095,31.996,97.532-43.733
	H183.377z"/>
</svg>