<?xml version="1.0" encoding="iso-8859-1"?>
<!-- Uploaded to: SVG Repo, www.svgrepo.com, Generator: SVG Repo Mixer Tools -->
<svg height="800px" width="800px" version="1.1" id="Layer_1" xmlns="http://www.w3.org/2000/svg" xmlns:xlink="http://www.w3.org/1999/xlink" 
	 viewBox="0 0 504.123 504.123" xml:space="preserve">
<g>
	<path style="fill:#363B3F;" d="M286.642,203.768c10.027,11.28,3.663,33.304-14.218,49.223
		c-17.881,15.896-114.018,85.024-124.062,73.767c-10.012-11.296,69.892-98.714,87.773-114.609
		C253.992,196.254,276.607,192.496,286.642,203.768z"/>
	<path style="fill:#363B3F;" d="M308.611,203.768c-10.027,11.28-3.663,33.304,14.218,49.223
		c17.881,15.896,114.018,85.024,124.062,73.767c10.012-11.296-69.892-98.714-87.773-114.609
		C341.253,196.254,318.638,192.496,308.611,203.768z"/>
</g>
<g>
	<path style="fill:#799998;" d="M392.13,361.913c0,19.503-15.817,124.668-35.336,124.668c-19.495,0-35.304-105.173-35.304-124.668
		c0-19.495,15.817-35.32,35.304-35.32C376.313,326.593,392.13,342.418,392.13,361.913z"/>
	<path style="fill:#799998;" d="M273.779,361.913c0,19.503-15.817,124.668-35.336,124.668c-19.495,0-35.304-105.173-35.304-124.668
		c0-19.495,15.817-35.32,35.304-35.32C257.962,326.593,273.779,342.418,273.779,361.913z"/>
</g>
<path style="fill:#9DBAB8;" d="M397.274,315.242c0,126.33-44.599,84.259-99.643,84.259c-55.028,0-99.643,42.071-99.643-84.259
	c0-72.231,44.631-130.781,99.643-130.781C352.659,184.47,397.274,243.019,397.274,315.242z"/>
<path style="fill:#8DAAA7;" d="M297.623,184.47c55.028,0,99.643,58.549,99.643,130.781c0,126.33-44.599,84.259-99.643,84.259"/>
<path style="fill:#9DBAB8;" d="M278.19,487.219c0,14.935-17.802,16.904-39.739,16.904s-39.739-1.961-39.739-16.904
	c0-14.943,17.802-35.509,39.739-35.509S278.19,472.277,278.19,487.219z"/>
<path style="fill:#8DAAA7;" d="M278.19,487.219c0,14.935-17.802,16.904-39.739,16.904s-39.739-1.961-39.739-16.904"/>
<path style="fill:#9DBAB8;" d="M396.549,487.219c0,14.935-17.802,16.904-39.739,16.904s-39.739-1.961-39.739-16.904
	c0-14.943,17.802-35.509,39.739-35.509S396.549,472.277,396.549,487.219z"/>
<path style="fill:#8DAAA7;" d="M396.549,487.219c0,14.935-17.802,16.904-39.739,16.904s-39.739-1.961-39.739-16.904"/>
<path style="fill:#191E21;" d="M218.649,235.733c21.835,11.059,49.191,16.683,78.99,16.683c29.783,0,57.139-5.624,78.966-16.683
	c-18.211-31.114-46.773-51.263-78.982-51.263C265.422,184.47,236.852,204.611,218.649,235.733z"/>
<path style="fill:#9DBAB8;" d="M426.576,124.258c0,63.008-57.738,94.681-128.937,94.681c-71.215,0-128.969-31.673-128.969-94.681
	C168.67,61.235,226.423,0,297.638,0C368.838,0,426.576,61.235,426.576,124.258z"/>
<path style="fill:#8FA8A8;" d="M426.576,124.258c0,63.008-57.738,94.681-128.937,94.681c-71.215,0-128.969-31.673-128.969-94.681
	c0-63.023,57.754-94.058,128.969-94.058C368.838,30.2,426.576,61.235,426.576,124.258z"/>
<path style="fill:#799998;" d="M426.576,124.258c0,63.008-57.738,94.681-128.937,94.681c-71.215,0-128.969-31.673-128.969-94.681"/>
<path style="fill:#363B3F;" d="M403.961,128.67c0,8.696-7.058,15.754-15.754,15.754H207.038c-8.696,0-15.754-7.058-15.754-15.754
	v-13.131c0-8.704,7.058-15.754,15.754-15.754h181.169c8.696,0,15.754,7.05,15.754,15.754V128.67z"/>
<path style="fill:#191E21;" d="M191.284,124.258v4.411c0,8.696,7.058,15.754,15.754,15.754h181.169
	c8.696,0,15.754-7.058,15.754-15.754v-4.411H191.284z"/>
<path style="fill:#DB1F1F;" d="M302.546,128.331c0,2.725-2.206,4.931-4.923,4.931l0,0c-2.718,0-4.923-2.206-4.923-4.931v-12.469
	c0-2.718,2.206-4.923,4.923-4.923l0,0c2.718,0,4.923,2.206,4.923,4.923V128.331z"/>
<path style="fill:#191E21;" d="M174.695,156.877c16.534,41.307,65.315,69.939,122.943,69.939
	c57.612,0,106.394-28.633,122.911-69.939H174.695z"/>
<path style="fill:#E29B86;" d="M321.75,165.573h-48.246c-13.044,0-23.631,10.587-23.631,23.631v30.578
	c14.785,4.513,30.878,7.042,47.766,7.042c16.88,0,32.973-2.521,47.742-7.034v-30.586
	C345.381,176.152,334.794,165.573,321.75,165.573z"/>
<path style="fill:#F9C1AC;" d="M321.75,176.073h-48.246c-13.044,0-23.631,10.587-23.631,23.631v20.078
	c14.785,4.513,30.878,7.042,47.766,7.042c16.88,0,32.973-2.521,47.742-7.034v-20.086
	C345.381,186.652,334.794,176.073,321.75,176.073z"/>
<g>
	<path style="fill:#AAD1CA;" d="M292.7,311.784c0,13.044-10.587,23.631-23.631,23.631H239.53c-13.044,0-23.631-10.587-23.631-23.631
		v-29.538c0-13.044,10.587-23.631,23.631-23.631h29.538c13.044,0,23.631,10.587,23.631,23.631V311.784z"/>
	<path style="fill:#AAD1CA;" d="M379.346,311.784c0,13.044-10.587,23.631-23.631,23.631h-29.538
		c-13.044,0-23.631-10.587-23.631-23.631v-29.538c0-13.044,10.587-23.631,23.631-23.631h29.538
		c13.044,0,23.631,10.587,23.631,23.631V311.784z"/>
</g>
<g>
	<path style="fill:#363B3F;" d="M201.256,363.638c11.225,65.56,50.105,35.872,96.366,35.872c46.277,0,85.157,29.696,96.366-35.872
		H201.256z"/>
	<circle style="fill:#363B3F;" cx="297.591" cy="366.592" r="18.046"/>
</g>
<g>
	<path style="fill:#8DAAA7;" d="M243.689,278.63c0,1.276-1.032,2.3-2.308,2.3h-13.123c-1.276,0-2.292-1.024-2.292-2.3l0,0
		c0-1.26,1.016-2.292,2.292-2.292h13.123C242.658,276.338,243.689,277.37,243.689,278.63L243.689,278.63z"/>
	<path style="fill:#8DAAA7;" d="M243.689,289.13c0,1.276-1.032,2.3-2.308,2.3h-13.123c-1.276,0-2.292-1.024-2.292-2.3l0,0
		c0-1.26,1.016-2.292,2.292-2.292h13.123C242.658,286.838,243.689,287.87,243.689,289.13L243.689,289.13z"/>
	<path style="fill:#8DAAA7;" d="M243.689,299.63c0,1.276-1.032,2.3-2.308,2.3h-13.123c-1.276,0-2.292-1.024-2.292-2.3l0,0
		c0-1.26,1.016-2.292,2.292-2.292h13.123C242.658,297.338,243.689,298.37,243.689,299.63L243.689,299.63z"/>
</g>
<path style="fill:#191E21;" d="M319.284,223.665c0,9.515-7.719,17.235-17.235,17.235h-8.862c-9.515,0-17.235-7.712-17.235-17.235
	l0,0c0-9.515,7.712-17.235,17.235-17.235h8.862C311.565,206.431,319.284,214.15,319.284,223.665L319.284,223.665z"/>
<path style="fill:#870E0E;" d="M316,190.677c0,3.938-8.231-0.48-18.377-0.48c-10.153,0-18.385,4.419-18.385,0.48
	s8.231-13.785,18.385-13.785C307.768,176.892,316,186.738,316,190.677z"/>
<path style="fill:#9DBAB8;" d="M366.546,395.319c0,8.523-30.862,15.431-68.923,15.431s-68.923-6.908-68.923-15.431"/>
<g>
	<path style="fill:#232728;" d="M76.289,374.012c2.993,3.001,7.861,3.001,10.854,0l23.528-23.521c2.993-3.001,2.993-7.861,0-10.862
		l-9.5-9.5c-3.001-3.001-7.861-3.001-10.862,0l-23.52,23.528c-3.001,2.993-3.001,7.853,0,10.854L76.289,374.012z"/>
	<path style="fill:#232728;" d="M72.776,359.889c1.071-1.071,1.071-2.788,0-3.86l-8.365-8.365c-1.063-1.071-2.796-1.071-3.86,0
		l-3.379,3.379c-1.071,1.071-1.071,2.788,0,3.86l8.365,8.365c1.079,1.071,2.804,1.063,3.875,0L72.776,359.889z"/>
	<path style="fill:#232728;" d="M146.638,338.046c3.001,3.001,7.861,3.001,10.854,0l3.395-3.395c3.001-2.993,3.001-7.861,0-10.862
		l-12.217-12.217c-2.993-2.993-7.853-2.993-10.854,0l-3.403,3.403c-2.993,3.001-2.993,7.861,0,10.854L146.638,338.046z"/>
	<path style="fill:#232728;" d="M148.67,311.58c3.001,3.001,3.001,7.861,0,10.862l-39.361,39.361c-2.993,3.001-7.861,3.001-10.854,0
		l-21.039-21.039c-3.001-3.001-3.001-7.861,0-10.854l39.361-39.369c2.985-2.993,7.845-2.993,10.862,0L148.67,311.58z"/>
</g>
<path style="fill:#3D4344;" d="M77.415,329.909l39.361-39.369c2.985-2.993,7.845-2.993,10.862,0l8.814,8.822
	c3.001,3.001,3.001,7.869,0,10.862l-39.361,39.361c-2.993,3.001-7.861,3.001-10.854,0l-8.822-8.822
	C74.414,337.762,74.414,332.902,77.415,329.909z"/>
</svg>