<?xml version="1.0" encoding="iso-8859-1"?>
<!-- Uploaded to: SVG Repo, www.svgrepo.com, Generator: SVG Repo Mixer Tools -->
<svg version="1.1" id="Layer_1" xmlns="http://www.w3.org/2000/svg" xmlns:xlink="http://www.w3.org/1999/xlink" 
	 viewBox="0 0 504.123 504.123" xml:space="preserve">
<g>
	<path style="fill:#446068;" d="M280.117,258.095c11.28,10.027,33.304,3.663,49.223-14.218
		c15.896-17.881,85.016-114.018,73.767-124.062c-11.296-10.012-98.714,69.892-114.609,87.773
		C272.594,225.445,268.845,248.06,280.117,258.095z"/>
	<path style="fill:#446068;" d="M238.928,203.768c10.027,11.28,3.663,33.304-14.218,49.223
		c-17.881,15.896-114.026,85.024-124.062,73.767c-10.012-11.296,69.9-98.714,87.765-114.609S228.901,192.496,238.928,203.768z"/>
</g>
<g>
	<path style="fill:#2E4449;" d="M226.065,361.913c0,19.503-15.809,124.668-35.336,124.668c-19.495,0-35.304-105.173-35.304-124.668
		c0-19.495,15.817-35.32,35.304-35.32C210.256,326.593,226.065,342.418,226.065,361.913z"/>
	<path style="fill:#2E4449;" d="M344.424,361.913c0,19.503-15.817,124.668-35.336,124.668c-19.495,0-35.304-105.173-35.304-124.668
		c0-19.495,15.817-35.32,35.304-35.32C328.607,326.593,344.424,342.418,344.424,361.913z"/>
</g>
<path style="fill:#9FD1D1;" d="M349.56,315.242c0,126.33-44.607,84.259-99.643,84.259c-55.028,0-99.643,42.071-99.643-84.259
	c0-72.231,44.631-130.781,99.643-130.781C304.945,184.47,349.56,243.019,349.56,315.242z"/>
<rect x="224.963" y="182.49" transform="matrix(-0.7071 0.7071 -0.7071 -0.7071 573.3008 177.4024)" style="fill:#DD9F76;" width="49.892" height="49.892"/>
<path style="fill:#9FD1D1;" d="M230.484,487.219c0,14.935-17.802,16.904-39.747,16.904c-21.929,0-39.739-1.961-39.739-16.904
	c0-14.943,17.81-35.509,39.739-35.509C212.683,451.718,230.484,472.277,230.484,487.219z"/>
<path style="fill:#7ABCBB;" d="M230.484,487.219c0,14.935-17.802,16.904-39.747,16.904c-21.929,0-39.739-1.961-39.739-16.904"/>
<path style="fill:#9FD1D1;" d="M348.827,487.219c0,14.935-17.786,16.904-39.731,16.904c-21.937,0-39.739-1.961-39.739-16.904
	c0-14.943,17.802-35.509,39.739-35.509C331.041,451.718,348.827,472.277,348.827,487.219z"/>
<path style="fill:#7ABCBB;" d="M348.827,487.219c0,14.935-17.786,16.904-39.731,16.904c-21.937,0-39.739-1.961-39.739-16.904"/>
<path style="fill:#E8B085;" d="M378.87,124.258c0,63.008-57.746,94.681-128.937,94.681c-71.223,0-128.969-31.673-128.969-94.681
	C120.964,61.235,178.709,0,249.933,0C321.124,0,378.87,61.235,378.87,124.258z"/>
<path style="fill:#DD9F76;" d="M378.87,124.258c0,63.008-57.746,94.681-128.937,94.681c-71.223,0-128.969-31.673-128.969-94.681"/>
<path style="fill:#543722;" d="M292.2,167.771c0,23.355-18.92,42.283-42.283,42.283s-42.283-18.928-42.283-42.283v-36.281h-5.971
	c-3.474,7.097-5.569,14.99-5.569,23.434v64.236c16.4,4.616,34.603,7.01,53.839,7.01c19.22,0,37.415-2.395,53.807-7.01v-64.236
	c0-8.436-2.095-16.329-5.569-23.434H292.2V167.771z"/>
<circle style="fill:#113E49;" cx="188.595" cy="103.448" r="11.532"/>
<path d="M200.127,103.448c0,6.388-5.175,11.54-11.532,11.54c-6.38,0-11.532-5.152-11.532-11.54"/>
<path style="fill:#F4C3A2;" d="M211.343,127.504c-0.614,0-1.245-0.221-1.725-0.717c-5.632-5.624-13.107-8.72-21.047-8.72h-0.024
	c-7.932,0-15.384,3.104-20.992,8.712c-0.945,0.953-2.489,0.977-3.442,0.008c-0.953-0.922-0.977-2.458-0.024-3.419
	c6.538-6.546,15.218-10.161,24.45-10.161h0.024c9.263,0,17.944,3.592,24.497,10.145c0.937,0.937,0.937,2.505,0,3.434
	C212.604,127.275,211.989,127.504,211.343,127.504z"/>
<path style="fill:#113E49;" d="M299.715,103.448c0,6.388,5.144,11.54,11.54,11.54c6.372,0,11.524-5.152,11.524-11.54
	c0-6.365-5.151-11.532-11.524-11.532C304.858,91.916,299.715,97.083,299.715,103.448z"/>
<path d="M299.715,103.448c0,6.388,5.144,11.54,11.54,11.54c6.372,0,11.524-5.152,11.524-11.54"/>
<path style="fill:#F4C3A2;" d="M288.498,127.504c0.591,0,1.229-0.221,1.709-0.717c5.632-5.624,13.107-8.72,21.047-8.72h0.008
	c7.948,0,15.423,3.104,21.016,8.712c0.937,0.953,2.473,0.977,3.434,0.008c0.961-0.922,0.977-2.458,0.024-3.419
	c-6.506-6.546-15.218-10.161-24.466-10.161h-0.008c-9.247,0-17.944,3.592-24.513,10.145c-0.922,0.937-0.922,2.505,0,3.434
	C287.238,127.275,287.852,127.504,288.498,127.504z"/>
<path style="fill:#663F24;" d="M253.556,134.979c0,0-13.477-29.003-49.719-5.175s-39.353,16.565-39.353,16.565
	s38.313,27.987,79.754,10.382l6.215-5.199L253.556,134.979z"/>
<path style="fill:#543722;" d="M164.484,146.361c0,0,38.313,27.987,79.754,10.382l6.215-5.199l3.111-16.573"/>
<path style="fill:#663F24;" d="M246.286,134.979c0,0,13.462-29.003,49.711-5.175s39.353,16.565,39.353,16.565
	s-38.305,27.987-79.746,10.382l-6.223-5.199L246.286,134.979z"/>
<path style="fill:#543722;" d="M335.342,146.361c0,0-38.305,27.987-79.746,10.382l-6.223-5.199l-3.096-16.573"/>
<g>
	<path style="fill:#446068;" d="M156.394,270.438h187.038c-4.348-15.62-10.878-29.83-19.141-42.016H175.535
		C167.272,240.608,160.75,254.818,156.394,270.438z"/>
	<path style="fill:#446068;" d="M150.266,315.242c0,9.689,0.291,18.282,0.811,26.088h197.679c0.512-7.798,0.811-16.392,0.811-26.088
		c0-5.411-0.331-10.697-0.811-15.927H151.077C150.597,304.545,150.266,309.839,150.266,315.242z"/>
	<path style="fill:#446068;" d="M154.811,370.208c12.682,56.958,50.46,29.302,95.098,29.302c44.654,0,82.424,27.664,95.098-29.302
		H154.811z"/>
</g>
<g>
	<path style="fill:#C6825C;" d="M253.241,93.885c1.985,1.985,1.985,5.207,0,7.2l0,0c-1.993,1.985-5.215,1.985-7.2,0l-49.64-49.64
		c-1.993-1.993-1.993-5.222,0-7.223l0,0c1.977-1.985,5.207-1.985,7.199,0L253.241,93.885z"/>
	<path style="fill:#C6825C;" d="M218.827,41.842c1.095,1.111,1.095,2.875,0,3.986l-20.834,20.834c-1.111,1.111-2.891,1.111-4.001,0
		l0,0c-1.111-1.111-1.111-2.875,0-4.001l20.834-20.834C215.936,40.732,217.724,40.732,218.827,41.842L218.827,41.842z"/>
	<path style="fill:#C6825C;" d="M230.839,53.839c1.111,1.111,1.111,2.891,0,4.001l-20.834,20.834c-1.119,1.111-2.891,1.111-4.009,0
		l0,0c-1.095-1.111-1.095-2.891,0-4.001l20.842-20.834C227.94,52.728,229.72,52.728,230.839,53.839L230.839,53.839z"/>
	<path style="fill:#C6825C;" d="M242.843,65.851c1.103,1.111,1.111,2.875,0,4.001l-20.834,20.834
		c-1.111,1.095-2.875,1.095-4.001-0.016l0,0c-1.111-1.111-1.119-2.875,0-3.986l20.834-20.834
		C239.96,64.748,241.733,64.748,242.843,65.851L242.843,65.851z"/>
	<path style="fill:#C6825C;" d="M254.848,77.863c1.119,1.103,1.119,2.883,0,3.994l-20.827,20.834c-1.103,1.111-2.883,1.111-4.009,0
		l0,0c-1.095-1.111-1.095-2.891,0-4.001l20.842-20.834C251.949,76.745,253.745,76.745,254.848,77.863L254.848,77.863z"/>
</g>
</svg>