<?xml version="1.0" encoding="iso-8859-1"?>
<!-- Uploaded to: SVG Repo, www.svgrepo.com, Generator: SVG Repo Mixer Tools -->
<svg height="800px" width="800px" version="1.1" id="Layer_1" xmlns="http://www.w3.org/2000/svg" xmlns:xlink="http://www.w3.org/1999/xlink" 
	 viewBox="0 0 504.123 504.123" xml:space="preserve">
<g>
	<path style="fill:#FF6D00;" d="M256.654,239.159c-0.866,15.061-20.96,26.128-44.851,24.757
		c-23.875-1.41-140.745-20.504-139.894-35.564c0.906-15.069,119.233-20.385,143.108-18.976
		C238.883,210.763,257.528,224.098,256.654,239.159z"/>
	<path style="fill:#FF6D00;" d="M247.469,232.952c0.874-15.061,20.953-26.12,44.859-24.757
		c23.875,1.418,140.737,20.512,139.886,35.572c-0.906,15.061-119.233,20.385-143.108,18.968
		C265.232,261.356,246.587,248.013,247.469,232.952z"/>
</g>
<g>
	<path style="fill:#232728;" d="M229.415,361.913c0,19.503-15.817,124.668-35.336,124.668c-19.495,0-35.304-105.173-35.304-124.668
		c0-19.495,15.817-35.32,35.304-35.32C213.599,326.593,229.415,342.418,229.415,361.913z"/>
	<path style="fill:#232728;" d="M347.766,361.913c0,19.503-15.817,124.668-35.336,124.668c-19.495,0-35.304-105.173-35.304-124.668
		c0-19.495,15.817-35.32,35.304-35.32C331.957,326.593,347.766,342.418,347.766,361.913z"/>
</g>
<path style="fill:#FF6D00;" d="M352.91,315.242c0,126.33-44.599,84.259-99.643,84.259c-55.028,0-99.643,42.071-99.643-84.259
	c0-72.231,44.631-130.788,99.643-130.788C308.295,184.462,352.91,243.019,352.91,315.242z"/>
<path style="fill:#DB410B;" d="M179.042,228.194c21,9.539,46.568,14.375,74.232,14.375c27.648,0,53.209-4.836,74.201-14.367
	c-18.243-26.782-44.694-43.741-74.216-43.741C223.744,184.462,197.301,201.413,179.042,228.194z"/>
<path style="fill:#8D97A0;" d="M233.834,487.219c0,14.935-17.802,16.904-39.739,16.904s-39.739-1.961-39.739-16.904
	c0-14.943,17.802-35.509,39.739-35.509S233.834,472.277,233.834,487.219z"/>
<path style="fill:#79848C;" d="M233.834,487.219c0,14.935-17.802,16.904-39.739,16.904s-39.739-1.961-39.739-16.904"/>
<path style="fill:#8D97A0;" d="M352.185,487.219c0,14.935-17.802,16.904-39.739,16.904c-21.937,0-39.739-1.961-39.739-16.904
	c0-14.943,17.802-35.509,39.739-35.509C334.383,451.71,352.185,472.277,352.185,487.219z"/>
<path style="fill:#79848C;" d="M352.185,487.219c0,14.935-17.802,16.904-39.739,16.904c-21.937,0-39.739-1.961-39.739-16.904"/>
<path style="fill:#CE5715;" d="M382.212,124.258c0,63.008-57.738,94.681-128.937,94.681c-71.215,0-128.969-31.673-128.969-94.681
	C124.306,61.235,182.059,0,253.275,0C324.474,0,382.212,61.235,382.212,124.258z"/>
<path style="fill:#F9A9A0;" d="M382.212,124.258c0,63.008-57.738,94.681-128.937,94.681c-71.215,0-128.969-31.673-128.969-94.681
	c0-63.023,57.754-72.405,128.969-72.405C324.474,51.854,382.212,61.235,382.212,124.258z"/>
<path style="fill:#FF9997;" d="M382.212,124.258c0,63.008-57.738,94.681-128.937,94.681c-71.215,0-128.969-31.673-128.969-94.681"/>
<circle style="fill:#113E49;" cx="191.945" cy="154.151" r="11.532"/>
<path d="M203.477,154.151c0,6.388-5.167,11.54-11.54,11.54s-11.524-5.152-11.524-11.54"/>
<path style="fill:#FFD3C5;" d="M214.693,178.208c-0.614,0-1.245-0.221-1.725-0.717c-5.632-5.624-13.107-8.72-21.047-8.72h-0.016
	c-7.94,0-15.399,3.104-21,8.712c-0.953,0.953-2.489,0.977-3.434,0.008c-0.953-0.922-0.985-2.458-0.032-3.419
	c6.538-6.546,15.218-10.161,24.458-10.161h0.016c9.263,0,17.952,3.592,24.505,10.145c0.937,0.937,0.937,2.505,0,3.434
	C215.954,177.987,215.339,178.208,214.693,178.208z"/>
<circle style="fill:#113E49;" cx="314.604" cy="154.151" r="11.532"/>
<path d="M303.065,154.151c0,6.388,5.151,11.54,11.54,11.54c6.372,0,11.524-5.152,11.524-11.54"/>
<path style="fill:#FFD3C5;" d="M291.848,178.208c0.599,0,1.229-0.221,1.709-0.717c5.632-5.624,13.107-8.72,21.047-8.72h0.016
	c7.94,0,15.415,3.104,21.016,8.712c0.937,0.953,2.473,0.977,3.434,0.008c0.953-0.922,0.969-2.458,0.016-3.419
	c-6.506-6.546-15.218-10.161-24.458-10.161h-0.016c-9.247,0-17.936,3.592-24.505,10.145c-0.922,0.937-0.922,2.505,0,3.434
	C290.588,177.987,291.202,178.208,291.848,178.208z"/>
<path style="fill:#870E0E;" d="M268.895,170.685c0,13.816-7.003,25.064-15.628,25.064c-8.617,0-15.628-11.248-15.628-25.064
	c0-13.848,7.018-5.585,15.628-5.585C261.892,165.1,268.895,156.837,268.895,170.685z"/>
<path style="fill:#AA1111;" d="M253.243,173.158c-5.443,0-10.232,4.49-13.028,11.264c2.796,6.806,7.601,11.327,13.044,11.327
	s10.232-4.49,13.028-11.264C263.491,177.68,258.694,173.158,253.243,173.158z"/>
<path style="fill:#CE5715;" d="M253.275,0c-37.305,0-70.821,17.55-94.366,42.622c5.813,18.29,22.922,32.209,43.15,32.209h102.4
	c20.228,0,37.344-13.919,43.158-32.224C324.08,17.542,290.572,0,253.275,0z"/>
<path style="fill:#11D3C0;" d="M290.462,293.006l-37.195-37.195l-37.203,37.195l-37.203-37.195l-20.834,20.834
	c-2.867,12.201-4.427,25.159-4.427,38.597c0,5.388,0.11,10.358,0.26,15.147l24.993-24.986l37.092,37.092l0.11-0.102l0.102,0.102
	l37.1-37.092l37.085,37.092l0.11-0.102l0.11,0.102l37.085-37.092l24.986,24.986c0.165-4.781,0.268-9.759,0.268-15.147
	c0-13.438-1.552-26.403-4.427-38.605l-20.834-20.827L290.462,293.006z"/>
<path style="fill:#05B8C1;" d="M327.656,278.465l-37.195,37.195l-37.195-37.195l-37.203,37.195l-37.203-37.195l-20.834,20.834
	c-2.261,9.618-3.671,19.716-4.175,30.137c0.008,0.315,0.016,0.646,0.016,0.961l24.993-24.986l37.092,37.092l0.11-0.102l0.102,0.102
	l37.1-37.092l37.085,37.092l0.11-0.102l0.11,0.102l37.085-37.092l24.986,24.986c0.008-0.315,0.008-0.646,0.024-0.961
	c-0.504-10.421-1.914-20.519-4.175-30.145L327.656,278.465z"/>
</svg>