<?xml version="1.0" encoding="iso-8859-1"?>
<!-- Uploaded to: SVG Repo, www.svgrepo.com, Generator: SVG Repo Mixer Tools -->
<svg height="800px" width="800px" version="1.1" id="Layer_1" xmlns="http://www.w3.org/2000/svg" xmlns:xlink="http://www.w3.org/1999/xlink" 
	 viewBox="0 0 504.123 504.123" xml:space="preserve">
<g>
	<path style="fill:#FF6700;" d="M241.073,203.768c10.027,11.28,3.663,33.296-14.218,49.215
		c-17.881,15.896-114.018,85.031-124.062,73.767c-10.012-11.296,69.892-98.706,87.773-114.601
		C208.431,196.246,231.046,192.496,241.073,203.768z"/>
	<path style="fill:#FF6700;" d="M263.05,203.768c-10.027,11.28-3.663,33.296,14.218,49.215
		c17.881,15.896,114.018,85.031,124.062,73.767c10.012-11.296-69.892-98.706-87.773-114.601
		C295.692,196.246,273.077,192.496,263.05,203.768z"/>
</g>
<g>
	<path style="fill:#FF4800;" d="M348.538,358.951c0,19.511-15.817,124.676-35.336,124.676c-19.495,0-35.304-105.173-35.304-124.676
		c0-19.495,15.817-35.32,35.304-35.32C332.721,323.631,348.538,339.464,348.538,358.951z"/>
	<path style="fill:#FF4800;" d="M228.218,361.905c0,19.511-15.817,124.676-35.336,124.676c-19.495,0-35.304-105.173-35.304-124.676
		c0-19.495,15.817-35.32,35.304-35.32C212.401,326.585,228.218,342.418,228.218,361.905z"/>
</g>
<path style="fill:#CE1111;" d="M351.705,315.242c0,126.322-44.599,84.259-99.643,84.259c-55.028,0-99.643,42.063-99.643-84.259
	c0-72.231,44.631-130.788,99.643-130.788C307.09,184.462,351.705,243.019,351.705,315.242z"/>
<path style="fill:#FF6700;" d="M351.705,315.242c0,126.322-44.599,84.259-99.643,84.259c-55.028,0-99.643,42.063-99.643-84.259
	c0-72.231,44.631-130.788,99.643-130.788C307.09,184.462,351.705,243.019,351.705,315.242z"/>
<path style="fill:#FF7900;" d="M252.062,184.462c-53.28,0-96.681,54.957-99.383,124.014c3.513,107.874,46.655,69.372,99.383,69.372
	c52.744,0,95.862,38.51,99.383-69.372C348.743,239.419,305.349,184.462,252.062,184.462z"/>
<path style="fill:#9B4E1B;" d="M232.629,487.219c0,14.935-17.802,16.904-39.739,16.904s-39.739-1.969-39.739-16.904
	c0-14.935,17.802-35.509,39.739-35.509S232.629,472.277,232.629,487.219z"/>
<path style="fill:#82370D;" d="M232.629,487.219c0,14.935-17.802,16.904-39.739,16.904s-39.739-1.969-39.739-16.904"/>
<path style="fill:#9B4E1B;" d="M350.988,487.219c0,14.935-17.802,16.904-39.739,16.904s-39.739-1.969-39.739-16.904
	c0-14.935,17.802-35.509,39.739-35.509S350.988,472.277,350.988,487.219z"/>
<path style="fill:#82370D;" d="M350.988,487.219c0,14.935-17.802,16.904-39.739,16.904s-39.739-1.969-39.739-16.904"/>
<path style="fill:#FF6700;" d="M173.088,235.725c21.835,11.059,49.191,16.691,78.99,16.691c29.783,0,57.139-5.632,78.966-16.691
	c-18.211-31.106-46.773-51.263-78.982-51.263C219.861,184.462,191.291,204.603,173.088,235.725z"/>
<path style="fill:#6D4A27;" d="M381.015,124.258c0,63-57.738,94.681-128.937,94.681c-71.215,0-128.969-31.673-128.969-94.681
	C123.108,61.227,180.862,0,252.077,0C323.277,0,381.015,61.227,381.015,124.258z"/>
<path style="fill:#F9A88F;" d="M381.015,124.258c0,63-57.738,94.681-128.937,94.681c-71.215,0-128.969-31.673-128.969-94.681
	c0-63.031,57.754-108.52,128.969-108.52C323.277,15.738,381.015,61.227,381.015,124.258z"/>
<path style="fill:#ED927A;" d="M381.015,124.258c0,63-57.738,94.681-128.937,94.681c-71.215,0-128.969-31.673-128.969-94.681"/>
<path style="fill:#777236;" d="M252.077,134.554c-53.429,0-107.15,25.198-126.716-10.295h-2.253c0,63,57.754,94.681,128.969,94.681
	c71.2,0,128.937-31.673,128.937-94.681h-2.253C359.188,159.752,305.483,134.554,252.077,134.554z"/>
<path style="fill:#66602A;" d="M252.077,201.862c-64.425,0-117.681-26.017-127.275-77.603h-1.694c0,63,57.754,94.681,128.969,94.681
	c71.2,0,128.937-31.673,128.937-94.681h-1.694C369.727,175.844,316.495,201.862,252.077,201.862z"/>
<circle style="fill:#113E49;" cx="190.748" cy="108.954" r="11.532"/>
<path d="M202.279,108.954c0,6.388-5.167,11.54-11.54,11.54c-6.372,0-11.524-5.152-11.524-11.54"/>
<path style="fill:#FFD3C5;" d="M213.496,133.018c-0.614,0-1.245-0.228-1.725-0.725c-5.632-5.616-13.107-8.72-21.047-8.72h-0.016
	c-7.94,0-15.399,3.111-21,8.72c-0.953,0.953-2.489,0.969-3.434,0c-0.953-0.922-0.985-2.458-0.031-3.419
	c6.538-6.538,15.218-10.153,24.458-10.153h0.016c9.263,0,17.951,3.584,24.505,10.138c0.937,0.937,0.937,2.505,0,3.434
	C214.756,132.781,214.142,133.018,213.496,133.018z"/>
<circle style="fill:#113E49;" cx="313.423" cy="108.954" r="11.532"/>
<path d="M301.859,108.954c0,6.388,5.151,11.54,11.54,11.54c6.372,0,11.524-5.152,11.524-11.54"/>
<path style="fill:#FFD3C5;" d="M290.643,133.018c0.599,0,1.229-0.228,1.709-0.725c5.632-5.616,13.107-8.72,21.047-8.72h0.016
	c7.94,0,15.415,3.111,21.016,8.72c0.937,0.953,2.473,0.969,3.434,0c0.953-0.922,0.969-2.458,0.016-3.419
	c-6.506-6.538-15.218-10.153-24.458-10.153h-0.016c-9.248,0-17.936,3.584-24.505,10.138c-0.922,0.937-0.922,2.505,0,3.434
	C289.382,132.781,289.997,133.018,290.643,133.018z"/>
<path style="fill:#777236;" d="M304.758,169.984c0,13.785-19.511,24.954-33.288,24.954h-38.849
	c-13.777,0-33.272-11.169-33.272-24.954l8.318-36.061c0-13.8,11.177-24.97,24.954-24.97h38.849c13.777,0,24.962,11.169,24.962,24.97
	L304.758,169.984z"/>
<path style="fill:#66602A;" d="M289.067,192.52c0,13.383-13.698,24.245-23.371,24.245h-27.286c-9.681,0-23.363-10.862-23.363-24.245
	l5.829-35.029c0-13.383,7.853-24.261,17.534-24.261h27.286c9.673,0,17.526,10.878,17.526,24.261L289.067,192.52z"/>
<path style="fill:#423C14;" d="M275.984,177.955c0,8.649-8.854,15.675-15.108,15.675h-17.636c-6.262,0-15.108-7.034-15.108-15.675
	l3.773-22.662c0-8.649,5.081-15.675,11.335-15.675h17.636c6.254,0,11.327,7.034,11.327,15.675L275.984,177.955z"/>
<path style="fill:#262109;" d="M260.876,139.618h-17.636c-6.262,0-11.335,7.034-11.335,15.675l-3.135,18.889
	c2.048,6.814,9.169,11.894,14.478,11.894h17.636c5.301,0,12.422-5.081,14.486-11.894l-3.151-18.889
	C272.211,146.645,267.13,139.618,260.876,139.618z"/>
<g>
	<path style="fill:#777236;" d="M238.765,180.019c-0.213,0.874-1.095,1.402-1.961,1.197l0,0c-0.866-0.213-1.394-1.095-1.182-1.969
		l7.404-30.2c0.213-0.874,1.095-1.402,1.961-1.182l0,0c0.866,0.213,1.402,1.079,1.174,1.953L238.765,180.019z"/>
	<path style="fill:#777236;" d="M265.342,180.019c0.221,0.874,1.103,1.402,1.969,1.197l0,0c0.866-0.213,1.394-1.095,1.182-1.969
		l-7.412-30.2c-0.213-0.874-1.087-1.402-1.953-1.182l0,0c-0.874,0.213-1.402,1.079-1.174,1.953L265.342,180.019z"/>
	<path style="fill:#777236;" d="M253.542,182.54c0,0.819-0.662,1.481-1.481,1.481l0,0c-0.819,0-1.481-0.662-1.481-1.481v-31.831
		c0-0.819,0.662-1.481,1.481-1.481l0,0c0.819,0,1.481,0.662,1.481,1.481V182.54z"/>
</g>
</svg>