<?xml version="1.0" encoding="iso-8859-1"?>
<!-- Uploaded to: SVG Repo, www.svgrepo.com, Generator: SVG Repo Mixer Tools -->
<svg version="1.1" id="Layer_1" xmlns="http://www.w3.org/2000/svg" xmlns:xlink="http://www.w3.org/1999/xlink" 
	 viewBox="0 0 504.123 504.123" xml:space="preserve">
<g>
	<path style="fill:#AF5145;" d="M263.05,280.631c-10.027-11.28-3.663-33.312,14.226-49.231
		c17.873-15.896,114.003-85.008,124.054-73.767c10.012,11.296-69.9,98.721-87.78,114.617
		C295.692,288.138,273.077,291.895,263.05,280.631z"/>
	<path style="fill:#AF5145;" d="M241.073,280.631c10.027-11.28,3.663-33.312-14.218-49.231
		c-17.881-15.896-114.026-85.008-124.062-73.767c-10.012,11.296,69.892,98.721,87.765,114.617S231.046,291.895,241.073,280.631z"/>
</g>
<g>
	<path style="fill:#1267CC;" d="M228.218,361.913c0,19.503-15.817,124.668-35.336,124.668c-19.495,0-35.304-105.173-35.304-124.668
		c0-19.495,15.817-35.32,35.304-35.32C212.401,326.593,228.218,342.418,228.218,361.913z"/>
	<path style="fill:#1267CC;" d="M346.569,361.913c0,19.503-15.809,124.668-35.336,124.668c-19.495,0-35.304-105.173-35.304-124.668
		c0-19.495,15.817-35.32,35.304-35.32C330.76,326.593,346.569,342.418,346.569,361.913z"/>
</g>
<path style="fill:#9B3F38;" d="M351.705,315.242c0,126.33-44.599,84.259-99.643,84.259c-55.028,0-99.643,42.071-99.643-84.259
	c0-72.231,44.631-130.781,99.643-130.781C307.09,184.47,351.705,243.019,351.705,315.242z"/>
<path style="fill:#AF5145;" d="M252.062,184.47c-51.665,0-94.153,51.633-99.147,117.729c5.025,99.895,47.498,62.85,99.147,62.85
	c51.665,0,94.121,37.045,99.139-62.85C346.214,236.103,303.742,184.47,252.062,184.47z"/>
<path style="fill:#3D3C39;" d="M257.481,365.458c0,2.993-2.426,5.419-5.419,5.419l0,0c-3.001,0-5.419-2.426-5.419-5.419V238.442
	c0-2.993,2.418-5.419,5.419-5.419l0,0c2.993,0,5.419,2.426,5.419,5.419V365.458z"/>
<ellipse style="fill:#990707;" cx="252.062" cy="202.831" rx="69.585" ry="45.292"/>
<path style="fill:#3D3C39;" d="M232.629,487.219c0,14.935-17.802,16.904-39.739,16.904s-39.747-1.961-39.747-16.904
	c0-14.943,17.81-35.509,39.747-35.509S232.629,472.277,232.629,487.219z"/>
<path style="fill:#1C1B1A;" d="M232.629,487.219c0,14.935-17.802,16.904-39.739,16.904s-39.747-1.961-39.747-16.904"/>
<path style="fill:#3D3C39;" d="M350.98,487.219c0,14.935-17.794,16.904-39.731,16.904s-39.739-1.961-39.739-16.904
	c0-14.943,17.802-35.509,39.739-35.509S350.98,472.277,350.98,487.219z"/>
<path style="fill:#1C1B1A;" d="M350.98,487.219c0,14.935-17.794,16.904-39.731,16.904s-39.739-1.961-39.739-16.904"/>
<path style="fill:#EFC286;" d="M381.015,124.258c0,63.008-57.746,94.681-128.937,94.681c-71.215,0-128.969-31.673-128.969-94.681
	C123.108,61.235,180.862,0,252.077,0C323.269,0,381.015,61.235,381.015,124.258z"/>
<path style="fill:#E8B374;" d="M381.015,124.258c0,63.008-57.746,94.681-128.937,94.681c-71.215,0-128.969-31.673-128.969-94.681"/>
<g>
	<path style="fill:#232728;" d="M213.496,109.71c-0.622,0-1.245-0.221-1.725-0.717c-5.632-5.624-13.107-8.72-21.047-8.72h-0.016
		c-7.94,0-15.399,3.104-21,8.712c-0.953,0.953-2.489,0.977-3.442,0.008c-0.945-0.922-0.977-2.458-0.024-3.419
		c6.538-6.546,15.218-10.161,24.458-10.161h0.016c9.263,0,17.944,3.592,24.513,10.145c0.922,0.937,0.922,2.505,0,3.434
		C214.756,109.481,214.142,109.71,213.496,109.71z"/>
	<path style="fill:#232728;" d="M290.643,109.71c0.591,0,1.213-0.221,1.717-0.717c5.624-5.624,13.099-8.72,21.039-8.72h0.008
		c7.948,0,15.423,3.104,21.016,8.712c0.937,0.953,2.465,0.977,3.434,0.008c0.961-0.922,0.977-2.458,0.024-3.419
		c-6.506-6.546-15.218-10.161-24.466-10.161h-0.008c-9.248,0-17.944,3.592-24.513,10.145c-0.922,0.937-0.922,2.505,0,3.434
		C289.382,109.481,289.997,109.71,290.643,109.71z"/>
</g>
<path style="fill:#870E0E;" d="M280.481,127.086c0,19.803-12.737,35.879-28.42,35.879c-15.691,0-28.436-16.077-28.436-35.879
	c0-19.834,12.745-7.987,28.436-7.987C267.745,119.099,280.481,107.252,280.481,127.086z"/>
<path style="fill:#AA1111;" d="M252.046,133.979c-9.311,0-17.495,5.742-22.693,14.486c5.199,8.759,13.391,14.501,22.709,14.501
	c9.318,0,17.518-5.742,22.701-14.486C269.58,139.721,261.38,133.979,252.046,133.979z"/>
<path style="fill:#CE1111;" d="M134.144,76.469h235.835C349.964,33.532,304.727,0,252.077,0
	C199.404,0,154.175,33.532,134.144,76.469z"/>
<path style="fill:#1267CC;" d="M252.077,0c-44.56,0-83.732,24.04-106.89,57.431h213.756C335.793,24.04,296.621,0,252.077,0z"/>
<path style="fill:#2186EA;" d="M252.077,0c-44.56,0-83.732,24.04-106.89,57.431"/>
<g>
	<rect x="247.524" style="fill:#CE1111;" width="9.09" height="31.193"/>
	
		<rect x="247.525" y="0.006" transform="matrix(-0.7067 -0.7075 0.7075 -0.7067 419.169 204.9526)" style="fill:#CE1111;" width="9.082" height="31.177"/>
	<rect x="236.473" y="11.043" style="fill:#CE1111;" width="31.169" height="9.09"/>
	
		<rect x="247.481" y="-0.001" transform="matrix(0.7088 -0.7054 0.7054 0.7088 62.4028 182.3188)" style="fill:#CE1111;" width="9.098" height="31.153"/>
	<circle style="fill:#CE1111;" cx="110.277" cy="157.397" r="16.242"/>
	<circle style="fill:#CE1111;" cx="393.846" cy="157.397" r="16.242"/>
</g>
<g>
	<circle style="fill:#3D3C39;" cx="227.32" cy="267.981" r="4.758"/>
	<circle style="fill:#3D3C39;" cx="227.32" cy="304.601" r="4.758"/>
	<circle style="fill:#3D3C39;" cx="227.32" cy="341.165" r="4.758"/>
</g>
</svg>