<?xml version="1.0" encoding="iso-8859-1"?>
<!-- Uploaded to: SVG Repo, www.svgrepo.com, Generator: SVG Repo Mixer Tools -->
<svg height="800px" width="800px" version="1.1" id="Layer_1" xmlns="http://www.w3.org/2000/svg" xmlns:xlink="http://www.w3.org/1999/xlink" 
	 viewBox="0 0 504.123 504.123" xml:space="preserve">
<g>
	<path style="fill:#26BC30;" d="M263.05,280.631c-10.027-11.28-3.663-33.312,14.218-49.231
		c17.881-15.896,114.018-85.016,124.062-73.767c10.012,11.296-69.892,98.721-87.773,114.617
		C295.692,288.138,273.078,291.895,263.05,280.631z"/>
	<path style="fill:#26BC30;" d="M241.074,280.631c10.027-11.28,3.663-33.312-14.218-49.231
		c-17.881-15.896-114.018-85.016-124.062-73.767c-10.012,11.296,69.892,98.721,87.773,114.617
		C208.432,288.138,231.046,291.895,241.074,280.631z"/>
</g>
<g>
	<path style="fill:#D39959;" d="M168.582,188.731c-29.783-19.779-60.353-37.179-65.788-31.098
		c-5.293,5.963,14.517,33.178,37.006,59.872L168.582,188.731z"/>
	<path style="fill:#D39959;" d="M366.884,214.426c21.402-25.679,39.526-51.058,34.438-56.793
		c-5.23-5.845-33.713,10.035-62.377,28.853L366.884,214.426z"/>
</g>
<g>
	<path style="fill:#9B4308;" d="M228.219,361.913c0,19.503-15.817,124.668-35.336,124.668c-19.495,0-35.304-105.173-35.304-124.668
		c0-19.495,15.817-35.32,35.304-35.32C212.402,326.593,228.219,342.418,228.219,361.913z"/>
	<path style="fill:#9B4308;" d="M346.569,361.913c0,19.503-15.817,124.668-35.336,124.668c-19.495,0-35.304-105.173-35.304-124.668
		c0-19.495,15.817-35.32,35.304-35.32C330.753,326.593,346.569,342.418,346.569,361.913z"/>
</g>
<path style="fill:#0EA012;" d="M351.705,315.242c0,126.33-44.599,84.259-99.643,84.259c-55.028,0-99.643,42.071-99.643-84.259
	c0-72.231,44.631-130.781,99.643-130.781C307.09,184.47,351.705,243.019,351.705,315.242z"/>
<path style="fill:#26BC30;" d="M252.062,184.47c-52.405,0-95.295,53.153-99.257,120.627c4.348,103.526,47.104,65.851,99.257,65.851
	c52.161,0,94.917,37.667,99.249-65.851C347.365,237.623,304.483,184.47,252.062,184.47z"/>
<path style="fill:#262626;" d="M232.63,487.219c0,14.935-17.802,16.904-39.739,16.904s-39.739-1.961-39.739-16.904
	c0-14.943,17.802-35.509,39.739-35.509S232.63,472.277,232.63,487.219z"/>
<path d="M232.63,487.219c0,14.935-17.802,16.904-39.739,16.904s-39.739-1.961-39.739-16.904"/>
<path style="fill:#262626;" d="M350.988,487.219c0,14.935-17.802,16.904-39.739,16.904s-39.739-1.961-39.739-16.904
	c0-14.943,17.802-35.509,39.739-35.509S350.988,472.277,350.988,487.219z"/>
<path d="M350.988,487.219c0,14.935-17.802,16.904-39.739,16.904s-39.739-1.961-39.739-16.904"/>
<path style="fill:#EFC286;" d="M381.015,124.258c0,63.008-57.738,94.681-128.937,94.681c-71.215,0-128.969-31.673-128.969-94.681
	C123.109,61.235,180.863,0,252.078,0C323.277,0,381.015,61.235,381.015,124.258z"/>
<path style="fill:#E8B374;" d="M381.015,124.258c0,63.008-57.738,94.681-128.937,94.681c-71.215,0-128.969-31.673-128.969-94.681"/>
<g>
	<path style="fill:#232728;" d="M235.702,92.798c-0.599,0-1.237-0.221-1.733-0.717c-5.616-5.624-13.099-8.72-21.031-8.72h-0.016
		c-7.948,0-15.399,3.104-21,8.712c-0.953,0.953-2.489,0.977-3.426,0.008c-0.969-0.922-0.985-2.458-0.047-3.419
		c6.546-6.546,15.218-10.161,24.466-10.161h0.016c9.255,0,17.952,3.592,24.505,10.145c0.945,0.937,0.945,2.505,0,3.434
		C236.97,92.577,236.34,92.798,235.702,92.798z"/>
	<path style="fill:#232728;" d="M312.864,92.798c0.599,0,1.221-0.221,1.709-0.717c5.632-5.624,13.107-8.72,21.039-8.72h0.024
		c7.94,0,15.415,3.104,21.016,8.712c0.937,0.953,2.465,0.977,3.434,0.008c0.953-0.922,0.969-2.458,0.016-3.419
		c-6.498-6.546-15.218-10.161-24.458-10.161h-0.024c-9.24,0-17.928,3.592-24.497,10.145c-0.922,0.937-0.922,2.505,0,3.434
		C311.596,92.577,312.218,92.798,312.864,92.798z"/>
</g>
<path style="fill:#840909;" d="M302.49,112.9c0,8.696-7.058,15.754-15.754,15.754h-15.754c-8.704,0-15.754-7.058-15.754-15.754
	v-2.954c0-8.696,7.05-15.754,15.754-15.754h15.754c8.696,0,15.754,7.058,15.754,15.754V112.9z"/>
<path style="fill:#AA1111;" d="M270.982,107.323c-6.916,0-12.721,4.474-14.848,10.665c2.127,6.183,7.932,10.665,14.848,10.665
	h15.754c6.9,0,12.705-4.474,14.832-10.665c-2.127-6.191-7.932-10.665-14.832-10.665H270.982z"/>
<path style="fill:#840909;" d="M252.078,0c-52.523,0-97.634,33.343-117.752,76.107l0.126,1.355h29.538V43.985h103.062V20.354
	L289.698,43h57.691C323.797,17.361,289.895,0,252.078,0z"/>
<g>
	<polygon style="fill:#00FF06;" points="318.851,307.31 289.706,278.166 281.12,286.751 270.384,276.015 256.276,290.123 
		228.061,261.908 182.659,307.31 308.894,307.31 	"/>
	<path style="fill:#00FF06;" d="M313.888,313.336H187.629c-0.591,0-1.079,0.473-1.079,1.063c0,0.583,0.488,1.063,1.079,1.063H313.88
		c0.591,0,1.071-0.48,1.071-1.063C314.951,313.809,314.479,313.336,313.888,313.336z"/>
	<path style="fill:#00FF06;" d="M292.597,320.433h-83.692c-0.591,0-1.063,0.473-1.063,1.063c0,0.583,0.473,1.063,1.063,1.063h83.692
		c0.583,0,1.071-0.48,1.071-1.063C293.668,320.898,293.188,320.433,292.597,320.433z"/>
	<path style="fill:#00FF06;" d="M281.971,327.522h-62.425c-0.591,0-1.071,0.473-1.071,1.063c0,0.583,0.48,1.063,1.071,1.063h62.425
		c0.583,0,1.063-0.48,1.063-1.063C283.034,327.995,282.554,327.522,281.971,327.522z"/>
	<path style="fill:#00FF06;" d="M271.321,334.612H230.18c-0.583,0-1.063,0.473-1.063,1.063c0,0.583,0.48,1.063,1.063,1.063h41.141
		c0.583,0,1.063-0.48,1.063-1.063C272.385,335.084,271.912,334.612,271.321,334.612z"/>
</g>
</svg>