<?xml version="1.0" encoding="iso-8859-1"?>
<!-- Uploaded to: SVG Repo, www.svgrepo.com, Generator: SVG Repo Mixer Tools -->
<svg height="800px" width="800px" version="1.1" id="Layer_1" xmlns="http://www.w3.org/2000/svg" xmlns:xlink="http://www.w3.org/1999/xlink" 
	 viewBox="0 0 504.123 504.123" xml:space="preserve">
<g>
	<polygon style="fill:#0A9B0A;" points="365.379,64.654 399.344,56.288 393.933,86.315 366.364,76.469 357.99,69.577 	"/>
	<polygon style="fill:#0A9B0A;" points="356.959,55.572 373.453,24.718 392.153,48.821 366.403,62.74 355.682,64.354 	"/>
</g>
<g>
	<path style="fill:#D39B5E;" d="M263.05,280.631c-10.027-11.28-3.663-33.312,14.218-49.231
		c17.881-15.896,114.018-85.016,124.062-73.767c10.012,11.296-69.892,98.721-87.773,114.617
		C295.692,288.138,273.077,291.895,263.05,280.631z"/>
	<path style="fill:#D39B5E;" d="M241.073,280.631c10.027-11.28,3.663-33.312-14.218-49.231
		c-17.881-15.896-114.018-85.016-124.062-73.767c-10.012,11.296,69.892,98.721,87.773,114.617
		C208.431,288.138,231.046,291.895,241.073,280.631z"/>
</g>
<g>
	<path style="fill:#70797A;" d="M228.218,361.913c0,19.503-15.817,124.668-35.336,124.668c-19.495,0-35.304-105.173-35.304-124.668
		c0-19.495,15.817-35.32,35.304-35.32C212.401,326.593,228.218,342.418,228.218,361.913z"/>
	<path style="fill:#70797A;" d="M346.569,361.913c0,19.503-15.817,124.668-35.336,124.668c-19.495,0-35.304-105.173-35.304-124.668
		c0-19.495,15.817-35.32,35.304-35.32C330.752,326.593,346.569,342.418,346.569,361.913z"/>
</g>
<path style="fill:#0A9B0A;" d="M351.705,315.242c0,126.33-44.599,84.259-99.643,84.259c-55.028,0-99.643,42.071-99.643-84.259
	c0-72.231,44.631-130.781,99.643-130.781C307.09,184.47,351.705,243.019,351.705,315.242z"/>
<path style="fill:#13BF13;" d="M252.062,184.47c-52.783,0-95.886,53.925-99.312,122.077c4.001,105.385,46.923,67.363,99.312,67.363
	c52.397,0,95.311,38.022,99.312-67.363C347.947,238.395,304.845,184.47,252.062,184.47z"/>
<path style="fill:#FFCE00;" d="M232.629,487.219c0,14.935-17.802,16.904-39.739,16.904s-39.739-1.961-39.739-16.904
	c0-14.943,17.802-35.509,39.739-35.509S232.629,472.277,232.629,487.219z"/>
<path style="fill:#EAA10F;" d="M232.629,487.219c0,14.935-17.802,16.904-39.739,16.904s-39.739-1.961-39.739-16.904"/>
<path style="fill:#FFCE00;" d="M350.988,487.219c0,14.935-17.802,16.904-39.739,16.904s-39.739-1.961-39.739-16.904
	c0-14.943,17.802-35.509,39.739-35.509S350.988,472.277,350.988,487.219z"/>
<path style="fill:#EAA10F;" d="M350.988,487.219c0,14.935-17.802,16.904-39.739,16.904s-39.739-1.961-39.739-16.904"/>
<path style="fill:#EFC286;" d="M381.015,124.258c0,63.008-57.738,94.681-128.937,94.681c-71.215,0-128.969-31.673-128.969-94.681
	C123.108,61.235,180.862,0,252.077,0C323.277,0,381.015,61.235,381.015,124.258z"/>
<path style="fill:#232728;" d="M141.714,62.685h220.696C339.842,26.585,298.921,0,252.077,0
	C205.202,0,164.297,26.585,141.714,62.685z"/>
<path style="fill:#E8B374;" d="M381.015,124.258c0,63.008-57.738,94.681-128.937,94.681c-71.215,0-128.969-31.673-128.969-94.681"/>
<g>
	<path style="fill:#232728;" d="M213.496,107.898c-0.614,0-1.245-0.221-1.725-0.717c-5.632-5.616-13.107-8.72-21.047-8.72h-0.016
		c-7.94,0-15.399,3.104-21,8.712c-0.953,0.953-2.489,0.977-3.434,0.008c-0.953-0.922-0.985-2.458-0.031-3.419
		c6.538-6.546,15.218-10.161,24.458-10.161h0.016c9.263,0,17.951,3.592,24.505,10.145c0.937,0.937,0.937,2.505,0,3.434
		C214.756,107.678,214.142,107.898,213.496,107.898z"/>
	<path style="fill:#232728;" d="M290.643,107.898c0.599,0,1.229-0.221,1.709-0.717c5.632-5.616,13.107-8.72,21.047-8.72h0.016
		c7.94,0,15.415,3.104,21.016,8.712c0.937,0.953,2.473,0.977,3.434,0.008c0.953-0.922,0.969-2.458,0.016-3.419
		c-6.506-6.546-15.218-10.161-24.458-10.161h-0.016c-9.248,0-17.936,3.592-24.505,10.145c-0.922,0.937-0.922,2.505,0,3.434
		C289.382,107.678,289.997,107.898,290.643,107.898z"/>
</g>
<path style="fill:#13BF13;" d="M131.686,67.466h240.742c-1.189-2.127-2.45-4.214-3.765-6.27H135.467
	C134.144,63.252,132.876,65.339,131.686,67.466z"/>
<path style="fill:#232728;" d="M276.11,128.567c-9.011-8.925-18.243-5.341-24.048-1.268c-5.79-4.072-15.037-7.656-24.048,1.268
	c-24.119,23.875-55.375,24.371-56.69,10.587c0,0,3.356,32.902,52.752,5.908c0,0,19.936-12.304,24.371-6.396
	c0,0,0.016,0.024,0.032,0.031c0.922,1.528,2.127,2.678,3.584,2.568c1.465,0.11,2.662-1.04,3.584-2.568
	c0.016-0.008,0.016-0.016,0.032-0.031c4.427-5.908,24.371,6.396,24.371,6.396c49.396,26.994,52.752-5.908,52.752-5.908
	C331.477,152.938,300.229,152.45,276.11,128.567z"/>
<g>
	<path style="fill:#FFCE00;" d="M252.069,286.578c-9.964,0-18.015,8.05-18.015,17.999c0,9.941,8.05,17.991,18.015,17.991
		c9.925,0,17.983-8.05,17.983-17.991C270.052,294.628,261.994,286.578,252.069,286.578z M252.069,317.401
		c-7.073,0-12.855-5.75-12.855-12.824c0-7.073,5.774-12.832,12.855-12.832c7.058,0,12.816,5.75,12.816,12.832
		C264.885,311.643,259.127,317.401,252.069,317.401z"/>
	<path style="fill:#FFCE00;" d="M252.069,273.187c-17.353,0-31.397,14.052-31.397,31.39c0,17.329,14.045,31.39,31.397,31.39
		c17.321,0,31.39-14.06,31.39-31.39C283.459,287.24,269.391,273.187,252.069,273.187z M252.069,330.799
		c-14.462,0-26.238-11.768-26.238-26.222c0-14.462,11.776-26.222,26.238-26.222c14.438,0,26.214,11.76,26.214,26.222
		C278.284,319.031,266.508,330.799,252.069,330.799z"/>
	<path style="fill:#FFCE00;" d="M252.069,260.836c-24.174,0-43.756,19.574-43.756,43.741c0,24.143,19.574,43.741,43.756,43.741
		c24.151,0,43.717-19.59,43.717-43.741C295.786,280.418,276.22,260.836,252.069,260.836z M252.069,343.142
		c-21.283,0-38.581-17.306-38.581-38.565c0-21.268,17.298-38.565,38.581-38.565c21.26,0,38.558,17.298,38.558,38.565
		C290.627,325.837,273.329,343.142,252.069,343.142z"/>
	<path style="fill:#FFCE00;" d="M252.069,249.431c-30.46,0-55.162,24.694-55.162,55.146c0,30.452,24.702,55.138,55.162,55.138
		c30.436,0,55.138-24.686,55.138-55.138C307.208,274.125,282.506,249.431,252.069,249.431z M252.069,354.548
		c-27.569,0-49.987-22.418-49.987-49.971c0-27.553,22.418-49.979,49.987-49.979c27.538,0,49.971,22.426,49.971,49.979
		C302.041,332.13,279.607,354.548,252.069,354.548z"/>
</g>
</svg>