<?xml version="1.0" encoding="iso-8859-1"?>
<!-- Uploaded to: SVG Repo, www.svgrepo.com, Generator: SVG Repo Mixer Tools -->
<svg version="1.1" id="Layer_1" xmlns="http://www.w3.org/2000/svg" xmlns:xlink="http://www.w3.org/1999/xlink" 
	 viewBox="0 0 503.028 503.028" xml:space="preserve">
<g>
	<path style="fill:#49BF11;" d="M256.02,242.389c-0.859,14.816-20.59,25.695-44.119,24.348
		c-23.481-1.394-138.468-20.173-137.618-34.989c0.89-14.816,117.295-20.047,140.776-18.653
		C238.549,214.449,256.894,227.564,256.02,242.389z"/>
	<path style="fill:#49BF11;" d="M247.001,236.268c0.859-14.816,20.598-25.702,44.134-24.355
		c23.473,1.394,138.453,20.181,137.61,34.989c-0.874,14.816-117.28,20.055-140.776,18.66
		C264.48,264.208,246.126,251.085,247.001,236.268z"/>
</g>
<g>
	<path style="fill:#21367C;" d="M229.238,363.142c0,19.18-15.565,122.636-34.769,122.636c-19.172,0-34.729-103.463-34.729-122.636
		c0-19.196,15.565-34.745,34.729-34.745C213.673,328.397,229.238,343.946,229.238,363.142z"/>
	<path style="fill:#21367C;" d="M345.667,363.142c0,19.18-15.565,122.636-34.769,122.636c-19.172,0-34.729-103.463-34.729-122.636
		c0-19.196,15.565-34.745,34.729-34.745C330.11,328.397,345.667,343.946,345.667,363.142z"/>
</g>
<path style="fill:#49BF11;" d="M350.724,317.227c0,124.282-43.874,82.889-98.028,82.889c-54.13,0-98.02,41.393-98.02-82.889
	c0-71.058,43.906-128.646,98.02-128.646C306.826,188.581,350.724,246.162,350.724,317.227z"/>
<path style="fill:#1AAA0B;" d="M179.684,231.597c20.661,9.381,45.812,14.131,73.027,14.131c27.199,0,52.342-4.75,73.003-14.131
	c-17.952-26.356-43.969-43.016-73.019-43.016C223.653,188.581,197.652,205.241,179.684,231.597z"/>
<path style="fill:#232221;" d="M233.586,486.416c0,14.69-17.518,16.612-39.101,16.612c-21.575,0-39.093-1.922-39.093-16.612
	c0-14.714,17.518-34.934,39.093-34.934C216.068,451.489,233.586,471.702,233.586,486.416z"/>
<path style="fill:#0F0E0D;" d="M233.586,486.416c0,14.69-17.518,16.612-39.101,16.612c-21.575,0-39.093-1.922-39.093-16.612"/>
<path style="fill:#232221;" d="M350.007,486.416c0,14.69-17.51,16.612-39.093,16.612c-21.575,0-39.093-1.922-39.093-16.612
	c0-14.714,17.518-34.934,39.093-34.934C332.497,451.489,350.007,471.702,350.007,486.416z"/>
<path style="fill:#0F0E0D;" d="M350.007,486.416c0,14.69-17.51,16.612-39.093,16.612c-21.575,0-39.093-1.922-39.093-16.612"/>
<g>
	<path style="fill:#F9A9A0;" d="M379.554,129.339c0,61.991-56.8,93.137-126.85,93.137c-70.057,0-126.866-31.145-126.866-93.137
		c0-61.984,56.816-122.242,126.866-122.242C322.753,7.105,379.554,67.356,379.554,129.339z"/>
	<path style="fill:#F9A9A0;" d="M379.554,129.339c0,61.991-56.8,93.137-126.85,93.137c-70.057,0-126.866-31.145-126.866-93.137
		c0-61.984,56.816-71.223,126.866-71.223C322.753,58.116,379.554,67.356,379.554,129.339z"/>
</g>
<path style="fill:#FF9997;" d="M379.554,129.339c0,61.991-56.8,93.137-126.85,93.137c-70.057,0-126.866-31.145-126.866-93.137"/>
<circle style="fill:#113E49;" cx="186.884" cy="118.075" r="11.343"/>
<path d="M198.227,118.075c0,6.278-5.088,11.343-11.343,11.343c-6.27,0-11.335-5.073-11.335-11.343"/>
<path style="fill:#FFD3C5;" d="M209.27,141.737c-0.607,0-1.229-0.228-1.701-0.717c-5.537-5.522-12.895-8.578-20.701-8.578h-0.024
	c-7.798,0-15.147,3.056-20.653,8.578c-0.937,0.937-2.458,0.953-3.387,0c-0.929-0.906-0.953-2.426-0.016-3.363
	c6.428-6.428,14.958-9.988,24.056-9.988h0.024c9.106,0,17.652,3.521,24.103,9.98c0.922,0.922,0.922,2.458,0,3.371
	C210.507,141.509,209.9,141.737,209.27,141.737z"/>
<path style="fill:#113E49;" d="M296.2,118.075c0,6.278,5.065,11.343,11.351,11.343c6.262,0,11.327-5.073,11.327-11.343
	c0-6.254-5.073-11.335-11.327-11.335C301.257,106.732,296.2,111.821,296.2,118.075z"/>
<path d="M296.2,118.075c0,6.278,5.065,11.343,11.351,11.343c6.262,0,11.327-5.073,11.327-11.343"/>
<path style="fill:#FFD3C5;" d="M285.164,141.737c0.575,0,1.197-0.228,1.678-0.717c5.537-5.522,12.895-8.578,20.708-8.578h0.024
	c7.798,0,15.155,3.056,20.669,8.578c0.906,0.937,2.426,0.953,3.363,0c0.945-0.906,0.961-2.426,0.024-3.363
	c-6.396-6.428-14.966-9.988-24.056-9.988h-0.024c-9.098,0-17.652,3.521-24.119,9.98c-0.906,0.922-0.906,2.458,0,3.371
	C283.92,141.509,284.526,141.737,285.164,141.737z"/>
<polygon style="fill:#232221;" points="257.17,226.981 268.883,345.773 250.167,359.353 231.444,345.773 243.18,226.981 "/>
<polyline style="fill:#0F0E0D;" points="243.18,226.981 257.17,226.981 268.883,345.773 250.167,359.353 "/>
<g>
	<path style="fill:#824323;" d="M189.034,163.706c-25.624,0-46.49-20.858-46.49-46.497s20.866-46.49,46.49-46.49
		c25.655,0,46.49,20.85,46.49,46.49S214.69,163.706,189.034,163.706z M189.034,86.213c-17.085,0-30.996,13.895-30.996,30.996
		c0,17.093,13.911,31.004,30.996,31.004c17.101,0,31.004-13.911,31.004-31.004C220.038,100.1,206.135,86.213,189.034,86.213z"/>
	<path style="fill:#824323;" d="M149.335,124.96h-22.591c-4.285,0-7.743-3.466-7.743-7.751c0-4.277,3.458-7.743,7.743-7.743h22.591
		c4.285,0,7.751,3.466,7.751,7.743C157.093,121.486,153.62,124.96,149.335,124.96z"/>
	<path style="fill:#824323;" d="M308.842,163.706c-25.655,0-46.49-20.858-46.49-46.497s20.842-46.49,46.49-46.49
		c25.624,0,46.49,20.85,46.49,46.49S334.466,163.706,308.842,163.706z M308.842,86.213c-17.101,0-31.004,13.895-31.004,30.996
		c0,17.093,13.903,31.004,31.004,31.004c17.085,0,30.996-13.911,30.996-31.004C339.838,100.1,325.927,86.213,308.842,86.213z"/>
	<path style="fill:#824323;" d="M376.954,124.96h-22.599c-4.285,0-7.743-3.466-7.743-7.751c0-4.277,3.458-7.743,7.743-7.743h22.599
		c4.293,0,7.743,3.466,7.743,7.743C384.697,121.486,381.247,124.96,376.954,124.96z"/>
	<rect x="227.513" y="106.583" style="fill:#824323;" width="46.49" height="15.502"/>
</g>
<g>
	<path style="fill:#706561;" d="M226.694,40.204c0,1.875-1.505,3.395-3.387,3.395l0,0c-1.875,0-3.395-1.512-3.395-3.395V11.138
		c0-1.875,1.512-3.395,3.395-3.395l0,0c1.875,0,3.387,1.512,3.387,3.395V40.204z"/>
	<path style="fill:#706561;" d="M241.392,36.328c0,1.875-1.512,3.395-3.395,3.395l0,0c-1.875,0-3.395-1.512-3.395-3.395V7.27
		c0-1.875,1.512-3.395,3.395-3.395l0,0c1.875,0,3.395,1.512,3.395,3.395V36.328z"/>
	<path style="fill:#706561;" d="M256.083,32.445c0,1.875-1.512,3.395-3.395,3.395l0,0c-1.875,0-3.387-1.512-3.387-3.395V3.395
		c0-1.875,1.505-3.395,3.387-3.395l0,0c1.875,0,3.395,1.512,3.395,3.395V32.445z"/>
	<path style="fill:#706561;" d="M270.781,36.328c0,1.875-1.512,3.395-3.395,3.395l0,0c-1.875,0-3.395-1.512-3.395-3.395V7.27
		c0-1.875,1.512-3.395,3.395-3.395l0,0c1.875,0,3.395,1.512,3.395,3.395V36.328z"/>
	<path style="fill:#706561;" d="M285.479,40.204c0,1.875-1.512,3.395-3.395,3.395l0,0c-1.875,0-3.387-1.512-3.387-3.395V11.138
		c0-1.875,1.504-3.395,3.387-3.395l0,0c1.875,0,3.395,1.512,3.395,3.395V40.204z"/>
</g>
</svg>