<?xml version="1.0" encoding="iso-8859-1"?>
<!-- Uploaded to: SVG Repo, www.svgrepo.com, Generator: SVG Repo Mixer Tools -->
<svg version="1.1" id="Layer_1" xmlns="http://www.w3.org/2000/svg" xmlns:xlink="http://www.w3.org/1999/xlink" 
	 viewBox="0 0 504.123 504.123" xml:space="preserve">
<path style="fill:#9AB7AF;" d="M126.025,241.979c2.316-0.008,4.198,1.875,4.191,4.191l0,0c0,2.324-1.875,4.198-4.191,4.198H53.321
	c-2.308,0-4.167-1.875-4.167-4.198l0,0c-0.016-2.316,1.867-4.198,4.167-4.191H126.025z"/>
<g>
	<rect x="77.566" y="241.979" style="fill:#86A39A;" width="19.803" height="8.389"/>
	<path style="fill:#86A39A;" d="M53.321,250.368l7.16-0.008v-8.381h-7.16c-0.811,0-1.512,0.284-2.158,0.693v7.003
		C51.8,250.069,52.517,250.36,53.321,250.368z"/>
</g>
<path style="fill:#B1C9C2;" d="M50.532,236.615c2.576,0,4.647,2.095,4.663,4.663v9.783c0,2.576-2.087,4.663-4.663,4.663l0,0
	c-2.568,0-4.663-2.095-4.663-4.663v-9.783C45.869,238.702,47.948,236.615,50.532,236.615L50.532,236.615z"/>
<g>
	<path style="fill:#9AB7AF;" d="M50.532,236.615L50.532,236.615c2.576,0,4.647,2.095,4.663,4.663v9.783
		c0,2.576-2.087,4.663-4.663,4.663l0,0"/>
	<path style="fill:#9AB7AF;" d="M126.025,215.647c2.316,0,4.191,1.875,4.198,4.191l0,0c-0.008,2.324-1.883,4.191-4.198,4.191H53.321
		c-2.3,0-4.167-1.875-4.183-4.191l0,0c0.016-2.316,1.875-4.191,4.183-4.191H126.025z"/>
</g>
<g>
	<rect x="77.558" y="215.647" style="fill:#86A39A;" width="19.818" height="8.381"/>
	<path style="fill:#86A39A;" d="M53.321,224.028h7.16v-8.381h-7.16c-0.811,0-1.512,0.291-2.158,0.693v7.003
		C51.8,223.736,52.509,224.028,53.321,224.028z"/>
</g>
<path style="fill:#B1C9C2;" d="M50.532,210.29c2.576-0.008,4.663,2.079,4.663,4.663v9.775c0,2.576-2.087,4.663-4.663,4.671l0,0
	c-2.584,0-4.663-2.095-4.663-4.671v-9.775C45.869,212.37,47.948,210.282,50.532,210.29L50.532,210.29z"/>
<g>
	<path style="fill:#9AB7AF;" d="M50.532,210.29L50.532,210.29c2.576-0.008,4.663,2.079,4.663,4.663v9.775
		c0,2.576-2.087,4.663-4.663,4.671l0,0"/>
	<path style="fill:#9AB7AF;" d="M126.025,189.322c2.316-0.008,4.191,1.875,4.191,4.183l0,0c0.008,2.324-1.875,4.198-4.191,4.198
		H53.321c-2.308,0-4.183-1.875-4.167-4.198l0,0c0-2.308,1.867-4.191,4.167-4.191L126.025,189.322z"/>
</g>
<g>
	<rect x="77.558" y="189.322" style="fill:#86A39A;" width="19.81" height="8.381"/>
	<path style="fill:#86A39A;" d="M53.321,197.711h7.16v-8.381l-7.16-0.008c-0.803,0.008-1.52,0.291-2.158,0.701v7.003
		C51.8,197.411,52.509,197.711,53.321,197.711z"/>
</g>
<path style="fill:#B1C9C2;" d="M50.532,183.958c2.576-0.008,4.663,2.087,4.647,4.655l0.016,9.783c0,2.576-2.087,4.663-4.663,4.663
	l0,0c-2.568,0-4.663-2.087-4.663-4.655v-9.791C45.869,186.045,47.964,183.958,50.532,183.958L50.532,183.958z"/>
<path style="fill:#9AB7AF;" d="M50.532,183.958L50.532,183.958c2.576-0.008,4.663,2.087,4.647,4.655l0.016,9.783
	c0,2.576-2.087,4.663-4.663,4.663l0,0"/>
<path style="fill:#D18D05;" d="M78.96,172.276c0-2.804,2.269-5.088,5.088-5.088h22.441c2.804,0,5.088,2.276,5.088,5.088
	l-0.008,94.035c0,2.804-2.276,5.081-5.088,5.089l-22.441-0.008c-2.812,0-5.096-2.269-5.096-5.081L78.96,172.276 M67.775,172.276
	v94.035c0,8.972,7.31,16.258,16.274,16.258h22.449c8.972,0,16.258-7.294,16.258-16.258v-94.035
	c0.008-8.98-7.294-16.258-16.258-16.266H84.048C75.077,156.01,67.775,163.304,67.775,172.276L67.775,172.276z"/>
<g>
	<path style="fill:#CE7406;" d="M84.048,167.196h14.234l0.433-11.177l-14.659-0.008c-1.953,0-3.797,0.402-5.537,1.04l0.551,14.218
		C79.535,168.936,81.575,167.196,84.048,167.196z"/>
	<path style="fill:#CE7406;" d="M94.249,271.384H84.048c-0.394,0-0.764-0.047-1.119-0.126l0.433,11.248
		c0.228,0,0.449,0.063,0.685,0.063h9.76L94.249,271.384z"/>
</g>
<path style="fill:#FFC112;" d="M37.929,112.9l17.022,27.64c0,2.631,1.591,4.892,3.868,5.876l6.459,166.707
	c0,4.112,3.34,7.452,7.452,7.444h3.742c4.112,0,7.452-3.34,7.452-7.452l6.451-166.699c2.284-0.977,3.883-3.245,3.883-5.876
	l17.022-27.632c0-3.521-2.851-6.388-6.38-6.388H44.309C40.788,106.52,37.921,109.387,37.929,112.9z"/>
<path style="fill:#EAAE1B;" d="M37.929,112.9l19.582,25.931c0.008,2.639,2.221,5.86,4.506,6.837l3.261,167.456
	c0,4.112,3.34,7.452,7.452,7.444h3.742c4.112,0,7.452-3.34,7.452-7.452l6.451-166.699c2.284-0.977,3.883-3.245,3.883-5.876
	l17.022-27.632c0-3.521-2.851-6.388-6.38-6.388H44.309C40.788,106.52,37.921,109.387,37.929,112.9z"/>
<path style="fill:#E2A00E;" d="M48.484,112.908l17.03,27.632c-0.008,2.631,1.591,4.892,3.883,5.876l6.451,166.699
	c-0.008,2.883,1.646,5.348,4.041,6.601c2.395-1.252,4.041-3.718,4.041-6.601l6.451-166.699c2.284-0.977,3.883-3.245,3.883-5.876
	l17.022-27.632c0-3.521-2.851-6.388-6.38-6.388H54.864C51.343,106.52,48.484,109.379,48.484,112.908z"/>
<path style="fill:#D18D05;" d="M83.93,314.21c2.442,0,4.427,1.977,4.427,4.427l0,0c0,2.458-1.985,4.427-4.427,4.427H65.286
	c-2.442,0-4.427-1.985-4.427-4.427l0,0c0-2.45,1.985-4.427,4.427-4.427H83.93z"/>
<g>
	<path style="fill:#C11043;" d="M290.629,239.159c-0.874,15.061-20.945,26.128-44.851,24.757
		c-23.875-1.41-140.745-20.504-139.894-35.564c0.906-15.069,119.233-20.385,143.108-18.976
		C272.858,210.763,291.511,224.098,290.629,239.159z"/>
	<path style="fill:#C11043;" d="M281.444,232.952c0.874-15.061,20.945-26.12,44.859-24.757
		c23.867,1.418,140.737,20.512,139.886,35.572c-0.89,15.061-119.225,20.385-143.1,18.968
		C299.222,261.356,280.562,248.013,281.444,232.952z"/>
</g>
<g>
	<path style="fill:#104956;" d="M263.39,361.913c0,19.503-15.817,124.668-35.336,124.668c-19.495,0-35.304-105.173-35.304-124.668
		c0-19.495,15.817-35.32,35.304-35.32C247.581,326.593,263.39,342.418,263.39,361.913z"/>
	<path style="fill:#104956;" d="M381.749,361.913c0,19.503-15.817,124.668-35.336,124.668c-19.495,0-35.304-105.173-35.304-124.668
		c0-19.495,15.817-35.32,35.304-35.32C365.932,326.593,381.749,342.418,381.749,361.913z"/>
</g>
<path style="fill:#C11043;" d="M386.885,315.242c0,126.33-44.599,84.259-99.643,84.259c-55.028,0-99.643,42.071-99.643-84.259
	c0-72.231,44.631-130.788,99.643-130.788C342.27,184.462,386.885,243.019,386.885,315.242z"/>
<path style="fill:#A30A3D;" d="M213.025,228.194c21,9.539,46.568,14.375,74.232,14.375c27.648,0,53.201-4.836,74.201-14.367
	c-18.243-26.782-44.694-43.741-74.216-43.741C257.727,184.462,231.284,201.413,213.025,228.194z"/>
<path style="fill:#F45188;" d="M267.809,487.219c0,14.935-17.802,16.904-39.739,16.904s-39.739-1.961-39.739-16.904
	c0-14.943,17.802-35.509,39.739-35.509C250.007,451.71,267.809,472.277,267.809,487.219z"/>
<path style="fill:#D83573;" d="M267.809,487.219c0,14.935-17.802,16.904-39.739,16.904s-39.739-1.961-39.739-16.904"/>
<path style="fill:#F45188;" d="M386.16,487.219c0,14.935-17.802,16.904-39.739,16.904s-39.739-1.961-39.739-16.904
	c0-14.943,17.802-35.509,39.739-35.509S386.16,472.277,386.16,487.219z"/>
<path style="fill:#D83573;" d="M386.16,487.219c0,14.935-17.802,16.904-39.739,16.904s-39.739-1.961-39.739-16.904"/>
<path style="fill:#CE5715;" d="M416.195,124.258c0,63.008-57.738,94.681-128.937,94.681c-71.215,0-128.969-31.673-128.969-94.681
	C158.288,61.235,216.042,0,287.257,0C358.457,0,416.195,61.235,416.195,124.258z"/>
<path style="fill:#F9A9A0;" d="M416.195,124.258c0,63.008-57.738,94.681-128.937,94.681c-71.215,0-128.969-31.673-128.969-94.681
	c0-63.023,57.754-72.405,128.969-72.405C358.457,51.854,416.195,61.235,416.195,124.258z"/>
<path style="fill:#FF9997;" d="M416.195,124.258c0,63.008-57.738,94.681-128.937,94.681c-71.215,0-128.969-31.673-128.969-94.681"/>
<circle style="fill:#113E49;" cx="207.22" cy="140.367" r="11.532"/>
<path d="M218.752,140.367c0,6.388-5.167,11.54-11.54,11.54c-6.372,0-11.524-5.152-11.524-11.54"/>
<path style="fill:#FFD3C5;" d="M229.961,164.423c-0.614,0-1.245-0.221-1.725-0.717c-5.632-5.624-13.107-8.72-21.047-8.72h-0.016
	c-7.94,0-15.399,3.104-21,8.712c-0.953,0.953-2.489,0.977-3.434,0.008c-0.953-0.922-0.985-2.458-0.031-3.419
	c6.538-6.546,15.218-10.161,24.458-10.161h0.016c9.263,0,17.951,3.592,24.505,10.145c0.937,0.937,0.937,2.505,0,3.434
	C231.221,164.202,230.606,164.423,229.961,164.423z"/>
<circle style="fill:#113E49;" cx="329.887" cy="140.367" r="11.532"/>
<path d="M318.332,140.367c0,6.388,5.151,11.54,11.54,11.54c6.372,0,11.524-5.152,11.524-11.54"/>
<path style="fill:#FFD3C5;" d="M307.115,164.423c0.599,0,1.229-0.221,1.709-0.717c5.632-5.624,13.107-8.72,21.047-8.72h0.016
	c7.94,0,15.415,3.104,21.016,8.712c0.937,0.953,2.473,0.977,3.434,0.008c0.953-0.922,0.969-2.458,0.016-3.419
	c-6.506-6.546-15.218-10.161-24.458-10.161h-0.016c-9.248,0-17.936,3.592-24.505,10.145c-0.922,0.937-0.922,2.505,0,3.434
	C305.855,164.202,306.469,164.423,307.115,164.423z"/>
<g>
	<path style="fill:#F45188;" d="M310.518,284.223c-6.215,0.339-12.335,1.757-18.204,4.017c-2.56-5.75-5.892-11.083-10.043-15.714
		c-4.135,4.632-7.467,9.964-10.027,15.714c-5.868-2.261-11.997-3.679-18.204-4.017c0.339,6.207,1.757,12.327,4.017,18.211
		c-5.75,2.552-11.091,5.876-15.714,10.027c4.624,4.151,9.964,7.483,15.714,10.035c-2.261,5.876-3.679,11.997-4.017,18.204
		c6.215-0.339,12.335-1.764,18.211-4.017c2.552,5.742,5.884,11.075,10.019,15.707c4.151-4.632,7.483-9.956,10.035-15.707
		c5.868,2.261,11.997,3.679,18.211,4.017c-0.339-6.199-1.757-12.319-4.017-18.204c5.75-2.552,11.091-5.884,15.707-10.043
		c-4.616-4.151-9.956-7.475-15.707-10.027C308.761,296.55,310.179,290.43,310.518,284.223z M297.631,312.462
		c0,2.103-0.165,4.159-0.394,6.199c-1.276,1.599-2.615,3.167-4.104,4.655c-1.489,1.489-3.064,2.828-4.663,4.104
		c-2.032,0.228-4.096,0.386-6.199,0.394c-2.095,0-4.151-0.165-6.183-0.386c-1.607-1.284-3.182-2.623-4.679-4.112
		c-1.481-1.481-2.812-3.048-4.096-4.647c-0.228-2.048-0.394-4.104-0.394-6.207c0-2.103,0.165-4.159,0.394-6.207
		c1.276-1.599,2.615-3.159,4.096-4.647c1.489-1.481,3.072-2.828,4.671-4.104c2.04-0.228,4.104-0.394,6.191-0.394
		c2.111,0,4.159,0.165,6.191,0.386c1.607,1.284,3.174,2.623,4.671,4.112c1.489,1.481,2.828,3.056,4.104,4.655
		C297.474,308.303,297.631,310.359,297.631,312.462z"/>
	<path style="fill:#F45188;" d="M338.158,289.312c0.677-1.788,1.252-3.631,1.78-5.49c-3.773-5.616-8.137-10.957-13.091-15.919
		c-4.97-4.962-10.311-9.326-15.919-13.107c-1.867,0.52-3.71,1.111-5.506,1.796c3.899,8.751,5.608,18.235,5.104,27.64
		C319.915,283.719,329.407,285.42,338.158,289.312z"/>
	<path style="fill:#F45188;" d="M226.408,335.604c-0.693,1.796-1.276,3.631-1.804,5.49c3.789,5.616,8.145,10.965,13.115,15.919
		c4.97,4.955,10.303,9.326,15.919,13.107c1.859-0.52,3.702-1.111,5.498-1.796c-3.883-8.751-5.608-18.235-5.096-27.64
		C244.643,341.205,235.151,339.495,226.408,335.604z"/>
	<path style="fill:#F45188;" d="M305.421,368.333c1.796,0.693,3.623,1.276,5.482,1.796c5.616-3.773,10.965-8.137,15.927-13.099
		c4.955-4.962,9.318-10.311,13.091-15.919c-0.496-1.859-1.103-3.71-1.78-5.49c-8.743,3.883-18.235,5.6-27.64,5.088
		C311.014,350.098,309.313,359.582,305.421,368.333z"/>
	<path style="fill:#F45188;" d="M259.121,256.583c-1.788-0.685-3.623-1.268-5.482-1.788c-5.616,3.773-10.949,8.137-15.919,13.099
		c-4.97,4.97-9.334,10.319-13.115,15.919c0.512,1.859,1.111,3.71,1.804,5.49c8.735-3.891,18.211-5.6,27.632-5.089
		C253.536,274.818,255.253,265.342,259.121,256.583z"/>
	<path style="fill:#F45188;" d="M345.287,312.454c0-7.018-0.685-13.879-1.977-20.512c-1.694-0.953-3.411-1.835-5.151-2.623
		c-3.442,8.94-8.94,16.857-15.943,23.142c7.01,6.294,12.509,14.218,15.943,23.15c1.749-0.78,3.458-1.662,5.144-2.623
		C344.601,326.349,345.287,319.488,345.287,312.454z"/>
	<path style="fill:#F45188;" d="M226.408,289.312c-1.764,0.788-3.466,1.67-5.167,2.623c-1.292,6.64-1.985,13.501-1.985,20.519
		c0,7.018,0.693,13.887,1.985,20.527c1.701,0.953,3.411,1.835,5.167,2.615c3.442-8.94,8.932-16.865,15.927-23.142
		C235.34,306.168,229.85,298.26,226.408,289.312z"/>
	<path style="fill:#F45188;" d="M259.137,368.341c0.772,1.749,1.662,3.458,2.615,5.144c6.64,1.3,13.501,1.993,20.512,1.993
		c7.034,0,13.887-0.693,20.527-1.993c0.953-1.686,1.843-3.403,2.623-5.151c-8.94-3.434-16.857-8.925-23.15-15.935
		C275.985,359.408,268.069,364.898,259.137,368.341z"/>
	<path style="fill:#F45188;" d="M305.406,256.583c-0.772-1.749-1.654-3.458-2.615-5.152c-6.64-1.292-13.493-1.985-20.519-1.985
		c-7.018,0-13.879,0.693-20.512,1.985c-0.961,1.694-1.843,3.411-2.631,5.152c8.948,3.442,16.872,8.94,23.142,15.935
		C288.573,265.523,296.481,260.025,305.406,256.583z"/>
</g>
</svg>