<?xml version="1.0" encoding="iso-8859-1"?>
<!-- Uploaded to: SVG Repo, www.svgrepo.com, Generator: SVG Repo Mixer Tools -->
<svg version="1.1" id="Layer_1" xmlns="http://www.w3.org/2000/svg" xmlns:xlink="http://www.w3.org/1999/xlink" 
	 viewBox="0 0 504.123 504.123" xml:space="preserve">
<g>
	<path style="fill:#232728;" d="M308.445,315.242c0,126.322-44.599,84.259-99.643,84.259c-55.036,0-99.643,42.063-99.643-84.259
		c0-72.231,44.631-130.788,99.643-130.788C263.83,184.462,308.445,243.019,308.445,315.242z"/>
	<path style="fill:#232728;" d="M184.951,361.905c0,19.511-15.817,124.676-35.336,124.676c-19.495,0-35.304-105.173-35.304-124.676
		c0-19.495,15.817-35.32,35.304-35.32C169.134,326.585,184.951,342.418,184.951,361.905z"/>
	<path style="fill:#232728;" d="M303.301,361.905c0,19.511-15.817,124.676-35.336,124.676c-19.495,0-35.304-105.173-35.304-124.676
		c0-19.495,15.817-35.32,35.304-35.32C287.492,326.585,303.301,342.418,303.301,361.905z"/>
</g>
<path style="fill:#383E3F;" d="M189.37,487.219c0,14.935-17.802,16.904-39.739,16.904s-39.747-1.969-39.747-16.904
	c0-14.935,17.81-35.509,39.747-35.509S189.37,472.277,189.37,487.219z"/>
<path style="fill:#232728;" d="M189.37,487.219c0,14.935-17.802,16.904-39.739,16.904s-39.747-1.969-39.747-16.904"/>
<path style="fill:#383E3F;" d="M307.72,487.219c0,14.935-17.802,16.904-39.747,16.904c-21.921,0-39.731-1.969-39.731-16.904
	c0-14.935,17.81-35.509,39.731-35.509C289.919,451.71,307.72,472.277,307.72,487.219z"/>
<g>
	<path style="fill:#232728;" d="M307.72,487.219c0,14.935-17.802,16.904-39.747,16.904c-21.921,0-39.731-1.969-39.731-16.904"/>
	<path style="fill:#232728;" d="M197.814,203.768c10.027,11.28,3.663,33.296-14.218,49.215
		c-17.881,15.896-114.018,85.031-124.062,73.767c-10.019-11.296,69.892-98.706,87.773-114.601
		C165.156,196.246,187.778,192.496,197.814,203.768z"/>
	<path style="fill:#232728;" d="M219.79,203.768c-10.035,11.28-3.679,33.296,14.21,49.215
		c17.881,15.896,114.018,85.031,124.062,73.767c10.012-11.296-69.9-98.706-87.773-114.601
		C252.424,196.246,229.81,192.496,219.79,203.768z"/>
</g>
<rect x="188.117" y="199.538" style="fill:#E2DED3;" width="41.354" height="178.215"/>
<path style="fill:#C6BFAF;" d="M188.117,233.661c6.751,0.63,13.627,1.032,20.693,1.032c7.042,0,13.934-0.402,20.661-1.032v-34.123
	h-41.354V233.661z"/>
<polygon style="fill:#444849;" points="214.922,218.569 225.162,322.465 208.794,334.352 192.426,322.465 202.682,218.569 "/>
<polyline style="fill:#232728;" points="202.682,218.569 214.922,218.569 225.162,322.465 208.794,334.352 "/>
<path style="fill:#422816;" d="M337.747,124.258c0,63-57.738,94.681-128.937,94.681c-71.223,0-128.977-31.673-128.977-94.681
	C79.833,61.227,137.587,0,208.81,0C280.009,0,337.747,61.227,337.747,124.258z"/>
<path style="fill:#CC8F62;" d="M337.747,124.258c0,63-57.738,94.681-128.937,94.681c-71.223,0-128.977-31.673-128.977-94.681
	c0-63.031,57.754-74.382,128.977-74.382C280.009,49.877,337.747,61.227,337.747,124.258z"/>
<path style="fill:#AF734A;" d="M337.747,124.258c0,63-57.738,94.681-128.937,94.681c-71.223,0-128.977-31.673-128.977-94.681"/>
<circle style="fill:#113E49;" cx="147.48" cy="136.428" r="11.524"/>
<path d="M159.004,136.428c0,6.388-5.159,11.54-11.532,11.54c-6.372,0-11.524-5.152-11.524-11.54"/>
<path style="fill:#CC8F62;" d="M170.237,160.477c-0.622,0-1.252-0.213-1.733-0.709c-5.632-5.632-13.107-8.72-21.055-8.72h-0.008
	c-7.94,0-15.399,3.096-21.008,8.704c-0.945,0.953-2.473,0.985-3.426,0.016c-0.953-0.922-0.985-2.458-0.032-3.419
	c6.538-6.554,15.218-10.169,24.458-10.169h0.008c9.271,0,17.952,3.6,24.513,10.153c0.929,0.937,0.929,2.505,0,3.434
	C171.481,160.264,170.875,160.477,170.237,160.477z"/>
<circle style="fill:#113E49;" cx="270.124" cy="136.428" r="11.532"/>
<path d="M258.6,136.428c0,6.388,5.151,11.54,11.54,11.54c6.372,0,11.524-5.152,11.524-11.54"/>
<path style="fill:#CC8F62;" d="M247.383,160.477c0.599,0,1.229-0.213,1.709-0.709c5.624-5.632,13.099-8.72,21.047-8.72h0.016
	c7.932,0,15.415,3.096,21.016,8.704c0.929,0.953,2.473,0.985,3.434,0.016c0.945-0.922,0.969-2.458,0.024-3.419
	c-6.514-6.554-15.226-10.169-24.466-10.169h-0.016c-9.255,0-17.944,3.6-24.505,10.153c-0.922,0.937-0.922,2.505,0,3.434
	C246.123,160.264,246.737,160.477,247.383,160.477z"/>
<path style="fill:#AA1111;" d="M237.23,168.629c0,10.264-12.745,18.597-28.428,18.597c-15.691,0-28.428-8.342-28.428-18.597
	c0-10.279,12.737-4.135,28.428-4.135C224.485,164.494,237.23,158.358,237.23,168.629z"/>
<path style="fill:#D62B2B;" d="M185.471,179.232c5.136,4.829,13.659,8.003,23.324,8.003s18.188-3.167,23.316-8.003
	c-5.128-4.829-13.651-8.003-23.316-8.003S190.614,174.403,185.471,179.232z"/>
<path d="M199.94,135.326c0,13.06-10.594,23.678-23.654,23.678h-32.587c-13.084,0-23.686-10.618-23.686-23.678V122.51
	c0-13.091,10.602-23.694,23.686-23.694h32.587c13.06,0,23.654,10.602,23.654,23.694L199.94,135.326L199.94,135.326z"/>
<path d="M148.638,108.678c0,5.459-4.395,9.878-9.862,9.878H83.551c-5.459,0-9.886-4.419-9.886-9.878l0,0
	c0-5.443,4.427-9.862,9.886-9.862h55.225C144.243,98.816,148.638,103.227,148.638,108.678L148.638,108.678z"/>
<path d="M217.656,135.326c0,13.06,10.571,23.678,23.654,23.678h32.555c13.099,0,23.686-10.618,23.686-23.678V122.51
	c0-13.091-10.587-23.694-23.686-23.694H241.31c-13.084,0-23.654,10.602-23.654,23.694L217.656,135.326L217.656,135.326z"/>
<path d="M268.95,108.678c0,5.459,4.411,9.878,9.878,9.878h55.233c5.427,0,9.862-4.419,9.862-9.878l0,0
	c0-5.443-4.427-9.862-9.862-9.862h-55.233C273.361,98.816,268.95,103.227,268.95,108.678L268.95,108.678z"/>
<path d="M172.292,108.678c0,5.459,4.427,9.878,9.878,9.878h55.249c5.443,0,9.878-4.419,9.878-9.878l0,0
	c0-5.443-4.427-9.862-9.878-9.862H182.17C176.719,98.816,172.292,103.227,172.292,108.678L172.292,108.678z"/>
<g>
	<path style="fill:#8D97A0;" d="M425.543,379.92c-2.993,3.001-7.861,3.001-10.854,0l-23.528-23.52
		c-2.993-3.001-2.993-7.861,0-10.862l9.5-9.492c3.001-3.001,7.861-3.001,10.862,0l23.52,23.52c3.009,3.001,3.009,7.861,0,10.862
		L425.543,379.92z"/>
	<path style="fill:#8D97A0;" d="M429.049,365.796c-1.071-1.063-1.071-2.788,0-3.86l8.365-8.357c1.063-1.079,2.788-1.079,3.844,0
		l3.387,3.371c1.079,1.079,1.079,2.796,0,3.86l-8.365,8.365c-1.063,1.063-2.788,1.063-3.852,0L429.049,365.796z"/>
	<path style="fill:#8D97A0;" d="M355.187,343.954c-3.001,3.001-7.861,3.001-10.854,0l-3.395-3.387
		c-3.001-3.001-3.001-7.861,0-10.862l12.217-12.217c2.993-3.001,7.853-3.001,10.854,0l3.403,3.403c2.993,3.001,2.993,7.861,0,10.847
		L355.187,343.954z"/>
	<path style="fill:#8D97A0;" d="M353.154,317.495c-3.001,3.001-3.009,7.861,0,10.862l39.361,39.353
		c2.993,3.001,7.861,3.001,10.854,0l21.039-21.031c3.001-3.001,3.001-7.861,0-10.862l-39.361-39.369
		c-3.001-2.985-7.853-2.985-10.862,0L353.154,317.495z"/>
</g>
<path style="fill:#B4BCC1;" d="M424.409,335.817l-39.361-39.369c-3.001-2.985-7.853-2.985-10.862,0l-8.814,8.83
	c-3.001,3.001-3.001,7.861,0,10.862l39.361,39.353c2.993,3.001,7.861,3.001,10.854,0l8.822-8.814
	C427.41,343.678,427.41,338.818,424.409,335.817z"/>
</svg>