<?xml version="1.0" encoding="iso-8859-1"?>
<!-- Uploaded to: SVG Repo, www.svgrepo.com, Generator: SVG Repo Mixer Tools -->
<svg height="800px" width="800px" version="1.1" id="Layer_1" xmlns="http://www.w3.org/2000/svg" xmlns:xlink="http://www.w3.org/1999/xlink" 
	 viewBox="0 0 504.123 504.123" xml:space="preserve">
<path style="fill:#87915A;" d="M263.05,280.631c-10.027-11.28-3.663-33.312,14.218-49.231
	c17.881-15.896,114.018-85.008,124.062-73.767c10.012,11.296-69.892,98.721-87.773,114.617
	C295.692,288.138,273.077,291.895,263.05,280.631z"/>
<path style="fill:#656B43;" d="M241.073,280.631c10.027-11.28,3.663-33.312-14.218-49.231
	c-17.881-15.896-114.018-85.008-124.062-73.767c-10.012,11.296,69.892,98.721,87.773,114.617
	C208.431,288.138,231.046,291.895,241.073,280.631z"/>
<g>
	<path style="fill:#3D7034;" d="M228.218,361.913c0,19.503-15.817,124.668-35.336,124.668c-19.495,0-35.304-105.173-35.304-124.668
		c0-19.495,15.817-35.32,35.304-35.32C212.401,326.593,228.218,342.418,228.218,361.913z"/>
	<path style="fill:#3D7034;" d="M346.569,361.913c0,19.503-15.817,124.668-35.336,124.668c-19.495,0-35.304-105.173-35.304-124.668
		c0-19.495,15.817-35.32,35.304-35.32C330.752,326.593,346.569,342.418,346.569,361.913z"/>
</g>
<path style="fill:#87915A;" d="M351.705,315.242c0,126.33-44.599,84.259-99.643,84.259c-55.028,0-99.643,42.071-99.643-84.259
	c0-72.231,44.631-130.781,99.643-130.781C307.09,184.47,351.705,243.019,351.705,315.242z"/>
<polygon style="fill:#363B7F;" points="263.129,224.658 228.801,272.408 210.219,224.658 236.678,198.191 "/>
<path style="fill:#3D3C39;" d="M232.629,487.219c0,14.935-17.802,16.904-39.739,16.904s-39.739-1.961-39.739-16.904
	c0-14.943,17.802-35.509,39.739-35.509S232.629,472.277,232.629,487.219z"/>
<path style="fill:#1C1B1A;" d="M232.629,487.219c0,14.935-17.802,16.904-39.739,16.904s-39.739-1.961-39.739-16.904"/>
<path style="fill:#3D3C39;" d="M350.988,487.219c0,14.935-17.802,16.904-39.739,16.904s-39.739-1.961-39.739-16.904
	c0-14.943,17.802-35.509,39.739-35.509S350.988,472.277,350.988,487.219z"/>
<path style="fill:#1C1B1A;" d="M350.988,487.219c0,14.935-17.802,16.904-39.739,16.904s-39.739-1.961-39.739-16.904"/>
<path style="fill:#EFC286;" d="M381.015,124.258c0,63.008-57.738,94.681-128.937,94.681c-71.215,0-128.969-31.673-128.969-94.681
	C123.108,61.235,180.862,0,252.077,0C323.277,0,381.015,61.235,381.015,124.258z"/>
<path style="fill:#E8B374;" d="M381.015,124.258c0,63.008-57.738,94.681-128.937,94.681c-71.215,0-128.969-31.673-128.969-94.681"/>
<g>
	<path style="fill:#232728;" d="M196.907,140.06c-0.599,0-1.237-0.221-1.725-0.717c-5.624-5.624-13.107-8.72-21.031-8.72h-0.024
		c-7.948,0-15.392,3.104-21,8.712c-0.945,0.953-2.489,0.977-3.426,0.008c-0.969-0.922-0.985-2.458-0.047-3.419
		c6.546-6.546,15.218-10.161,24.466-10.161h0.024c9.247,0,17.936,3.592,24.489,10.145c0.953,0.937,0.953,2.505,0,3.434
		C198.176,139.839,197.553,140.06,196.907,140.06z"/>
	<path style="fill:#232728;" d="M274.07,140.06c0.591,0,1.221-0.221,1.709-0.717c5.632-5.624,13.107-8.72,21.039-8.72h0.016
		c7.956,0,15.423,3.104,21.016,8.712c0.937,0.953,2.473,0.977,3.434,0.008c0.961-0.922,0.977-2.458,0.024-3.419
		c-6.498-6.546-15.21-10.161-24.466-10.161h-0.016c-9.24,0-17.928,3.592-24.505,10.145c-0.922,0.937-0.922,2.505,0,3.434
		C272.801,139.839,273.424,140.06,274.07,140.06z"/>
</g>
<path style="fill:#59472E;" d="M232.905,232.369c79.754,2.292,148.11-45.103,148.11-108.111c0-27.829-11.296-55.288-29.987-77.296
	l-26.726,3.907c0,0,11.815,76.8,35.446,81.723c0,0,3.45,43.323-25.112,59.077c-28.562,15.754-41.842,24.127-90.088,22.158
	l-10.342-16.25l-11.815,15.754c0,0-17.384,3.608-56.288-14.438c6.585,1.977,5.191,12.847,13.619,15.423
	C192.213,223.665,218.419,231.952,232.905,232.369z"/>
<path style="fill:#A50C59;" d="M146.755,55.138h210.613C334.029,22.945,295.605,0,252.077,0C208.542,0,170.11,22.945,146.755,55.138
	z"/>
<path style="fill:#C11162;" d="M252.077,0c-36.013,0-68.521,15.73-91.908,39.385h183.784C320.583,15.73,288.091,0,252.077,0z"/>
<g>
	<path style="fill:#59472E;" d="M232.015,164.596c0,0-18.826,0.63-26.797,2.552c-7.971,1.906-7.656,17.219-7.656,20.094
		c0,0,3.513-13.399,13.714-11.8c10.201,1.591,17.235,3.82,20.417-1.599C234.874,168.424,232.015,164.596,232.015,164.596z"/>
	<path style="fill:#59472E;" d="M231.928,164.596c0,0,18.826,0.63,26.789,2.552c7.971,1.906,7.664,17.219,7.664,20.094
		c0,0-3.513-13.399-13.722-11.8c-10.201,1.591-17.227,3.82-20.417-1.599C229.061,168.424,231.928,164.596,231.928,164.596z"/>
</g>
</svg>