<?xml version="1.0" encoding="iso-8859-1"?>
<!-- Uploaded to: SVG Repo, www.svgrepo.com, Generator: SVG Repo Mixer Tools -->
<svg version="1.1" id="Layer_1" xmlns="http://www.w3.org/2000/svg" xmlns:xlink="http://www.w3.org/1999/xlink" 
	 viewBox="0 0 504.123 504.123" xml:space="preserve">
<path style="fill:#0969C9;" d="M280.117,258.095c11.28,10.027,33.304,3.663,49.223-14.218
	c15.896-17.881,85.016-114.018,73.767-124.062c-11.296-10.012-98.714,69.9-114.609,87.773
	C272.594,225.445,268.845,248.06,280.117,258.095z"/>
<g>
	<path style="fill:#383838;" d="M226.065,361.913c0,19.503-15.809,124.668-35.336,124.668c-19.495,0-35.304-105.173-35.304-124.668
		c0-19.495,15.817-35.32,35.304-35.32C210.256,326.593,226.065,342.418,226.065,361.913z"/>
	<path style="fill:#383838;" d="M344.424,361.913c0,19.503-15.817,124.668-35.336,124.668c-19.495,0-35.304-105.173-35.304-124.668
		c0-19.495,15.817-35.32,35.304-35.32C328.607,326.593,344.424,342.418,344.424,361.913z"/>
</g>
<g>
	<path style="fill:#0C87E2;" d="M349.56,315.242c0,126.33-44.607,84.259-99.643,84.259c-55.028,0-99.643,42.071-99.643-84.259
		c0-72.231,44.631-130.781,99.643-130.781C304.945,184.47,349.56,243.019,349.56,315.242z"/>
	<path style="fill:#0C87E2;" d="M238.928,203.768c10.027,11.28,3.663,33.304-14.218,49.223
		c-17.881,15.896-114.026,85.024-124.062,73.767c-10.012-11.296,69.9-98.714,87.765-114.609S228.901,192.496,238.928,203.768z"/>
</g>
<rect x="224.969" y="182.512" transform="matrix(-0.7072 0.707 -0.707 -0.7072 573.3213 177.478)" style="fill:#B76D44;" width="49.884" height="49.884"/>
<path style="fill:#0969C9;" d="M249.917,366.033c-51.617,0-94.074,37.006-99.139-62.661c-0.339,3.458-0.504,7.396-0.504,11.878
	c0,126.33,44.615,84.259,99.643,84.259c55.036,0,99.643,42.071,99.643-84.259c0-4.474-0.165-8.413-0.504-11.878
	C343.983,403.039,301.542,366.033,249.917,366.033z"/>
<path style="fill:#232221;" d="M230.484,487.219c0,14.935-17.802,16.904-39.747,16.904c-21.929,0-39.739-1.961-39.739-16.904
	c0-14.943,17.81-35.509,39.739-35.509C212.683,451.718,230.484,472.277,230.484,487.219z"/>
<path style="fill:#0F0E0D;" d="M230.484,487.219c0,14.935-17.802,16.904-39.747,16.904c-21.929,0-39.739-1.961-39.739-16.904"/>
<path style="fill:#232221;" d="M348.827,487.219c0,14.935-17.786,16.904-39.731,16.904c-21.937,0-39.739-1.961-39.739-16.904
	c0-14.943,17.802-35.509,39.739-35.509C331.041,451.718,348.827,472.277,348.827,487.219z"/>
<path style="fill:#0F0E0D;" d="M348.827,487.219c0,14.935-17.786,16.904-39.731,16.904c-21.937,0-39.739-1.961-39.739-16.904"/>
<path style="fill:#E8B085;" d="M378.87,124.258c0,63.008-57.746,94.681-128.937,94.681c-71.223,0-128.969-31.673-128.969-94.681
	C120.964,61.235,178.709,0,249.933,0C321.124,0,378.87,61.235,378.87,124.258z"/>
<path style="fill:#DD9F76;" d="M378.87,124.258c0,63.008-57.746,94.681-128.937,94.681c-71.223,0-128.969-31.673-128.969-94.681"/>
<circle style="fill:#113E49;" cx="188.595" cy="128.654" r="11.532"/>
<path d="M200.127,128.654c0,6.388-5.175,11.54-11.532,11.54c-6.38,0-11.532-5.152-11.532-11.54"/>
<path style="fill:#F4C3A2;" d="M211.343,152.71c-0.614,0-1.245-0.221-1.725-0.717c-5.632-5.624-13.107-8.72-21.047-8.72h-0.024
	c-7.932,0-15.384,3.104-20.992,8.712c-0.945,0.953-2.489,0.977-3.442,0.008c-0.953-0.922-0.977-2.458-0.024-3.419
	c6.538-6.546,15.218-10.161,24.45-10.161h0.024c9.263,0,17.944,3.592,24.497,10.145c0.937,0.937,0.937,2.505,0,3.434
	C212.604,152.481,211.989,152.71,211.343,152.71z"/>
<path style="fill:#113E49;" d="M299.715,128.654c0,6.388,5.144,11.54,11.54,11.54c6.372,0,11.524-5.152,11.524-11.54
	c0-6.365-5.151-11.532-11.524-11.532C304.858,117.122,299.715,122.289,299.715,128.654z"/>
<path d="M299.715,128.654c0,6.388,5.144,11.54,11.54,11.54c6.372,0,11.524-5.152,11.524-11.54"/>
<path style="fill:#F4C3A2;" d="M288.498,152.71c0.591,0,1.229-0.221,1.709-0.717c5.632-5.624,13.107-8.72,21.047-8.72h0.008
	c7.948,0,15.423,3.104,21.016,8.712c0.937,0.953,2.473,0.977,3.434,0.008c0.961-0.922,0.977-2.458,0.024-3.419
	c-6.506-6.546-15.218-10.161-24.466-10.161h-0.008c-9.247,0-17.944,3.592-24.513,10.145c-0.922,0.937-0.922,2.505,0,3.434
	C287.238,152.481,287.852,152.71,288.498,152.71z"/>
<g>
	<circle style="fill:#FFFFFF;" cx="249.933" cy="257.969" r="6.569"/>
	<circle style="fill:#FFFFFF;" cx="249.933" cy="301.284" r="6.569"/>
	<circle style="fill:#FFFFFF;" cx="249.933" cy="344.615" r="6.569"/>
</g>
<g>
	<path style="fill:#0F0E0D;" d="M371.151,84.488C353.278,37.778,305.811,0,249.925,0c-55.682,0-102.991,37.471-121.037,83.913
		c5.766,1.308,15.092,1.701,19.661-7.444c0,0,8.862,11.815,17.723,0c0,0,24.615,3.938,28.554-2.954c0,0,8.862,16.738,32.492,15.754
		c23.631-0.985,18.708-40.369,18.708-40.369s6.892,37.415,17.723,41.354c10.831,3.938,31.508,4.923,37.415-8.862
		c0,0,16.738,9.846,21.662,0c0,0,10.831,11.815,28.554,4.923C351.379,86.315,364.825,90.325,371.151,84.488z"/>
	<path style="fill:#0F0E0D;" d="M255.549,169.023c0,7.255-5.884,13.131-13.139,13.131h-34.123c-7.255,0-13.123-5.876-13.123-13.131
		l0,0c0-7.247,5.868-13.123,13.123-13.123h34.123C249.665,155.9,255.549,161.776,255.549,169.023L255.549,169.023z"/>
	<path style="fill:#0F0E0D;" d="M305.764,169.023c0,7.255-5.892,13.131-13.139,13.131h-34.123c-7.255,0-13.123-5.876-13.123-13.131
		l0,0c0-7.247,5.868-13.123,13.123-13.123h34.123C299.872,155.9,305.764,161.776,305.764,169.023L305.764,169.023z"/>
</g>
</svg>