<?xml version="1.0" encoding="iso-8859-1"?>
<!-- Uploaded to: SVG Repo, www.svgrepo.com, Generator: SVG Repo Mixer Tools -->
<svg height="800px" width="800px" version="1.1" id="Layer_1" xmlns="http://www.w3.org/2000/svg" xmlns:xlink="http://www.w3.org/1999/xlink" 
	 viewBox="0 0 504.123 504.123" xml:space="preserve">
<g>
	<path style="fill:#BFB502;" d="M346.569,361.913c0,19.503-15.817,124.668-35.336,124.668c-19.495,0-35.304-105.173-35.304-124.668
		c0-19.495,15.817-35.32,35.304-35.32C330.752,326.593,346.569,342.418,346.569,361.913z"/>
	<path style="fill:#BFB502;" d="M228.218,361.913c0,19.503-15.817,124.668-35.336,124.668c-19.495,0-35.304-105.173-35.304-124.668
		c0-19.495,15.817-35.32,35.304-35.32C212.401,326.593,228.218,342.418,228.218,361.913z"/>
</g>
<path style="fill:#DDD703;" d="M351.705,315.242c0,126.33-44.599,84.259-99.643,84.259c-55.028,0-99.643,42.071-99.643-84.259
	c0-72.231,44.631-130.781,99.643-130.781C307.09,184.47,351.705,243.019,351.705,315.242z"/>
<g>
	<path style="fill:#A8B2BA;" d="M165.904,421.415c5.506,31.508,13.32,55.138,22.166,63.015h9.602
		c8.869-7.877,16.691-31.508,22.189-63.015H165.904z"/>
	<path style="fill:#A8B2BA;" d="M284.262,421.415c5.506,31.508,13.32,55.138,22.166,63.015h9.602
		c8.869-7.877,16.691-31.508,22.189-63.015H284.262z"/>
</g>
<path style="fill:#8D97A0;" d="M232.629,487.219c0,14.935-17.802,16.904-39.739,16.904s-39.739-1.961-39.739-16.904
	c0-14.943,17.802-35.509,39.739-35.509S232.629,472.277,232.629,487.219z"/>
<path style="fill:#79848C;" d="M232.629,487.219c0,14.935-17.802,16.904-39.739,16.904s-39.739-1.961-39.739-16.904"/>
<path style="fill:#8D97A0;" d="M350.988,487.219c0,14.935-17.802,16.904-39.739,16.904s-39.739-1.961-39.739-16.904
	c0-14.943,17.802-35.509,39.739-35.509S350.988,472.277,350.988,487.219z"/>
<path style="fill:#79848C;" d="M350.988,487.219c0,14.935-17.802,16.904-39.739,16.904s-39.739-1.961-39.739-16.904"/>
<g>
	<path style="fill:#DDD703;" d="M241.073,203.768c10.027,11.28,3.663,33.304-14.218,49.223
		c-17.881,15.896-114.018,85.024-124.062,73.767c-10.012-11.296,69.892-98.714,87.773-114.609
		C208.431,196.254,231.046,192.496,241.073,203.768z"/>
	<path style="fill:#DDD703;" d="M263.05,203.768c-10.027,11.28-3.663,33.304,14.218,49.223
		c17.881,15.896,114.018,85.024,124.062,73.767c10.012-11.296-69.892-98.714-87.773-114.609
		C295.692,196.254,273.077,192.496,263.05,203.768z"/>
</g>
<path style="fill:#BFB502;" d="M173.088,235.733c21.835,11.059,49.191,16.683,78.99,16.683c29.783,0,57.139-5.624,78.966-16.683
	c-18.211-31.114-46.773-51.263-78.982-51.263C219.861,184.47,191.291,204.611,173.088,235.733z"/>
<path style="fill:#8D97A0;" d="M252.062,184.47c-27.231,0-51.83,14.438-69.797,37.707c20.126,8.294,44.048,12.516,69.813,12.516
	c25.758,0,49.68-4.222,69.797-12.516C303.907,198.916,279.308,184.47,252.062,184.47z"/>
<path style="fill:#DDD703;" d="M381.015,124.258c0,63.008-57.738,94.681-128.937,94.681c-71.215,0-128.969-31.673-128.969-94.681
	C123.108,61.235,180.862,0,252.077,0C323.277,0,381.015,61.235,381.015,124.258z"/>
<path style="fill:#BFB502;" d="M381.015,124.258c0,63.008-57.738,94.681-128.937,94.681c-71.215,0-128.969-31.673-128.969-94.681"/>
<path style="fill:#B6C3CC;" d="M279.631,34.146V3.174C270.746,1.15,261.537,0,252.077,0c-9.476,0-18.692,1.15-27.585,3.174v30.972
	c0,8.688,7.058,17.054,15.754,17.054h23.631C272.573,51.2,279.631,42.835,279.631,34.146z"/>
<path style="fill:#A8B2BA;" d="M224.492,34.8c0,8.688,7.058,16.4,15.754,16.4h23.631c8.696,0,15.754-8.365,15.754-17.054V3.174
	c-8.885-2.032-18.093-2.851-27.553-2.851"/>
<g>
	<path style="fill:#B6C3CC;" d="M122.982,287.744c-14.36,18.723-24.08,34.627-20.181,39.014c3.82,4.285,20.141-3.096,39.849-14.738
		l2.308-2.308L122.982,287.744z"/>
	<path style="fill:#B6C3CC;" d="M358.432,310.209c21.063,12.674,38.88,21.063,42.89,16.557c3.907-4.403-5.876-20.378-20.291-39.156
		L358.432,310.209z"/>
</g>
<path style="fill:#363B3F;" d="M286.838,71.971c-13.509,0-25.75,5.364-34.777,14.052c-9.027-8.696-21.26-14.052-34.769-14.052
	c-27.727,0-49.664,22.481-50.2,50.2c-0.835,43.449,53.272,60.314,80.991,60.314c1.441,0,2.733-0.142,3.978-0.307
	c1.252,0.165,2.536,0.307,3.986,0.307c27.727,0,81.833-16.872,80.991-60.314C336.494,94.452,314.565,71.971,286.838,71.971z"/>
<path style="fill:#BFB502;" d="M277.228,277.756c-9.783,0-18.629,3.883-25.167,10.169c-6.538-6.286-15.399-10.169-25.167-10.169
	c-20.063,0-35.95,16.274-36.336,36.328c-0.599,31.445,38.558,43.662,58.628,43.662c1.032,0,1.969-0.102,2.875-0.221
	c0.906,0.126,1.827,0.221,2.875,0.221c20.063,0,59.234-12.217,58.628-43.662C313.171,294.03,297.291,277.756,277.228,277.756z"/>
<path style="fill:#171A1C;" d="M167.219,122.092c0.953,47.262,53.602,59.305,80.872,59.305c1.441,0,2.733,0.402,3.978,0.228
	c1.252,0.165,2.536-0.496,3.986-0.496c27.254,0,79.896-11.776,80.857-59.038H167.219z"/>
</svg>