<?xml version="1.0" encoding="iso-8859-1"?>
<!-- Uploaded to: SVG Repo, www.svgrepo.com, Generator: SVG Repo Mixer Tools -->
<svg height="800px" width="800px" version="1.1" id="Layer_1" xmlns="http://www.w3.org/2000/svg" xmlns:xlink="http://www.w3.org/1999/xlink" 
	 viewBox="0 0 504.123 504.123" xml:space="preserve">
<path style="fill:#8F9E9C;" d="M280.113,258.095c11.28,10.027,33.304,3.663,49.223-14.218
	c15.896-17.881,85.016-114.018,73.767-124.062c-11.296-10.012-98.714,69.892-114.609,87.773
	C272.598,225.445,268.841,248.06,280.113,258.095z"/>
<g>
	<path style="fill:#232728;" d="M226.069,361.913c0,19.503-15.817,124.668-35.336,124.668c-19.495,0-35.304-105.173-35.304-124.668
		c0-19.495,15.817-35.32,35.304-35.32C210.253,326.593,226.069,342.418,226.069,361.913z"/>
	<path style="fill:#232728;" d="M344.42,361.913c0,19.503-15.817,124.668-35.336,124.668c-19.495,0-35.304-105.173-35.304-124.668
		c0-19.495,15.817-35.32,35.304-35.32C328.603,326.593,344.42,342.418,344.42,361.913z"/>
</g>
<path style="fill:#A5B7B5;" d="M349.556,315.242c0,126.33-44.607,84.259-99.643,84.259c-55.028,0-99.643,42.071-99.643-84.259
	c0-72.231,44.631-130.781,99.643-130.781C304.941,184.47,349.556,243.019,349.556,315.242z"/>
<path style="fill:#8F9E9C;" d="M249.913,366.033c-51.617,0-94.074,37.006-99.139-62.661c-0.339,3.458-0.504,7.396-0.504,11.878
	c0,126.33,44.615,84.259,99.643,84.259c55.036,0,99.643,42.071,99.643-84.259c0-4.474-0.165-8.413-0.504-11.878
	C343.979,403.039,301.546,366.033,249.913,366.033z"/>
<path style="fill:#11D3C0;" d="M230.48,487.219c0,14.935-17.802,16.904-39.747,16.904c-21.929,0-39.739-1.961-39.739-16.904
	c0-14.943,17.81-35.509,39.739-35.509C212.679,451.718,230.48,472.277,230.48,487.219z"/>
<path style="fill:#13A9D1;" d="M230.48,487.219c0,14.935-17.802,16.904-39.747,16.904c-21.929,0-39.739-1.961-39.739-16.904"/>
<path style="fill:#11D3C0;" d="M348.831,487.219c0,14.935-17.786,16.904-39.731,16.904c-21.937,0-39.739-1.961-39.739-16.904
	c0-14.943,17.802-35.509,39.739-35.509C331.045,451.718,348.831,472.277,348.831,487.219z"/>
<path style="fill:#13A9D1;" d="M348.831,487.219c0,14.935-17.786,16.904-39.731,16.904c-21.937,0-39.739-1.961-39.739-16.904"/>
<path style="fill:#A5B7B5;" d="M238.932,203.768c10.027,11.28,3.663,33.304-14.218,49.223
	c-17.881,15.896-114.026,85.024-124.062,73.767c-10.012-11.296,69.9-98.714,87.765-114.609S228.897,192.496,238.932,203.768z"/>
<polygon style="fill:#CE8C67;" points="231.26,202.5 272.614,268.469 294.402,199.712 "/>
<path style="fill:#E8B085;" d="M378.866,124.258c0,63.008-57.746,94.681-128.937,94.681c-71.215,0-128.969-31.673-128.969-94.681
	C120.96,61.235,178.713,0,249.929,0C321.12,0,378.866,61.235,378.866,124.258z"/>
<path style="fill:#DD9F76;" d="M378.866,124.258c0,63.008-57.746,94.681-128.937,94.681c-71.215,0-128.969-31.673-128.969-94.681"/>
<circle style="fill:#113E49;" cx="225.754" cy="135.877" r="11.532"/>
<path d="M237.318,135.877c0,6.388-5.167,11.54-11.54,11.54c-6.372,0-11.524-5.151-11.524-11.54"/>
<path style="fill:#F4C3A2;" d="M248.534,159.933c-0.614,0-1.245-0.221-1.725-0.717c-5.632-5.624-13.107-8.72-21.047-8.72h-0.008
	c-7.94,0-15.399,3.104-21,8.712c-0.953,0.953-2.489,0.977-3.434,0.008c-0.953-0.922-0.985-2.458-0.031-3.419
	c6.538-6.546,15.218-10.161,24.458-10.161h0.016c9.263,0,17.951,3.592,24.505,10.145c0.937,0.937,0.937,2.505,0,3.434
	C249.795,159.705,249.18,159.933,248.534,159.933z"/>
<circle style="fill:#113E49;" cx="348.437" cy="135.877" r="11.532"/>
<path d="M336.906,135.877c0,6.388,5.151,11.54,11.54,11.54c6.372,0,11.524-5.151,11.524-11.54"/>
<path style="fill:#F4C3A2;" d="M325.689,159.933c0.599,0,1.229-0.221,1.709-0.717c5.632-5.624,13.107-8.72,21.047-8.72h0.016
	c7.94,0,15.415,3.104,21.016,8.712c0.937,0.953,2.473,0.977,3.434,0.008c0.953-0.922,0.969-2.458,0.016-3.419
	c-6.506-6.546-15.218-10.161-24.458-10.161h-0.016c-9.248,0-17.936,3.592-24.505,10.145c-0.922,0.937-0.922,2.505,0,3.434
	C324.429,159.705,325.043,159.933,325.689,159.933z"/>
<path style="fill:#663F24;" d="M296.891,162.887c0,0-13.477-29.003-49.719-5.175s-39.353,16.565-39.353,16.565
	s38.313,27.987,79.754,10.382l6.215-5.199L296.891,162.887z"/>
<path style="fill:#543722;" d="M207.811,174.269c0,0,38.313,27.987,79.754,10.382l6.215-5.199l3.111-16.573"/>
<path style="fill:#663F24;" d="M289.613,162.887c0,0,13.462-29.003,49.711-5.175s39.353,16.565,39.353,16.565
	s-38.305,27.987-79.738,10.382l-6.231-5.199L289.613,162.887z"/>
<path style="fill:#543722;" d="M378.677,174.269c0,0-38.305,27.987-79.738,10.382l-6.231-5.199l-3.096-16.573"/>
<path style="fill:#663F24;" d="M122.622,107.654c0,0,17.723-37.415,33.477,0v32.823h13.131v-35.446l29.216-29.208
	c0,0-19.527-67.048-48.412-39.479s-30.035,47.679-29.373,59.494C121.322,107.654,122.622,107.654,122.622,107.654z"/>
<g>
	<circle style="fill:#6A7775;" cx="272.622" cy="293.085" r="5.908"/>
	<circle style="fill:#6A7775;" cx="272.622" cy="324.592" r="5.908"/>
	<circle style="fill:#6A7775;" cx="272.622" cy="356.1" r="5.908"/>
</g>
</svg>