<?xml version="1.0" encoding="iso-8859-1"?>
<!-- Uploaded to: SVG Repo, www.svgrepo.com, Generator: SVG Repo Mixer Tools -->
<svg height="800px" width="800px" version="1.1" id="Layer_1" xmlns="http://www.w3.org/2000/svg" xmlns:xlink="http://www.w3.org/1999/xlink" 
	 viewBox="0 0 504.123 504.123" xml:space="preserve">
<g>
	<path style="fill:#D1B302;" d="M241.073,203.768c10.027,11.28,3.663,33.296-14.218,49.215
		c-17.881,15.896-114.018,85.031-124.062,73.767c-10.012-11.296,69.892-98.706,87.773-114.601
		C208.431,196.246,231.046,192.496,241.073,203.768z"/>
	<path style="fill:#D1B302;" d="M263.05,203.768c-10.027,11.28-3.663,33.296,14.218,49.215
		c17.881,15.896,114.018,85.031,124.062,73.767c10.012-11.296-69.892-98.706-87.773-114.601
		C295.692,196.246,273.077,192.496,263.05,203.768z"/>
</g>
<g>
	<path style="fill:#B79904;" d="M348.538,358.951c0,19.511-15.817,124.676-35.336,124.676c-19.495,0-35.304-105.173-35.304-124.676
		c0-19.495,15.817-35.32,35.304-35.32C332.721,323.631,348.538,339.464,348.538,358.951z"/>
	<path style="fill:#B79904;" d="M228.218,361.905c0,19.511-15.817,124.676-35.336,124.676c-19.495,0-35.304-105.173-35.304-124.676
		c0-19.495,15.817-35.32,35.304-35.32C212.401,326.585,228.218,342.418,228.218,361.905z"/>
</g>
<path style="fill:#CE1111;" d="M351.705,315.242c0,126.322-44.599,84.259-99.643,84.259c-55.028,0-99.643,42.063-99.643-84.259
	c0-72.231,44.631-130.788,99.643-130.788C307.09,184.462,351.705,243.019,351.705,315.242z"/>
<path style="fill:#D1B302;" d="M351.705,315.242c0,126.322-44.599,84.259-99.643,84.259c-55.028,0-99.643,42.063-99.643-84.259
	c0-72.231,44.631-130.788,99.643-130.788C307.09,184.462,351.705,243.019,351.705,315.242z"/>
<path style="fill:#EACE00;" d="M252.062,184.462c-53.28,0-96.681,54.957-99.383,124.014c3.513,107.874,46.655,69.372,99.383,69.372
	c52.744,0,95.862,38.51,99.383-69.372C348.743,239.419,305.349,184.462,252.062,184.462z"/>
<path style="fill:#232728;" d="M232.629,487.219c0,14.935-17.802,16.904-39.739,16.904s-39.739-1.969-39.739-16.904
	c0-14.935,17.802-35.509,39.739-35.509S232.629,472.277,232.629,487.219z"/>
<path d="M232.629,487.219c0,14.935-17.802,16.904-39.739,16.904s-39.739-1.969-39.739-16.904"/>
<path style="fill:#232728;" d="M350.988,487.219c0,14.935-17.802,16.904-39.739,16.904s-39.739-1.969-39.739-16.904
	c0-14.935,17.802-35.509,39.739-35.509S350.988,472.277,350.988,487.219z"/>
<path d="M350.988,487.219c0,14.935-17.802,16.904-39.739,16.904s-39.739-1.969-39.739-16.904"/>
<path style="fill:#D1B302;" d="M173.088,235.725c21.835,11.059,49.191,16.691,78.99,16.691c29.783,0,57.139-5.632,78.966-16.691
	c-18.211-31.106-46.773-51.263-78.982-51.263C219.861,184.462,191.291,204.603,173.088,235.725z"/>
<polygon style="fill:#FFFFFF;" points="298.016,207.415 252.062,307.2 206.108,207.415 252.062,161.461 "/>
<path style="fill:#EAE5DF;" d="M280.513,189.913c-9.011-3.529-18.558-5.451-28.451-5.451s-19.448,1.914-28.459,5.451l-17.495,17.503
	l19.999,43.433c8.397,1,17.046,1.568,25.97,1.568c8.901,0,17.558-0.567,25.939-1.568l20-43.433L280.513,189.913z"/>
<path style="fill:#F7CCB0;" d="M381.015,124.258c0,63-57.738,94.681-128.937,94.681c-71.215,0-128.969-31.673-128.969-94.681
	C123.108,61.227,180.862,0,252.077,0C323.277,0,381.015,61.227,381.015,124.258z"/>
<path style="fill:#F7BC8F;" d="M381.015,124.258c0,63-57.738,94.681-128.937,94.681c-71.215,0-128.969-31.673-128.969-94.681
	c0-63.031,57.754-105.236,128.969-105.236C323.277,19.023,381.015,61.227,381.015,124.258z"/>
<path style="fill:#EAAF88;" d="M381.015,124.258c0,63-57.738,94.681-128.937,94.681c-71.215,0-128.969-31.673-128.969-94.681"/>
<circle style="fill:#113E49;" cx="190.748" cy="133.569" r="11.532"/>
<path d="M202.279,133.569c0,6.388-5.167,11.54-11.54,11.54c-6.372,0-11.524-5.152-11.524-11.54"/>
<path style="fill:#FFD3C5;" d="M213.496,157.633c-0.614,0-1.245-0.228-1.725-0.725c-5.632-5.616-13.107-8.72-21.047-8.72h-0.016
	c-7.94,0-15.399,3.111-21,8.72c-0.953,0.953-2.489,0.969-3.434,0c-0.953-0.922-0.985-2.458-0.031-3.419
	c6.538-6.538,15.218-10.153,24.458-10.153h0.016c9.263,0,17.951,3.584,24.505,10.138c0.937,0.937,0.937,2.505,0,3.434
	C214.756,157.397,214.142,157.633,213.496,157.633z"/>
<circle style="fill:#113E49;" cx="313.423" cy="133.569" r="11.532"/>
<path d="M301.859,133.569c0,6.388,5.151,11.54,11.54,11.54c6.372,0,11.524-5.152,11.524-11.54"/>
<path style="fill:#FFD3C5;" d="M290.643,157.633c0.599,0,1.229-0.228,1.709-0.725c5.632-5.616,13.107-8.72,21.047-8.72h0.016
	c7.94,0,15.415,3.111,21.016,8.72c0.937,0.953,2.473,0.969,3.434,0c0.953-0.922,0.969-2.458,0.016-3.419
	c-6.506-6.538-15.218-10.153-24.458-10.153h-0.016c-9.248,0-17.936,3.584-24.505,10.138c-0.922,0.937-0.922,2.505,0,3.434
	C289.382,157.397,289.997,157.633,290.643,157.633z"/>
<g>
	<path style="fill:#845824;" d="M216.954,168.164h-56.8c-11.24,0-20.385-9.145-20.385-20.385v-30.744
		c0-11.24,9.145-20.385,20.385-20.385h56.8c11.24,0,20.385,9.145,20.385,20.385v30.744
		C237.34,159.019,228.194,168.164,216.954,168.164z M160.154,112.404c-2.552,0-4.632,2.08-4.632,4.632v30.744
		c0,2.552,2.079,4.632,4.632,4.632h56.8c2.552,0,4.632-2.08,4.632-4.632v-30.744c0-2.552-2.079-4.632-4.632-4.632
		C216.954,112.404,160.154,112.404,160.154,112.404z"/>
	<path style="fill:#845824;" d="M145.676,140.28h-30.523c-4.356,0-7.877-3.521-7.877-7.877c0-4.356,3.521-7.877,7.877-7.877h30.523
		c4.356,0,7.877,3.521,7.877,7.877C153.553,136.759,150.032,140.28,145.676,140.28z"/>
	<path style="fill:#845824;" d="M343.969,168.157h-56.801c-11.24,0-20.385-9.145-20.385-20.385v-30.736
		c0-11.24,9.145-20.385,20.385-20.385h56.801c11.24,0,20.385,9.145,20.385,20.385v30.736
		C364.355,159.011,355.21,168.157,343.969,168.157z M287.169,112.404c-2.552,0-4.632,2.08-4.632,4.632v30.736
		c0,2.552,2.079,4.632,4.632,4.632h56.801c2.552,0,4.632-2.08,4.632-4.632v-30.736c0-2.552-2.079-4.632-4.632-4.632
		C343.969,112.404,287.169,112.404,287.169,112.404z"/>
	<path style="fill:#845824;" d="M388.97,140.28h-30.523c-4.356,0-7.877-3.521-7.877-7.877c0-4.356,3.521-7.877,7.877-7.877h30.523
		c4.356,0,7.877,3.521,7.877,7.877C396.847,136.759,393.326,140.28,388.97,140.28z"/>
	<path style="fill:#845824;" d="M274.66,138.004h-43.811c-4.356,0-7.877-3.521-7.877-7.877c0-4.356,3.521-7.877,7.877-7.877h43.811
		c4.356,0,7.877,3.521,7.877,7.877C282.537,134.483,279.016,138.004,274.66,138.004z"/>
</g>
<path style="fill:#FFFFFF;" d="M257.308,381.369c0,2.891-2.339,5.246-5.246,5.246l0,0c-2.891,0-5.246-2.355-5.246-5.246v-85.339
	c0-2.907,2.355-5.254,5.246-5.254l0,0c2.907,0,5.246,2.347,5.246,5.254V381.369z"/>
<path style="fill:#513715;" d="M266.398,165.935H237.71c-13.273,0-24.033,10.768-24.033,24.033v18.692
	c0,13.273,10.76,24.025,24.033,24.025h28.688c13.296,0,24.033-10.752,24.033-24.025v-18.692
	C290.43,176.711,279.694,165.935,266.398,165.935z M274.653,200.814c0,7.814-6.333,14.147-14.147,14.147H243.61
	c-7.814,0-14.155-6.333-14.155-14.147v-10.996c0-7.806,6.341-14.155,14.155-14.155h16.896c7.814,0,14.147,6.349,14.147,14.155
	V200.814z"/>
<path style="fill:#227FEF;" d="M128.323,330.831c0,11.973-9.689,21.662-21.662,21.662l0,0c-11.973,0-21.662-9.689-21.662-21.662l0,0
	c0-11.973,9.689-21.662,21.662-21.662l0,0C118.634,309.169,128.323,318.858,128.323,330.831L128.323,330.831z"/>
<path style="fill:#0A5BDD;" d="M106.661,309.169L106.661,309.169c11.973,0,21.662,9.689,21.662,21.662l0,0
	c0,11.973-9.689,21.662-21.662,21.662l0,0"/>
<path style="fill:#227FEF;" d="M375.784,330.831c0-11.981,9.689-21.677,21.662-21.677l0,0c11.973,0,21.677,9.689,21.677,21.677l0,0
	c0,11.957-9.704,21.662-21.677,21.662l0,0C385.481,352.492,375.784,342.788,375.784,330.831L375.784,330.831z"/>
<path style="fill:#0A5BDD;" d="M397.446,352.492L397.446,352.492c-11.973,0-21.662-9.704-21.662-21.662l0,0
	c0-11.981,9.689-21.677,21.662-21.677l0,0"/>
</svg>