<?xml version="1.0" encoding="iso-8859-1"?>
<!-- Uploaded to: SVG Repo, www.svgrepo.com, Generator: SVG Repo Mixer Tools -->
<svg height="800px" width="800px" version="1.1" id="Layer_1" xmlns="http://www.w3.org/2000/svg" xmlns:xlink="http://www.w3.org/1999/xlink" 
	 viewBox="0 0 504.123 504.123" xml:space="preserve">
<path style="fill:#F24603;" d="M275.645,258.095c11.28,10.027,33.296,3.663,49.215-14.218
	c15.896-17.881,85.016-114.018,73.767-124.062c-11.296-10.012-98.706,69.9-114.601,87.773
	C268.123,225.445,264.365,248.06,275.645,258.095z"/>
<path style="fill:#32A01C;" d="M420.754,122.092c0,8.696-7.05,15.754-15.754,15.754h-7.877c-8.696,0-15.754-7.058-15.754-15.754
	v-7.877c0-8.696,7.058-15.754,15.754-15.754H405c8.704,0,15.754,7.058,15.754,15.754V122.092z"/>
<path style="fill:#FF6D00;" d="M234.464,203.768c10.027,11.28,3.663,33.304-14.218,49.223
	c-17.881,15.896-114.034,85.024-124.062,73.767c-10.012-11.296,69.892-98.714,87.757-114.609
	C201.815,196.254,224.429,192.496,234.464,203.768z"/>
<g>
	<path style="fill:#087C66;" d="M221.601,361.913c0,19.503-15.817,124.668-35.336,124.668c-19.495,0-35.304-105.173-35.304-124.668
		c0-19.495,15.817-35.32,35.304-35.32C205.785,326.593,221.601,342.418,221.601,361.913z"/>
	<path style="fill:#087C66;" d="M339.952,361.913c0,19.503-15.817,124.668-35.336,124.668c-19.495,0-35.304-105.173-35.304-124.668
		c0-19.495,15.817-35.32,35.304-35.32C324.135,326.593,339.952,342.418,339.952,361.913z"/>
</g>
<path style="fill:#FF6D00;" d="M345.096,315.242c0,126.33-44.615,84.259-99.643,84.259s-99.651,42.079-99.651-84.259
	c0-72.231,44.631-130.781,99.643-130.781C300.473,184.47,345.096,243.019,345.096,315.242z"/>
<path style="fill:#3D3C39;" d="M249.88,364.473c0,2.45-1.985,4.427-4.427,4.427l0,0c-2.45,0-4.427-1.985-4.427-4.427V234.504
	c0-2.45,1.985-4.427,4.427-4.427l0,0c2.45,0,4.427,1.985,4.427,4.427V364.473z"/>
<ellipse style="fill:#32A01C;" cx="245.445" cy="213.827" rx="54.65" ry="33.965"/>
<path style="fill:#F24603;" d="M245.445,366.033c-51.617,0-94.074,37.006-99.139-62.661c-0.339,3.458-0.504,7.396-0.504,11.878
	c0,126.33,44.615,84.259,99.643,84.259s99.643,42.071,99.643-84.259c0-4.474-0.165-8.413-0.504-11.878
	C339.511,403.039,297.078,366.033,245.445,366.033z"/>
<path style="fill:#3D3C39;" d="M226.013,487.219c0,14.935-17.802,16.904-39.755,16.904c-21.921,0-39.739-1.961-39.739-16.904
	c0-14.943,17.818-35.509,39.739-35.509C208.219,451.718,226.013,472.277,226.013,487.219z"/>
<path style="fill:#1C1B1A;" d="M226.013,487.219c0,14.935-17.802,16.904-39.755,16.904c-21.921,0-39.739-1.961-39.739-16.904"/>
<path style="fill:#3D3C39;" d="M344.355,487.219c0,14.935-17.786,16.904-39.723,16.904c-21.937,0-39.739-1.961-39.739-16.904
	c0-14.943,17.802-35.509,39.739-35.509C326.569,451.71,344.355,472.277,344.355,487.219z"/>
<path style="fill:#1C1B1A;" d="M344.355,487.219c0,14.935-17.786,16.904-39.723,16.904c-21.937,0-39.739-1.961-39.739-16.904"/>
<path style="fill:#E8B085;" d="M374.398,124.258c0,63.008-57.754,94.681-128.937,94.681c-71.215,0-128.969-31.673-128.969-94.681
	C116.492,61.235,174.245,0,245.461,0C316.644,0,374.398,61.235,374.398,124.258z"/>
<path style="fill:#DD9F76;" d="M374.398,124.258c0,63.008-57.754,94.681-128.937,94.681c-71.215,0-128.969-31.673-128.969-94.681"/>
<circle style="fill:#113E49;" cx="184.131" cy="136.428" r="11.532"/>
<path d="M195.663,136.428c0,6.388-5.183,11.54-11.54,11.54c-6.372,0-11.524-5.152-11.524-11.54"/>
<path style="fill:#F4C3A2;" d="M206.88,160.484c-0.614,0-1.245-0.221-1.725-0.717c-5.632-5.624-13.107-8.72-21.047-8.72h-0.016
	c-7.94,0-15.399,3.104-21,8.712c-0.953,0.953-2.489,0.977-3.45,0.008c-0.953-0.922-0.969-2.458-0.016-3.419
	c6.538-6.546,15.218-10.161,24.458-10.161h0.016c9.263,0,17.936,3.592,24.489,10.145c0.937,0.937,0.937,2.505,0,3.434
	C208.14,160.264,207.525,160.484,206.88,160.484z"/>
<path style="fill:#113E49;" d="M295.243,136.428c0,6.388,5.136,11.54,11.54,11.54c6.372,0,11.524-5.152,11.524-11.54
	c0-6.365-5.151-11.532-11.524-11.532C300.386,124.896,295.243,130.072,295.243,136.428z"/>
<path d="M295.243,136.428c0,6.388,5.136,11.54,11.54,11.54c6.372,0,11.524-5.152,11.524-11.54"/>
<path style="fill:#F4C3A2;" d="M284.034,160.484c0.583,0,1.229-0.221,1.709-0.717c5.632-5.624,13.107-8.72,21.047-8.72l0,0
	c7.956,0,15.431,3.104,21.016,8.712c0.937,0.953,2.473,0.977,3.434,0.008c0.969-0.922,0.985-2.458,0.032-3.419
	c-6.506-6.546-15.218-10.161-24.474-10.161l0,0c-9.247,0-17.952,3.592-24.521,10.145c-0.922,0.937-0.922,2.505,0,3.434
	C282.766,160.264,283.388,160.484,284.034,160.484z"/>
<path style="fill:#54C911;" d="M120.674,95.193H370.2C355.927,43.67,305.554,0,245.461,0C185.336,0,134.971,43.67,120.674,95.193z"
	/>
<path style="fill:#32A01C;" d="M120.674,95.193H370.2c-14.273-51.523-64.646-72.862-124.739-72.862
	C185.336,22.331,134.971,43.67,120.674,95.193z"/>
<path style="fill:#54C911;" d="M131.521,160.075c-3.277,12.918-16.384,20.732-29.31,17.471c-12.91-3.269-20.74-16.384-17.479-29.31
	c3.277-12.91,25.813-57.951,38.739-54.689C136.381,96.815,134.782,147.165,131.521,160.075z"/>
<path style="fill:#32A01C;" d="M123.479,93.546c12.91,3.269,11.311,53.618,8.042,66.528c-3.277,12.918-16.384,20.732-29.31,17.471"
	/>
<path style="fill:#54C911;" d="M359.369,160.075c3.261,12.918,16.384,20.732,29.31,17.471c12.91-3.269,20.74-16.384,17.463-29.31
	c-3.261-12.91-25.813-57.951-38.723-54.689C354.493,96.815,356.108,147.165,359.369,160.075z"/>
<g>
	<path style="fill:#32A01C;" d="M367.419,93.546c-12.926,3.269-11.311,53.618-8.042,66.528c3.269,12.91,16.384,20.732,29.31,17.471"
		/>
	<path style="fill:#32A01C;" d="M375.414,95.177c0,5.435-4.419,9.846-9.846,9.846H125.322c-5.443,0-9.846-4.411-9.846-9.846l0,0
		c0-5.435,4.403-9.846,9.846-9.846h240.246C371.003,85.331,375.414,89.742,375.414,95.177L375.414,95.177z"/>
	<path style="fill:#32A01C;" d="M122.754,329.531c0,8.696-7.058,15.754-15.754,15.754h-7.877c-8.704,0-15.754-7.058-15.754-15.754
		v-7.877c0-8.704,7.05-15.754,15.754-15.754H107c8.696,0,15.754,7.05,15.754,15.754V329.531z"/>
</g>
<g>
	<path style="fill:#3D3C39;" d="M220.83,305.885h-43.323v-43.323h43.323V305.885z M185.383,298.008h27.569v-27.569h-27.569V298.008z
		"/>
	<polygon style="fill:#3D3C39;" points="199.168,286.791 184.123,271.746 189.692,266.177 199.168,275.653 208.644,266.177 
		214.213,271.746 	"/>
	<path style="fill:#3D3C39;" d="M313.383,305.885H270.06v-43.323h43.323V305.885z M277.937,298.008h27.569v-27.569h-27.569V298.008z
		"/>
	<polygon style="fill:#3D3C39;" points="291.722,286.791 276.677,271.746 282.246,266.177 291.722,275.653 301.198,266.177 
		306.767,271.746 	"/>
</g>
</svg>