<?xml version="1.0" encoding="iso-8859-1"?>
<!-- Uploaded to: SVG Repo, www.svgrepo.com, Generator: SVG Repo Mixer Tools -->
<svg height="800px" width="800px" version="1.1" id="Layer_1" xmlns="http://www.w3.org/2000/svg" xmlns:xlink="http://www.w3.org/1999/xlink" 
	 viewBox="0 0 504.123 504.123" xml:space="preserve">
<g>
	<path style="fill:#D1B302;" d="M241.073,203.768c10.035,11.28,3.663,33.296-14.218,49.215
		c-17.888,15.896-114.018,85.031-124.062,73.767c-10.012-11.296,69.892-98.706,87.765-114.601
		C208.431,196.246,231.038,192.496,241.073,203.768z"/>
	<path style="fill:#D1B302;" d="M263.05,203.768c-10.027,11.28-3.663,33.296,14.218,49.215
		c17.881,15.896,114.018,85.031,124.062,73.767c10.012-11.296-69.892-98.706-87.773-114.601
		C295.692,196.246,273.077,192.496,263.05,203.768z"/>
</g>
<g>
	<path style="fill:#B79904;" d="M348.53,358.951c0,19.511-15.809,124.676-35.328,124.676c-19.495,0-35.304-105.173-35.304-124.676
		c0-19.495,15.817-35.32,35.304-35.32C332.721,323.631,348.53,339.464,348.53,358.951z"/>
	<path style="fill:#B79904;" d="M228.218,361.905c0,19.511-15.825,124.676-35.336,124.676c-19.503,0-35.296-105.173-35.296-124.676
		c0-19.495,15.801-35.32,35.296-35.32C212.393,326.585,228.218,342.418,228.218,361.905z"/>
</g>
<path style="fill:#CE1111;" d="M351.705,315.242c0,126.322-44.599,84.259-99.643,84.259c-55.028,0-99.643,42.063-99.643-84.259
	c0-72.231,44.623-130.788,99.643-130.788C307.09,184.462,351.705,243.019,351.705,315.242z"/>
<path style="fill:#D1B302;" d="M351.705,315.242c0,126.322-44.599,84.259-99.643,84.259c-55.028,0-99.643,42.063-99.643-84.259
	c0-72.231,44.623-130.788,99.643-130.788C307.09,184.462,351.705,243.019,351.705,315.242z"/>
<path style="fill:#EACE00;" d="M252.062,184.462c-53.28,0-96.681,54.957-99.383,124.014c3.513,107.874,46.655,69.372,99.383,69.372
	c52.744,0,95.87,38.51,99.383-69.372C348.743,239.419,305.349,184.462,252.062,184.462z"/>
<path style="fill:#232728;" d="M232.629,487.219c0,14.935-17.802,16.904-39.739,16.904s-39.739-1.969-39.739-16.904
	c0-14.935,17.802-35.509,39.739-35.509S232.629,472.277,232.629,487.219z"/>
<path d="M232.629,487.219c0,14.935-17.802,16.904-39.739,16.904s-39.739-1.969-39.739-16.904"/>
<path style="fill:#232728;" d="M350.988,487.219c0,14.935-17.81,16.904-39.739,16.904c-21.945,0-39.739-1.969-39.739-16.904
	c0-14.935,17.794-35.509,39.739-35.509C333.178,451.71,350.988,472.277,350.988,487.219z"/>
<path d="M350.988,487.219c0,14.935-17.81,16.904-39.739,16.904c-21.945,0-39.739-1.969-39.739-16.904"/>
<path style="fill:#D1B302;" d="M173.088,235.725c21.827,11.059,49.191,16.691,78.99,16.691c29.783,0,57.139-5.632,78.966-16.691
	c-18.219-31.106-46.773-51.263-78.982-51.263C219.861,184.462,191.291,204.603,173.088,235.725z"/>
<polygon style="fill:#605B58;" points="298.016,207.415 252.062,307.2 206.108,207.415 252.062,161.461 "/>
<path d="M280.513,189.913c-9.011-3.529-18.558-5.451-28.451-5.451s-19.456,1.914-28.451,5.451l-17.503,17.503l19.999,43.433
	c8.397,1,17.054,1.568,25.97,1.568c8.901,0,17.558-0.567,25.947-1.568l19.992-43.433L280.513,189.913z"/>
<path style="fill:#232728;" d="M381.015,124.258c0,63-57.738,94.681-128.937,94.681c-71.215,0-128.961-31.673-128.961-94.681
	C123.116,61.227,180.862,0,252.077,0C323.277,0,381.015,61.227,381.015,124.258z"/>
<path style="fill:#F7BC8F;" d="M381.015,124.258c0,63-57.738,94.681-128.937,94.681c-71.215,0-128.961-31.673-128.961-94.681
	c0-63.031,57.746-74.382,128.961-74.382C323.277,49.877,381.015,61.227,381.015,124.258z"/>
<path style="fill:#EAAF88;" d="M381.015,124.258c0,63-57.738,94.681-128.937,94.681c-71.215,0-128.961-31.673-128.961-94.681"/>
<circle style="fill:#0F83B7;" cx="190.74" cy="140.461" r="11.524"/>
<path style="fill:#186189;" d="M202.272,140.461c0,6.388-5.159,11.54-11.54,11.54c-6.365,0-11.516-5.152-11.516-11.54"/>
<path style="fill:#FFD3C5;" d="M213.496,164.525c-0.614,0-1.252-0.228-1.725-0.725c-5.624-5.616-13.107-8.72-21.039-8.72h-0.024
	c-7.94,0-15.399,3.111-20.992,8.72c-0.961,0.953-2.505,0.969-3.442,0c-0.953-0.922-0.985-2.458-0.031-3.419
	c6.538-6.538,15.218-10.153,24.458-10.153h0.024c9.255,0,17.944,3.584,24.497,10.138c0.937,0.937,0.937,2.505,0,3.434
	C214.749,164.289,214.142,164.525,213.496,164.525z"/>
<path style="fill:#0F83B7;" d="M301.859,140.461c0,6.388,5.144,11.54,11.54,11.54c6.365,0,11.524-5.152,11.524-11.54
	c0-6.357-5.159-11.524-11.524-11.524C307.011,128.937,301.859,134.105,301.859,140.461z"/>
<path style="fill:#186189;" d="M301.859,140.461c0,6.388,5.144,11.54,11.54,11.54c6.365,0,11.524-5.152,11.524-11.54"/>
<path style="fill:#FFD3C5;" d="M290.635,164.525c0.607,0,1.237-0.228,1.709-0.725c5.632-5.616,13.115-8.72,21.055-8.72h0.016
	c7.948,0,15.407,3.111,21.016,8.72c0.937,0.953,2.473,0.969,3.434,0c0.953-0.922,0.961-2.458,0.016-3.419
	c-6.506-6.538-15.21-10.153-24.458-10.153h-0.016c-9.255,0-17.936,3.584-24.505,10.138c-0.922,0.937-0.922,2.505,0,3.434
	C289.382,164.289,289.997,164.525,290.635,164.525z"/>
<path style="fill:#605B58;" d="M257.308,381.369c0,2.891-2.339,5.246-5.246,5.246l0,0c-2.891,0-5.246-2.355-5.246-5.246v-85.339
	c0-2.907,2.355-5.254,5.246-5.254l0,0c2.907,0,5.246,2.347,5.246,5.254V381.369z"/>
<path style="fill:#227FEF;" d="M128.323,330.831c0,11.973-9.696,21.662-21.662,21.662l0,0c-11.973,0-21.662-9.689-21.662-21.662l0,0
	c0-11.973,9.689-21.662,21.662-21.662l0,0C118.626,309.169,128.323,318.858,128.323,330.831L128.323,330.831z"/>
<path style="fill:#0A5BDD;" d="M106.661,309.169L106.661,309.169c11.965,0,21.662,9.689,21.662,21.662l0,0
	c0,11.973-9.696,21.662-21.662,21.662l0,0"/>
<path style="fill:#227FEF;" d="M375.784,330.831c0-11.981,9.689-21.677,21.662-21.677l0,0c11.965,0,21.677,9.689,21.677,21.677l0,0
	c0,11.957-9.712,21.662-21.677,21.662l0,0C385.481,352.492,375.784,342.788,375.784,330.831L375.784,330.831z"/>
<path style="fill:#0A5BDD;" d="M397.446,352.492L397.446,352.492c-11.973,0-21.662-9.704-21.662-21.662l0,0
	c0-11.981,9.689-21.677,21.662-21.677l0,0"/>
<path style="fill:#232728;" d="M171.213,31.909c3.308,3.293,3.308,8.665,0,11.957l-22.764,22.772c-3.308,3.308-8.68,3.3-11.973,0
	l0,0c-3.3-3.3-3.3-8.665,0-11.981l22.764-22.749C162.556,28.585,167.904,28.585,171.213,31.909L171.213,31.909z"/>
<path style="fill:#CC1D00;" d="M168.905,11.051c5.065,5.073,5.065,13.296,0,18.361L134.01,64.299
	c-5.081,5.088-13.296,5.073-18.377,0l0,0c-5.057-5.057-5.057-13.288,0-18.345l34.903-34.903
	C155.617,5.994,163.824,5.994,168.905,11.051L168.905,11.051z"/>
<path style="fill:#FF7212;" d="M150.536,11.051l-34.903,34.903c-3.45,3.458-4.482,8.397-3.206,12.8
	c4.395,1.276,9.342,0.236,12.792-3.23l34.903-34.887c3.458-3.466,4.482-8.405,3.23-12.8C158.941,6.554,154.017,7.585,150.536,11.051
	z"/>
<path style="fill:#232728;" d="M332.902,31.909c-3.308,3.293-3.308,8.665,0,11.957l22.764,22.772c3.308,3.308,8.688,3.3,11.981,0
	l0,0c3.3-3.3,3.3-8.665,0-11.981l-22.764-22.749C341.567,28.585,336.219,28.585,332.902,31.909L332.902,31.909z"/>
<path style="fill:#CC1D00;" d="M335.218,11.051c-5.073,5.073-5.073,13.296,0,18.361l34.895,34.887
	c5.073,5.088,13.296,5.073,18.369,0l0,0c5.065-5.057,5.065-13.288,0-18.345l-34.895-34.903
	C348.507,5.994,340.291,5.994,335.218,11.051L335.218,11.051z"/>
<path style="fill:#FF7212;" d="M353.587,11.051l34.895,34.903c3.458,3.458,4.49,8.397,3.214,12.8
	c-4.403,1.276-9.342,0.236-12.8-3.23l-34.895-34.887c-3.466-3.466-4.49-8.405-3.23-12.8C345.183,6.554,350.106,7.585,353.587,11.051
	z"/>
</svg>