<?xml version="1.0" encoding="iso-8859-1"?>
<!-- Uploaded to: SVG Repo, www.svgrepo.com, Generator: SVG Repo Mixer Tools -->
<svg version="1.1" id="Layer_1" xmlns="http://www.w3.org/2000/svg" xmlns:xlink="http://www.w3.org/1999/xlink" 
	 viewBox="0 0 504.123 504.123" xml:space="preserve">
<g>
	<path style="fill:#4F340E;" d="M444.384,498.877c0,2.899-2.355,5.246-5.246,5.246l0,0c-2.907,0-5.246-2.347-5.246-5.246V330.847
		c0-2.914,2.339-5.262,5.246-5.262l0,0c2.891,0,5.246,2.347,5.246,5.262V498.877z"/>
	<path style="fill:#4F340E;" d="M269.123,361.913c0,19.503-15.817,124.668-35.336,124.668c-19.495,0-35.304-105.173-35.304-124.668
		c0-19.495,15.817-35.32,35.304-35.32C253.306,326.593,269.123,342.418,269.123,361.913z"/>
	<path style="fill:#4F340E;" d="M387.474,361.913c0,19.503-15.817,124.668-35.336,124.668c-19.495,0-35.304-105.173-35.304-124.668
		c0-19.495,15.817-35.32,35.304-35.32C371.665,326.593,387.474,342.418,387.474,361.913z"/>
</g>
<path style="fill:#684713;" d="M392.617,315.242c0,126.33-44.599,84.259-99.643,84.259c-55.028,0-99.643,42.071-99.643-84.259
	c0-72.231,44.631-130.788,99.643-130.788C348.002,184.462,392.617,243.019,392.617,315.242z"/>
<path style="fill:#B7530F;" d="M273.542,487.219c0,14.943-17.802,16.904-39.739,16.904s-39.739-1.953-39.739-16.904
	c0-14.95,17.802-35.509,39.739-35.509S273.542,472.277,273.542,487.219z"/>
<path style="fill:#9B4308;" d="M273.542,487.219c0,14.943-17.802,16.904-39.739,16.904s-39.739-1.953-39.739-16.904"/>
<path style="fill:#B7530F;" d="M391.893,487.219c0,14.943-17.802,16.904-39.739,16.904c-21.937,0-39.739-1.953-39.739-16.904
	c0-14.95,17.802-35.509,39.739-35.509C374.091,451.71,391.893,472.277,391.893,487.219z"/>
<path style="fill:#9B4308;" d="M391.893,487.219c0,14.943-17.802,16.904-39.739,16.904c-21.937,0-39.739-1.953-39.739-16.904"/>
<g>
	<path style="fill:#684713;" d="M281.986,203.768c10.027,11.28,3.663,33.304-14.218,49.223
		c-17.881,15.896-114.018,85.024-124.062,73.767c-10.012-11.296,69.892-98.714,87.773-114.609
		C249.336,196.254,271.951,192.496,281.986,203.768z"/>
	<path style="fill:#684713;" d="M303.955,203.768c-10.027,11.28-3.663,33.304,14.218,49.223
		c17.881,15.896,114.018,85.024,124.062,73.767c10.012-11.296-69.892-98.714-87.773-114.609
		C336.597,196.254,313.982,192.496,303.955,203.768z"/>
</g>
<rect x="272.305" y="199.554" style="fill:#E2DED3;" width="41.354" height="141.123"/>
<path style="fill:#C6BFAF;" d="M272.289,233.669c6.751,0.622,13.627,1.024,20.693,1.024c7.05,0,13.926-0.402,20.661-1.024v-34.115
	h-41.354V233.669z"/>
<path style="fill:#F9C1AC;" d="M421.919,124.258c0,63.008-57.738,94.681-128.937,94.681c-71.215,0-128.969-31.673-128.969-94.681
	C164.013,61.235,221.767,0,292.982,0C364.182,0,421.919,61.235,421.919,124.258z"/>
<path style="fill:#F2B09C;" d="M421.919,124.258c0,63.008-57.738,94.681-128.937,94.681c-71.215,0-128.969-31.673-128.969-94.681"/>
<circle style="fill:#113E49;" cx="231.652" cy="86" r="11.532"/>
<path d="M243.184,86c0,6.38-5.167,11.532-11.54,11.532S220.121,92.381,220.121,86"/>
<path style="fill:#FFD3C5;" d="M254.401,110.048c-0.614,0-1.245-0.221-1.725-0.717c-5.632-5.624-13.107-8.72-21.047-8.72h-0.016
	c-7.94,0-15.399,3.104-21,8.712c-0.953,0.953-2.489,0.977-3.434,0.008c-0.953-0.922-0.985-2.458-0.032-3.419
	c6.538-6.546,15.218-10.161,24.458-10.161h0.016c9.263,0,17.952,3.592,24.505,10.145c0.937,0.937,0.937,2.505,0,3.434
	C255.661,109.82,255.047,110.048,254.401,110.048z"/>
<circle style="fill:#113E49;" cx="354.304" cy="86" r="11.532"/>
<path d="M342.772,86c0,6.38,5.151,11.532,11.54,11.532c6.372,0,11.524-5.152,11.524-11.532"/>
<path style="fill:#FFD3C5;" d="M331.555,110.048c0.599,0,1.229-0.221,1.709-0.717c5.632-5.624,13.107-8.72,21.047-8.72h0.016
	c7.94,0,15.415,3.104,21.016,8.712c0.937,0.953,2.473,0.977,3.434,0.008c0.953-0.922,0.969-2.458,0.016-3.419
	c-6.506-6.546-15.218-10.161-24.458-10.161h-0.031c-9.247,0-17.936,3.592-24.505,10.145c-0.922,0.937-0.922,2.505,0,3.434
	C330.295,109.82,330.91,110.048,331.555,110.048z"/>
<path style="fill:#CE910B;" d="M313.848,355.454c0,5.254-4.261,9.515-9.523,9.515h-22.307c-5.262,0-9.523-4.261-9.523-9.515l0,0
	c0-5.254,4.261-9.515,9.523-9.515h22.307C309.587,345.939,313.848,350.2,313.848,355.454L313.848,355.454z"/>
<path style="fill:#E5AA15;" d="M304.325,345.939h-22.307c-4.356,0-7.861,2.954-9.003,6.932c1.142,3.97,4.647,6.932,9.003,6.932
	h22.307c4.34,0,7.861-2.962,9.003-6.932C312.186,348.893,308.665,345.939,304.325,345.939z"/>
<path style="fill:#E8EFEF;" d="M197.955,42.677l140.753-13.139l49.286,13.139C364.418,17.219,330.634,0,292.982,0
	C255.323,0,221.538,17.219,197.955,42.677z"/>
<path style="fill:#DFE7E8;" d="M197.955,42.677l140.753-13.139l49.286,13.139c-23.576-25.458-55.454-30.539-93.097-30.539
	C257.229,12.138,221.538,17.219,197.955,42.677z"/>
<g>
	<path style="fill:#845824;" d="M257.859,117.626h-56.8c-11.24,0-20.385-9.145-20.385-20.385V66.489
		c0-11.24,9.145-20.385,20.385-20.385h56.8c11.24,0,20.385,9.145,20.385,20.385v30.744
		C278.244,108.473,269.099,117.626,257.859,117.626z M201.058,61.865c-2.552,0-4.632,2.08-4.632,4.632v30.744
		c0,2.552,2.08,4.632,4.632,4.632h56.8c2.552,0,4.632-2.08,4.632-4.632V66.489c0-2.552-2.079-4.632-4.632-4.632h-56.8V61.865z"/>
	<path style="fill:#845824;" d="M186.589,89.742h-30.523c-4.356,0-7.877-3.521-7.877-7.877s3.521-7.877,7.877-7.877h30.523
		c4.356,0,7.877,3.521,7.877,7.877S190.937,89.742,186.589,89.742z"/>
	<path style="fill:#845824;" d="M384.874,117.618h-56.8c-11.24,0-20.385-9.145-20.385-20.385V66.489
		c0-11.24,9.145-20.385,20.385-20.385h56.8c11.24,0,20.385,9.145,20.385,20.385v30.736
		C405.26,108.473,396.115,117.618,384.874,117.618z M328.074,61.865c-2.552,0-4.632,2.08-4.632,4.632v30.736
		c0,2.552,2.079,4.632,4.632,4.632h56.8c2.552,0,4.632-2.08,4.632-4.632V66.489c0-2.552-2.079-4.632-4.632-4.632h-56.8V61.865z"/>
	<path style="fill:#845824;" d="M429.875,89.742h-30.523c-4.356,0-7.877-3.521-7.877-7.877s3.521-7.877,7.877-7.877h30.523
		c4.356,0,7.877,3.521,7.877,7.877S434.231,89.742,429.875,89.742z"/>
	<path style="fill:#845824;" d="M315.565,87.465h-43.811c-4.356,0-7.877-3.521-7.877-7.877s3.521-7.877,7.877-7.877h43.811
		c4.356,0,7.877,3.521,7.877,7.877S319.921,87.465,315.565,87.465z"/>
</g>
<path style="fill:#CE4121;" d="M311.926,118.642c0,4.435-8.483-1.725-18.952-1.725s-18.952,6.16-18.952,1.725
	c0-4.443,8.483-8.042,18.952-8.042S311.926,114.2,311.926,118.642z"/>
<path style="fill:#EF4529;" d="M150.323,115.523c0,25.017-20.275,66.308-45.292,66.308s-45.292-41.291-45.292-66.308
	s20.275-45.292,45.292-45.292S150.323,90.506,150.323,115.523z"/>
<path style="fill:#CE4121;" d="M105.031,70.231c25.017,0,45.292,20.275,45.292,45.292s-20.275,66.308-45.292,66.308"/>
<g>
	<polygon style="fill:#4F340E;" points="292.636,246.965 244.445,268.666 244.445,220.491 292.636,242.2 	"/>
	<polygon style="fill:#4F340E;" points="293.305,242.2 341.48,220.491 341.48,268.666 293.305,246.965 	"/>
	<path style="fill:#4F340E;" d="M306.554,244.571c0,6.388-5.183,11.54-11.54,11.54h-4.096c-6.357,0-11.54-5.152-11.54-11.54l0,0
		c0-6.365,5.183-11.524,11.54-11.524h4.096C301.371,233.047,306.554,238.206,306.554,244.571L306.554,244.571z"/>
</g>
<path style="fill:#CE4121;" d="M119.138,193.308c0,7.798-6.325,5.585-14.108,5.585c-7.798,0-14.108,2.213-14.108-5.585
	c0-7.782,6.309-14.108,14.108-14.108C112.813,179.2,119.138,185.525,119.138,193.308z"/>
<path style="fill:#9AA5A5;" d="M149.339,322.292c-0.764,0-1.52-0.284-2.103-0.859l-45.158-45.174v-73.429
	c0-1.623,1.323-2.954,2.954-2.954c1.623,0,2.954,1.331,2.954,2.954v70.987l43.441,43.441c1.15,1.15,1.15,3.033,0,4.183
	C150.843,322.009,150.079,322.292,149.339,322.292z"/>
</svg>