<?xml version="1.0" encoding="iso-8859-1"?>
<!-- Uploaded to: SVG Repo, www.svgrepo.com, Generator: SVG Repo Mixer Tools -->
<svg height="800px" width="800px" version="1.1" id="Layer_1" xmlns="http://www.w3.org/2000/svg" xmlns:xlink="http://www.w3.org/1999/xlink" 
	 viewBox="0 0 504.123 504.123" xml:space="preserve">
<g>
	<path style="fill:#113E49;" d="M157.889,115.358c0,15.494-12.572,28.058-28.058,28.058h-1.694
		c-15.494,0-28.058-12.572-28.058-28.058l0,0c0-15.494,12.572-28.058,28.058-28.058h1.694
		C145.317,87.292,157.889,99.864,157.889,115.358L157.889,115.358z"/>
	<path style="fill:#113E49;" d="M404.043,115.358c0,15.494-12.572,28.058-28.058,28.058h-1.694
		c-15.494,0-28.058-12.572-28.058-28.058l0,0c0-15.494,12.572-28.058,28.058-28.058h1.694
		C391.471,87.292,404.043,99.864,404.043,115.358L404.043,115.358z"/>
</g>
<g>
	<path style="fill:#232728;" d="M351.701,315.242c0,126.322-44.599,84.259-99.643,84.259c-55.028,0-99.643,42.063-99.643-84.259
		c0-72.231,44.631-130.788,99.643-130.788C307.086,184.462,351.701,243.019,351.701,315.242z"/>
	<path style="fill:#232728;" d="M228.214,361.905c0,19.511-15.817,124.676-35.336,124.676c-19.495,0-35.304-105.173-35.304-124.676
		c0-19.495,15.817-35.32,35.304-35.32C212.397,326.585,228.214,342.418,228.214,361.905z"/>
	<path style="fill:#232728;" d="M346.565,361.905c0,19.511-15.817,124.676-35.336,124.676c-19.495,0-35.304-105.173-35.304-124.676
		c0-19.495,15.817-35.32,35.304-35.32C330.748,326.585,346.565,342.418,346.565,361.905z"/>
</g>
<path style="fill:#3E4142;" d="M232.625,487.219c0,14.935-17.802,16.904-39.739,16.904s-39.739-1.969-39.739-16.904
	c0-14.935,17.802-35.509,39.739-35.509S232.625,472.277,232.625,487.219z"/>
<path style="fill:#232728;" d="M232.625,487.219c0,14.935-17.802,16.904-39.739,16.904s-39.739-1.969-39.739-16.904"/>
<path style="fill:#3E4142;" d="M350.984,487.219c0,14.935-17.802,16.904-39.739,16.904s-39.739-1.969-39.739-16.904
	c0-14.935,17.802-35.509,39.739-35.509S350.984,472.277,350.984,487.219z"/>
<g>
	<path style="fill:#232728;" d="M350.984,487.219c0,14.935-17.802,16.904-39.739,16.904s-39.739-1.969-39.739-16.904"/>
	<path style="fill:#232728;" d="M241.069,203.768c10.027,11.28,3.663,33.296-14.218,49.215
		c-17.881,15.896-114.018,85.031-124.062,73.767c-10.012-11.296,69.892-98.706,87.773-114.601
		C208.427,196.246,231.042,192.496,241.069,203.768z"/>
	<path style="fill:#232728;" d="M263.046,203.768c-10.027,11.28-3.663,33.296,14.218,49.215
		c17.881,15.896,114.018,85.031,124.062,73.767c10.012-11.296-69.892-98.706-87.773-114.601
		C295.688,196.246,273.073,192.496,263.046,203.768z"/>
</g>
<polygon style="fill:#E2DED3;" points="256.981,244.846 247.135,244.846 231.381,199.538 272.735,199.538 "/>
<path style="fill:#CCE5E4;" d="M381.011,124.258c0,63-57.738,94.681-128.937,94.681c-71.215,0-128.969-31.673-128.969-94.681
	C123.104,61.227,180.858,0,252.073,0C323.273,0,381.011,61.227,381.011,124.258z"/>
<path style="fill:#B4D6D5;" d="M381.011,124.258c0,63-57.738,94.681-128.937,94.681c-71.215,0-128.969-31.673-128.969-94.681"/>
<circle style="fill:#113E49;" cx="190.744" cy="68.584" r="11.532"/>
<path d="M202.275,68.584c0,6.388-5.167,11.54-11.54,11.54s-11.524-5.152-11.524-11.54"/>
<path style="fill:#FFFFFF;" d="M213.492,92.633c-0.614,0-1.245-0.213-1.725-0.709c-5.632-5.632-13.107-8.72-21.047-8.72h-0.016
	c-7.94,0-15.399,3.096-21,8.704c-0.953,0.953-2.489,0.985-3.434,0.016c-0.953-0.922-0.985-2.458-0.032-3.419
	c6.538-6.554,15.218-10.169,24.458-10.169h0.016c9.263,0,17.952,3.6,24.505,10.153c0.937,0.937,0.937,2.505,0,3.434
	C214.753,92.412,214.138,92.633,213.492,92.633z"/>
<circle style="fill:#113E49;" cx="313.419" cy="68.584" r="11.532"/>
<path d="M301.855,68.584c0,6.388,5.152,11.54,11.54,11.54c6.372,0,11.524-5.152,11.524-11.54"/>
<path style="fill:#FFFFFF;" d="M290.639,92.633c0.599,0,1.229-0.213,1.709-0.709c5.632-5.632,13.107-8.72,21.047-8.72h0.016
	c7.94,0,15.415,3.096,21.016,8.704c0.937,0.953,2.473,0.985,3.434,0.016c0.953-0.922,0.969-2.458,0.016-3.419
	c-6.506-6.554-15.218-10.169-24.458-10.169h-0.016c-9.247,0-17.936,3.6-24.505,10.153c-0.922,0.937-0.922,2.505,0,3.434
	C289.378,92.412,289.993,92.633,290.639,92.633z"/>
<g>
	<polygon style="fill:#CE0D4E;" points="251.656,239.923 193.697,266.035 193.697,208.077 251.656,234.189 	"/>
	<polygon style="fill:#CE0D4E;" points="252.459,234.189 310.418,208.077 310.418,266.035 252.459,239.923 	"/>
	<path style="fill:#CE0D4E;" d="M268.394,237.056c0,7.672-6.231,13.879-13.879,13.879h-4.923c-7.648,0-13.879-6.207-13.879-13.879
		l0,0c0-7.664,6.231-13.871,13.879-13.871h4.923C262.164,223.185,268.394,229.392,268.394,237.056L268.394,237.056z"/>
</g>
<g>
	<path style="fill:#E21454;" d="M203.229,123.03c0,10.516-4.001,21.039-12.012,29.05c-6.357,6.365-14.801,9.862-23.796,9.862
		c-8.988-0.008-17.447-3.505-23.796-9.87c-5.23-5.23-8.105-12.193-8.121-19.59v-0.008c0-7.396,2.891-14.36,8.121-19.598
		c8.972-8.964,23.536-8.964,32.492,0c3.631,3.616,5.616,8.42,5.616,13.548v0.008c0,5.112-1.985,9.933-5.616,13.556
		c-3.048,3.048-7.089,4.726-11.398,4.726s-8.357-1.678-11.398-4.726l5.569-5.569c1.552,1.56,3.631,2.418,5.829,2.418
		s4.277-0.859,5.829-2.418c2.135-2.135,3.308-4.97,3.308-7.987v-0.008c0-3.017-1.166-5.845-3.308-7.979
		c-5.876-5.884-15.462-5.884-21.354,0c-7.475,7.475-7.491,20.551,0,28.058c4.876,4.876,11.351,7.562,18.227,7.562
		c6.892,0,13.367-2.686,18.227-7.554c12.942-12.958,12.965-34.005,0-46.962l5.569-5.569
		C199.227,101.983,203.229,112.506,203.229,123.03z"/>
	<path style="fill:#E21454;" d="M300.887,123.03c0,10.516,4.001,21.039,12.012,29.05c6.357,6.365,14.801,9.862,23.796,9.862
		c8.988-0.008,17.447-3.505,23.796-9.87c5.23-5.23,8.105-12.193,8.121-19.59v-0.008c0-7.396-2.891-14.36-8.121-19.598
		c-8.972-8.964-23.536-8.964-32.492,0c-3.631,3.616-5.616,8.42-5.616,13.548v0.008c0,5.112,1.985,9.933,5.616,13.556
		c3.048,3.048,7.089,4.726,11.398,4.726s8.357-1.678,11.398-4.726l-5.569-5.569c-1.552,1.56-3.631,2.418-5.829,2.418
		s-4.277-0.859-5.829-2.418c-2.135-2.135-3.308-4.97-3.308-7.987v-0.008c0-3.017,1.166-5.845,3.308-7.979
		c5.876-5.884,15.462-5.884,21.354,0c7.475,7.475,7.491,20.551,0,28.058c-4.876,4.876-11.351,7.562-18.227,7.562
		c-6.892,0-13.367-2.686-18.227-7.554c-12.942-12.958-12.965-34.005,0-46.962l-5.569-5.569
		C304.888,101.983,300.887,112.506,300.887,123.03z"/>
</g>
<g>
	<path style="fill:#90B2B1;" d="M224.323,213.165c0,2.45-1.985,4.435-4.427,4.435l0,0c-2.45,0-4.427-1.993-4.427-4.435v-64
		c0-2.45,1.985-4.427,4.427-4.427l0,0c2.45,0,4.427,1.977,4.427,4.427V213.165z"/>
	<path style="fill:#90B2B1;" d="M288.654,213.165c0,2.45-1.985,4.435-4.427,4.435l0,0c-2.45,0-4.427-1.993-4.427-4.435v-64
		c0-2.45,1.985-4.427,4.427-4.427l0,0c2.45,0,4.427,1.977,4.427,4.427V213.165z"/>
</g>
<path style="fill:#930A3C;" d="M288.985,144.4c0,8.153-6.617,14.769-14.769,14.769h-44.308c-8.153,0-14.769-6.617-14.769-14.769l0,0
	c0-8.153,6.617-14.769,14.769-14.769h44.308C282.368,129.631,288.985,136.247,288.985,144.4L288.985,144.4z"/>
<path style="fill:#E21454;" d="M274.208,143.659H229.9c-5.6,0-10.413,3.151-12.926,7.751c2.505,4.6,7.326,7.751,12.926,7.751h44.308
	c5.6,0,10.413-3.151,12.926-7.751C284.629,146.818,279.808,143.659,274.208,143.659z"/>
<g>
	<path style="fill:#113E49;" d="M145.609,85.819c0,8.972-7.27,16.242-16.242,16.242h-0.992c-8.964,0-16.242-7.278-16.242-16.242l0,0
		c0-8.972,7.286-16.242,16.242-16.242h0.992C138.338,69.569,145.609,76.847,145.609,85.819L145.609,85.819z"/>
	<path style="fill:#113E49;" d="M147.578,71.42c0,6.853-5.561,12.422-12.414,12.422h-0.756c-6.853,0-12.43-5.569-12.43-12.422l0,0
		c0-6.861,5.577-12.422,12.43-12.422h0.756C142.017,58.998,147.578,64.559,147.578,71.42L147.578,71.42z"/>
	<path style="fill:#113E49;" d="M154.36,58.62c0,5.758-4.687,10.453-10.453,10.453h-0.63c-5.766,0-10.453-4.695-10.453-10.453l0,0
		c0-5.774,4.687-10.453,10.453-10.453h0.63C149.673,48.167,154.36,52.846,154.36,58.62L154.36,58.62z"/>
	<path style="fill:#113E49;" d="M358.498,85.819c0,8.972,7.27,16.242,16.242,16.242h0.985c8.964,0,16.242-7.278,16.242-16.242l0,0
		c0-8.972-7.286-16.242-16.242-16.242h-0.985C365.769,69.569,358.498,76.847,358.498,85.819L358.498,85.819z"/>
	<path style="fill:#113E49;" d="M356.529,71.42c0,6.853,5.569,12.422,12.422,12.422h0.756c6.853,0,12.422-5.569,12.422-12.422l0,0
		c0-6.861-5.569-12.422-12.422-12.422h-0.756C362.098,58.998,356.529,64.559,356.529,71.42L356.529,71.42z"/>
	<path style="fill:#113E49;" d="M349.747,58.62c0,5.758,4.695,10.453,10.453,10.453h0.638c5.766,0,10.445-4.695,10.445-10.453l0,0
		c0-5.774-4.679-10.453-10.445-10.453H360.2C354.442,48.167,349.747,52.846,349.747,58.62L349.747,58.62z"/>
</g>
</svg>