<?xml version="1.0" encoding="iso-8859-1"?>
<!-- Uploaded to: SVG Repo, www.svgrepo.com, Generator: SVG Repo Mixer Tools -->
<svg version="1.1" id="Layer_1" xmlns="http://www.w3.org/2000/svg" xmlns:xlink="http://www.w3.org/1999/xlink" 
	 viewBox="0 0 504.123 504.123" xml:space="preserve">
<path style="fill:#B27029;" d="M295.256,350.523c0,8.696-7.058,15.754-15.754,15.754H123.287c-8.704,0-15.754-7.058-15.754-15.754
	V224.492c0-8.696,7.05-15.754,15.754-15.754h156.215c8.696,0,15.754,7.058,15.754,15.754V350.523z"/>
<path style="fill:#935415;" d="M321.841,350.523c0,8.696-7.058,15.754-15.754,15.754H149.872c-8.704,0-15.754-7.058-15.754-15.754
	V224.492c0-8.696,7.05-15.754,15.754-15.754h156.215c8.696,0,15.754,7.058,15.754,15.754V350.523z"/>
<path d="M280.117,258.095c11.28,10.027,33.304,3.663,49.223-14.218c15.896-17.881,85.016-114.018,73.767-124.062
	c-11.296-10.012-98.714,69.892-114.609,87.773C272.594,225.445,268.845,248.06,280.117,258.095z"/>
<path style="fill:#935415;" d="M343.503,301.946h-7.877v-63.015c0-6.514-5.309-11.815-11.815-11.815h-21.662v-7.877h21.662
	c10.862,0,19.692,8.83,19.692,19.692V301.946z"/>
<g>
	<path style="fill:#107889;" d="M226.065,361.913c0,19.503-15.809,124.668-35.336,124.668c-19.495,0-35.304-105.173-35.304-124.668
		c0-19.495,15.817-35.32,35.304-35.32C210.256,326.593,226.065,342.418,226.065,361.913z"/>
	<path style="fill:#107889;" d="M344.424,361.913c0,19.503-15.817,124.668-35.336,124.668c-19.495,0-35.304-105.173-35.304-124.668
		c0-19.495,15.817-35.32,35.304-35.32C328.607,326.593,344.424,342.418,344.424,361.913z"/>
</g>
<path d="M349.56,315.242c0,126.33-44.607,84.259-99.643,84.259c-55.028,0-99.643,42.071-99.643-84.259
	c0-72.231,44.631-130.781,99.643-130.781C304.945,184.47,349.56,243.019,349.56,315.242z"/>
<path d="M238.928,203.768c10.027,11.28,3.663,33.304-14.218,49.223c-17.881,15.896-114.026,85.024-124.062,73.767
	c-10.012-11.296,69.9-98.714,87.765-114.609S228.901,192.496,238.928,203.768z"/>
<rect x="224.963" y="182.49" transform="matrix(-0.7071 0.7071 -0.7071 -0.7071 573.3008 177.4024)" style="fill:#DD9F76;" width="49.892" height="49.892"/>
<path style="fill:#B27029;" d="M230.484,487.219c0,14.935-17.802,16.904-39.747,16.904c-21.929,0-39.739-1.961-39.739-16.904
	c0-14.943,17.81-35.509,39.739-35.509C212.683,451.718,230.484,472.277,230.484,487.219z"/>
<path style="fill:#A05810;" d="M230.484,487.219c0,14.935-17.802,16.904-39.747,16.904c-21.929,0-39.739-1.961-39.739-16.904"/>
<path style="fill:#B27029;" d="M348.827,487.219c0,14.935-17.786,16.904-39.731,16.904c-21.937,0-39.739-1.961-39.739-16.904
	c0-14.943,17.802-35.509,39.739-35.509C331.041,451.718,348.827,472.277,348.827,487.219z"/>
<path style="fill:#A05810;" d="M348.827,487.219c0,14.935-17.786,16.904-39.731,16.904c-21.937,0-39.739-1.961-39.739-16.904"/>
<path style="fill:#E8B085;" d="M378.87,124.258c0,63.008-57.746,94.681-128.937,94.681c-71.223,0-128.969-31.673-128.969-94.681
	C120.964,61.235,178.709,0,249.933,0C321.124,0,378.87,61.235,378.87,124.258z"/>
<path style="fill:#DD9F76;" d="M378.87,124.258c0,63.008-57.746,94.681-128.937,94.681c-71.223,0-128.969-31.673-128.969-94.681"/>
<path style="fill:#708C8A;" d="M327.646,167.771c0,23.355-18.92,42.283-42.283,42.283s-42.283-18.928-42.283-42.283v-36.281h-5.971
	c-3.474,7.097-5.569,14.99-5.569,23.434v64.236c16.4,4.616,34.603,7.01,53.839,7.01c19.22,0,37.415-2.395,53.807-7.01v-64.236
	c0-8.436-2.095-16.329-5.569-23.434h-5.971V167.771z"/>
<circle style="fill:#113E49;" cx="224.726" cy="103.448" r="11.532"/>
<path d="M236.235,103.448c0,6.388-5.175,11.54-11.532,11.54c-6.38,0-11.532-5.152-11.532-11.54"/>
<path style="fill:#F4C3A2;" d="M247.451,127.504c-0.622,0-1.245-0.221-1.725-0.717c-5.632-5.624-13.107-8.72-21.047-8.72h-0.024
	c-7.932,0-15.384,3.104-20.992,8.712c-0.945,0.953-2.489,0.977-3.442,0.008c-0.953-0.922-0.977-2.458-0.024-3.419
	c6.538-6.546,15.218-10.161,24.45-10.161h0.024c9.263,0,17.944,3.592,24.497,10.145c0.937,0.937,0.937,2.505,0,3.434
	C248.712,127.275,248.097,127.504,247.451,127.504z"/>
<path style="fill:#113E49;" d="M335.822,103.448c0,6.388,5.144,11.54,11.54,11.54c6.372,0,11.524-5.152,11.524-11.54
	c0-6.365-5.152-11.532-11.524-11.532C340.966,91.916,335.822,97.083,335.822,103.448z"/>
<path d="M335.822,103.448c0,6.388,5.144,11.54,11.54,11.54c6.372,0,11.524-5.152,11.524-11.54"/>
<path style="fill:#F4C3A2;" d="M324.606,127.504c0.591,0,1.221-0.221,1.709-0.717c5.632-5.624,13.107-8.72,21.047-8.72h0.008
	c7.956,0,15.423,3.104,21.016,8.712c0.937,0.953,2.473,0.977,3.434,0.008c0.961-0.922,0.977-2.458,0.024-3.419
	c-6.506-6.546-15.218-10.161-24.466-10.161h-0.008c-9.247,0-17.944,3.592-24.513,10.145c-0.922,0.937-0.922,2.505,0,3.434
	C323.345,127.275,323.96,127.504,324.606,127.504z"/>
<g>
	<path style="fill:#90B2B1;" d="M307.347,14.131C290.026,5.27,270.586,0,249.925,0C195.574,0,149.147,35.698,130.18,80.605
		c20.322,4.624,54.17,1.197,90.482-10.563C266.072,55.335,300.739,32.288,307.347,14.131z"/>
	<path style="fill:#90B2B1;" d="M296.225,121.848c0,0-13.477-29.003-49.719-5.175s-39.353,16.565-39.353,16.565
		s38.313,27.987,79.754,10.382l6.215-5.199L296.225,121.848z"/>
</g>
<path style="fill:#708C8A;" d="M207.153,133.23c0,0,38.313,27.987,79.754,10.382l6.215-5.199l3.111-16.573"/>
<path style="fill:#90B2B1;" d="M288.955,121.848c0,0,13.462-29.003,49.711-5.175s39.353,16.565,39.353,16.565
	s-38.305,27.987-79.754,10.382l-6.215-5.199L288.955,121.848z"/>
<path style="fill:#708C8A;" d="M378.011,133.23c0,0-38.305,27.987-79.754,10.382l-6.215-5.199l-3.096-16.573"/>
<g>
	<circle style="fill:#FFFFFF;" cx="249.933" cy="257.969" r="6.569"/>
	<circle style="fill:#FFFFFF;" cx="249.933" cy="301.284" r="6.569"/>
	<circle style="fill:#FFFFFF;" cx="249.933" cy="344.615" r="6.569"/>
</g>
<path style="fill:#935415;" d="M183.995,321.638h-21.662v-7.877h21.662c6.506,0,11.815-5.301,11.815-11.815v-63.015
	c0-6.514-5.309-11.815-11.815-11.815h-21.662c-6.514,0-11.815,5.301-11.815,11.815h-7.877c0-10.862,8.83-19.692,19.692-19.692
	h21.662c10.862,0,19.692,8.83,19.692,19.692v63.015C203.687,312.808,194.857,321.638,183.995,321.638z"/>
</svg>