<?xml version="1.0" encoding="iso-8859-1"?>
<!-- Uploaded to: SVG Repo, www.svgrepo.com, Generator: SVG Repo Mixer Tools -->
<svg height="800px" width="800px" version="1.1" id="Layer_1" xmlns="http://www.w3.org/2000/svg" xmlns:xlink="http://www.w3.org/1999/xlink" 
	 viewBox="0 0 504.123 504.123" xml:space="preserve">
<g>
	<path style="fill:#593F0B;" d="M228.218,361.913c0,19.503-15.817,124.668-35.336,124.668c-19.495,0-35.304-105.173-35.304-124.668
		c0-19.495,15.817-35.32,35.304-35.32C212.401,326.593,228.218,342.418,228.218,361.913z"/>
	<path style="fill:#593F0B;" d="M346.569,361.913c0,19.503-15.817,124.668-35.336,124.668c-19.495,0-35.304-105.173-35.304-124.668
		c0-19.495,15.817-35.32,35.304-35.32C330.752,326.593,346.569,342.418,346.569,361.913z"/>
</g>
<path style="fill:#A81333;" d="M351.705,315.242c0,126.33-44.599,84.259-99.643,84.259c-55.028,0-99.643,42.071-99.643-84.259
	c0-72.231,44.631-130.781,99.643-130.781C307.09,184.47,351.705,243.019,351.705,315.242z"/>
<path style="fill:#3D3C39;" d="M232.629,487.219c0,14.935-17.802,16.904-39.739,16.904s-39.739-1.961-39.739-16.904
	c0-14.943,17.802-35.509,39.739-35.509S232.629,472.277,232.629,487.219z"/>
<path style="fill:#1C1B1A;" d="M232.629,487.219c0,14.935-17.802,16.904-39.739,16.904s-39.739-1.961-39.739-16.904"/>
<path style="fill:#3D3C39;" d="M350.988,487.219c0,14.935-17.802,16.904-39.739,16.904s-39.739-1.961-39.739-16.904
	c0-14.943,17.802-35.509,39.739-35.509S350.988,472.277,350.988,487.219z"/>
<path style="fill:#1C1B1A;" d="M350.988,487.219c0,14.935-17.802,16.904-39.739,16.904s-39.739-1.961-39.739-16.904"/>
<path style="fill:#F9BD82;" d="M381.015,124.258c0,63.008-57.738,94.681-128.937,94.681c-71.215,0-128.969-31.673-128.969-94.681
	C123.108,61.235,180.862,0,252.077,0C323.277,0,381.015,61.235,381.015,124.258z"/>
<path style="fill:#EDA366;" d="M381.015,124.258c0,63.008-57.738,94.681-128.937,94.681c-71.215,0-128.969-31.673-128.969-94.681"/>
<circle style="fill:#113E49;" cx="190.748" cy="100.982" r="11.532"/>
<path d="M202.279,100.982c0,6.388-5.167,11.54-11.54,11.54s-11.524-5.152-11.524-11.54"/>
<path style="fill:#FFD3C5;" d="M213.496,125.038c-0.614,0-1.245-0.221-1.725-0.717c-5.632-5.624-13.107-8.72-21.047-8.72h-0.016
	c-7.94,0-15.399,3.104-21,8.712c-0.953,0.953-2.489,0.977-3.434,0.008c-0.953-0.922-0.985-2.458-0.032-3.419
	c6.538-6.546,15.218-10.161,24.458-10.161h0.016c9.263,0,17.952,3.592,24.505,10.145c0.937,0.937,0.937,2.505,0,3.434
	C214.756,124.818,214.142,125.038,213.496,125.038z"/>
<circle style="fill:#113E49;" cx="313.423" cy="100.982" r="11.532"/>
<path d="M301.859,100.982c0,6.388,5.152,11.54,11.54,11.54c6.372,0,11.524-5.152,11.524-11.54"/>
<path style="fill:#FFD3C5;" d="M290.643,125.038c0.599,0,1.229-0.221,1.709-0.717c5.632-5.624,13.107-8.72,21.047-8.72h0.016
	c7.94,0,15.415,3.104,21.016,8.712c0.937,0.953,2.473,0.977,3.434,0.008c0.953-0.922,0.969-2.458,0.016-3.419
	c-6.506-6.546-15.218-10.161-24.458-10.161h-0.016c-9.247,0-17.936,3.592-24.505,10.145c-0.922,0.937-0.922,2.505,0,3.434
	C289.382,124.818,289.997,125.038,290.643,125.038z"/>
<path style="fill:#AA1111;" d="M223.642,128.032c0-3.623,12.737-15.943,28.428-15.943s28.436,12.319,28.436,15.943
	c0,3.639-12.745,1.473-28.436,1.473S223.642,131.671,223.642,128.032z"/>
<path style="fill:#EDA366;" d="M345.309,291.643c4.742-14.344-9.862-32.02-32.603-39.534
	c-22.709-7.491-138.398-32.713-143.155-18.408c-4.71,14.336,103.353,62.818,126.078,70.309
	C318.338,311.517,340.582,305.971,345.309,291.643z"/>
<path style="fill:#F9BD82;" d="M158.815,291.643c-4.742-14.344,9.862-32.02,32.603-39.534
	c22.709-7.491,138.398-32.713,143.155-18.408c4.71,14.336-103.353,62.818-126.078,70.309
	C185.785,311.517,163.541,305.971,158.815,291.643z"/>
<path style="fill:#5F7277;" d="M296.369,240.569c-0.859-3.285-1.449-6.412-1.906-9.452c-2.213,0.268-4.466,0.551-6.774,0.859
	c0.362,4.506,1.15,9.492,2.528,14.746c1.709,6.498,3.97,12.304,6.412,16.927c2.513-1.371,4.955-2.725,7.31-4.072
	C301.048,254.7,298.338,248.084,296.369,240.569z"/>
<circle style="fill:#0698BF;" cx="291.32" cy="240.561" r="13.627"/>
<circle style="fill:#A3E1EF;" cx="290.265" cy="239.025" r="7.633"/>
<path style="fill:#FFCE00;" d="M134.971,74.831h234.181C348.743,32.681,304.057,0,252.077,0S155.388,32.681,134.971,74.831z"/>
<path style="fill:#0FB2AE;" d="M252.077,0c-43.969,0-82.66,23.418-105.921,56.123h211.818C334.722,23.418,296.046,0,252.077,0z"/>
<path style="fill:#FFCE00;" d="M304.876,11.815C288.776,4.332,270.919,0,252.077,0s-36.706,4.332-52.815,11.815H304.876z"/>
</svg>