<?xml version="1.0" encoding="iso-8859-1"?>
<!-- Uploaded to: SVG Repo, www.svgrepo.com, Generator: SVG Repo Mixer Tools -->
<svg height="800px" width="800px" version="1.1" id="Layer_1" xmlns="http://www.w3.org/2000/svg" xmlns:xlink="http://www.w3.org/1999/xlink" 
	 viewBox="0 0 504.123 504.123" xml:space="preserve">
<g>
	<path style="fill:#AF764F;" d="M289.541,214.315c11.28-10.027,33.311-3.663,49.231,14.218
		c15.896,17.881,85.016,114.018,73.767,124.062c-11.296,10.012-98.721-69.892-114.617-87.773
		C282.034,246.965,278.277,224.343,289.541,214.315z"/>
	<path style="fill:#AF764F;" d="M265.666,231.219c-0.906-15.061-20.984-26.136-44.859-24.757
		c-23.891,1.402-140.737,20.512-139.894,35.564c0.906,15.069,119.233,20.385,143.108,18.983
		C247.88,259.616,266.525,246.28,265.666,231.219z"/>
</g>
<g>
	<path style="fill:#232728;" d="M231.338,361.913c0,19.503-15.817,124.668-35.336,124.668c-19.495,0-35.304-105.173-35.304-124.668
		c0-19.495,15.817-35.32,35.304-35.32C215.521,326.593,231.338,342.418,231.338,361.913z"/>
	<path style="fill:#232728;" d="M349.697,361.913c0,19.503-15.817,124.668-35.336,124.668c-19.495,0-35.304-105.173-35.304-124.668
		c0-19.495,15.817-35.32,35.304-35.32C333.88,326.593,349.697,342.418,349.697,361.913z"/>
</g>
<path style="fill:#C48960;" d="M355.817,310.319c0,126.33-44.599,84.259-99.643,84.259c-55.028,0-99.643,42.071-99.643-84.259
	c0-72.231,44.631-130.781,99.643-130.781C311.202,179.547,355.817,238.096,355.817,310.319z"/>
<path style="fill:#EFA30C;" d="M235.757,487.219c0,14.935-17.802,16.904-39.739,16.904s-39.739-1.961-39.739-16.904
	c0-14.943,17.802-35.509,39.739-35.509S235.757,472.277,235.757,487.219z"/>
<path style="fill:#D68A05;" d="M235.757,487.219c0,14.935-17.802,16.904-39.739,16.904s-39.739-1.961-39.739-16.904"/>
<path style="fill:#EFA30C;" d="M354.108,487.219c0,14.935-17.802,16.904-39.739,16.904s-39.739-1.961-39.739-16.904
	c0-14.943,17.802-35.509,39.739-35.509S354.108,472.277,354.108,487.219z"/>
<path style="fill:#D68A05;" d="M354.108,487.219c0,14.935-17.802,16.904-39.739,16.904s-39.739-1.961-39.739-16.904"/>
<path style="fill:#D8A17C;" d="M384.143,124.258c0,63.008-57.738,94.681-128.937,94.681c-71.215,0-128.969-31.673-128.969-94.681
	C126.237,61.235,183.99,0,255.205,0C326.405,0,384.143,61.235,384.143,124.258z"/>
<path style="fill:#C48960;" d="M384.143,124.258c0,63.008-57.738,94.681-128.937,94.681c-71.215,0-128.969-31.673-128.969-94.681
	c0-63.023,57.754-111.789,128.969-111.789C326.405,12.469,384.143,61.235,384.143,124.258z"/>
<path style="fill:#BC8158;" d="M384.143,124.258c0,63.008-57.738,94.681-128.937,94.681c-71.215,0-128.969-31.673-128.969-94.681"/>
<circle style="fill:#113E49;" cx="212.898" cy="137.744" r="11.532"/>
<path d="M224.43,137.744c0,6.388-5.167,11.54-11.54,11.54c-6.372,0-11.524-5.152-11.524-11.54"/>
<path style="fill:#E5A376;" d="M235.647,161.8c-0.614,0-1.245-0.221-1.725-0.717c-5.632-5.624-13.107-8.72-21.047-8.72h-0.016
	c-7.94,0-15.399,3.104-21,8.712c-0.953,0.953-2.489,0.977-3.434,0.008c-0.953-0.922-0.985-2.458-0.032-3.419
	c6.538-6.546,15.218-10.161,24.458-10.161h0.016c9.263,0,17.952,3.592,24.505,10.145c0.937,0.937,0.937,2.505,0,3.434
	C236.907,161.579,236.293,161.8,235.647,161.8z"/>
<circle style="fill:#113E49;" cx="335.558" cy="137.744" r="11.532"/>
<path d="M324.018,137.744c0,6.388,5.151,11.54,11.54,11.54c6.372,0,11.524-5.152,11.524-11.54"/>
<path style="fill:#E5A376;" d="M312.801,161.8c0.599,0,1.229-0.221,1.709-0.717c5.632-5.624,13.107-8.72,21.047-8.72h0.016
	c7.94,0,15.415,3.104,21.016,8.712c0.937,0.953,2.473,0.977,3.434,0.008c0.953-0.922,0.969-2.458,0.016-3.419
	c-6.506-6.546-15.218-10.161-24.458-10.161h-0.024c-9.247,0-17.936,3.592-24.505,10.145c-0.922,0.937-0.922,2.505,0,3.434
	C311.541,161.579,312.156,161.8,312.801,161.8z"/>
<path style="fill:#870808;" d="M299.71,175.915c0,6.522-11.169-2.623-24.954-2.623c-13.769,0-24.938,9.145-24.938,2.623
	c0-6.522,11.169-11.815,24.938-11.815C288.541,164.1,299.71,169.393,299.71,175.915z"/>
<path style="fill:#232728;" d="M160.044,360.038c11.54,63.779,50.184,41.031,96.122,41.031c45.954,0,84.598,22.749,96.122-41.031
	H160.044z"/>
<path style="fill:#D1B869;" d="M115.264,254.362c0,4.356-3.537,7.877-7.877,7.877l0,0c-4.356,0-7.877-3.521-7.877-7.877v-28.893
	c0-4.34,3.521-7.877,7.877-7.877l0,0c4.34,0,7.877,3.537,7.877,7.877V254.362z"/>
<path style="fill:#870808;" d="M107.371,256.654c0,8.696-7.05,15.754-15.754,15.754H65.033c-8.696,0-15.754-7.058-15.754-15.754
	v-33.477c0-8.696,7.058-15.754,15.754-15.754h26.585c8.704,0,15.754,7.058,15.754,15.754V256.654z"/>
<path style="fill:#B70F0F;" d="M87.679,256.654v-33.477c0-8.696-7.05-15.754-15.754-15.754h-6.892
	c-8.696,0-15.754,7.058-15.754,15.754v33.477c0,8.696,7.058,15.754,15.754,15.754h6.892
	C80.629,272.408,87.679,265.358,87.679,256.654z"/>
<path style="fill:#D1B869;" d="M401.952,317.637c3.08-3.08,8.058-3.08,11.138,0l0,0c3.08,3.08,3.08,8.058,0,11.138l-20.433,20.433
	c-3.064,3.072-8.058,3.08-11.138,0l0,0c-3.08-3.08-3.064-8.066,0-11.138L401.952,317.637z"/>
<path style="fill:#870808;" d="M409.152,321.591c6.152-6.152,16.124-6.152,22.276,0l18.802,18.802
	c6.152,6.152,6.152,16.124,0,22.276l-23.678,23.67c-6.152,6.152-16.124,6.152-22.276,0.008l-18.802-18.802
	c-6.152-6.152-6.152-16.132,0-22.284L409.152,321.591z"/>
<path style="fill:#B70F0F;" d="M423.078,335.518L399.4,359.196c-6.136,6.144-6.152,16.124,0,22.276l4.876,4.876
	c6.152,6.144,16.124,6.144,22.276-0.008l23.678-23.67c6.152-6.152,6.152-16.124,0-22.276l-4.876-4.876
	C439.202,329.358,429.23,329.358,423.078,335.518z"/>
<ellipse style="fill:#EFA30C;" cx="256.08" cy="354.627" rx="69.908" ry="29.05"/>
<path style="fill:#D68A05;" d="M256.048,325.577c38.613,0,69.908,12.997,69.908,29.05s-31.295,29.05-69.908,29.05"/>
</svg>