<?xml version="1.0" encoding="iso-8859-1"?>
<!-- Uploaded to: SVG Repo, www.svgrepo.com, Generator: SVG Repo Mixer Tools -->
<svg height="800px" width="800px" version="1.1" id="Layer_1" xmlns="http://www.w3.org/2000/svg" xmlns:xlink="http://www.w3.org/1999/xlink" 
	 viewBox="0 0 504.123 504.123" xml:space="preserve">
<g>
	<path style="fill:#1C828C;" d="M261.666,361.913c0,19.503-15.817,124.668-35.336,124.668c-19.495,0-35.304-105.173-35.304-124.668
		c0-19.495,15.817-35.32,35.304-35.32C245.849,326.593,261.666,342.418,261.666,361.913z"/>
	<path style="fill:#1C828C;" d="M380.017,361.913c0,19.503-15.817,124.668-35.336,124.668c-19.495,0-35.304-105.173-35.304-124.668
		c0-19.495,15.817-35.32,35.304-35.32C364.2,326.593,380.017,342.418,380.017,361.913z"/>
</g>
<g>
	<path style="fill:#EF0F0F;" d="M385.153,315.242c0,126.33-44.599,84.259-99.643,84.259c-55.028,0-99.643,42.071-99.643-84.259
		c0-72.231,44.631-130.781,99.643-130.781C340.538,184.47,385.153,243.019,385.153,315.242z"/>
	<path style="fill:#EF0F0F;" d="M319.861,214.315c11.28-10.027,33.312-3.663,49.231,14.218
		c15.896,17.881,85.016,114.018,73.767,124.062c-11.296,10.012-98.721-69.892-114.617-87.773
		C312.354,246.965,308.605,224.343,319.861,214.315z"/>
</g>
<path style="fill:#BF0C0C;" d="M285.51,348.31c-49.554,0-90.632,34.036-98.336-51.389c-0.843,5.104-1.308,11.138-1.308,18.33
	c0,126.33,44.615,84.259,99.643,84.259c55.044,0,99.643,42.071,99.643-84.259c0-7.192-0.465-13.225-1.308-18.33
	C376.157,382.346,335.079,348.31,285.51,348.31z"/>
<path style="fill:#EF0F0F;" d="M266.077,487.219c0,14.935-17.802,16.904-39.739,16.904s-39.739-1.961-39.739-16.904
	c0-14.943,17.802-35.509,39.739-35.509S266.077,472.277,266.077,487.219z"/>
<path style="fill:#BF0C0C;" d="M266.077,487.219c0,14.935-17.802,16.904-39.739,16.904s-39.739-1.961-39.739-16.904"/>
<path style="fill:#EF0F0F;" d="M384.436,487.219c0,14.935-17.802,16.904-39.739,16.904s-39.739-1.961-39.739-16.904
	c0-14.943,17.802-35.509,39.739-35.509S384.436,472.277,384.436,487.219z"/>
<path style="fill:#BF0C0C;" d="M384.436,487.219c0,14.935-17.802,16.904-39.739,16.904s-39.739-1.961-39.739-16.904"/>
<path style="fill:#EF0F0F;" d="M295.986,231.219c-0.89-15.061-20.968-26.136-44.859-24.757
	c-23.891,1.402-140.737,20.512-139.91,35.564c0.906,15.069,119.249,20.385,143.124,18.983
	C278.2,259.616,296.853,246.28,295.986,231.219z"/>
<circle style="fill:#A56B44;" cx="285.51" cy="211.361" r="26.585"/>
<path style="fill:#C48960;" d="M414.463,124.258c0,63.008-57.738,94.681-128.937,94.681c-71.215,0-128.969-31.673-128.969-94.681
	C156.557,61.235,214.31,0,285.526,0C356.725,0,414.463,61.235,414.463,124.258z"/>
<path style="fill:#BC8158;" d="M414.463,124.258c0,63.008-57.738,94.681-128.937,94.681c-71.215,0-128.969-31.673-128.969-94.681"/>
<circle style="fill:#113E49;" cx="208.442" cy="89.167" r="11.532"/>
<path d="M219.974,89.167c0,6.388-5.167,11.54-11.54,11.54c-6.372,0-11.524-5.152-11.524-11.54"/>
<path style="fill:#E5A376;" d="M231.191,113.223c-0.614,0-1.245-0.221-1.725-0.717c-5.632-5.624-13.107-8.72-21.047-8.72h-0.016
	c-7.94,0-15.399,3.104-21,8.712c-0.953,0.953-2.489,0.977-3.434,0.008c-0.953-0.922-0.985-2.458-0.031-3.419
	c6.538-6.546,15.218-10.161,24.458-10.161h0.016c9.263,0,17.951,3.592,24.505,10.145c0.937,0.937,0.937,2.505,0,3.434
	C232.451,113.002,231.836,113.223,231.191,113.223z"/>
<circle style="fill:#113E49;" cx="331.086" cy="89.167" r="11.532"/>
<path d="M319.554,89.167c0,6.388,5.152,11.54,11.54,11.54c6.372,0,11.524-5.152,11.524-11.54"/>
<path style="fill:#E5A376;" d="M308.345,113.223c0.599,0,1.229-0.221,1.709-0.717c5.632-5.624,13.107-8.72,21.047-8.72h0.016
	c7.94,0,15.415,3.104,21.016,8.712c0.937,0.953,2.473,0.977,3.434,0.008c0.953-0.922,0.969-2.458,0.016-3.419
	c-6.506-6.546-15.218-10.161-24.458-10.161h-0.016c-9.247,0-17.936,3.592-24.505,10.145c-0.922,0.937-0.922,2.505,0,3.434
	C307.077,113.002,307.691,113.223,308.345,113.223z"/>
<path style="fill:#841212;" d="M288.708,175.262c0,8.696-7.058,15.754-15.754,15.754h-18.385c-8.696,0-15.754-7.058-15.754-15.754
	v-61.046c0-8.696,7.058-15.754,15.754-15.754h18.385c8.696,0,15.754,7.058,15.754,15.754V175.262z"/>
<path style="fill:#AA1111;" d="M272.954,131.938h-18.385c-8.696,0-15.754,7.058-15.754,15.754v27.569
	c0,8.696,7.058,15.754,15.754,15.754h18.385c8.696,0,15.754-7.058,15.754-15.754v-27.569
	C288.708,138.996,281.65,131.938,272.954,131.938z"/>
<g>
	<path style="fill:#A50707;" d="M264.604,298.086c12.201-12.186,31.106-13.556,44.804-4.096l10.169-10.153
		c-19.369-14.935-47.262-13.556-65.016,4.198c-17.739,17.747-19.141,45.647-4.198,65l10.153-10.153
		C251.064,329.185,252.419,310.272,264.604,298.086z"/>
	<path style="fill:#A50707;" d="M328.573,292.848l-10.153,10.153c9.46,13.698,8.09,32.61-4.096,44.804s-31.106,13.548-44.804,4.096
		l-10.153,10.161c19.354,14.935,47.246,13.54,65-4.206C342.121,340.11,343.508,312.202,328.573,292.848z"/>
</g>
<g>
	<path style="fill:#990000;" d="M76.543,188.416c12.446-2.182,9.799,4.506,8.633,46.694c-0.11,4.112-7.31,7.459-11.429,7.467
		c-4.135-0.008-8.058-0.189-8.058-4.324C65.681,234.134,72.478,189.133,76.543,188.416z"/>
	<path style="fill:#990000;" d="M137.479,188.408c-12.43-2.166-9.799,4.521-8.633,46.702c0.126,4.112,7.326,7.459,11.429,7.459
		c4.135,0.008,8.058-0.189,8.058-4.324C148.341,234.126,141.559,189.133,137.479,188.408z"/>
</g>
<path style="fill:#8EB2B2;" d="M138.495,169.59l-13.863-13.871l7.231-7.231l-10.973-10.98l7.231-7.231l-10.988-10.973l7.247-7.247
	l-10.973-10.973l7.231-7.239l-10.973-10.98l7.247-7.231l-10.988-10.98l7.247-7.239l-10.988-10.98l7.247-7.239L98.456,28.223
	l5.994-5.931c-3.356-3.552-7.814-5.711-13.265-5.711c-10.847,0-19.614,8.775-19.614,19.614v151.048
	c0,10.831,8.767,11.13,19.598,11.13c10.847,0,51.365,1.481,51.358-9.342L138.495,169.59L138.495,169.59z"/>
<path style="fill:#76999B;" d="M71.573,36.202V187.25c0,3.978,1.182,6.53,3.214,8.168l19.803-0.008l0.016-178.483
	c-1.111-0.197-2.229-0.347-3.419-0.347C80.34,16.581,71.573,25.364,71.573,36.202z"/>
<path style="fill:#BF0C0C;" d="M140.756,184.808c1.969,0.008,3.568,1.615,3.568,3.568v8.145c0,1.977-1.599,3.576-3.584,3.576
	l-67.474-0.016c-1.969,0.008-3.568-1.591-3.568-3.56v-8.145c0-1.969,1.599-3.568,3.568-3.568H140.756z"/>
<path style="fill:#EF0F0F;" d="M69.698,188.377v8.145c0,1.969,1.599,3.568,3.568,3.56l21.031,0.008
	c1.969,0.008,3.584-1.599,3.568-3.568v-8.145c0-1.961-1.599-3.552-3.584-3.568H73.266C71.297,184.808,69.698,186.407,69.698,188.377
	z"/>
<circle style="fill:#EBF0F2;" cx="85.16" cy="38.179" r="4.553"/>
<path style="fill:#BF0C0C;" d="M147.278,228.573c5.923-0.008,6.711,4.805,6.711,10.728l0,0c0,5.923-4.813,10.736-10.736,10.728
	H70.769c-5.939,0.008-10.736-4.797-10.736-10.728l0,0c0-5.931,0.788-10.728,6.711-10.736L147.278,228.573z"/>
<path style="fill:#EF0F0F;" d="M60.033,239.301c0,5.931,4.797,10.736,10.736,10.728l18.936,0.008
	c5.923,0,10.752-4.813,10.752-10.736c0-5.923-0.803-10.736-6.727-10.736H66.744C60.821,228.573,60.033,233.37,60.033,239.301z"/>
<path style="fill:#7C480B;" d="M285.526,0c-46.167,0-86.567,25.805-109.355,61.101c23.032,1.276,106.646,3.781,126.968-25.001
	c0,0,11.815,24.615,62.031,22.646l16.738,38.4c0,0,3.938-36.431,21.662-19.692c0.197,0.181,0.386,0.26,0.567,0.433
	C384.483,34.257,338.774,0,285.526,0z"/>
</svg>