<?xml version="1.0" encoding="iso-8859-1"?>
<!-- Uploaded to: SVG Repo, www.svgrepo.com, Generator: SVG Repo Mixer Tools -->
<svg height="800px" width="800px" version="1.1" id="Layer_1" xmlns="http://www.w3.org/2000/svg" xmlns:xlink="http://www.w3.org/1999/xlink" 
	 viewBox="0 0 504.123 504.123" xml:space="preserve">
<path style="fill:#774610;" d="M450.954,152.946c0,6.152-4.994,11.154-11.162,11.154H64.323c-6.168,0-11.154-5.002-11.154-11.154
	l0,0c0-6.168,4.986-11.162,11.154-11.162h375.469C445.96,141.785,450.954,146.779,450.954,152.946L450.954,152.946z"/>
<g>
	<path style="fill:#EFC286;" d="M263.05,280.631c-10.027-11.28-3.663-33.312,14.218-49.231
		c17.881-15.896,114.003-85.008,124.062-73.767c10.012,11.296-69.908,98.721-87.788,114.617
		C295.692,288.138,273.077,291.895,263.05,280.631z"/>
	<path style="fill:#EFC286;" d="M241.073,280.631c10.027-11.28,3.663-33.312-14.218-49.231
		c-17.881-15.896-114.034-85.008-124.062-73.767c-10.012,11.296,69.892,98.721,87.757,114.617
		C208.431,288.138,231.046,291.895,241.073,280.631z"/>
</g>
<g>
	<path style="fill:#960808;" d="M228.218,361.913c0,19.503-15.817,124.668-35.336,124.668c-19.495,0-35.304-105.173-35.304-124.668
		c0-19.495,15.817-35.32,35.304-35.32C212.401,326.593,228.218,342.418,228.218,361.913z"/>
	<path style="fill:#960808;" d="M346.569,361.913c0,19.503-15.817,124.668-35.336,124.668c-19.495,0-35.304-105.173-35.304-124.668
		c0-19.495,15.817-35.32,35.304-35.32C330.752,326.593,346.569,342.418,346.569,361.913z"/>
</g>
<path style="fill:#CE1111;" d="M351.705,315.242c0,126.33-44.599,84.259-99.643,84.259c-55.028,0-99.643,42.071-99.643-84.259
	c0-72.231,44.631-130.781,99.643-130.781C307.09,184.47,351.705,243.019,351.705,315.242z"/>
<path style="fill:#EAA10F;" d="M260.427,332.965c0,4.624-3.757,8.365-8.365,8.365l0,0c-4.632,0-8.365-3.749-8.365-8.365V210.873
	c0-4.624,3.742-8.365,8.365-8.365l0,0c4.616,0,8.365,3.749,8.365,8.365V332.965z"/>
<g>
	<ellipse style="fill:#EFC286;" cx="252.062" cy="231.55" rx="38.4" ry="31.996"/>
	<path style="fill:#EFC286;" d="M232.629,487.219c0,14.935-17.802,16.904-39.739,16.904s-39.755-1.961-39.755-16.904
		c0-14.943,17.818-35.509,39.755-35.509S232.629,472.277,232.629,487.219z"/>
</g>
<path style="fill:#CE1111;" d="M232.629,487.219c0,14.935-17.802,16.904-39.739,16.904s-39.755-1.961-39.755-16.904"/>
<path style="fill:#EFC286;" d="M350.972,487.219c0,14.935-17.786,16.904-39.723,16.904c-21.937,0-39.739-1.961-39.739-16.904
	c0-14.943,17.802-35.509,39.739-35.509C333.186,451.71,350.972,472.277,350.972,487.219z"/>
<path style="fill:#CE1111;" d="M350.972,487.219c0,14.935-17.786,16.904-39.723,16.904c-21.937,0-39.739-1.961-39.739-16.904"/>
<path style="fill:#EFC286;" d="M381.015,124.258c0,63.008-57.754,94.681-128.937,94.681c-71.215,0-128.969-31.673-128.969-94.681
	C123.108,61.235,180.862,0,252.077,0C323.261,0,381.015,61.235,381.015,124.258z"/>
<path style="fill:#E8B374;" d="M381.015,124.258c0,63.008-57.754,94.681-128.937,94.681c-71.215,0-128.969-31.673-128.969-94.681"/>
<g>
	<path style="fill:#232728;" d="M213.496,112.49c-0.63,0-1.245-0.221-1.725-0.717c-5.632-5.624-13.107-8.72-21.047-8.72h-0.016
		c-7.94,0-15.399,3.104-21,8.712c-0.953,0.953-2.489,0.977-3.45,0.008c-0.937-0.922-0.969-2.458-0.016-3.419
		c6.538-6.546,15.218-10.161,24.458-10.161h0.016c9.263,0,17.936,3.592,24.505,10.145c0.922,0.937,0.922,2.505,0,3.434
		C214.756,112.27,214.142,112.49,213.496,112.49z"/>
	<path style="fill:#232728;" d="M290.643,112.49c0.583,0,1.213-0.221,1.709-0.717c5.632-5.624,13.107-8.72,21.047-8.72l0,0
		c7.956,0,15.431,3.104,21.016,8.712c0.937,0.953,2.473,0.977,3.434,0.008c0.969-0.922,0.985-2.458,0.032-3.419
		c-6.506-6.546-15.218-10.161-24.474-10.161l0,0c-9.248,0-17.952,3.592-24.521,10.145c-0.922,0.937-0.922,2.505,0,3.434
		C289.382,112.27,289.997,112.49,290.643,112.49z"/>
</g>
<g>
	<circle style="fill:#FFCE00;" cx="203.067" cy="249.305" r="5.577"/>
	<circle style="fill:#FFCE00;" cx="303.175" cy="249.305" r="5.577"/>
	<circle style="fill:#FFCE00;" cx="203.067" cy="273.566" r="5.577"/>
	<circle style="fill:#FFCE00;" cx="303.175" cy="273.566" r="5.577"/>
	<circle style="fill:#FFCE00;" cx="203.067" cy="297.826" r="5.577"/>
	<circle style="fill:#FFCE00;" cx="303.175" cy="297.826" r="5.577"/>
	<circle style="fill:#FFCE00;" cx="203.067" cy="322.166" r="5.577"/>
	<circle style="fill:#FFCE00;" cx="303.175" cy="322.166" r="5.577"/>
</g>
<g>
	<circle style="fill:#CE1111;" cx="238.521" cy="43.481" r="5.419"/>
	<circle style="fill:#CE1111;" cx="238.521" cy="66.623" r="5.419"/>
	<circle style="fill:#CE1111;" cx="238.521" cy="89.765" r="5.419"/>
	<circle style="fill:#CE1111;" cx="265.61" cy="43.481" r="5.419"/>
	<circle style="fill:#CE1111;" cx="265.61" cy="66.623" r="5.419"/>
	<circle style="fill:#CE1111;" cx="265.61" cy="89.765" r="5.419"/>
</g>
</svg>