<?xml version="1.0" encoding="iso-8859-1"?>
<!-- Uploaded to: SVG Repo, www.svgrepo.com, Generator: SVG Repo Mixer Tools -->
<svg version="1.1" id="Layer_1" xmlns="http://www.w3.org/2000/svg" xmlns:xlink="http://www.w3.org/1999/xlink" 
	 viewBox="0 0 504.123 504.123" xml:space="preserve">
<g>
	<path style="fill:#232728;" d="M379.075,315.242c0,126.322-44.599,84.259-99.643,84.259c-55.028,0-99.643,42.063-99.643-84.259
		c0-72.231,44.631-130.788,99.643-130.788C334.46,184.462,379.075,243.019,379.075,315.242z"/>
	<path style="fill:#232728;" d="M255.58,361.905c0,19.511-15.817,124.676-35.336,124.676c-19.495,0-35.304-105.173-35.304-124.676
		c0-19.495,15.817-35.32,35.304-35.32C239.763,326.585,255.58,342.418,255.58,361.905z"/>
	<path style="fill:#232728;" d="M373.939,361.905c0,19.511-15.817,124.676-35.336,124.676c-19.495,0-35.304-105.173-35.304-124.676
		c0-19.495,15.817-35.32,35.304-35.32C358.122,326.585,373.939,342.418,373.939,361.905z"/>
</g>
<path style="fill:#383E3F;" d="M259.999,487.219c0,14.935-17.802,16.904-39.739,16.904s-39.739-1.969-39.739-16.904
	c0-14.935,17.802-35.509,39.739-35.509S259.999,472.277,259.999,487.219z"/>
<path style="fill:#232728;" d="M259.999,487.219c0,14.935-17.802,16.904-39.739,16.904s-39.739-1.969-39.739-16.904"/>
<path style="fill:#383E3F;" d="M378.35,487.219c0,14.935-17.802,16.904-39.739,16.904s-39.739-1.969-39.739-16.904
	c0-14.935,17.802-35.509,39.739-35.509S378.35,472.277,378.35,487.219z"/>
<g>
	<path style="fill:#232728;" d="M378.35,487.219c0,14.935-17.802,16.904-39.739,16.904s-39.739-1.969-39.739-16.904"/>
	<path style="fill:#232728;" d="M268.443,203.768c10.027,11.28,3.663,33.296-14.218,49.215
		c-17.881,15.896-114.018,85.031-124.062,73.767c-10.012-11.296,69.892-98.706,87.773-114.601
		C235.801,196.246,258.416,192.496,268.443,203.768z"/>
	<path style="fill:#232728;" d="M290.412,203.768c-10.027,11.28-3.663,33.296,14.218,49.215
		c17.881,15.896,114.018,85.031,124.062,73.767c10.012-11.296-69.892-98.706-87.773-114.601
		C323.062,196.246,300.447,192.496,290.412,203.768z"/>
</g>
<rect x="258.755" y="199.538" style="fill:#E2DED3;" width="41.354" height="178.215"/>
<path style="fill:#C6BFAF;" d="M258.755,233.661c6.75,0.63,13.627,1.032,20.693,1.032c7.05,0,13.926-0.402,20.661-1.032v-34.123
	h-41.354V233.661z"/>
<polygon style="fill:#444849;" points="285.552,218.569 295.8,322.465 279.431,334.352 263.055,322.465 273.311,218.569 "/>
<polyline style="fill:#232728;" points="273.311,218.569 285.552,218.569 295.8,322.465 279.431,334.352 "/>
<path style="fill:#7A4A2A;" d="M408.385,124.258c0,63-57.738,94.681-128.937,94.681c-71.215,0-128.969-31.673-128.969-94.681
	C150.478,61.227,208.232,0,279.447,0C350.647,0,408.385,61.227,408.385,124.258z"/>
<path style="fill:#F9C1AC;" d="M408.385,124.258c0,63-57.738,94.681-128.937,94.681c-71.215,0-128.969-31.673-128.969-94.681
	c0-63.031,57.754-74.382,128.969-74.382C350.647,49.877,408.385,61.227,408.385,124.258z"/>
<path style="fill:#F2B09C;" d="M408.385,124.258c0,63-57.738,94.681-128.937,94.681c-71.215,0-128.969-31.673-128.969-94.681"/>
<circle style="fill:#113E49;" cx="218.11" cy="136.428" r="11.532"/>
<path d="M229.641,136.428c0,6.388-5.167,11.54-11.54,11.54s-11.524-5.152-11.524-11.54"/>
<path style="fill:#FFD3C5;" d="M240.858,160.477c-0.614,0-1.245-0.213-1.725-0.709c-5.632-5.632-13.107-8.72-21.047-8.72h-0.016
	c-7.94,0-15.399,3.096-21,8.704c-0.953,0.953-2.489,0.985-3.434,0.016c-0.953-0.922-0.985-2.458-0.032-3.419
	c6.538-6.554,15.218-10.169,24.458-10.169h0.016c9.263,0,17.952,3.6,24.505,10.153c0.937,0.937,0.937,2.505,0,3.434
	C242.118,160.264,241.504,160.477,240.858,160.477z"/>
<circle style="fill:#113E49;" cx="340.761" cy="136.428" r="11.532"/>
<path d="M329.229,136.428c0,6.388,5.151,11.54,11.54,11.54c6.372,0,11.524-5.152,11.524-11.54"/>
<path style="fill:#FFD3C5;" d="M318.013,160.477c0.599,0,1.229-0.213,1.709-0.709c5.632-5.632,13.107-8.72,21.047-8.72h0.016
	c7.94,0,15.415,3.096,21.016,8.704c0.937,0.953,2.473,0.985,3.434,0.016c0.953-0.922,0.969-2.458,0.016-3.419
	c-6.506-6.554-15.218-10.169-24.458-10.169h-0.016c-9.247,0-17.936,3.6-24.505,10.153c-0.922,0.937-0.922,2.505,0,3.434
	C316.752,160.264,317.367,160.477,318.013,160.477z"/>
<path style="fill:#AA1111;" d="M250.996,173.828c0-6.152,12.737-11.154,28.428-11.154s28.428,5.002,28.428,11.154
	c0,6.152-12.737,2.473-28.428,2.473S250.996,179.988,250.996,173.828z"/>
<path d="M270.586,135.326c0,13.06-10.602,23.678-23.662,23.678h-32.587c-13.076,0-23.678-10.618-23.678-23.678V122.51
	c0-13.091,10.602-23.694,23.678-23.694h32.587c13.06,0,23.662,10.602,23.662,23.694L270.586,135.326L270.586,135.326z"/>
<path d="M219.275,108.678c0,5.459-4.403,9.878-9.862,9.878H154.18c-5.459,0-9.878-4.419-9.878-9.878l0,0
	c0-5.443,4.419-9.862,9.878-9.862h55.233C214.872,98.816,219.275,103.227,219.275,108.678L219.275,108.678z"/>
<path d="M288.293,135.326c0,13.06,10.571,23.678,23.662,23.678h32.555c13.091,0,23.678-10.618,23.678-23.678V122.51
	c0-13.091-10.587-23.694-23.678-23.694h-32.555c-13.091,0-23.662,10.602-23.662,23.694V135.326z"/>
<path d="M339.58,108.678c0,5.459,4.419,9.878,9.878,9.878h55.233c5.427,0,9.862-4.419,9.862-9.878l0,0
	c0-5.443-4.427-9.862-9.862-9.862h-55.233C343.999,98.816,339.58,103.227,339.58,108.678L339.58,108.678z"/>
<path d="M242.922,108.678c0,5.459,4.427,9.878,9.878,9.878h55.249c5.443,0,9.878-4.419,9.878-9.878l0,0
	c0-5.443-4.427-9.862-9.878-9.862H252.8C247.349,98.816,242.922,103.227,242.922,108.678L242.922,108.678z"/>
<path style="fill:#8D97A0;" d="M155.472,318.692c5.758,5.766,5.758,15.124,0,20.89l0,0c-5.766,5.766-15.124,5.766-20.89,0
	l-55.69-55.706c-5.766-5.75-5.766-15.108-0.008-20.874l0,0c5.766-5.766,15.124-5.766,20.882,0L155.472,318.692z"/>
<path style="fill:#6B777F;" d="M78.885,263.003L78.885,263.003c5.766-5.766,15.124-5.766,20.882,0l55.706,55.69
	c5.758,5.766,5.758,15.124,0,20.89l0,0"/>
<circle style="fill:#0AEFD3;" cx="92.118" cy="276.228" r="5.916"/>
</svg>