<?xml version="1.0" encoding="iso-8859-1"?>
<!-- Uploaded to: SVG Repo, www.svgrepo.com, Generator: SVG Repo Mixer Tools -->
<svg height="800px" width="800px" version="1.1" id="Layer_1" xmlns="http://www.w3.org/2000/svg" xmlns:xlink="http://www.w3.org/1999/xlink" 
	 viewBox="0 0 504.123 504.123" xml:space="preserve">
<path style="fill:#093C84;" d="M373.506,66.631c0,5.435-4.403,9.846-9.838,9.846h-66.3c-5.435,0-9.846-4.411-9.846-9.846l0,0
	c0-5.435,4.411-9.846,9.846-9.846h66.3C369.111,56.785,373.506,61.196,373.506,66.631L373.506,66.631z"/>
<g>
	<path style="fill:#232728;" d="M308.632,361.913c0,19.503-15.817,124.668-35.336,124.668c-19.495,0-35.304-105.173-35.304-124.668
		c0-19.495,15.817-35.32,35.304-35.32C292.815,326.593,308.632,342.418,308.632,361.913z"/>
	<path style="fill:#232728;" d="M190.281,361.913c0,19.503-15.817,124.668-35.336,124.668c-19.495,0-35.304-105.173-35.304-124.668
		c0-19.495,15.817-35.32,35.304-35.32C174.464,326.593,190.281,342.418,190.281,361.913z"/>
</g>
<g>
	<path style="fill:#BC8158;" d="M130.212,432.569c6.372,28.333,15.1,54.012,24.734,54.012c9.649,0,18.385-25.687,24.765-54.012
		H130.212z"/>
	<path style="fill:#BC8158;" d="M248.563,432.569c6.372,28.333,15.1,54.012,24.734,54.012c9.649,0,18.385-25.687,24.765-54.012
		H248.563z"/>
</g>
<g>
	<path style="fill:#DD3A14;" d="M313.768,315.242c0,126.33-44.599,84.259-99.643,84.259c-55.028,0-99.643,42.071-99.643-84.259
		c0-72.231,44.631-130.781,99.643-130.781C269.153,184.47,313.768,243.019,313.768,315.242z"/>
	<path style="fill:#DD3A14;" d="M248.476,214.315c11.28-10.027,33.311-3.663,49.231,14.218
		c15.896,17.881,85.016,114.018,73.767,124.062c-11.288,10.012-98.721-69.892-114.609-87.773
		C240.969,246.965,237.22,224.343,248.476,214.315z"/>
</g>
<path style="fill:#BC2A0D;" d="M214.125,348.31c-49.554,0-90.64,34.036-98.336-51.389c-0.843,5.104-1.308,11.138-1.308,18.33
	c0,126.33,44.615,84.259,99.643,84.259c55.044,0,99.643,42.071,99.643-84.259c0-7.192-0.465-13.225-1.308-18.33
	C304.772,382.346,263.694,348.31,214.125,348.31z"/>
<path style="fill:#EFA30C;" d="M194.692,487.219c0,14.935-17.802,16.904-39.739,16.904s-39.739-1.961-39.739-16.904
	c0-14.943,17.802-35.509,39.739-35.509S194.692,472.277,194.692,487.219z"/>
<path style="fill:#D68A05;" d="M194.692,487.219c0,14.935-17.802,16.904-39.739,16.904s-39.739-1.961-39.739-16.904"/>
<path style="fill:#EFA30C;" d="M313.051,487.219c0,14.935-17.802,16.904-39.739,16.904s-39.739-1.961-39.739-16.904
	c0-14.943,17.802-35.509,39.739-35.509S313.051,472.277,313.051,487.219z"/>
<path style="fill:#D68A05;" d="M313.051,487.219c0,14.935-17.802,16.904-39.739,16.904s-39.739-1.961-39.739-16.904"/>
<path style="fill:#DD3A14;" d="M224.593,231.219c-0.89-15.061-20.968-26.136-44.859-24.757
	c-23.883,1.402-140.745,20.512-139.894,35.564c0.906,15.069,119.233,20.385,143.108,18.983
	C206.807,259.616,225.46,246.28,224.593,231.219z"/>
<circle style="fill:#A56B44;" cx="214.125" cy="211.361" r="26.585"/>
<path style="fill:#C48960;" d="M343.078,124.258c0,63.008-57.738,94.681-128.937,94.681c-71.215,0-128.969-31.673-128.969-94.681
	C85.172,61.235,142.925,0,214.14,0C285.34,0,343.078,61.235,343.078,124.258z"/>
<path style="fill:#BC8158;" d="M343.078,124.258c0,63.008-57.738,94.681-128.937,94.681c-71.215,0-128.969-31.673-128.969-94.681"/>
<circle style="fill:#113E49;" cx="167.241" cy="144.959" r="11.532"/>
<path d="M178.781,144.959c0,6.388-5.167,11.54-11.54,11.54s-11.532-5.152-11.532-11.54"/>
<path style="fill:#E5A376;" d="M189.99,169.015c-0.607,0-1.237-0.221-1.709-0.717c-5.648-5.624-13.123-8.72-21.055-8.72h-0.016
	c-7.948,0-15.399,3.104-21,8.712c-0.953,0.953-2.489,0.977-3.434,0.008c-0.953-0.922-0.985-2.458-0.032-3.419
	c6.538-6.546,15.21-10.161,24.458-10.161h0.016c9.263,0,17.952,3.592,24.505,10.145c0.937,0.937,0.937,2.505,0,3.434
	C191.258,168.795,190.636,169.015,189.99,169.015z"/>
<circle style="fill:#113E49;" cx="289.869" cy="144.959" r="11.532"/>
<path d="M278.361,144.959c0,6.388,5.151,11.54,11.532,11.54c6.38,0,11.532-5.152,11.532-11.54"/>
<path style="fill:#E5A376;" d="M267.152,169.015c0.599,0,1.229-0.221,1.709-0.717c5.632-5.624,13.107-8.72,21.039-8.72h0.024
	c7.94,0,15.415,3.104,21.016,8.712c0.937,0.953,2.473,0.977,3.434,0.008c0.953-0.922,0.969-2.458,0.016-3.419
	c-6.506-6.546-15.218-10.161-24.458-10.161h-0.024c-9.24,0-17.92,3.592-24.497,10.145c-0.922,0.937-0.922,2.505,0,3.434
	C265.884,168.795,266.498,169.015,267.152,169.015z"/>
<path style="fill:#7A0B0B;" d="M262.647,174.994c0,13.013-14.423,23.568-32.248,23.568c-17.794,0-32.217-10.555-32.217-23.568
	c0-12.997,14.423-6.688,32.217-6.688C248.224,168.306,262.647,161.989,262.647,174.994z"/>
<path style="fill:#AA1111;" d="M205.452,189.731c5.908,5.341,14.832,8.83,24.954,8.83c10.145,0,19.078-3.482,24.986-8.83
	c-5.908-5.341-14.84-8.83-24.97-8.83C220.277,180.901,211.36,184.383,205.452,189.731z"/>
<path style="fill:#1679DB;" d="M107.314,57.108h213.638C297.77,23.851,258.574,0,214.14,0C169.691,0,130.503,23.851,107.314,57.108z
	"/>
<path style="fill:#2B9BF7;" d="M214.14,0c-44.449,0-83.637,23.851-106.827,57.108"/>
<path d="M204.814,40.7c0,3.623-2.938,6.561-6.561,6.561h-26.27c-3.615,0-6.554-2.938-6.554-6.561l0,0
	c0-3.623,2.938-6.561,6.554-6.561h26.27C201.876,34.139,204.814,37.077,204.814,40.7L204.814,40.7z"/>
<circle style="fill:#EF8A11;" cx="392.742" cy="395.343" r="71.522"/>
<path style="fill:#CC6D05;" d="M443.327,344.757c27.947,27.939,27.947,73.24,0,101.187c-27.939,27.947-73.247,27.947-101.187,0"/>
<g>
	<path style="fill:#994C00;" d="M336.556,351.13c10.531,11.752,16.998,27.231,16.998,44.213c0,16.983-6.467,32.461-16.998,44.221
		c2.135,2.71,4.466,5.254,6.971,7.625c12.564-13.659,20.244-31.87,20.244-51.846c0-19.976-7.688-38.187-20.244-51.846
		C341.022,345.876,338.698,348.42,336.556,351.13z"/>
	<path style="fill:#994C00;" d="M431.914,395.343c0-16.983,6.451-32.461,16.991-44.213c-2.135-2.71-4.458-5.254-6.963-7.633
		c-12.564,13.659-20.252,31.87-20.252,51.846c0,19.401,7.231,37.636,20.291,51.814c2.473-2.355,4.781-4.884,6.908-7.57
		C437.955,427.394,431.914,411.853,431.914,395.343z"/>
	<path style="fill:#994C00;" d="M321.188,395.343c0,1.733,0.142,3.419,0.26,5.104h142.58c0.126-1.694,0.26-3.379,0.26-5.104
		c0-1.725-0.142-3.419-0.26-5.104h-142.58C321.322,391.932,321.188,393.626,321.188,395.343z"/>
	<path style="fill:#994C00;" d="M387.622,324.057v142.588c1.701,0.126,3.387,0.252,5.104,0.252s3.419-0.134,5.112-0.252V324.057
		c-1.701-0.118-3.395-0.26-5.112-0.26S389.323,323.938,387.622,324.057z"/>
</g>
<path style="fill:#FC7459;" d="M270.965,305.081c0-1.189-0.102-2.371-0.173-3.537h-22.079c0.803-10.358,5.049-19.771,11.603-27.081
	c-1.481-1.875-3.088-3.639-4.813-5.285c-7.956,8.649-13.028,19.929-13.863,32.366h-16.683v-45.836
	c-1.174-0.087-2.355-0.181-3.545-0.181s-2.363,0.102-3.537,0.181v45.836h-16.699c-0.819-12.438-5.9-23.725-13.848-32.366
	c-1.741,1.646-3.356,3.411-4.829,5.285c6.554,7.318,10.799,16.723,11.611,27.081H172.03c-0.095,1.166-0.181,2.347-0.181,3.537
	c0,1.197,0.095,2.371,0.181,3.537h22.071c-0.811,10.358-5.057,19.771-11.611,27.089c1.481,1.875,3.096,3.639,4.829,5.278
	c7.948-8.649,13.021-19.929,13.848-32.366h16.691v45.844c1.174,0.087,2.347,0.173,3.537,0.173c1.189,0,2.371-0.095,3.545-0.173
	v-45.836h16.675c0.811,12.107,5.648,23.402,13.887,32.35c1.725-1.631,3.324-3.387,4.789-5.246
	c-6.79-7.57-10.823-16.998-11.603-27.104h22.087C270.862,307.452,270.965,306.286,270.965,305.081z"/>
</svg>