<?xml version="1.0" encoding="iso-8859-1"?>
<!-- Uploaded to: SVG Repo, www.svgrepo.com, Generator: SVG Repo Mixer Tools -->
<svg height="800px" width="800px" version="1.1" id="Layer_1" xmlns="http://www.w3.org/2000/svg" xmlns:xlink="http://www.w3.org/1999/xlink" 
	 viewBox="0 0 504.123 504.123" xml:space="preserve">
<g>
	<path style="fill:#0665C4;" d="M282.799,361.913c0,19.503-15.817,124.668-35.336,124.668c-19.495,0-35.304-105.173-35.304-124.668
		c0-19.495,15.817-35.32,35.304-35.32C266.99,326.593,282.799,342.418,282.799,361.913z"/>
	<path style="fill:#0665C4;" d="M401.158,361.913c0,19.503-15.817,124.668-35.336,124.668c-19.495,0-35.304-105.173-35.304-124.668
		c0-19.495,15.817-35.32,35.304-35.32C385.341,326.593,401.158,342.418,401.158,361.913z"/>
</g>
<g>
	<path style="fill:#BF1770;" d="M406.293,315.242c0,126.33-44.599,84.259-99.643,84.259c-55.028,0-99.643,42.071-99.643-84.259
		c0-72.231,44.631-130.781,99.643-130.781C361.678,184.47,406.293,243.019,406.293,315.242z"/>
	<path style="fill:#BF1770;" d="M341.002,214.315c11.28-10.027,33.311-3.663,49.231,14.218
		c15.896,17.881,85.016,114.018,73.767,124.062c-11.296,10.012-98.721-69.892-114.617-87.773
		C333.495,246.965,329.738,224.343,341.002,214.315z"/>
</g>
<path style="fill:#990B5C;" d="M306.65,348.31c-49.554,0-90.64,34.036-98.336-51.389c-0.843,5.104-1.308,11.138-1.308,18.33
	c0,126.33,44.615,84.259,99.643,84.259c55.044,0,99.643,42.071,99.643-84.259c0-7.192-0.465-13.225-1.308-18.33
	C397.298,382.346,356.22,348.31,306.65,348.31z"/>
<path style="fill:#0DCEAE;" d="M287.218,487.219c0,14.935-17.802,16.904-39.739,16.904s-39.739-1.961-39.739-16.904
	c0-14.943,17.802-35.509,39.739-35.509S287.218,472.277,287.218,487.219z"/>
<path style="fill:#08B5B0;" d="M287.218,487.219c0,14.935-17.802,16.904-39.739,16.904s-39.739-1.961-39.739-16.904"/>
<path style="fill:#0DCEAE;" d="M405.569,487.219c0,14.935-17.802,16.904-39.739,16.904s-39.739-1.961-39.739-16.904
	c0-14.943,17.802-35.509,39.739-35.509S405.569,472.277,405.569,487.219z"/>
<path style="fill:#08B5B0;" d="M405.569,487.219c0,14.935-17.802,16.904-39.739,16.904s-39.739-1.961-39.739-16.904"/>
<path style="fill:#BF1770;" d="M317.119,231.219c-0.89-15.061-20.968-26.136-44.859-24.757
	c-23.883,1.402-140.737,20.512-139.902,35.564c0.906,15.069,119.241,20.385,143.108,18.983
	C299.333,259.616,317.977,246.28,317.119,231.219z"/>
<circle style="fill:#A56B44;" cx="306.65" cy="211.361" r="26.585"/>
<path style="fill:#C48960;" d="M435.603,124.258c0,63.008-57.738,94.681-128.937,94.681c-71.215,0-128.969-31.673-128.969-94.681
	C177.697,61.235,235.451,0,306.666,0C377.866,0,435.603,61.235,435.603,124.258z"/>
<path style="fill:#BC8158;" d="M435.603,124.258c0,63.008-57.738,94.681-128.937,94.681c-71.215,0-128.969-31.673-128.969-94.681"/>
<circle style="fill:#113E49;" cx="219.941" cy="89.269" r="11.532"/>
<path d="M231.473,89.269c0,6.388-5.167,11.54-11.548,11.54c-6.365,0-11.516-5.152-11.516-11.54"/>
<path style="fill:#E5A376;" d="M242.69,113.325c-0.614,0-1.237-0.221-1.725-0.717c-5.632-5.624-13.107-8.72-21.055-8.72h-0.008
	c-7.94,0-15.399,3.104-21.008,8.712c-0.945,0.953-2.481,0.977-3.426,0.008c-0.953-0.922-0.985-2.458-0.031-3.419
	c6.538-6.546,15.218-10.161,24.458-10.161h0.008c9.271,0,17.959,3.592,24.513,10.145c0.937,0.937,0.937,2.505,0,3.434
	C243.95,113.097,243.336,113.325,242.69,113.325z"/>
<circle style="fill:#113E49;" cx="342.585" cy="89.269" r="11.532"/>
<path d="M331.053,89.269c0,6.388,5.152,11.54,11.54,11.54c6.372,0,11.524-5.152,11.524-11.54"/>
<path style="fill:#E5A376;" d="M319.836,113.325c0.607,0,1.237-0.221,1.709-0.717c5.64-5.624,13.123-8.72,21.055-8.72h0.016
	c7.932,0,15.415,3.104,21.016,8.712c0.937,0.953,2.473,0.977,3.434,0.008c0.945-0.922,0.961-2.458,0.008-3.419
	c-6.498-6.546-15.21-10.161-24.45-10.161h-0.016c-9.24,0-17.944,3.592-24.505,10.145c-0.922,0.937-0.922,2.505,0,3.434
	C318.576,113.097,319.19,113.325,319.836,113.325z"/>
<path style="fill:#604B1D;" d="M306.666,0c-31.965,0-61.156,12.39-83.692,31.681L269.4,78.108l47.75-47.75l69.411,19.527v46.931
	l10.335,10.335l9.846-9.846c0,0-0.488-19.204,10.335-27.081c1.032-0.748,2.245-1.237,3.521-1.591
	C398.952,29.515,356.078,0,306.666,0z"/>
<ellipse style="fill:#700909;" cx="275.143" cy="132.592" rx="30.027" ry="18.708"/>
<path style="fill:#AA1111;" d="M252.685,144.904c5.498,3.891,13.47,6.396,22.457,6.396c8.988,0,16.951-2.505,22.457-6.396
	c-5.498-3.891-13.47-6.396-22.457-6.396C266.155,138.508,258.184,141.005,252.685,144.904z"/>
<g>
	<path style="fill:#990B5C;" d="M302.113,283.144c-15.431,0-27.939,12.036-27.939,26.892c0,14.218,11.477,16.085,25.994,16.219
		c0.638,0.016,1.284,0.016,1.946,0.016l0,0l0,0l0,0c0.662,0,1.308,0,1.953-0.016c14.509-0.134,25.986-2.001,25.986-16.219
		C330.045,295.188,317.536,283.144,302.113,283.144z"/>
	<path style="fill:#990B5C;" d="M302.113,277.346c4.183,0,7.57-0.701,7.57-8.279c0-7.57-3.387-13.706-7.57-13.706
		c-4.175,0-7.57,6.136-7.57,13.706C294.543,276.645,297.931,277.346,302.113,277.346z"/>
	<path style="fill:#990B5C;" d="M283.146,285.483c3.537-1.764,6.112-3.781,2.93-10.201c-3.198-6.412-8.649-10.185-12.186-8.428
		c-3.552,1.764-3.828,8.381-0.646,14.801C276.442,288.075,279.601,287.24,283.146,285.483z"/>
	<path style="fill:#990B5C;" d="M330.328,266.854c-3.537-1.757-8.995,2.016-12.186,8.428c-3.182,6.412-0.607,8.436,2.93,10.201
		c3.545,1.757,6.711,2.591,9.901-3.828C334.156,275.235,333.865,268.619,330.328,266.854z"/>
</g>
<path style="fill:#FF9100;" d="M39.434,306.806l21.157-21.173c0.504-0.496,1.26-0.67,1.922-0.433
	c0.677,0.236,1.15,0.827,1.229,1.536l1.378,12.39l18.196,13.824l15.659-27.12c1.646-2.859,4.703-4.632,8.011-4.632h45.655
	l0.614-0.354v-25.001l-21.646-12.501l-24.434,14.1c-2.647,1.528-6.042,0.622-7.57-2.032c-1.536-2.662-0.63-6.049,2.032-7.578
	l27.183-15.699c1.725-0.992,3.828-0.992,5.553,0l27.199,15.699c1.725,0.993,2.781,2.812,2.781,4.805v31.397
	c0,0.543-0.11,1.087-0.252,1.591c0.032,0.071,0.11,0.118,0.142,0.189l24.631,42.646c1.646,2.859,1.646,6.388,0,9.247l-24.631,42.661
	c-1.646,2.851-4.71,4.616-8.003,4.616h-49.254c-3.308,0-6.365-1.764-8.011-4.616l-24.34-42.157l-20.338-26.75l-13.753-1.536
	c-0.709-0.079-1.308-0.551-1.536-1.229C38.756,308.043,38.937,307.302,39.434,306.806z"/>
<path style="fill:#FF6D00;" d="M39.434,306.806l21.157-21.173c0.504-0.496,1.26-0.67,1.922-0.433
	c0.677,0.236,1.15,0.827,1.229,1.536l1.378,12.39l12.012,24.269l21.835-37.573c1.646-2.859,4.703-4.632,8.011-4.632h45.655
	l0.614-0.354v-25.001l-21.646-12.501l-24.434,14.1c-2.647,1.528-6.042,0.622-7.57-2.032c-1.536-2.662-0.63-6.049,2.032-7.578
	l27.183-15.699c1.725-0.992,3.828-0.992,5.553,0l27.199,15.699c1.725,0.993,2.781,2.812,2.781,4.805v31.397
	c0,0.543-0.11,1.087-0.252,1.591c0.032,0.071,0.11,0.118,0.142,0.189l24.631,42.646c1.646,2.859,1.646,6.388,0,9.247l-24.631,42.661
	c-1.646,2.851-4.71,4.616-8.003,4.616h-49.254c-3.308,0-6.365-1.764-8.011-4.616l-24.34-42.157l-20.338-26.75l-13.753-1.536
	c-0.709-0.079-1.308-0.551-1.536-1.229C38.756,308.043,38.937,307.302,39.434,306.806z"/>
<path style="fill:#FF9100;" d="M176.744,358.731l-75.508-75.508c1.607-1.276,3.623-2.017,5.742-2.017h45.655l0.614-0.354V255.85
	l-21.646-12.501l-24.434,14.1c-2.647,1.528-6.042,0.622-7.57-2.032c-1.536-2.662-0.63-6.049,2.032-7.578l27.183-15.699
	c1.725-0.992,3.828-0.992,5.553,0l25.584,14.761l4.135,4.128c0.158,0.52,0.252,1.055,0.252,1.615v31.397
	c0,0.543-0.11,1.087-0.252,1.591c0.032,0.071,0.11,0.118,0.142,0.189l24.631,42.646c1.646,2.859,1.646,6.388,0,9.247
	L176.744,358.731z"/>
<g>
	<path style="fill:#FFAA00;" d="M153.247,255.85l-21.646-12.501l-24.434,14.1c-2.647,1.528-6.042,0.622-7.57-2.032
		c-1.536-2.662-0.63-6.049,2.032-7.578l27.183-15.699c1.725-0.992,3.828-0.992,5.553,0l25.584,14.761l4.135,2.143
		c0.158,0.512,0.252,3.041,0.252,3.6v31.397c0,0.543-0.11,1.087-0.252,1.591c0.032,0.071,0.11,0.118,0.142,0.189l24.631,42.646
		c1.646,2.859,1.646,6.388,0,9.247l-12.123,21"/>
</g>
<path style="fill:#FF6D00;" d="M105.726,282.9c0,4.703,12.091,3.277,27.002,3.277c14.927,0,27.002,1.426,27.002-3.277
	c0-4.703-12.075-8.507-27.002-8.507C117.817,274.393,105.726,278.197,105.726,282.9z"/>
<path style="fill:#FF9100;" d="M132.728,282.766c-12.91,0-23.694,1.071-26.356-1.701c2.662-3.812,13.446-6.68,26.356-6.68
	c12.926,0,23.71,2.859,26.372,6.68C156.429,283.837,145.646,282.766,132.728,282.766z"/>
<path style="fill:#082856;" d="M123.236,271.699c0,2.93,2.387,5.301,5.309,5.301h8.381c2.938,0,5.309-2.371,5.309-5.301l0,0
	c0-2.922-2.371-5.293-5.309-5.293h-8.381C125.615,266.405,123.236,268.776,123.236,271.699L123.236,271.699z"/>
<path style="fill:#144682;" d="M128.537,266.405h8.381c2.032,0,3.757,1.142,4.655,2.796c-0.898,1.662-2.623,2.796-4.655,2.796
	h-8.381c-2.024,0-3.757-1.142-4.655-2.796C124.788,267.548,126.521,266.405,128.537,266.405z"/>
<path style="fill:#EA5706;" d="M164.235,380.392c-1.646,2.851-4.71,4.616-8.003,4.616h-49.254c-3.308,0-6.365-1.764-8.011-4.616
	l-24.34-42.157l-0.087-0.11l97.39,28.924L164.235,380.392z"/>
</svg>