<?xml version="1.0" encoding="iso-8859-1"?>
<!-- Uploaded to: SVG Repo, www.svgrepo.com, Generator: SVG Repo Mixer Tools -->
<svg version="1.1" id="Layer_1" xmlns="http://www.w3.org/2000/svg" xmlns:xlink="http://www.w3.org/1999/xlink" 
	 viewBox="0 0 504.123 504.123" xml:space="preserve">
<g>
	<path style="fill:#5E3417;" d="M168.213,119.784c0,0,10.831,110.277,0,110.277c0,0,19.692,4.923,33.477,3.938
		c13.785-0.985,39.385-16.738,39.385-16.738l-59.077-88.615L168.213,119.784z"/>
	<path style="fill:#5E3417;" d="M420.928,119.784c0,0-10.831,110.277,0,110.277c0,0-19.692,4.923-33.477,3.938
		c-13.785-0.985-39.385-16.738-39.385-16.738l59.077-88.615L420.928,119.784z"/>
</g>
<g>
	<path style="fill:#232728;" d="M394.217,315.242c0,126.322-44.599,84.259-99.643,84.259c-55.028,0-99.643,42.063-99.643-84.259
		c0-72.231,44.631-130.788,99.643-130.788C349.603,184.462,394.217,243.019,394.217,315.242z"/>
	<path style="fill:#232728;" d="M270.723,361.905c0,19.511-15.817,124.676-35.336,124.676c-19.495,0-35.304-105.173-35.304-124.676
		c0-19.495,15.817-35.32,35.304-35.32C254.906,326.585,270.723,342.418,270.723,361.905z"/>
	<path style="fill:#232728;" d="M389.082,361.905c0,19.511-15.817,124.676-35.336,124.676c-19.495,0-35.304-105.173-35.304-124.676
		c0-19.495,15.817-35.32,35.304-35.32C373.265,326.585,389.082,342.418,389.082,361.905z"/>
</g>
<path style="fill:#383E3F;" d="M275.142,487.219c0,14.935-17.802,16.904-39.739,16.904c-21.937,0-39.739-1.969-39.739-16.904
	c0-14.935,17.802-35.509,39.739-35.509C257.34,451.71,275.142,472.277,275.142,487.219z"/>
<path style="fill:#232728;" d="M275.142,487.219c0,14.935-17.802,16.904-39.739,16.904c-21.937,0-39.739-1.969-39.739-16.904"/>
<path style="fill:#383E3F;" d="M393.493,487.219c0,14.935-17.802,16.904-39.739,16.904s-39.739-1.969-39.739-16.904
	c0-14.935,17.802-35.509,39.739-35.509S393.493,472.277,393.493,487.219z"/>
<g>
	<path style="fill:#232728;" d="M393.493,487.219c0,14.935-17.802,16.904-39.739,16.904s-39.739-1.969-39.739-16.904"/>
	<path style="fill:#232728;" d="M283.586,203.768c10.027,11.28,3.663,33.296-14.218,49.215
		c-17.881,15.896-114.018,85.031-124.062,73.767c-10.012-11.296,69.892-98.706,87.773-114.601
		C250.936,196.246,273.559,192.496,283.586,203.768z"/>
	<path style="fill:#232728;" d="M305.555,203.768c-10.027,11.28-3.663,33.296,14.218,49.215
		c17.881,15.896,114.018,85.031,124.062,73.767c10.012-11.296-69.892-98.706-87.773-114.601
		C338.205,196.246,315.582,192.496,305.555,203.768z"/>
</g>
<rect x="273.882" y="199.538" style="fill:#E2DED3;" width="41.354" height="178.215"/>
<path style="fill:#C6BFAF;" d="M273.89,233.661c6.751,0.63,13.627,1.032,20.693,1.032c7.05,0,13.926-0.402,20.661-1.032v-34.123
	H273.89V233.661z"/>
<polygon style="fill:#444849;" points="300.695,218.569 310.943,322.465 294.566,334.352 278.198,322.465 288.454,218.569 "/>
<polyline style="fill:#232728;" points="288.454,218.569 300.695,218.569 310.943,322.465 294.566,334.352 "/>
<path style="fill:#7A4A2A;" d="M423.527,124.258c0,63-57.738,94.681-128.937,94.681c-71.215,0-128.969-31.673-128.969-94.681
	C165.621,61.227,223.375,0,294.59,0C365.79,0,423.527,61.227,423.527,124.258z"/>
<path style="fill:#F9C1AC;" d="M423.527,124.258c0,63-57.738,94.681-128.937,94.681c-71.215,0-128.969-31.673-128.969-94.681
	c0-63.031,57.754-74.382,128.969-74.382C365.79,49.877,423.527,61.227,423.527,124.258z"/>
<path style="fill:#F2B09C;" d="M423.527,124.258c0,63-57.738,94.681-128.937,94.681c-71.215,0-128.969-31.673-128.969-94.681"/>
<circle style="fill:#113E49;" cx="233.237" cy="151.198" r="11.532"/>
<path d="M244.784,151.198c0,6.388-5.167,11.54-11.54,11.54c-6.372,0-11.524-5.152-11.524-11.54"/>
<path style="fill:#FFD3C5;" d="M256.001,175.246c-0.614,0-1.245-0.213-1.725-0.709c-5.632-5.632-13.107-8.72-21.047-8.72h-0.016
	c-7.94,0-15.399,3.096-21,8.704c-0.953,0.953-2.489,0.985-3.434,0.016c-0.953-0.922-0.985-2.458-0.032-3.419
	c6.538-6.554,15.218-10.169,24.458-10.169h0.016c9.263,0,17.952,3.6,24.505,10.153c0.937,0.937,0.937,2.505,0,3.434
	C257.261,175.033,256.647,175.246,256.001,175.246z"/>
<circle style="fill:#113E49;" cx="355.904" cy="151.198" r="11.532"/>
<path d="M344.372,151.198c0,6.388,5.151,11.54,11.54,11.54c6.372,0,11.524-5.152,11.524-11.54"/>
<path style="fill:#FFD3C5;" d="M333.156,175.246c0.599,0,1.229-0.213,1.709-0.709c5.632-5.632,13.107-8.72,21.047-8.72h0.016
	c7.94,0,15.415,3.096,21.016,8.704c0.937,0.953,2.473,0.985,3.434,0.016c0.953-0.922,0.969-2.458,0.016-3.419
	c-6.506-6.554-15.218-10.169-24.458-10.169h-0.016c-9.248,0-17.936,3.6-24.505,10.153c-0.922,0.937-0.922,2.505,0,3.434
	C331.895,175.033,332.51,175.246,333.156,175.246z"/>
<path style="fill:#AA1111;" d="M266.139,198.443c0-6.152,12.737-11.154,28.428-11.154c15.691,0,28.428,5.002,28.428,11.154
	c0,6.152-12.737,2.473-28.428,2.473C278.876,200.917,266.139,204.603,266.139,198.443z"/>
<g>
	<path style="fill:#232728;" d="M79.337,373.027c2.993,3.001,7.861,3.001,10.854,0l23.528-23.521c2.993-3.001,2.993-7.861,0-10.862
		l-9.5-9.492c-3.001-3.001-7.861-3.001-10.862,0l-23.52,23.52c-3.001,3.001-3.001,7.861,0,10.862L79.337,373.027z"/>
	<path style="fill:#232728;" d="M75.832,358.904c1.071-1.063,1.071-2.788,0-3.86l-8.365-8.357c-1.063-1.079-2.796-1.079-3.86,0
		l-3.379,3.371c-1.071,1.079-1.071,2.796,0,3.86l8.365,8.365c1.079,1.063,2.804,1.063,3.875,0L75.832,358.904z"/>
	<path style="fill:#232728;" d="M149.694,337.061c3.001,3.001,7.861,3.001,10.854,0l3.395-3.387c3.001-3.001,3.001-7.861,0-10.862
		l-12.217-12.217c-2.993-3.001-7.853-3.001-10.854,0l-3.403,3.403c-2.993,3.001-2.993,7.861,0,10.847L149.694,337.061z"/>
	<path style="fill:#232728;" d="M151.726,310.603c3.001,3.001,3.009,7.861,0,10.862l-39.361,39.353
		c-2.993,3.001-7.861,3.001-10.854,0l-21.039-21.031c-3.001-3.001-3.001-7.861,0-10.862l39.361-39.369
		c2.985-2.985,7.845-2.985,10.862,0L151.726,310.603z"/>
</g>
<path style="fill:#3D4344;" d="M80.472,328.925l39.361-39.369c2.985-2.985,7.845-2.985,10.862,0l8.814,8.83
	c3.001,3.001,3.001,7.861,0,10.862l-39.361,39.353c-2.993,3.001-7.861,3.001-10.854,0l-8.822-8.814
	C77.471,336.786,77.471,331.926,80.472,328.925z"/>
<rect x="263.06" y="19.038" transform="matrix(-0.7071 0.7071 -0.7071 -0.7071 538.5884 -122.0087)" style="fill:#7A4A2A;" width="63.007" height="63.007"/>
</svg>